%TF.GenerationSoftware,KiCad,Pcbnew,(5.1.10)-1*%
%TF.CreationDate,2021-10-02T14:55:05+00:00*%
%TF.ProjectId,watermixer,77617465-726d-4697-9865-722e6b696361,v1.0*%
%TF.SameCoordinates,Original*%
%TF.FileFunction,Legend,Top*%
%TF.FilePolarity,Positive*%
%FSLAX46Y46*%
G04 Gerber Fmt 4.6, Leading zero omitted, Abs format (unit mm)*
G04 Created by KiCad (PCBNEW (5.1.10)-1) date 2021-10-02 14:55:05*
%MOMM*%
%LPD*%
G01*
G04 APERTURE LIST*
%ADD10C,0.300000*%
%ADD11C,0.150000*%
%ADD12C,0.120000*%
%ADD13C,1.000000*%
%ADD14C,0.450000*%
%ADD15C,0.400000*%
G04 APERTURE END LIST*
D10*
X178847857Y-33063571D02*
X177990714Y-33063571D01*
X178419285Y-33063571D02*
X178419285Y-31563571D01*
X178276428Y-31777857D01*
X178133571Y-31920714D01*
X177990714Y-31992142D01*
X179419285Y-31706428D02*
X179490714Y-31635000D01*
X179633571Y-31563571D01*
X179990714Y-31563571D01*
X180133571Y-31635000D01*
X180205000Y-31706428D01*
X180276428Y-31849285D01*
X180276428Y-31992142D01*
X180205000Y-32206428D01*
X179347857Y-33063571D01*
X180276428Y-33063571D01*
X180776428Y-32063571D02*
X181133571Y-33063571D01*
X181490714Y-32063571D01*
X178760714Y-111573571D02*
X179689285Y-111573571D01*
X179189285Y-112145000D01*
X179403571Y-112145000D01*
X179546428Y-112216428D01*
X179617857Y-112287857D01*
X179689285Y-112430714D01*
X179689285Y-112787857D01*
X179617857Y-112930714D01*
X179546428Y-113002142D01*
X179403571Y-113073571D01*
X178975000Y-113073571D01*
X178832142Y-113002142D01*
X178760714Y-112930714D01*
X180332142Y-112930714D02*
X180403571Y-113002142D01*
X180332142Y-113073571D01*
X180260714Y-113002142D01*
X180332142Y-112930714D01*
X180332142Y-113073571D01*
X180903571Y-111573571D02*
X181832142Y-111573571D01*
X181332142Y-112145000D01*
X181546428Y-112145000D01*
X181689285Y-112216428D01*
X181760714Y-112287857D01*
X181832142Y-112430714D01*
X181832142Y-112787857D01*
X181760714Y-112930714D01*
X181689285Y-113002142D01*
X181546428Y-113073571D01*
X181117857Y-113073571D01*
X180975000Y-113002142D01*
X180903571Y-112930714D01*
X182260714Y-111573571D02*
X182760714Y-113073571D01*
X183260714Y-111573571D01*
X129889285Y-52518571D02*
X129175000Y-52518571D01*
X129103571Y-53232857D01*
X129175000Y-53161428D01*
X129317857Y-53090000D01*
X129675000Y-53090000D01*
X129817857Y-53161428D01*
X129889285Y-53232857D01*
X129960714Y-53375714D01*
X129960714Y-53732857D01*
X129889285Y-53875714D01*
X129817857Y-53947142D01*
X129675000Y-54018571D01*
X129317857Y-54018571D01*
X129175000Y-53947142D01*
X129103571Y-53875714D01*
X130389285Y-52518571D02*
X130889285Y-54018571D01*
X131389285Y-52518571D01*
D11*
X76033571Y-29237380D02*
X76605000Y-29237380D01*
X76319285Y-30237380D02*
X76319285Y-29237380D01*
X77319285Y-30189761D02*
X77224047Y-30237380D01*
X77033571Y-30237380D01*
X76938333Y-30189761D01*
X76890714Y-30094523D01*
X76890714Y-29713571D01*
X76938333Y-29618333D01*
X77033571Y-29570714D01*
X77224047Y-29570714D01*
X77319285Y-29618333D01*
X77366904Y-29713571D01*
X77366904Y-29808809D01*
X76890714Y-29904047D01*
X77795476Y-30237380D02*
X77795476Y-29570714D01*
X77795476Y-29665952D02*
X77843095Y-29618333D01*
X77938333Y-29570714D01*
X78081190Y-29570714D01*
X78176428Y-29618333D01*
X78224047Y-29713571D01*
X78224047Y-30237380D01*
X78224047Y-29713571D02*
X78271666Y-29618333D01*
X78366904Y-29570714D01*
X78509761Y-29570714D01*
X78605000Y-29618333D01*
X78652619Y-29713571D01*
X78652619Y-30237380D01*
X79128809Y-29570714D02*
X79128809Y-30570714D01*
X79128809Y-29618333D02*
X79224047Y-29570714D01*
X79414523Y-29570714D01*
X79509761Y-29618333D01*
X79557380Y-29665952D01*
X79605000Y-29761190D01*
X79605000Y-30046904D01*
X79557380Y-30142142D01*
X79509761Y-30189761D01*
X79414523Y-30237380D01*
X79224047Y-30237380D01*
X79128809Y-30189761D01*
X80033571Y-30142142D02*
X80081190Y-30189761D01*
X80033571Y-30237380D01*
X79985952Y-30189761D01*
X80033571Y-30142142D01*
X80033571Y-30237380D01*
X77081190Y-31839761D02*
X77224047Y-31887380D01*
X77462142Y-31887380D01*
X77557380Y-31839761D01*
X77605000Y-31792142D01*
X77652619Y-31696904D01*
X77652619Y-31601666D01*
X77605000Y-31506428D01*
X77557380Y-31458809D01*
X77462142Y-31411190D01*
X77271666Y-31363571D01*
X77176428Y-31315952D01*
X77128809Y-31268333D01*
X77081190Y-31173095D01*
X77081190Y-31077857D01*
X77128809Y-30982619D01*
X77176428Y-30935000D01*
X77271666Y-30887380D01*
X77509761Y-30887380D01*
X77652619Y-30935000D01*
X78081190Y-31887380D02*
X78081190Y-30887380D01*
X79081190Y-30935000D02*
X78985952Y-30887380D01*
X78843095Y-30887380D01*
X78700238Y-30935000D01*
X78605000Y-31030238D01*
X78557380Y-31125476D01*
X78509761Y-31315952D01*
X78509761Y-31458809D01*
X78557380Y-31649285D01*
X78605000Y-31744523D01*
X78700238Y-31839761D01*
X78843095Y-31887380D01*
X78938333Y-31887380D01*
X79081190Y-31839761D01*
X79128809Y-31792142D01*
X79128809Y-31458809D01*
X78938333Y-31458809D01*
X76033571Y-34187380D02*
X76605000Y-34187380D01*
X76319285Y-35187380D02*
X76319285Y-34187380D01*
X77319285Y-35139761D02*
X77224047Y-35187380D01*
X77033571Y-35187380D01*
X76938333Y-35139761D01*
X76890714Y-35044523D01*
X76890714Y-34663571D01*
X76938333Y-34568333D01*
X77033571Y-34520714D01*
X77224047Y-34520714D01*
X77319285Y-34568333D01*
X77366904Y-34663571D01*
X77366904Y-34758809D01*
X76890714Y-34854047D01*
X77795476Y-35187380D02*
X77795476Y-34520714D01*
X77795476Y-34615952D02*
X77843095Y-34568333D01*
X77938333Y-34520714D01*
X78081190Y-34520714D01*
X78176428Y-34568333D01*
X78224047Y-34663571D01*
X78224047Y-35187380D01*
X78224047Y-34663571D02*
X78271666Y-34568333D01*
X78366904Y-34520714D01*
X78509761Y-34520714D01*
X78605000Y-34568333D01*
X78652619Y-34663571D01*
X78652619Y-35187380D01*
X79128809Y-34520714D02*
X79128809Y-35520714D01*
X79128809Y-34568333D02*
X79224047Y-34520714D01*
X79414523Y-34520714D01*
X79509761Y-34568333D01*
X79557380Y-34615952D01*
X79605000Y-34711190D01*
X79605000Y-34996904D01*
X79557380Y-35092142D01*
X79509761Y-35139761D01*
X79414523Y-35187380D01*
X79224047Y-35187380D01*
X79128809Y-35139761D01*
X80033571Y-35092142D02*
X80081190Y-35139761D01*
X80033571Y-35187380D01*
X79985952Y-35139761D01*
X80033571Y-35092142D01*
X80033571Y-35187380D01*
X77343095Y-35885000D02*
X77247857Y-35837380D01*
X77105000Y-35837380D01*
X76962142Y-35885000D01*
X76866904Y-35980238D01*
X76819285Y-36075476D01*
X76771666Y-36265952D01*
X76771666Y-36408809D01*
X76819285Y-36599285D01*
X76866904Y-36694523D01*
X76962142Y-36789761D01*
X77105000Y-36837380D01*
X77200238Y-36837380D01*
X77343095Y-36789761D01*
X77390714Y-36742142D01*
X77390714Y-36408809D01*
X77200238Y-36408809D01*
X77819285Y-36837380D02*
X77819285Y-35837380D01*
X78390714Y-36837380D01*
X78390714Y-35837380D01*
X78866904Y-36837380D02*
X78866904Y-35837380D01*
X79105000Y-35837380D01*
X79247857Y-35885000D01*
X79343095Y-35980238D01*
X79390714Y-36075476D01*
X79438333Y-36265952D01*
X79438333Y-36408809D01*
X79390714Y-36599285D01*
X79343095Y-36694523D01*
X79247857Y-36789761D01*
X79105000Y-36837380D01*
X78866904Y-36837380D01*
X76033571Y-39137380D02*
X76605000Y-39137380D01*
X76319285Y-40137380D02*
X76319285Y-39137380D01*
X77319285Y-40089761D02*
X77224047Y-40137380D01*
X77033571Y-40137380D01*
X76938333Y-40089761D01*
X76890714Y-39994523D01*
X76890714Y-39613571D01*
X76938333Y-39518333D01*
X77033571Y-39470714D01*
X77224047Y-39470714D01*
X77319285Y-39518333D01*
X77366904Y-39613571D01*
X77366904Y-39708809D01*
X76890714Y-39804047D01*
X77795476Y-40137380D02*
X77795476Y-39470714D01*
X77795476Y-39565952D02*
X77843095Y-39518333D01*
X77938333Y-39470714D01*
X78081190Y-39470714D01*
X78176428Y-39518333D01*
X78224047Y-39613571D01*
X78224047Y-40137380D01*
X78224047Y-39613571D02*
X78271666Y-39518333D01*
X78366904Y-39470714D01*
X78509761Y-39470714D01*
X78605000Y-39518333D01*
X78652619Y-39613571D01*
X78652619Y-40137380D01*
X79128809Y-39470714D02*
X79128809Y-40470714D01*
X79128809Y-39518333D02*
X79224047Y-39470714D01*
X79414523Y-39470714D01*
X79509761Y-39518333D01*
X79557380Y-39565952D01*
X79605000Y-39661190D01*
X79605000Y-39946904D01*
X79557380Y-40042142D01*
X79509761Y-40089761D01*
X79414523Y-40137380D01*
X79224047Y-40137380D01*
X79128809Y-40089761D01*
X80033571Y-40042142D02*
X80081190Y-40089761D01*
X80033571Y-40137380D01*
X79985952Y-40089761D01*
X80033571Y-40042142D01*
X80033571Y-40137380D01*
X76771666Y-40787380D02*
X77105000Y-41787380D01*
X77438333Y-40787380D01*
X78343095Y-41692142D02*
X78295476Y-41739761D01*
X78152619Y-41787380D01*
X78057380Y-41787380D01*
X77914523Y-41739761D01*
X77819285Y-41644523D01*
X77771666Y-41549285D01*
X77724047Y-41358809D01*
X77724047Y-41215952D01*
X77771666Y-41025476D01*
X77819285Y-40930238D01*
X77914523Y-40835000D01*
X78057380Y-40787380D01*
X78152619Y-40787380D01*
X78295476Y-40835000D01*
X78343095Y-40882619D01*
X79343095Y-41692142D02*
X79295476Y-41739761D01*
X79152619Y-41787380D01*
X79057380Y-41787380D01*
X78914523Y-41739761D01*
X78819285Y-41644523D01*
X78771666Y-41549285D01*
X78724047Y-41358809D01*
X78724047Y-41215952D01*
X78771666Y-41025476D01*
X78819285Y-40930238D01*
X78914523Y-40835000D01*
X79057380Y-40787380D01*
X79152619Y-40787380D01*
X79295476Y-40835000D01*
X79343095Y-40882619D01*
X74470000Y-46747380D02*
X74470000Y-45747380D01*
X74850952Y-45747380D01*
X74946190Y-45795000D01*
X74993809Y-45842619D01*
X75041428Y-45937857D01*
X75041428Y-46080714D01*
X74993809Y-46175952D01*
X74946190Y-46223571D01*
X74850952Y-46271190D01*
X74470000Y-46271190D01*
X75470000Y-46747380D02*
X75470000Y-46080714D01*
X75470000Y-46271190D02*
X75517619Y-46175952D01*
X75565238Y-46128333D01*
X75660476Y-46080714D01*
X75755714Y-46080714D01*
X76470000Y-46699761D02*
X76374761Y-46747380D01*
X76184285Y-46747380D01*
X76089047Y-46699761D01*
X76041428Y-46604523D01*
X76041428Y-46223571D01*
X76089047Y-46128333D01*
X76184285Y-46080714D01*
X76374761Y-46080714D01*
X76470000Y-46128333D01*
X76517619Y-46223571D01*
X76517619Y-46318809D01*
X76041428Y-46414047D01*
X76898571Y-46699761D02*
X76993809Y-46747380D01*
X77184285Y-46747380D01*
X77279523Y-46699761D01*
X77327142Y-46604523D01*
X77327142Y-46556904D01*
X77279523Y-46461666D01*
X77184285Y-46414047D01*
X77041428Y-46414047D01*
X76946190Y-46366428D01*
X76898571Y-46271190D01*
X76898571Y-46223571D01*
X76946190Y-46128333D01*
X77041428Y-46080714D01*
X77184285Y-46080714D01*
X77279523Y-46128333D01*
X77708095Y-46699761D02*
X77803333Y-46747380D01*
X77993809Y-46747380D01*
X78089047Y-46699761D01*
X78136666Y-46604523D01*
X78136666Y-46556904D01*
X78089047Y-46461666D01*
X77993809Y-46414047D01*
X77850952Y-46414047D01*
X77755714Y-46366428D01*
X77708095Y-46271190D01*
X77708095Y-46223571D01*
X77755714Y-46128333D01*
X77850952Y-46080714D01*
X77993809Y-46080714D01*
X78089047Y-46128333D01*
X78993809Y-46080714D02*
X78993809Y-46747380D01*
X78565238Y-46080714D02*
X78565238Y-46604523D01*
X78612857Y-46699761D01*
X78708095Y-46747380D01*
X78850952Y-46747380D01*
X78946190Y-46699761D01*
X78993809Y-46652142D01*
X79470000Y-46747380D02*
X79470000Y-46080714D01*
X79470000Y-46271190D02*
X79517619Y-46175952D01*
X79565238Y-46128333D01*
X79660476Y-46080714D01*
X79755714Y-46080714D01*
X80470000Y-46699761D02*
X80374761Y-46747380D01*
X80184285Y-46747380D01*
X80089047Y-46699761D01*
X80041428Y-46604523D01*
X80041428Y-46223571D01*
X80089047Y-46128333D01*
X80184285Y-46080714D01*
X80374761Y-46080714D01*
X80470000Y-46128333D01*
X80517619Y-46223571D01*
X80517619Y-46318809D01*
X80041428Y-46414047D01*
X76446190Y-48349761D02*
X76589047Y-48397380D01*
X76827142Y-48397380D01*
X76922380Y-48349761D01*
X76970000Y-48302142D01*
X77017619Y-48206904D01*
X77017619Y-48111666D01*
X76970000Y-48016428D01*
X76922380Y-47968809D01*
X76827142Y-47921190D01*
X76636666Y-47873571D01*
X76541428Y-47825952D01*
X76493809Y-47778333D01*
X76446190Y-47683095D01*
X76446190Y-47587857D01*
X76493809Y-47492619D01*
X76541428Y-47445000D01*
X76636666Y-47397380D01*
X76874761Y-47397380D01*
X77017619Y-47445000D01*
X77446190Y-48397380D02*
X77446190Y-47397380D01*
X78446190Y-47445000D02*
X78350952Y-47397380D01*
X78208095Y-47397380D01*
X78065238Y-47445000D01*
X77970000Y-47540238D01*
X77922380Y-47635476D01*
X77874761Y-47825952D01*
X77874761Y-47968809D01*
X77922380Y-48159285D01*
X77970000Y-48254523D01*
X78065238Y-48349761D01*
X78208095Y-48397380D01*
X78303333Y-48397380D01*
X78446190Y-48349761D01*
X78493809Y-48302142D01*
X78493809Y-47968809D01*
X78303333Y-47968809D01*
X74470000Y-51697380D02*
X74470000Y-50697380D01*
X74850952Y-50697380D01*
X74946190Y-50745000D01*
X74993809Y-50792619D01*
X75041428Y-50887857D01*
X75041428Y-51030714D01*
X74993809Y-51125952D01*
X74946190Y-51173571D01*
X74850952Y-51221190D01*
X74470000Y-51221190D01*
X75470000Y-51697380D02*
X75470000Y-51030714D01*
X75470000Y-51221190D02*
X75517619Y-51125952D01*
X75565238Y-51078333D01*
X75660476Y-51030714D01*
X75755714Y-51030714D01*
X76470000Y-51649761D02*
X76374761Y-51697380D01*
X76184285Y-51697380D01*
X76089047Y-51649761D01*
X76041428Y-51554523D01*
X76041428Y-51173571D01*
X76089047Y-51078333D01*
X76184285Y-51030714D01*
X76374761Y-51030714D01*
X76470000Y-51078333D01*
X76517619Y-51173571D01*
X76517619Y-51268809D01*
X76041428Y-51364047D01*
X76898571Y-51649761D02*
X76993809Y-51697380D01*
X77184285Y-51697380D01*
X77279523Y-51649761D01*
X77327142Y-51554523D01*
X77327142Y-51506904D01*
X77279523Y-51411666D01*
X77184285Y-51364047D01*
X77041428Y-51364047D01*
X76946190Y-51316428D01*
X76898571Y-51221190D01*
X76898571Y-51173571D01*
X76946190Y-51078333D01*
X77041428Y-51030714D01*
X77184285Y-51030714D01*
X77279523Y-51078333D01*
X77708095Y-51649761D02*
X77803333Y-51697380D01*
X77993809Y-51697380D01*
X78089047Y-51649761D01*
X78136666Y-51554523D01*
X78136666Y-51506904D01*
X78089047Y-51411666D01*
X77993809Y-51364047D01*
X77850952Y-51364047D01*
X77755714Y-51316428D01*
X77708095Y-51221190D01*
X77708095Y-51173571D01*
X77755714Y-51078333D01*
X77850952Y-51030714D01*
X77993809Y-51030714D01*
X78089047Y-51078333D01*
X78993809Y-51030714D02*
X78993809Y-51697380D01*
X78565238Y-51030714D02*
X78565238Y-51554523D01*
X78612857Y-51649761D01*
X78708095Y-51697380D01*
X78850952Y-51697380D01*
X78946190Y-51649761D01*
X78993809Y-51602142D01*
X79470000Y-51697380D02*
X79470000Y-51030714D01*
X79470000Y-51221190D02*
X79517619Y-51125952D01*
X79565238Y-51078333D01*
X79660476Y-51030714D01*
X79755714Y-51030714D01*
X80470000Y-51649761D02*
X80374761Y-51697380D01*
X80184285Y-51697380D01*
X80089047Y-51649761D01*
X80041428Y-51554523D01*
X80041428Y-51173571D01*
X80089047Y-51078333D01*
X80184285Y-51030714D01*
X80374761Y-51030714D01*
X80470000Y-51078333D01*
X80517619Y-51173571D01*
X80517619Y-51268809D01*
X80041428Y-51364047D01*
X76708095Y-52395000D02*
X76612857Y-52347380D01*
X76470000Y-52347380D01*
X76327142Y-52395000D01*
X76231904Y-52490238D01*
X76184285Y-52585476D01*
X76136666Y-52775952D01*
X76136666Y-52918809D01*
X76184285Y-53109285D01*
X76231904Y-53204523D01*
X76327142Y-53299761D01*
X76470000Y-53347380D01*
X76565238Y-53347380D01*
X76708095Y-53299761D01*
X76755714Y-53252142D01*
X76755714Y-52918809D01*
X76565238Y-52918809D01*
X77184285Y-53347380D02*
X77184285Y-52347380D01*
X77755714Y-53347380D01*
X77755714Y-52347380D01*
X78231904Y-53347380D02*
X78231904Y-52347380D01*
X78470000Y-52347380D01*
X78612857Y-52395000D01*
X78708095Y-52490238D01*
X78755714Y-52585476D01*
X78803333Y-52775952D01*
X78803333Y-52918809D01*
X78755714Y-53109285D01*
X78708095Y-53204523D01*
X78612857Y-53299761D01*
X78470000Y-53347380D01*
X78231904Y-53347380D01*
X74470000Y-56647380D02*
X74470000Y-55647380D01*
X74850952Y-55647380D01*
X74946190Y-55695000D01*
X74993809Y-55742619D01*
X75041428Y-55837857D01*
X75041428Y-55980714D01*
X74993809Y-56075952D01*
X74946190Y-56123571D01*
X74850952Y-56171190D01*
X74470000Y-56171190D01*
X75470000Y-56647380D02*
X75470000Y-55980714D01*
X75470000Y-56171190D02*
X75517619Y-56075952D01*
X75565238Y-56028333D01*
X75660476Y-55980714D01*
X75755714Y-55980714D01*
X76470000Y-56599761D02*
X76374761Y-56647380D01*
X76184285Y-56647380D01*
X76089047Y-56599761D01*
X76041428Y-56504523D01*
X76041428Y-56123571D01*
X76089047Y-56028333D01*
X76184285Y-55980714D01*
X76374761Y-55980714D01*
X76470000Y-56028333D01*
X76517619Y-56123571D01*
X76517619Y-56218809D01*
X76041428Y-56314047D01*
X76898571Y-56599761D02*
X76993809Y-56647380D01*
X77184285Y-56647380D01*
X77279523Y-56599761D01*
X77327142Y-56504523D01*
X77327142Y-56456904D01*
X77279523Y-56361666D01*
X77184285Y-56314047D01*
X77041428Y-56314047D01*
X76946190Y-56266428D01*
X76898571Y-56171190D01*
X76898571Y-56123571D01*
X76946190Y-56028333D01*
X77041428Y-55980714D01*
X77184285Y-55980714D01*
X77279523Y-56028333D01*
X77708095Y-56599761D02*
X77803333Y-56647380D01*
X77993809Y-56647380D01*
X78089047Y-56599761D01*
X78136666Y-56504523D01*
X78136666Y-56456904D01*
X78089047Y-56361666D01*
X77993809Y-56314047D01*
X77850952Y-56314047D01*
X77755714Y-56266428D01*
X77708095Y-56171190D01*
X77708095Y-56123571D01*
X77755714Y-56028333D01*
X77850952Y-55980714D01*
X77993809Y-55980714D01*
X78089047Y-56028333D01*
X78993809Y-55980714D02*
X78993809Y-56647380D01*
X78565238Y-55980714D02*
X78565238Y-56504523D01*
X78612857Y-56599761D01*
X78708095Y-56647380D01*
X78850952Y-56647380D01*
X78946190Y-56599761D01*
X78993809Y-56552142D01*
X79470000Y-56647380D02*
X79470000Y-55980714D01*
X79470000Y-56171190D02*
X79517619Y-56075952D01*
X79565238Y-56028333D01*
X79660476Y-55980714D01*
X79755714Y-55980714D01*
X80470000Y-56599761D02*
X80374761Y-56647380D01*
X80184285Y-56647380D01*
X80089047Y-56599761D01*
X80041428Y-56504523D01*
X80041428Y-56123571D01*
X80089047Y-56028333D01*
X80184285Y-55980714D01*
X80374761Y-55980714D01*
X80470000Y-56028333D01*
X80517619Y-56123571D01*
X80517619Y-56218809D01*
X80041428Y-56314047D01*
X76136666Y-57297380D02*
X76470000Y-58297380D01*
X76803333Y-57297380D01*
X77708095Y-58202142D02*
X77660476Y-58249761D01*
X77517619Y-58297380D01*
X77422380Y-58297380D01*
X77279523Y-58249761D01*
X77184285Y-58154523D01*
X77136666Y-58059285D01*
X77089047Y-57868809D01*
X77089047Y-57725952D01*
X77136666Y-57535476D01*
X77184285Y-57440238D01*
X77279523Y-57345000D01*
X77422380Y-57297380D01*
X77517619Y-57297380D01*
X77660476Y-57345000D01*
X77708095Y-57392619D01*
X78708095Y-58202142D02*
X78660476Y-58249761D01*
X78517619Y-58297380D01*
X78422380Y-58297380D01*
X78279523Y-58249761D01*
X78184285Y-58154523D01*
X78136666Y-58059285D01*
X78089047Y-57868809D01*
X78089047Y-57725952D01*
X78136666Y-57535476D01*
X78184285Y-57440238D01*
X78279523Y-57345000D01*
X78422380Y-57297380D01*
X78517619Y-57297380D01*
X78660476Y-57345000D01*
X78708095Y-57392619D01*
X178371714Y-77735380D02*
X178371714Y-76735380D01*
X178609809Y-76735380D01*
X178752666Y-76783000D01*
X178847904Y-76878238D01*
X178895523Y-76973476D01*
X178943142Y-77163952D01*
X178943142Y-77306809D01*
X178895523Y-77497285D01*
X178847904Y-77592523D01*
X178752666Y-77687761D01*
X178609809Y-77735380D01*
X178371714Y-77735380D01*
X179371714Y-77735380D02*
X179371714Y-77068714D01*
X179371714Y-77259190D02*
X179419333Y-77163952D01*
X179466952Y-77116333D01*
X179562190Y-77068714D01*
X179657428Y-77068714D01*
X180419333Y-77735380D02*
X180419333Y-77211571D01*
X180371714Y-77116333D01*
X180276476Y-77068714D01*
X180086000Y-77068714D01*
X179990761Y-77116333D01*
X180419333Y-77687761D02*
X180324095Y-77735380D01*
X180086000Y-77735380D01*
X179990761Y-77687761D01*
X179943142Y-77592523D01*
X179943142Y-77497285D01*
X179990761Y-77402047D01*
X180086000Y-77354428D01*
X180324095Y-77354428D01*
X180419333Y-77306809D01*
X180895523Y-77735380D02*
X180895523Y-77068714D01*
X180895523Y-76735380D02*
X180847904Y-76783000D01*
X180895523Y-76830619D01*
X180943142Y-76783000D01*
X180895523Y-76735380D01*
X180895523Y-76830619D01*
X181371714Y-77068714D02*
X181371714Y-77735380D01*
X181371714Y-77163952D02*
X181419333Y-77116333D01*
X181514571Y-77068714D01*
X181657428Y-77068714D01*
X181752666Y-77116333D01*
X181800285Y-77211571D01*
X181800285Y-77735380D01*
X178752666Y-78385380D02*
X179086000Y-79385380D01*
X179419333Y-78385380D01*
X180324095Y-79290142D02*
X180276476Y-79337761D01*
X180133619Y-79385380D01*
X180038380Y-79385380D01*
X179895523Y-79337761D01*
X179800285Y-79242523D01*
X179752666Y-79147285D01*
X179705047Y-78956809D01*
X179705047Y-78813952D01*
X179752666Y-78623476D01*
X179800285Y-78528238D01*
X179895523Y-78433000D01*
X180038380Y-78385380D01*
X180133619Y-78385380D01*
X180276476Y-78433000D01*
X180324095Y-78480619D01*
X181324095Y-79290142D02*
X181276476Y-79337761D01*
X181133619Y-79385380D01*
X181038380Y-79385380D01*
X180895523Y-79337761D01*
X180800285Y-79242523D01*
X180752666Y-79147285D01*
X180705047Y-78956809D01*
X180705047Y-78813952D01*
X180752666Y-78623476D01*
X180800285Y-78528238D01*
X180895523Y-78433000D01*
X181038380Y-78385380D01*
X181133619Y-78385380D01*
X181276476Y-78433000D01*
X181324095Y-78480619D01*
X178371714Y-82685380D02*
X178371714Y-81685380D01*
X178609809Y-81685380D01*
X178752666Y-81733000D01*
X178847904Y-81828238D01*
X178895523Y-81923476D01*
X178943142Y-82113952D01*
X178943142Y-82256809D01*
X178895523Y-82447285D01*
X178847904Y-82542523D01*
X178752666Y-82637761D01*
X178609809Y-82685380D01*
X178371714Y-82685380D01*
X179371714Y-82685380D02*
X179371714Y-82018714D01*
X179371714Y-82209190D02*
X179419333Y-82113952D01*
X179466952Y-82066333D01*
X179562190Y-82018714D01*
X179657428Y-82018714D01*
X180419333Y-82685380D02*
X180419333Y-82161571D01*
X180371714Y-82066333D01*
X180276476Y-82018714D01*
X180086000Y-82018714D01*
X179990761Y-82066333D01*
X180419333Y-82637761D02*
X180324095Y-82685380D01*
X180086000Y-82685380D01*
X179990761Y-82637761D01*
X179943142Y-82542523D01*
X179943142Y-82447285D01*
X179990761Y-82352047D01*
X180086000Y-82304428D01*
X180324095Y-82304428D01*
X180419333Y-82256809D01*
X180895523Y-82685380D02*
X180895523Y-82018714D01*
X180895523Y-81685380D02*
X180847904Y-81733000D01*
X180895523Y-81780619D01*
X180943142Y-81733000D01*
X180895523Y-81685380D01*
X180895523Y-81780619D01*
X181371714Y-82018714D02*
X181371714Y-82685380D01*
X181371714Y-82113952D02*
X181419333Y-82066333D01*
X181514571Y-82018714D01*
X181657428Y-82018714D01*
X181752666Y-82066333D01*
X181800285Y-82161571D01*
X181800285Y-82685380D01*
X179324095Y-83383000D02*
X179228857Y-83335380D01*
X179086000Y-83335380D01*
X178943142Y-83383000D01*
X178847904Y-83478238D01*
X178800285Y-83573476D01*
X178752666Y-83763952D01*
X178752666Y-83906809D01*
X178800285Y-84097285D01*
X178847904Y-84192523D01*
X178943142Y-84287761D01*
X179086000Y-84335380D01*
X179181238Y-84335380D01*
X179324095Y-84287761D01*
X179371714Y-84240142D01*
X179371714Y-83906809D01*
X179181238Y-83906809D01*
X179800285Y-84335380D02*
X179800285Y-83335380D01*
X180371714Y-84335380D01*
X180371714Y-83335380D01*
X180847904Y-84335380D02*
X180847904Y-83335380D01*
X181086000Y-83335380D01*
X181228857Y-83383000D01*
X181324095Y-83478238D01*
X181371714Y-83573476D01*
X181419333Y-83763952D01*
X181419333Y-83906809D01*
X181371714Y-84097285D01*
X181324095Y-84192523D01*
X181228857Y-84287761D01*
X181086000Y-84335380D01*
X180847904Y-84335380D01*
X178371714Y-87635380D02*
X178371714Y-86635380D01*
X178609809Y-86635380D01*
X178752666Y-86683000D01*
X178847904Y-86778238D01*
X178895523Y-86873476D01*
X178943142Y-87063952D01*
X178943142Y-87206809D01*
X178895523Y-87397285D01*
X178847904Y-87492523D01*
X178752666Y-87587761D01*
X178609809Y-87635380D01*
X178371714Y-87635380D01*
X179371714Y-87635380D02*
X179371714Y-86968714D01*
X179371714Y-87159190D02*
X179419333Y-87063952D01*
X179466952Y-87016333D01*
X179562190Y-86968714D01*
X179657428Y-86968714D01*
X180419333Y-87635380D02*
X180419333Y-87111571D01*
X180371714Y-87016333D01*
X180276476Y-86968714D01*
X180086000Y-86968714D01*
X179990761Y-87016333D01*
X180419333Y-87587761D02*
X180324095Y-87635380D01*
X180086000Y-87635380D01*
X179990761Y-87587761D01*
X179943142Y-87492523D01*
X179943142Y-87397285D01*
X179990761Y-87302047D01*
X180086000Y-87254428D01*
X180324095Y-87254428D01*
X180419333Y-87206809D01*
X180895523Y-87635380D02*
X180895523Y-86968714D01*
X180895523Y-86635380D02*
X180847904Y-86683000D01*
X180895523Y-86730619D01*
X180943142Y-86683000D01*
X180895523Y-86635380D01*
X180895523Y-86730619D01*
X181371714Y-86968714D02*
X181371714Y-87635380D01*
X181371714Y-87063952D02*
X181419333Y-87016333D01*
X181514571Y-86968714D01*
X181657428Y-86968714D01*
X181752666Y-87016333D01*
X181800285Y-87111571D01*
X181800285Y-87635380D01*
X179062190Y-89237761D02*
X179205047Y-89285380D01*
X179443142Y-89285380D01*
X179538380Y-89237761D01*
X179586000Y-89190142D01*
X179633619Y-89094904D01*
X179633619Y-88999666D01*
X179586000Y-88904428D01*
X179538380Y-88856809D01*
X179443142Y-88809190D01*
X179252666Y-88761571D01*
X179157428Y-88713952D01*
X179109809Y-88666333D01*
X179062190Y-88571095D01*
X179062190Y-88475857D01*
X179109809Y-88380619D01*
X179157428Y-88333000D01*
X179252666Y-88285380D01*
X179490761Y-88285380D01*
X179633619Y-88333000D01*
X180062190Y-89285380D02*
X180062190Y-88285380D01*
X181062190Y-88333000D02*
X180966952Y-88285380D01*
X180824095Y-88285380D01*
X180681238Y-88333000D01*
X180586000Y-88428238D01*
X180538380Y-88523476D01*
X180490761Y-88713952D01*
X180490761Y-88856809D01*
X180538380Y-89047285D01*
X180586000Y-89142523D01*
X180681238Y-89237761D01*
X180824095Y-89285380D01*
X180919333Y-89285380D01*
X181062190Y-89237761D01*
X181109809Y-89190142D01*
X181109809Y-88856809D01*
X180919333Y-88856809D01*
X179062190Y-46180380D02*
X179062190Y-45180380D01*
X179062190Y-45656571D02*
X179633619Y-45656571D01*
X179633619Y-46180380D02*
X179633619Y-45180380D01*
X180252666Y-46180380D02*
X180157428Y-46132761D01*
X180109809Y-46085142D01*
X180062190Y-45989904D01*
X180062190Y-45704190D01*
X180109809Y-45608952D01*
X180157428Y-45561333D01*
X180252666Y-45513714D01*
X180395523Y-45513714D01*
X180490761Y-45561333D01*
X180538380Y-45608952D01*
X180586000Y-45704190D01*
X180586000Y-45989904D01*
X180538380Y-46085142D01*
X180490761Y-46132761D01*
X180395523Y-46180380D01*
X180252666Y-46180380D01*
X180871714Y-45513714D02*
X181252666Y-45513714D01*
X181014571Y-45180380D02*
X181014571Y-46037523D01*
X181062190Y-46132761D01*
X181157428Y-46180380D01*
X181252666Y-46180380D01*
X178752666Y-46830380D02*
X179086000Y-47830380D01*
X179419333Y-46830380D01*
X180324095Y-47735142D02*
X180276476Y-47782761D01*
X180133619Y-47830380D01*
X180038380Y-47830380D01*
X179895523Y-47782761D01*
X179800285Y-47687523D01*
X179752666Y-47592285D01*
X179705047Y-47401809D01*
X179705047Y-47258952D01*
X179752666Y-47068476D01*
X179800285Y-46973238D01*
X179895523Y-46878000D01*
X180038380Y-46830380D01*
X180133619Y-46830380D01*
X180276476Y-46878000D01*
X180324095Y-46925619D01*
X181324095Y-47735142D02*
X181276476Y-47782761D01*
X181133619Y-47830380D01*
X181038380Y-47830380D01*
X180895523Y-47782761D01*
X180800285Y-47687523D01*
X180752666Y-47592285D01*
X180705047Y-47401809D01*
X180705047Y-47258952D01*
X180752666Y-47068476D01*
X180800285Y-46973238D01*
X180895523Y-46878000D01*
X181038380Y-46830380D01*
X181133619Y-46830380D01*
X181276476Y-46878000D01*
X181324095Y-46925619D01*
X179062190Y-51130380D02*
X179062190Y-50130380D01*
X179062190Y-50606571D02*
X179633619Y-50606571D01*
X179633619Y-51130380D02*
X179633619Y-50130380D01*
X180252666Y-51130380D02*
X180157428Y-51082761D01*
X180109809Y-51035142D01*
X180062190Y-50939904D01*
X180062190Y-50654190D01*
X180109809Y-50558952D01*
X180157428Y-50511333D01*
X180252666Y-50463714D01*
X180395523Y-50463714D01*
X180490761Y-50511333D01*
X180538380Y-50558952D01*
X180586000Y-50654190D01*
X180586000Y-50939904D01*
X180538380Y-51035142D01*
X180490761Y-51082761D01*
X180395523Y-51130380D01*
X180252666Y-51130380D01*
X180871714Y-50463714D02*
X181252666Y-50463714D01*
X181014571Y-50130380D02*
X181014571Y-50987523D01*
X181062190Y-51082761D01*
X181157428Y-51130380D01*
X181252666Y-51130380D01*
X179324095Y-51828000D02*
X179228857Y-51780380D01*
X179086000Y-51780380D01*
X178943142Y-51828000D01*
X178847904Y-51923238D01*
X178800285Y-52018476D01*
X178752666Y-52208952D01*
X178752666Y-52351809D01*
X178800285Y-52542285D01*
X178847904Y-52637523D01*
X178943142Y-52732761D01*
X179086000Y-52780380D01*
X179181238Y-52780380D01*
X179324095Y-52732761D01*
X179371714Y-52685142D01*
X179371714Y-52351809D01*
X179181238Y-52351809D01*
X179800285Y-52780380D02*
X179800285Y-51780380D01*
X180371714Y-52780380D01*
X180371714Y-51780380D01*
X180847904Y-52780380D02*
X180847904Y-51780380D01*
X181086000Y-51780380D01*
X181228857Y-51828000D01*
X181324095Y-51923238D01*
X181371714Y-52018476D01*
X181419333Y-52208952D01*
X181419333Y-52351809D01*
X181371714Y-52542285D01*
X181324095Y-52637523D01*
X181228857Y-52732761D01*
X181086000Y-52780380D01*
X180847904Y-52780380D01*
X179062190Y-56080380D02*
X179062190Y-55080380D01*
X179062190Y-55556571D02*
X179633619Y-55556571D01*
X179633619Y-56080380D02*
X179633619Y-55080380D01*
X180252666Y-56080380D02*
X180157428Y-56032761D01*
X180109809Y-55985142D01*
X180062190Y-55889904D01*
X180062190Y-55604190D01*
X180109809Y-55508952D01*
X180157428Y-55461333D01*
X180252666Y-55413714D01*
X180395523Y-55413714D01*
X180490761Y-55461333D01*
X180538380Y-55508952D01*
X180586000Y-55604190D01*
X180586000Y-55889904D01*
X180538380Y-55985142D01*
X180490761Y-56032761D01*
X180395523Y-56080380D01*
X180252666Y-56080380D01*
X180871714Y-55413714D02*
X181252666Y-55413714D01*
X181014571Y-55080380D02*
X181014571Y-55937523D01*
X181062190Y-56032761D01*
X181157428Y-56080380D01*
X181252666Y-56080380D01*
X179062190Y-57682761D02*
X179205047Y-57730380D01*
X179443142Y-57730380D01*
X179538380Y-57682761D01*
X179586000Y-57635142D01*
X179633619Y-57539904D01*
X179633619Y-57444666D01*
X179586000Y-57349428D01*
X179538380Y-57301809D01*
X179443142Y-57254190D01*
X179252666Y-57206571D01*
X179157428Y-57158952D01*
X179109809Y-57111333D01*
X179062190Y-57016095D01*
X179062190Y-56920857D01*
X179109809Y-56825619D01*
X179157428Y-56778000D01*
X179252666Y-56730380D01*
X179490761Y-56730380D01*
X179633619Y-56778000D01*
X180062190Y-57730380D02*
X180062190Y-56730380D01*
X181062190Y-56778000D02*
X180966952Y-56730380D01*
X180824095Y-56730380D01*
X180681238Y-56778000D01*
X180586000Y-56873238D01*
X180538380Y-56968476D01*
X180490761Y-57158952D01*
X180490761Y-57301809D01*
X180538380Y-57492285D01*
X180586000Y-57587523D01*
X180681238Y-57682761D01*
X180824095Y-57730380D01*
X180919333Y-57730380D01*
X181062190Y-57682761D01*
X181109809Y-57635142D01*
X181109809Y-57301809D01*
X180919333Y-57301809D01*
X179228857Y-60935142D02*
X179181238Y-60982761D01*
X179038380Y-61030380D01*
X178943142Y-61030380D01*
X178800285Y-60982761D01*
X178705047Y-60887523D01*
X178657428Y-60792285D01*
X178609809Y-60601809D01*
X178609809Y-60458952D01*
X178657428Y-60268476D01*
X178705047Y-60173238D01*
X178800285Y-60078000D01*
X178943142Y-60030380D01*
X179038380Y-60030380D01*
X179181238Y-60078000D01*
X179228857Y-60125619D01*
X179800285Y-61030380D02*
X179705047Y-60982761D01*
X179657428Y-60935142D01*
X179609809Y-60839904D01*
X179609809Y-60554190D01*
X179657428Y-60458952D01*
X179705047Y-60411333D01*
X179800285Y-60363714D01*
X179943142Y-60363714D01*
X180038380Y-60411333D01*
X180086000Y-60458952D01*
X180133619Y-60554190D01*
X180133619Y-60839904D01*
X180086000Y-60935142D01*
X180038380Y-60982761D01*
X179943142Y-61030380D01*
X179800285Y-61030380D01*
X180705047Y-61030380D02*
X180609809Y-60982761D01*
X180562190Y-60887523D01*
X180562190Y-60030380D01*
X181514571Y-61030380D02*
X181514571Y-60030380D01*
X181514571Y-60982761D02*
X181419333Y-61030380D01*
X181228857Y-61030380D01*
X181133619Y-60982761D01*
X181086000Y-60935142D01*
X181038380Y-60839904D01*
X181038380Y-60554190D01*
X181086000Y-60458952D01*
X181133619Y-60411333D01*
X181228857Y-60363714D01*
X181419333Y-60363714D01*
X181514571Y-60411333D01*
X178752666Y-61680380D02*
X179086000Y-62680380D01*
X179419333Y-61680380D01*
X180324095Y-62585142D02*
X180276476Y-62632761D01*
X180133619Y-62680380D01*
X180038380Y-62680380D01*
X179895523Y-62632761D01*
X179800285Y-62537523D01*
X179752666Y-62442285D01*
X179705047Y-62251809D01*
X179705047Y-62108952D01*
X179752666Y-61918476D01*
X179800285Y-61823238D01*
X179895523Y-61728000D01*
X180038380Y-61680380D01*
X180133619Y-61680380D01*
X180276476Y-61728000D01*
X180324095Y-61775619D01*
X181324095Y-62585142D02*
X181276476Y-62632761D01*
X181133619Y-62680380D01*
X181038380Y-62680380D01*
X180895523Y-62632761D01*
X180800285Y-62537523D01*
X180752666Y-62442285D01*
X180705047Y-62251809D01*
X180705047Y-62108952D01*
X180752666Y-61918476D01*
X180800285Y-61823238D01*
X180895523Y-61728000D01*
X181038380Y-61680380D01*
X181133619Y-61680380D01*
X181276476Y-61728000D01*
X181324095Y-61775619D01*
X179228857Y-65885142D02*
X179181238Y-65932761D01*
X179038380Y-65980380D01*
X178943142Y-65980380D01*
X178800285Y-65932761D01*
X178705047Y-65837523D01*
X178657428Y-65742285D01*
X178609809Y-65551809D01*
X178609809Y-65408952D01*
X178657428Y-65218476D01*
X178705047Y-65123238D01*
X178800285Y-65028000D01*
X178943142Y-64980380D01*
X179038380Y-64980380D01*
X179181238Y-65028000D01*
X179228857Y-65075619D01*
X179800285Y-65980380D02*
X179705047Y-65932761D01*
X179657428Y-65885142D01*
X179609809Y-65789904D01*
X179609809Y-65504190D01*
X179657428Y-65408952D01*
X179705047Y-65361333D01*
X179800285Y-65313714D01*
X179943142Y-65313714D01*
X180038380Y-65361333D01*
X180086000Y-65408952D01*
X180133619Y-65504190D01*
X180133619Y-65789904D01*
X180086000Y-65885142D01*
X180038380Y-65932761D01*
X179943142Y-65980380D01*
X179800285Y-65980380D01*
X180705047Y-65980380D02*
X180609809Y-65932761D01*
X180562190Y-65837523D01*
X180562190Y-64980380D01*
X181514571Y-65980380D02*
X181514571Y-64980380D01*
X181514571Y-65932761D02*
X181419333Y-65980380D01*
X181228857Y-65980380D01*
X181133619Y-65932761D01*
X181086000Y-65885142D01*
X181038380Y-65789904D01*
X181038380Y-65504190D01*
X181086000Y-65408952D01*
X181133619Y-65361333D01*
X181228857Y-65313714D01*
X181419333Y-65313714D01*
X181514571Y-65361333D01*
X179324095Y-66678000D02*
X179228857Y-66630380D01*
X179086000Y-66630380D01*
X178943142Y-66678000D01*
X178847904Y-66773238D01*
X178800285Y-66868476D01*
X178752666Y-67058952D01*
X178752666Y-67201809D01*
X178800285Y-67392285D01*
X178847904Y-67487523D01*
X178943142Y-67582761D01*
X179086000Y-67630380D01*
X179181238Y-67630380D01*
X179324095Y-67582761D01*
X179371714Y-67535142D01*
X179371714Y-67201809D01*
X179181238Y-67201809D01*
X179800285Y-67630380D02*
X179800285Y-66630380D01*
X180371714Y-67630380D01*
X180371714Y-66630380D01*
X180847904Y-67630380D02*
X180847904Y-66630380D01*
X181086000Y-66630380D01*
X181228857Y-66678000D01*
X181324095Y-66773238D01*
X181371714Y-66868476D01*
X181419333Y-67058952D01*
X181419333Y-67201809D01*
X181371714Y-67392285D01*
X181324095Y-67487523D01*
X181228857Y-67582761D01*
X181086000Y-67630380D01*
X180847904Y-67630380D01*
X179228857Y-70835142D02*
X179181238Y-70882761D01*
X179038380Y-70930380D01*
X178943142Y-70930380D01*
X178800285Y-70882761D01*
X178705047Y-70787523D01*
X178657428Y-70692285D01*
X178609809Y-70501809D01*
X178609809Y-70358952D01*
X178657428Y-70168476D01*
X178705047Y-70073238D01*
X178800285Y-69978000D01*
X178943142Y-69930380D01*
X179038380Y-69930380D01*
X179181238Y-69978000D01*
X179228857Y-70025619D01*
X179800285Y-70930380D02*
X179705047Y-70882761D01*
X179657428Y-70835142D01*
X179609809Y-70739904D01*
X179609809Y-70454190D01*
X179657428Y-70358952D01*
X179705047Y-70311333D01*
X179800285Y-70263714D01*
X179943142Y-70263714D01*
X180038380Y-70311333D01*
X180086000Y-70358952D01*
X180133619Y-70454190D01*
X180133619Y-70739904D01*
X180086000Y-70835142D01*
X180038380Y-70882761D01*
X179943142Y-70930380D01*
X179800285Y-70930380D01*
X180705047Y-70930380D02*
X180609809Y-70882761D01*
X180562190Y-70787523D01*
X180562190Y-69930380D01*
X181514571Y-70930380D02*
X181514571Y-69930380D01*
X181514571Y-70882761D02*
X181419333Y-70930380D01*
X181228857Y-70930380D01*
X181133619Y-70882761D01*
X181086000Y-70835142D01*
X181038380Y-70739904D01*
X181038380Y-70454190D01*
X181086000Y-70358952D01*
X181133619Y-70311333D01*
X181228857Y-70263714D01*
X181419333Y-70263714D01*
X181514571Y-70311333D01*
X179062190Y-72532761D02*
X179205047Y-72580380D01*
X179443142Y-72580380D01*
X179538380Y-72532761D01*
X179586000Y-72485142D01*
X179633619Y-72389904D01*
X179633619Y-72294666D01*
X179586000Y-72199428D01*
X179538380Y-72151809D01*
X179443142Y-72104190D01*
X179252666Y-72056571D01*
X179157428Y-72008952D01*
X179109809Y-71961333D01*
X179062190Y-71866095D01*
X179062190Y-71770857D01*
X179109809Y-71675619D01*
X179157428Y-71628000D01*
X179252666Y-71580380D01*
X179490761Y-71580380D01*
X179633619Y-71628000D01*
X180062190Y-72580380D02*
X180062190Y-71580380D01*
X181062190Y-71628000D02*
X180966952Y-71580380D01*
X180824095Y-71580380D01*
X180681238Y-71628000D01*
X180586000Y-71723238D01*
X180538380Y-71818476D01*
X180490761Y-72008952D01*
X180490761Y-72151809D01*
X180538380Y-72342285D01*
X180586000Y-72437523D01*
X180681238Y-72532761D01*
X180824095Y-72580380D01*
X180919333Y-72580380D01*
X181062190Y-72532761D01*
X181109809Y-72485142D01*
X181109809Y-72151809D01*
X180919333Y-72151809D01*
D12*
%TO.C,R1*%
X97382000Y-44990000D02*
X97052000Y-44990000D01*
X97382000Y-51530000D02*
X97382000Y-44990000D01*
X97052000Y-51530000D02*
X97382000Y-51530000D01*
X94642000Y-44990000D02*
X94972000Y-44990000D01*
X94642000Y-51530000D02*
X94642000Y-44990000D01*
X94972000Y-51530000D02*
X94642000Y-51530000D01*
D13*
%TO.C,U5*%
X133469000Y-26924000D02*
G75*
G03*
X133469000Y-26924000I-500000J0D01*
G01*
D12*
X108839000Y-37592000D02*
X108839000Y-28532000D01*
X108839000Y-28532000D02*
X134439000Y-28532000D01*
X134439000Y-37592000D02*
X134439000Y-28532000D01*
X108839000Y-37592000D02*
X134439000Y-37592000D01*
X138557000Y-38608000D02*
X138557000Y-38608000D01*
%TO.C,C1*%
X167973000Y-99553698D02*
X168773000Y-99553698D01*
X168373000Y-99953698D02*
X168373000Y-99153698D01*
X174808000Y-95544000D02*
G75*
G03*
X174808000Y-95544000I-4120000J0D01*
G01*
D13*
%TO.C,U4*%
X155948000Y-41656000D02*
G75*
G03*
X155948000Y-41656000I-500000J0D01*
G01*
D12*
X166116000Y-65786000D02*
X157056000Y-65786000D01*
X157056000Y-65786000D02*
X157056000Y-40186000D01*
X166116000Y-40186000D02*
X157056000Y-40186000D01*
X166116000Y-65786000D02*
X166116000Y-40186000D01*
X167132000Y-36068000D02*
X167132000Y-36068000D01*
%TO.C,U1*%
X158350000Y-123498000D02*
X80650000Y-123498000D01*
X80650000Y-123498000D02*
X80650000Y-68698000D01*
X158350000Y-68698000D02*
X80650000Y-68698000D01*
X158350000Y-123498000D02*
X158350000Y-68698000D01*
X163750000Y-123598000D02*
X74450000Y-123598000D01*
X74450000Y-123598000D02*
X74450000Y-68598000D01*
X74450000Y-68598000D02*
X163750000Y-68598000D01*
X163750000Y-68598000D02*
X163750000Y-123598000D01*
%TO.C,JPress1*%
X73939400Y-59690000D02*
X86156800Y-59690000D01*
X73939400Y-44450000D02*
X73939400Y-59690000D01*
X86156800Y-44450000D02*
X73939400Y-44450000D01*
X86156800Y-59690000D02*
X86156800Y-44450000D01*
%TO.C,JTemp1*%
X73939400Y-43180000D02*
X86156800Y-43180000D01*
X73939400Y-27940000D02*
X73939400Y-43180000D01*
X86156800Y-27940000D02*
X73939400Y-27940000D01*
X86156800Y-43180000D02*
X86156800Y-27940000D01*
%TO.C,C3*%
X166045000Y-31710000D02*
G75*
G03*
X166045000Y-31710000I-4120000J0D01*
G01*
X164240000Y-27300302D02*
X164240000Y-28100302D01*
X164640000Y-27700302D02*
X163840000Y-27700302D01*
%TO.C,C2*%
X101425000Y-54214698D02*
X102225000Y-54214698D01*
X101825000Y-54614698D02*
X101825000Y-53814698D01*
X108260000Y-50205000D02*
G75*
G03*
X108260000Y-50205000I-4120000J0D01*
G01*
%TO.C,U3*%
X152527000Y-47879000D02*
X139573000Y-47879000D01*
X139573000Y-47879000D02*
X139573000Y-63246000D01*
X139573000Y-63246000D02*
X152527000Y-63246000D01*
X152527000Y-63246000D02*
X152527000Y-47879000D01*
%TO.C,JHC_VALVES1*%
X182727600Y-43688000D02*
X170510200Y-43688000D01*
X182727600Y-74168000D02*
X182727600Y-43688000D01*
X170510200Y-74168000D02*
X182727600Y-74168000D01*
X170510200Y-43688000D02*
X170510200Y-74168000D01*
%TO.C,JD_VALVE1*%
X182981600Y-75438000D02*
X170764200Y-75438000D01*
X182981600Y-90678000D02*
X182981600Y-75438000D01*
X170764200Y-90678000D02*
X182981600Y-90678000D01*
X170764200Y-75438000D02*
X170764200Y-90678000D01*
%TO.C,J_12V1*%
X183007000Y-36957000D02*
X183007000Y-27686000D01*
X183007000Y-27686000D02*
X168783000Y-27686000D01*
X168783000Y-27686000D02*
X168783000Y-36957000D01*
X168783000Y-36957000D02*
X183007000Y-36957000D01*
%TO.C,U6*%
X134531100Y-43865800D02*
X112331500Y-43865800D01*
X134531100Y-60833000D02*
X134531100Y-43865800D01*
X112331500Y-60833000D02*
X134531100Y-60833000D01*
X112331500Y-43865800D02*
X112331500Y-60833000D01*
%TO.C,U7*%
X166928800Y-100355400D02*
X166928800Y-122555000D01*
X183896000Y-100355400D02*
X166928800Y-100355400D01*
X183896000Y-122555000D02*
X183896000Y-100355400D01*
X166928800Y-122555000D02*
X183896000Y-122555000D01*
%TO.C,R1*%
D11*
X94094380Y-48426666D02*
X93618190Y-48760000D01*
X94094380Y-48998095D02*
X93094380Y-48998095D01*
X93094380Y-48617142D01*
X93142000Y-48521904D01*
X93189619Y-48474285D01*
X93284857Y-48426666D01*
X93427714Y-48426666D01*
X93522952Y-48474285D01*
X93570571Y-48521904D01*
X93618190Y-48617142D01*
X93618190Y-48998095D01*
X94094380Y-47474285D02*
X94094380Y-48045714D01*
X94094380Y-47760000D02*
X93094380Y-47760000D01*
X93237238Y-47855238D01*
X93332476Y-47950476D01*
X93380095Y-48045714D01*
%TO.C,U5*%
X107021380Y-33883889D02*
X107830904Y-33985080D01*
X107926142Y-33949366D01*
X107973761Y-33907699D01*
X108021380Y-33818413D01*
X108021380Y-33627937D01*
X107973761Y-33526747D01*
X107926142Y-33473175D01*
X107830904Y-33413651D01*
X107021380Y-33312461D01*
X107021380Y-32360080D02*
X107021380Y-32836270D01*
X107497571Y-32943413D01*
X107449952Y-32889842D01*
X107402333Y-32788651D01*
X107402333Y-32550556D01*
X107449952Y-32461270D01*
X107497571Y-32419604D01*
X107592809Y-32383889D01*
X107830904Y-32413651D01*
X107926142Y-32473175D01*
X107973761Y-32526747D01*
X108021380Y-32627937D01*
X108021380Y-32866032D01*
X107973761Y-32955318D01*
X107926142Y-32996985D01*
X128293761Y-33656928D02*
X128341380Y-33514071D01*
X128341380Y-33275976D01*
X128293761Y-33180738D01*
X128246142Y-33133119D01*
X128150904Y-33085500D01*
X128055666Y-33085500D01*
X127960428Y-33133119D01*
X127912809Y-33180738D01*
X127865190Y-33275976D01*
X127817571Y-33466452D01*
X127769952Y-33561690D01*
X127722333Y-33609309D01*
X127627095Y-33656928D01*
X127531857Y-33656928D01*
X127436619Y-33609309D01*
X127389000Y-33561690D01*
X127341380Y-33466452D01*
X127341380Y-33228357D01*
X127389000Y-33085500D01*
X128246142Y-32085500D02*
X128293761Y-32133119D01*
X128341380Y-32275976D01*
X128341380Y-32371214D01*
X128293761Y-32514071D01*
X128198523Y-32609309D01*
X128103285Y-32656928D01*
X127912809Y-32704547D01*
X127769952Y-32704547D01*
X127579476Y-32656928D01*
X127484238Y-32609309D01*
X127389000Y-32514071D01*
X127341380Y-32371214D01*
X127341380Y-32275976D01*
X127389000Y-32133119D01*
X127436619Y-32085500D01*
X128341380Y-31180738D02*
X128341380Y-31656928D01*
X127341380Y-31656928D01*
X125753761Y-33704547D02*
X125801380Y-33561690D01*
X125801380Y-33323595D01*
X125753761Y-33228357D01*
X125706142Y-33180738D01*
X125610904Y-33133119D01*
X125515666Y-33133119D01*
X125420428Y-33180738D01*
X125372809Y-33228357D01*
X125325190Y-33323595D01*
X125277571Y-33514071D01*
X125229952Y-33609309D01*
X125182333Y-33656928D01*
X125087095Y-33704547D01*
X124991857Y-33704547D01*
X124896619Y-33656928D01*
X124849000Y-33609309D01*
X124801380Y-33514071D01*
X124801380Y-33275976D01*
X124849000Y-33133119D01*
X125801380Y-32704547D02*
X124801380Y-32704547D01*
X124801380Y-32466452D01*
X124849000Y-32323595D01*
X124944238Y-32228357D01*
X125039476Y-32180738D01*
X125229952Y-32133119D01*
X125372809Y-32133119D01*
X125563285Y-32180738D01*
X125658523Y-32228357D01*
X125753761Y-32323595D01*
X125801380Y-32466452D01*
X125801380Y-32704547D01*
X125515666Y-31752166D02*
X125515666Y-31275976D01*
X125801380Y-31847404D02*
X124801380Y-31514071D01*
X125801380Y-31180738D01*
X122975666Y-34752166D02*
X122975666Y-34275976D01*
X123261380Y-34847404D02*
X122261380Y-34514071D01*
X123261380Y-34180738D01*
X123261380Y-33847404D02*
X122261380Y-33847404D01*
X122261380Y-33609309D01*
X122309000Y-33466452D01*
X122404238Y-33371214D01*
X122499476Y-33323595D01*
X122689952Y-33275976D01*
X122832809Y-33275976D01*
X123023285Y-33323595D01*
X123118523Y-33371214D01*
X123213761Y-33466452D01*
X123261380Y-33609309D01*
X123261380Y-33847404D01*
X123261380Y-32847404D02*
X122261380Y-32847404D01*
X122261380Y-32609309D01*
X122309000Y-32466452D01*
X122404238Y-32371214D01*
X122499476Y-32323595D01*
X122689952Y-32275976D01*
X122832809Y-32275976D01*
X123023285Y-32323595D01*
X123118523Y-32371214D01*
X123213761Y-32466452D01*
X123261380Y-32609309D01*
X123261380Y-32847404D01*
X123261380Y-31275976D02*
X122785190Y-31609309D01*
X123261380Y-31847404D02*
X122261380Y-31847404D01*
X122261380Y-31466452D01*
X122309000Y-31371214D01*
X122356619Y-31323595D01*
X122451857Y-31275976D01*
X122594714Y-31275976D01*
X122689952Y-31323595D01*
X122737571Y-31371214D01*
X122785190Y-31466452D01*
X122785190Y-31847404D01*
X120435666Y-35228357D02*
X120435666Y-34752166D01*
X120721380Y-35323595D02*
X119721380Y-34990261D01*
X120721380Y-34656928D01*
X120721380Y-33847404D02*
X120721380Y-34323595D01*
X119721380Y-34323595D01*
X120197571Y-33514071D02*
X120197571Y-33180738D01*
X120721380Y-33037880D02*
X120721380Y-33514071D01*
X119721380Y-33514071D01*
X119721380Y-33037880D01*
X120721380Y-32037880D02*
X120245190Y-32371214D01*
X120721380Y-32609309D02*
X119721380Y-32609309D01*
X119721380Y-32228357D01*
X119769000Y-32133119D01*
X119816619Y-32085500D01*
X119911857Y-32037880D01*
X120054714Y-32037880D01*
X120149952Y-32085500D01*
X120197571Y-32133119D01*
X120245190Y-32228357D01*
X120245190Y-32609309D01*
X119721380Y-31752166D02*
X119721380Y-31180738D01*
X120721380Y-31466452D02*
X119721380Y-31466452D01*
X110275666Y-32704547D02*
X110275666Y-32228357D01*
X110561380Y-32799785D02*
X109561380Y-32466452D01*
X110561380Y-32133119D01*
X109561380Y-31895023D02*
X109561380Y-31275976D01*
X109942333Y-31609309D01*
X109942333Y-31466452D01*
X109989952Y-31371214D01*
X110037571Y-31323595D01*
X110132809Y-31275976D01*
X110370904Y-31275976D01*
X110466142Y-31323595D01*
X110513761Y-31371214D01*
X110561380Y-31466452D01*
X110561380Y-31752166D01*
X110513761Y-31847404D01*
X110466142Y-31895023D01*
X112815666Y-32704547D02*
X112815666Y-32228357D01*
X113101380Y-32799785D02*
X112101380Y-32466452D01*
X113101380Y-32133119D01*
X112196619Y-31847404D02*
X112149000Y-31799785D01*
X112101380Y-31704547D01*
X112101380Y-31466452D01*
X112149000Y-31371214D01*
X112196619Y-31323595D01*
X112291857Y-31275976D01*
X112387095Y-31275976D01*
X112529952Y-31323595D01*
X113101380Y-31895023D01*
X113101380Y-31275976D01*
X115355666Y-32704547D02*
X115355666Y-32228357D01*
X115641380Y-32799785D02*
X114641380Y-32466452D01*
X115641380Y-32133119D01*
X115641380Y-31275976D02*
X115641380Y-31847404D01*
X115641380Y-31561690D02*
X114641380Y-31561690D01*
X114784238Y-31656928D01*
X114879476Y-31752166D01*
X114927095Y-31847404D01*
X117895666Y-32704547D02*
X117895666Y-32228357D01*
X118181380Y-32799785D02*
X117181380Y-32466452D01*
X118181380Y-32133119D01*
X117181380Y-31609309D02*
X117181380Y-31514071D01*
X117229000Y-31418833D01*
X117276619Y-31371214D01*
X117371857Y-31323595D01*
X117562333Y-31275976D01*
X117800428Y-31275976D01*
X117990904Y-31323595D01*
X118086142Y-31371214D01*
X118133761Y-31418833D01*
X118181380Y-31514071D01*
X118181380Y-31609309D01*
X118133761Y-31704547D01*
X118086142Y-31752166D01*
X117990904Y-31799785D01*
X117800428Y-31847404D01*
X117562333Y-31847404D01*
X117371857Y-31799785D01*
X117276619Y-31752166D01*
X117229000Y-31704547D01*
X117181380Y-31609309D01*
X129929000Y-31615095D02*
X129881380Y-31710333D01*
X129881380Y-31853190D01*
X129929000Y-31996047D01*
X130024238Y-32091285D01*
X130119476Y-32138904D01*
X130309952Y-32186523D01*
X130452809Y-32186523D01*
X130643285Y-32138904D01*
X130738523Y-32091285D01*
X130833761Y-31996047D01*
X130881380Y-31853190D01*
X130881380Y-31757952D01*
X130833761Y-31615095D01*
X130786142Y-31567476D01*
X130452809Y-31567476D01*
X130452809Y-31757952D01*
X132421380Y-32210333D02*
X133421380Y-31877000D01*
X132421380Y-31543666D01*
D10*
X115764857Y-35826000D02*
X115622000Y-35754571D01*
X115407714Y-35754571D01*
X115193428Y-35826000D01*
X115050571Y-35968857D01*
X114979142Y-36111714D01*
X114907714Y-36397428D01*
X114907714Y-36611714D01*
X114979142Y-36897428D01*
X115050571Y-37040285D01*
X115193428Y-37183142D01*
X115407714Y-37254571D01*
X115550571Y-37254571D01*
X115764857Y-37183142D01*
X115836285Y-37111714D01*
X115836285Y-36611714D01*
X115550571Y-36611714D01*
X116764857Y-36540285D02*
X116764857Y-37254571D01*
X116264857Y-35754571D02*
X116764857Y-36540285D01*
X117264857Y-35754571D01*
X117764857Y-36683142D02*
X118907714Y-36683142D01*
X119550571Y-36826000D02*
X120264857Y-36826000D01*
X119407714Y-37254571D02*
X119907714Y-35754571D01*
X120407714Y-37254571D01*
X120907714Y-37254571D02*
X120907714Y-35754571D01*
X121264857Y-35754571D01*
X121479142Y-35826000D01*
X121622000Y-35968857D01*
X121693428Y-36111714D01*
X121764857Y-36397428D01*
X121764857Y-36611714D01*
X121693428Y-36897428D01*
X121622000Y-37040285D01*
X121479142Y-37183142D01*
X121264857Y-37254571D01*
X120907714Y-37254571D01*
X122336285Y-37183142D02*
X122550571Y-37254571D01*
X122907714Y-37254571D01*
X123050571Y-37183142D01*
X123122000Y-37111714D01*
X123193428Y-36968857D01*
X123193428Y-36826000D01*
X123122000Y-36683142D01*
X123050571Y-36611714D01*
X122907714Y-36540285D01*
X122622000Y-36468857D01*
X122479142Y-36397428D01*
X122407714Y-36326000D01*
X122336285Y-36183142D01*
X122336285Y-36040285D01*
X122407714Y-35897428D01*
X122479142Y-35826000D01*
X122622000Y-35754571D01*
X122979142Y-35754571D01*
X123193428Y-35826000D01*
X124622000Y-37254571D02*
X123764857Y-37254571D01*
X124193428Y-37254571D02*
X124193428Y-35754571D01*
X124050571Y-35968857D01*
X123907714Y-36111714D01*
X123764857Y-36183142D01*
X126050571Y-37254571D02*
X125193428Y-37254571D01*
X125622000Y-37254571D02*
X125622000Y-35754571D01*
X125479142Y-35968857D01*
X125336285Y-36111714D01*
X125193428Y-36183142D01*
X127479142Y-37254571D02*
X126622000Y-37254571D01*
X127050571Y-37254571D02*
X127050571Y-35754571D01*
X126907714Y-35968857D01*
X126764857Y-36111714D01*
X126622000Y-36183142D01*
X128836285Y-35754571D02*
X128122000Y-35754571D01*
X128050571Y-36468857D01*
X128122000Y-36397428D01*
X128264857Y-36326000D01*
X128622000Y-36326000D01*
X128764857Y-36397428D01*
X128836285Y-36468857D01*
X128907714Y-36611714D01*
X128907714Y-36968857D01*
X128836285Y-37111714D01*
X128764857Y-37183142D01*
X128622000Y-37254571D01*
X128264857Y-37254571D01*
X128122000Y-37183142D01*
X128050571Y-37111714D01*
%TO.C,C1*%
D11*
X165795142Y-95710666D02*
X165842761Y-95758285D01*
X165890380Y-95901142D01*
X165890380Y-95996380D01*
X165842761Y-96139238D01*
X165747523Y-96234476D01*
X165652285Y-96282095D01*
X165461809Y-96329714D01*
X165318952Y-96329714D01*
X165128476Y-96282095D01*
X165033238Y-96234476D01*
X164938000Y-96139238D01*
X164890380Y-95996380D01*
X164890380Y-95901142D01*
X164938000Y-95758285D01*
X164985619Y-95710666D01*
X165890380Y-94758285D02*
X165890380Y-95329714D01*
X165890380Y-95044000D02*
X164890380Y-95044000D01*
X165033238Y-95139238D01*
X165128476Y-95234476D01*
X165176095Y-95329714D01*
%TO.C,U4*%
X164363110Y-66254380D02*
X164261919Y-67063904D01*
X164297633Y-67159142D01*
X164339300Y-67206761D01*
X164428586Y-67254380D01*
X164619062Y-67254380D01*
X164720252Y-67206761D01*
X164773824Y-67159142D01*
X164833348Y-67063904D01*
X164934538Y-66254380D01*
X165797633Y-66587714D02*
X165714300Y-67254380D01*
X165607157Y-66206761D02*
X165279776Y-66921047D01*
X165898824Y-66921047D01*
D10*
X163461000Y-59478857D02*
X163389571Y-59621714D01*
X163389571Y-59836000D01*
X163461000Y-60050285D01*
X163603857Y-60193142D01*
X163746714Y-60264571D01*
X164032428Y-60336000D01*
X164246714Y-60336000D01*
X164532428Y-60264571D01*
X164675285Y-60193142D01*
X164818142Y-60050285D01*
X164889571Y-59836000D01*
X164889571Y-59693142D01*
X164818142Y-59478857D01*
X164746714Y-59407428D01*
X164246714Y-59407428D01*
X164246714Y-59693142D01*
X164175285Y-58478857D02*
X164889571Y-58478857D01*
X163389571Y-58978857D02*
X164175285Y-58478857D01*
X163389571Y-57978857D01*
X164318142Y-57478857D02*
X164318142Y-56336000D01*
X164889571Y-55621714D02*
X163389571Y-55621714D01*
X164461000Y-55121714D01*
X163389571Y-54621714D01*
X164889571Y-54621714D01*
X164746714Y-53050285D02*
X164818142Y-53121714D01*
X164889571Y-53336000D01*
X164889571Y-53478857D01*
X164818142Y-53693142D01*
X164675285Y-53836000D01*
X164532428Y-53907428D01*
X164246714Y-53978857D01*
X164032428Y-53978857D01*
X163746714Y-53907428D01*
X163603857Y-53836000D01*
X163461000Y-53693142D01*
X163389571Y-53478857D01*
X163389571Y-53336000D01*
X163461000Y-53121714D01*
X163532428Y-53050285D01*
X164889571Y-52407428D02*
X163389571Y-52407428D01*
X163389571Y-51836000D01*
X163461000Y-51693142D01*
X163532428Y-51621714D01*
X163675285Y-51550285D01*
X163889571Y-51550285D01*
X164032428Y-51621714D01*
X164103857Y-51693142D01*
X164175285Y-51836000D01*
X164175285Y-52407428D01*
X163889571Y-50264571D02*
X164889571Y-50264571D01*
X163318142Y-50621714D02*
X164389571Y-50978857D01*
X164389571Y-50050285D01*
X163389571Y-49621714D02*
X163389571Y-48621714D01*
X164889571Y-49264571D01*
X163532428Y-48121714D02*
X163461000Y-48050285D01*
X163389571Y-47907428D01*
X163389571Y-47550285D01*
X163461000Y-47407428D01*
X163532428Y-47336000D01*
X163675285Y-47264571D01*
X163818142Y-47264571D01*
X164032428Y-47336000D01*
X164889571Y-48193142D01*
X164889571Y-47264571D01*
X164032428Y-46407428D02*
X163961000Y-46550285D01*
X163889571Y-46621714D01*
X163746714Y-46693142D01*
X163675285Y-46693142D01*
X163532428Y-46621714D01*
X163461000Y-46550285D01*
X163389571Y-46407428D01*
X163389571Y-46121714D01*
X163461000Y-45978857D01*
X163532428Y-45907428D01*
X163675285Y-45836000D01*
X163746714Y-45836000D01*
X163889571Y-45907428D01*
X163961000Y-45978857D01*
X164032428Y-46121714D01*
X164032428Y-46407428D01*
X164103857Y-46550285D01*
X164175285Y-46621714D01*
X164318142Y-46693142D01*
X164603857Y-46693142D01*
X164746714Y-46621714D01*
X164818142Y-46550285D01*
X164889571Y-46407428D01*
X164889571Y-46121714D01*
X164818142Y-45978857D01*
X164746714Y-45907428D01*
X164603857Y-45836000D01*
X164318142Y-45836000D01*
X164175285Y-45907428D01*
X164103857Y-45978857D01*
X164032428Y-46121714D01*
D11*
X160067666Y-41108380D02*
X160401000Y-42108380D01*
X160734333Y-41108380D01*
X160662904Y-43696000D02*
X160567666Y-43648380D01*
X160424809Y-43648380D01*
X160281952Y-43696000D01*
X160186714Y-43791238D01*
X160139095Y-43886476D01*
X160091476Y-44076952D01*
X160091476Y-44219809D01*
X160139095Y-44410285D01*
X160186714Y-44505523D01*
X160281952Y-44600761D01*
X160424809Y-44648380D01*
X160520047Y-44648380D01*
X160662904Y-44600761D01*
X160710523Y-44553142D01*
X160710523Y-44219809D01*
X160520047Y-44219809D01*
X160673023Y-47093142D02*
X160625404Y-47140761D01*
X160482547Y-47188380D01*
X160387309Y-47188380D01*
X160244452Y-47140761D01*
X160149214Y-47045523D01*
X160101595Y-46950285D01*
X160053976Y-46759809D01*
X160053976Y-46616952D01*
X160101595Y-46426476D01*
X160149214Y-46331238D01*
X160244452Y-46236000D01*
X160387309Y-46188380D01*
X160482547Y-46188380D01*
X160625404Y-46236000D01*
X160673023Y-46283619D01*
X161577785Y-47188380D02*
X161101595Y-47188380D01*
X161101595Y-46188380D01*
X160101595Y-49728380D02*
X160101595Y-48728380D01*
X160339690Y-48728380D01*
X160482547Y-48776000D01*
X160577785Y-48871238D01*
X160625404Y-48966476D01*
X160673023Y-49156952D01*
X160673023Y-49299809D01*
X160625404Y-49490285D01*
X160577785Y-49585523D01*
X160482547Y-49680761D01*
X160339690Y-49728380D01*
X160101595Y-49728380D01*
X161053976Y-49442666D02*
X161530166Y-49442666D01*
X160958738Y-49728380D02*
X161292071Y-48728380D01*
X161625404Y-49728380D01*
X160710523Y-52268380D02*
X160234333Y-52268380D01*
X160234333Y-51268380D01*
X160673023Y-54808380D02*
X160339690Y-54332190D01*
X160101595Y-54808380D02*
X160101595Y-53808380D01*
X160482547Y-53808380D01*
X160577785Y-53856000D01*
X160625404Y-53903619D01*
X160673023Y-53998857D01*
X160673023Y-54141714D01*
X160625404Y-54236952D01*
X160577785Y-54284571D01*
X160482547Y-54332190D01*
X160101595Y-54332190D01*
X160162904Y-57062666D02*
X160639095Y-57062666D01*
X160067666Y-57348380D02*
X160401000Y-56348380D01*
X160734333Y-57348380D01*
X160472428Y-59364571D02*
X160615285Y-59412190D01*
X160662904Y-59459809D01*
X160710523Y-59555047D01*
X160710523Y-59697904D01*
X160662904Y-59793142D01*
X160615285Y-59840761D01*
X160520047Y-59888380D01*
X160139095Y-59888380D01*
X160139095Y-58888380D01*
X160472428Y-58888380D01*
X160567666Y-58936000D01*
X160615285Y-58983619D01*
X160662904Y-59078857D01*
X160662904Y-59174095D01*
X160615285Y-59269333D01*
X160567666Y-59316952D01*
X160472428Y-59364571D01*
X160139095Y-59364571D01*
X160710523Y-62333142D02*
X160662904Y-62380761D01*
X160520047Y-62428380D01*
X160424809Y-62428380D01*
X160281952Y-62380761D01*
X160186714Y-62285523D01*
X160139095Y-62190285D01*
X160091476Y-61999809D01*
X160091476Y-61856952D01*
X160139095Y-61666476D01*
X160186714Y-61571238D01*
X160281952Y-61476000D01*
X160424809Y-61428380D01*
X160520047Y-61428380D01*
X160662904Y-61476000D01*
X160710523Y-61523619D01*
X160139095Y-64968380D02*
X160139095Y-63968380D01*
X160377190Y-63968380D01*
X160520047Y-64016000D01*
X160615285Y-64111238D01*
X160662904Y-64206476D01*
X160710523Y-64396952D01*
X160710523Y-64539809D01*
X160662904Y-64730285D01*
X160615285Y-64825523D01*
X160520047Y-64920761D01*
X160377190Y-64968380D01*
X160139095Y-64968380D01*
%TO.C,U1*%
X144388095Y-118936380D02*
X144388095Y-119745904D01*
X144435714Y-119841142D01*
X144483333Y-119888761D01*
X144578571Y-119936380D01*
X144769047Y-119936380D01*
X144864285Y-119888761D01*
X144911904Y-119841142D01*
X144959523Y-119745904D01*
X144959523Y-118936380D01*
X145959523Y-119936380D02*
X145388095Y-119936380D01*
X145673809Y-119936380D02*
X145673809Y-118936380D01*
X145578571Y-119079238D01*
X145483333Y-119174476D01*
X145388095Y-119222095D01*
X159054595Y-112332380D02*
X159387928Y-113332380D01*
X159721261Y-112332380D01*
X160626023Y-113237142D02*
X160578404Y-113284761D01*
X160435547Y-113332380D01*
X160340309Y-113332380D01*
X160197452Y-113284761D01*
X160102214Y-113189523D01*
X160054595Y-113094285D01*
X160006976Y-112903809D01*
X160006976Y-112760952D01*
X160054595Y-112570476D01*
X160102214Y-112475238D01*
X160197452Y-112380000D01*
X160340309Y-112332380D01*
X160435547Y-112332380D01*
X160578404Y-112380000D01*
X160626023Y-112427619D01*
X161626023Y-113237142D02*
X161578404Y-113284761D01*
X161435547Y-113332380D01*
X161340309Y-113332380D01*
X161197452Y-113284761D01*
X161102214Y-113189523D01*
X161054595Y-113094285D01*
X161006976Y-112903809D01*
X161006976Y-112760952D01*
X161054595Y-112570476D01*
X161102214Y-112475238D01*
X161197452Y-112380000D01*
X161340309Y-112332380D01*
X161435547Y-112332380D01*
X161578404Y-112380000D01*
X161626023Y-112427619D01*
X159530785Y-109840000D02*
X159435547Y-109792380D01*
X159292690Y-109792380D01*
X159149833Y-109840000D01*
X159054595Y-109935238D01*
X159006976Y-110030476D01*
X158959357Y-110220952D01*
X158959357Y-110363809D01*
X159006976Y-110554285D01*
X159054595Y-110649523D01*
X159149833Y-110744761D01*
X159292690Y-110792380D01*
X159387928Y-110792380D01*
X159530785Y-110744761D01*
X159578404Y-110697142D01*
X159578404Y-110363809D01*
X159387928Y-110363809D01*
X160006976Y-110792380D02*
X160006976Y-109792380D01*
X160578404Y-110792380D01*
X160578404Y-109792380D01*
X161054595Y-110792380D02*
X161054595Y-109792380D01*
X161292690Y-109792380D01*
X161435547Y-109840000D01*
X161530785Y-109935238D01*
X161578404Y-110030476D01*
X161626023Y-110220952D01*
X161626023Y-110363809D01*
X161578404Y-110554285D01*
X161530785Y-110649523D01*
X161435547Y-110744761D01*
X161292690Y-110792380D01*
X161054595Y-110792380D01*
X160731333Y-108157142D02*
X160683714Y-108204761D01*
X160540857Y-108252380D01*
X160445619Y-108252380D01*
X160302761Y-108204761D01*
X160207523Y-108109523D01*
X160159904Y-108014285D01*
X160112285Y-107823809D01*
X160112285Y-107680952D01*
X160159904Y-107490476D01*
X160207523Y-107395238D01*
X160302761Y-107300000D01*
X160445619Y-107252380D01*
X160540857Y-107252380D01*
X160683714Y-107300000D01*
X160731333Y-107347619D01*
X161112285Y-108204761D02*
X161255142Y-108252380D01*
X161493238Y-108252380D01*
X161588476Y-108204761D01*
X161636095Y-108157142D01*
X161683714Y-108061904D01*
X161683714Y-107966666D01*
X161636095Y-107871428D01*
X161588476Y-107823809D01*
X161493238Y-107776190D01*
X161302761Y-107728571D01*
X161207523Y-107680952D01*
X161159904Y-107633333D01*
X161112285Y-107538095D01*
X161112285Y-107442857D01*
X161159904Y-107347619D01*
X161207523Y-107300000D01*
X161302761Y-107252380D01*
X161540857Y-107252380D01*
X161683714Y-107300000D01*
X158102214Y-105712380D02*
X157768880Y-105236190D01*
X157530785Y-105712380D02*
X157530785Y-104712380D01*
X157911738Y-104712380D01*
X158006976Y-104760000D01*
X158054595Y-104807619D01*
X158102214Y-104902857D01*
X158102214Y-105045714D01*
X158054595Y-105140952D01*
X158006976Y-105188571D01*
X157911738Y-105236190D01*
X157530785Y-105236190D01*
X158530785Y-105188571D02*
X158864119Y-105188571D01*
X159006976Y-105712380D02*
X158530785Y-105712380D01*
X158530785Y-104712380D01*
X159006976Y-104712380D01*
X159387928Y-105664761D02*
X159530785Y-105712380D01*
X159768880Y-105712380D01*
X159864119Y-105664761D01*
X159911738Y-105617142D01*
X159959357Y-105521904D01*
X159959357Y-105426666D01*
X159911738Y-105331428D01*
X159864119Y-105283809D01*
X159768880Y-105236190D01*
X159578404Y-105188571D01*
X159483166Y-105140952D01*
X159435547Y-105093333D01*
X159387928Y-104998095D01*
X159387928Y-104902857D01*
X159435547Y-104807619D01*
X159483166Y-104760000D01*
X159578404Y-104712380D01*
X159816500Y-104712380D01*
X159959357Y-104760000D01*
X160387928Y-105188571D02*
X160721261Y-105188571D01*
X160864119Y-105712380D02*
X160387928Y-105712380D01*
X160387928Y-104712380D01*
X160864119Y-104712380D01*
X161149833Y-104712380D02*
X161721261Y-104712380D01*
X161435547Y-105712380D02*
X161435547Y-104712380D01*
X159006976Y-103172380D02*
X159006976Y-102172380D01*
X159245071Y-102172380D01*
X159387928Y-102220000D01*
X159483166Y-102315238D01*
X159530785Y-102410476D01*
X159578404Y-102600952D01*
X159578404Y-102743809D01*
X159530785Y-102934285D01*
X159483166Y-103029523D01*
X159387928Y-103124761D01*
X159245071Y-103172380D01*
X159006976Y-103172380D01*
X160721261Y-102124761D02*
X159864119Y-103410476D01*
X161626023Y-103077142D02*
X161578404Y-103124761D01*
X161435547Y-103172380D01*
X161340309Y-103172380D01*
X161197452Y-103124761D01*
X161102214Y-103029523D01*
X161054595Y-102934285D01*
X161006976Y-102743809D01*
X161006976Y-102600952D01*
X161054595Y-102410476D01*
X161102214Y-102315238D01*
X161197452Y-102220000D01*
X161340309Y-102172380D01*
X161435547Y-102172380D01*
X161578404Y-102220000D01*
X161626023Y-102267619D01*
X159578404Y-100584761D02*
X159721261Y-100632380D01*
X159959357Y-100632380D01*
X160054595Y-100584761D01*
X160102214Y-100537142D01*
X160149833Y-100441904D01*
X160149833Y-100346666D01*
X160102214Y-100251428D01*
X160054595Y-100203809D01*
X159959357Y-100156190D01*
X159768880Y-100108571D01*
X159673642Y-100060952D01*
X159626023Y-100013333D01*
X159578404Y-99918095D01*
X159578404Y-99822857D01*
X159626023Y-99727619D01*
X159673642Y-99680000D01*
X159768880Y-99632380D01*
X160006976Y-99632380D01*
X160149833Y-99680000D01*
X160578404Y-100632380D02*
X160578404Y-99632380D01*
X160816500Y-99632380D01*
X160959357Y-99680000D01*
X161054595Y-99775238D01*
X161102214Y-99870476D01*
X161149833Y-100060952D01*
X161149833Y-100203809D01*
X161102214Y-100394285D01*
X161054595Y-100489523D01*
X160959357Y-100584761D01*
X160816500Y-100632380D01*
X160578404Y-100632380D01*
X161578404Y-100632380D02*
X161578404Y-99632380D01*
X159054595Y-98044761D02*
X159197452Y-98092380D01*
X159435547Y-98092380D01*
X159530785Y-98044761D01*
X159578404Y-97997142D01*
X159626023Y-97901904D01*
X159626023Y-97806666D01*
X159578404Y-97711428D01*
X159530785Y-97663809D01*
X159435547Y-97616190D01*
X159245071Y-97568571D01*
X159149833Y-97520952D01*
X159102214Y-97473333D01*
X159054595Y-97378095D01*
X159054595Y-97282857D01*
X159102214Y-97187619D01*
X159149833Y-97140000D01*
X159245071Y-97092380D01*
X159483166Y-97092380D01*
X159626023Y-97140000D01*
X160626023Y-97997142D02*
X160578404Y-98044761D01*
X160435547Y-98092380D01*
X160340309Y-98092380D01*
X160197452Y-98044761D01*
X160102214Y-97949523D01*
X160054595Y-97854285D01*
X160006976Y-97663809D01*
X160006976Y-97520952D01*
X160054595Y-97330476D01*
X160102214Y-97235238D01*
X160197452Y-97140000D01*
X160340309Y-97092380D01*
X160435547Y-97092380D01*
X160578404Y-97140000D01*
X160626023Y-97187619D01*
X161054595Y-98092380D02*
X161054595Y-97092380D01*
X161626023Y-98092380D02*
X161197452Y-97520952D01*
X161626023Y-97092380D02*
X161054595Y-97663809D01*
X159816500Y-95552380D02*
X159340309Y-95552380D01*
X159340309Y-94552380D01*
X160149833Y-95028571D02*
X160483166Y-95028571D01*
X160626023Y-95552380D02*
X160149833Y-95552380D01*
X160149833Y-94552380D01*
X160626023Y-94552380D01*
X161054595Y-95552380D02*
X161054595Y-94552380D01*
X161292690Y-94552380D01*
X161435547Y-94600000D01*
X161530785Y-94695238D01*
X161578404Y-94790476D01*
X161626023Y-94980952D01*
X161626023Y-95123809D01*
X161578404Y-95314285D01*
X161530785Y-95409523D01*
X161435547Y-95504761D01*
X161292690Y-95552380D01*
X161054595Y-95552380D01*
X158435547Y-93012380D02*
X158435547Y-92012380D01*
X158768880Y-92726666D01*
X159102214Y-92012380D01*
X159102214Y-93012380D01*
X159578404Y-93012380D02*
X159578404Y-92012380D01*
X160006976Y-92964761D02*
X160149833Y-93012380D01*
X160387928Y-93012380D01*
X160483166Y-92964761D01*
X160530785Y-92917142D01*
X160578404Y-92821904D01*
X160578404Y-92726666D01*
X160530785Y-92631428D01*
X160483166Y-92583809D01*
X160387928Y-92536190D01*
X160197452Y-92488571D01*
X160102214Y-92440952D01*
X160054595Y-92393333D01*
X160006976Y-92298095D01*
X160006976Y-92202857D01*
X160054595Y-92107619D01*
X160102214Y-92060000D01*
X160197452Y-92012380D01*
X160435547Y-92012380D01*
X160578404Y-92060000D01*
X161197452Y-92012380D02*
X161387928Y-92012380D01*
X161483166Y-92060000D01*
X161578404Y-92155238D01*
X161626023Y-92345714D01*
X161626023Y-92679047D01*
X161578404Y-92869523D01*
X161483166Y-92964761D01*
X161387928Y-93012380D01*
X161197452Y-93012380D01*
X161102214Y-92964761D01*
X161006976Y-92869523D01*
X160959357Y-92679047D01*
X160959357Y-92345714D01*
X161006976Y-92155238D01*
X161102214Y-92060000D01*
X161197452Y-92012380D01*
X77365976Y-100076761D02*
X77508833Y-100124380D01*
X77746928Y-100124380D01*
X77842166Y-100076761D01*
X77889785Y-100029142D01*
X77937404Y-99933904D01*
X77937404Y-99838666D01*
X77889785Y-99743428D01*
X77842166Y-99695809D01*
X77746928Y-99648190D01*
X77556452Y-99600571D01*
X77461214Y-99552952D01*
X77413595Y-99505333D01*
X77365976Y-99410095D01*
X77365976Y-99314857D01*
X77413595Y-99219619D01*
X77461214Y-99172000D01*
X77556452Y-99124380D01*
X77794547Y-99124380D01*
X77937404Y-99172000D01*
X78365976Y-100124380D02*
X78365976Y-99124380D01*
X78604071Y-99124380D01*
X78746928Y-99172000D01*
X78842166Y-99267238D01*
X78889785Y-99362476D01*
X78937404Y-99552952D01*
X78937404Y-99695809D01*
X78889785Y-99886285D01*
X78842166Y-99981523D01*
X78746928Y-100076761D01*
X78604071Y-100124380D01*
X78365976Y-100124380D01*
X79127880Y-100219619D02*
X79889785Y-100219619D01*
X80699309Y-100029142D02*
X80651690Y-100076761D01*
X80508833Y-100124380D01*
X80413595Y-100124380D01*
X80270738Y-100076761D01*
X80175500Y-99981523D01*
X80127880Y-99886285D01*
X80080261Y-99695809D01*
X80080261Y-99552952D01*
X80127880Y-99362476D01*
X80175500Y-99267238D01*
X80270738Y-99172000D01*
X80413595Y-99124380D01*
X80508833Y-99124380D01*
X80651690Y-99172000D01*
X80699309Y-99219619D01*
X81080261Y-100076761D02*
X81223119Y-100124380D01*
X81461214Y-100124380D01*
X81556452Y-100076761D01*
X81604071Y-100029142D01*
X81651690Y-99933904D01*
X81651690Y-99838666D01*
X81604071Y-99743428D01*
X81556452Y-99695809D01*
X81461214Y-99648190D01*
X81270738Y-99600571D01*
X81175500Y-99552952D01*
X81127880Y-99505333D01*
X81080261Y-99410095D01*
X81080261Y-99314857D01*
X81127880Y-99219619D01*
X81175500Y-99172000D01*
X81270738Y-99124380D01*
X81508833Y-99124380D01*
X81651690Y-99172000D01*
X77365976Y-97536761D02*
X77508833Y-97584380D01*
X77746928Y-97584380D01*
X77842166Y-97536761D01*
X77889785Y-97489142D01*
X77937404Y-97393904D01*
X77937404Y-97298666D01*
X77889785Y-97203428D01*
X77842166Y-97155809D01*
X77746928Y-97108190D01*
X77556452Y-97060571D01*
X77461214Y-97012952D01*
X77413595Y-96965333D01*
X77365976Y-96870095D01*
X77365976Y-96774857D01*
X77413595Y-96679619D01*
X77461214Y-96632000D01*
X77556452Y-96584380D01*
X77794547Y-96584380D01*
X77937404Y-96632000D01*
X78365976Y-97584380D02*
X78365976Y-96584380D01*
X78604071Y-96584380D01*
X78746928Y-96632000D01*
X78842166Y-96727238D01*
X78889785Y-96822476D01*
X78937404Y-97012952D01*
X78937404Y-97155809D01*
X78889785Y-97346285D01*
X78842166Y-97441523D01*
X78746928Y-97536761D01*
X78604071Y-97584380D01*
X78365976Y-97584380D01*
X79127880Y-97679619D02*
X79889785Y-97679619D01*
X80127880Y-97584380D02*
X80127880Y-96584380D01*
X80461214Y-97298666D01*
X80794547Y-96584380D01*
X80794547Y-97584380D01*
X81461214Y-96584380D02*
X81651690Y-96584380D01*
X81746928Y-96632000D01*
X81842166Y-96727238D01*
X81889785Y-96917714D01*
X81889785Y-97251047D01*
X81842166Y-97441523D01*
X81746928Y-97536761D01*
X81651690Y-97584380D01*
X81461214Y-97584380D01*
X81365976Y-97536761D01*
X81270738Y-97441523D01*
X81223119Y-97251047D01*
X81223119Y-96917714D01*
X81270738Y-96727238D01*
X81365976Y-96632000D01*
X81461214Y-96584380D01*
X82270738Y-97536761D02*
X82413595Y-97584380D01*
X82651690Y-97584380D01*
X82746928Y-97536761D01*
X82794547Y-97489142D01*
X82842166Y-97393904D01*
X82842166Y-97298666D01*
X82794547Y-97203428D01*
X82746928Y-97155809D01*
X82651690Y-97108190D01*
X82461214Y-97060571D01*
X82365976Y-97012952D01*
X82318357Y-96965333D01*
X82270738Y-96870095D01*
X82270738Y-96774857D01*
X82318357Y-96679619D01*
X82365976Y-96632000D01*
X82461214Y-96584380D01*
X82699309Y-96584380D01*
X82842166Y-96632000D01*
X83270738Y-97584380D02*
X83270738Y-96584380D01*
X77365976Y-94996761D02*
X77508833Y-95044380D01*
X77746928Y-95044380D01*
X77842166Y-94996761D01*
X77889785Y-94949142D01*
X77937404Y-94853904D01*
X77937404Y-94758666D01*
X77889785Y-94663428D01*
X77842166Y-94615809D01*
X77746928Y-94568190D01*
X77556452Y-94520571D01*
X77461214Y-94472952D01*
X77413595Y-94425333D01*
X77365976Y-94330095D01*
X77365976Y-94234857D01*
X77413595Y-94139619D01*
X77461214Y-94092000D01*
X77556452Y-94044380D01*
X77794547Y-94044380D01*
X77937404Y-94092000D01*
X78365976Y-95044380D02*
X78365976Y-94044380D01*
X78604071Y-94044380D01*
X78746928Y-94092000D01*
X78842166Y-94187238D01*
X78889785Y-94282476D01*
X78937404Y-94472952D01*
X78937404Y-94615809D01*
X78889785Y-94806285D01*
X78842166Y-94901523D01*
X78746928Y-94996761D01*
X78604071Y-95044380D01*
X78365976Y-95044380D01*
X79127880Y-95139619D02*
X79889785Y-95139619D01*
X80127880Y-95044380D02*
X80127880Y-94044380D01*
X80461214Y-94758666D01*
X80794547Y-94044380D01*
X80794547Y-95044380D01*
X81270738Y-95044380D02*
X81270738Y-94044380D01*
X81699309Y-94996761D02*
X81842166Y-95044380D01*
X82080261Y-95044380D01*
X82175500Y-94996761D01*
X82223119Y-94949142D01*
X82270738Y-94853904D01*
X82270738Y-94758666D01*
X82223119Y-94663428D01*
X82175500Y-94615809D01*
X82080261Y-94568190D01*
X81889785Y-94520571D01*
X81794547Y-94472952D01*
X81746928Y-94425333D01*
X81699309Y-94330095D01*
X81699309Y-94234857D01*
X81746928Y-94139619D01*
X81794547Y-94092000D01*
X81889785Y-94044380D01*
X82127880Y-94044380D01*
X82270738Y-94092000D01*
X82889785Y-94044380D02*
X83080261Y-94044380D01*
X83175500Y-94092000D01*
X83270738Y-94187238D01*
X83318357Y-94377714D01*
X83318357Y-94711047D01*
X83270738Y-94901523D01*
X83175500Y-94996761D01*
X83080261Y-95044380D01*
X82889785Y-95044380D01*
X82794547Y-94996761D01*
X82699309Y-94901523D01*
X82651690Y-94711047D01*
X82651690Y-94377714D01*
X82699309Y-94187238D01*
X82794547Y-94092000D01*
X82889785Y-94044380D01*
X77483142Y-92456761D02*
X77626000Y-92504380D01*
X77864095Y-92504380D01*
X77959333Y-92456761D01*
X78006952Y-92409142D01*
X78054571Y-92313904D01*
X78054571Y-92218666D01*
X78006952Y-92123428D01*
X77959333Y-92075809D01*
X77864095Y-92028190D01*
X77673619Y-91980571D01*
X77578380Y-91932952D01*
X77530761Y-91885333D01*
X77483142Y-91790095D01*
X77483142Y-91694857D01*
X77530761Y-91599619D01*
X77578380Y-91552000D01*
X77673619Y-91504380D01*
X77911714Y-91504380D01*
X78054571Y-91552000D01*
X78483142Y-92504380D02*
X78483142Y-91504380D01*
X78721238Y-91504380D01*
X78864095Y-91552000D01*
X78959333Y-91647238D01*
X79006952Y-91742476D01*
X79054571Y-91932952D01*
X79054571Y-92075809D01*
X79006952Y-92266285D01*
X78959333Y-92361523D01*
X78864095Y-92456761D01*
X78721238Y-92504380D01*
X78483142Y-92504380D01*
X79245047Y-92599619D02*
X80006952Y-92599619D01*
X80197428Y-92456761D02*
X80340285Y-92504380D01*
X80578380Y-92504380D01*
X80673619Y-92456761D01*
X80721238Y-92409142D01*
X80768857Y-92313904D01*
X80768857Y-92218666D01*
X80721238Y-92123428D01*
X80673619Y-92075809D01*
X80578380Y-92028190D01*
X80387904Y-91980571D01*
X80292666Y-91932952D01*
X80245047Y-91885333D01*
X80197428Y-91790095D01*
X80197428Y-91694857D01*
X80245047Y-91599619D01*
X80292666Y-91552000D01*
X80387904Y-91504380D01*
X80626000Y-91504380D01*
X80768857Y-91552000D01*
X81768857Y-92409142D02*
X81721238Y-92456761D01*
X81578380Y-92504380D01*
X81483142Y-92504380D01*
X81340285Y-92456761D01*
X81245047Y-92361523D01*
X81197428Y-92266285D01*
X81149809Y-92075809D01*
X81149809Y-91932952D01*
X81197428Y-91742476D01*
X81245047Y-91647238D01*
X81340285Y-91552000D01*
X81483142Y-91504380D01*
X81578380Y-91504380D01*
X81721238Y-91552000D01*
X81768857Y-91599619D01*
X82197428Y-92504380D02*
X82197428Y-91504380D01*
X82768857Y-92504380D02*
X82340285Y-91932952D01*
X82768857Y-91504380D02*
X82197428Y-92075809D01*
X157578404Y-89472380D02*
X158149833Y-89472380D01*
X157864119Y-90472380D02*
X157864119Y-89472380D01*
X158245071Y-90567619D02*
X159006976Y-90567619D01*
X159816500Y-90377142D02*
X159768880Y-90424761D01*
X159626023Y-90472380D01*
X159530785Y-90472380D01*
X159387928Y-90424761D01*
X159292690Y-90329523D01*
X159245071Y-90234285D01*
X159197452Y-90043809D01*
X159197452Y-89900952D01*
X159245071Y-89710476D01*
X159292690Y-89615238D01*
X159387928Y-89520000D01*
X159530785Y-89472380D01*
X159626023Y-89472380D01*
X159768880Y-89520000D01*
X159816500Y-89567619D01*
X160721261Y-90472380D02*
X160245071Y-90472380D01*
X160245071Y-89472380D01*
X161054595Y-90472380D02*
X161054595Y-89472380D01*
X161626023Y-90472380D02*
X161197452Y-89900952D01*
X161626023Y-89472380D02*
X161054595Y-90043809D01*
X158435547Y-86932380D02*
X159006976Y-86932380D01*
X158721261Y-87932380D02*
X158721261Y-86932380D01*
X159102214Y-88027619D02*
X159864119Y-88027619D01*
X160673642Y-87837142D02*
X160626023Y-87884761D01*
X160483166Y-87932380D01*
X160387928Y-87932380D01*
X160245071Y-87884761D01*
X160149833Y-87789523D01*
X160102214Y-87694285D01*
X160054595Y-87503809D01*
X160054595Y-87360952D01*
X160102214Y-87170476D01*
X160149833Y-87075238D01*
X160245071Y-86980000D01*
X160387928Y-86932380D01*
X160483166Y-86932380D01*
X160626023Y-86980000D01*
X160673642Y-87027619D01*
X161054595Y-87884761D02*
X161197452Y-87932380D01*
X161435547Y-87932380D01*
X161530785Y-87884761D01*
X161578404Y-87837142D01*
X161626023Y-87741904D01*
X161626023Y-87646666D01*
X161578404Y-87551428D01*
X161530785Y-87503809D01*
X161435547Y-87456190D01*
X161245071Y-87408571D01*
X161149833Y-87360952D01*
X161102214Y-87313333D01*
X161054595Y-87218095D01*
X161054595Y-87122857D01*
X161102214Y-87027619D01*
X161149833Y-86980000D01*
X161245071Y-86932380D01*
X161483166Y-86932380D01*
X161626023Y-86980000D01*
X157864119Y-84392380D02*
X158435547Y-84392380D01*
X158149833Y-85392380D02*
X158149833Y-84392380D01*
X158530785Y-85487619D02*
X159292690Y-85487619D01*
X159530785Y-85392380D02*
X159530785Y-84392380D01*
X159768880Y-84392380D01*
X159911738Y-84440000D01*
X160006976Y-84535238D01*
X160054595Y-84630476D01*
X160102214Y-84820952D01*
X160102214Y-84963809D01*
X160054595Y-85154285D01*
X160006976Y-85249523D01*
X159911738Y-85344761D01*
X159768880Y-85392380D01*
X159530785Y-85392380D01*
X160530785Y-85392380D02*
X160530785Y-84392380D01*
X161006976Y-85392380D02*
X161006976Y-84392380D01*
X161578404Y-85392380D01*
X161578404Y-84392380D01*
X157530785Y-81852380D02*
X158102214Y-81852380D01*
X157816500Y-82852380D02*
X157816500Y-81852380D01*
X158197452Y-82947619D02*
X158959357Y-82947619D01*
X159387928Y-81852380D02*
X159578404Y-81852380D01*
X159673642Y-81900000D01*
X159768880Y-81995238D01*
X159816500Y-82185714D01*
X159816500Y-82519047D01*
X159768880Y-82709523D01*
X159673642Y-82804761D01*
X159578404Y-82852380D01*
X159387928Y-82852380D01*
X159292690Y-82804761D01*
X159197452Y-82709523D01*
X159149833Y-82519047D01*
X159149833Y-82185714D01*
X159197452Y-81995238D01*
X159292690Y-81900000D01*
X159387928Y-81852380D01*
X160245071Y-81852380D02*
X160245071Y-82661904D01*
X160292690Y-82757142D01*
X160340309Y-82804761D01*
X160435547Y-82852380D01*
X160626023Y-82852380D01*
X160721261Y-82804761D01*
X160768880Y-82757142D01*
X160816500Y-82661904D01*
X160816500Y-81852380D01*
X161149833Y-81852380D02*
X161721261Y-81852380D01*
X161435547Y-82852380D02*
X161435547Y-81852380D01*
X157864119Y-79312380D02*
X158435547Y-79312380D01*
X158149833Y-80312380D02*
X158149833Y-79312380D01*
X158530785Y-80407619D02*
X159292690Y-80407619D01*
X159530785Y-80312380D02*
X159530785Y-79312380D01*
X160578404Y-80312380D02*
X160245071Y-79836190D01*
X160006976Y-80312380D02*
X160006976Y-79312380D01*
X160387928Y-79312380D01*
X160483166Y-79360000D01*
X160530785Y-79407619D01*
X160578404Y-79502857D01*
X160578404Y-79645714D01*
X160530785Y-79740952D01*
X160483166Y-79788571D01*
X160387928Y-79836190D01*
X160006976Y-79836190D01*
X161673642Y-80407619D02*
X161578404Y-80360000D01*
X161483166Y-80264761D01*
X161340309Y-80121904D01*
X161245071Y-80074285D01*
X161149833Y-80074285D01*
X161197452Y-80312380D02*
X161102214Y-80264761D01*
X161006976Y-80169523D01*
X160959357Y-79979047D01*
X160959357Y-79645714D01*
X161006976Y-79455238D01*
X161102214Y-79360000D01*
X161197452Y-79312380D01*
X161387928Y-79312380D01*
X161483166Y-79360000D01*
X161578404Y-79455238D01*
X161626023Y-79645714D01*
X161626023Y-79979047D01*
X161578404Y-80169523D01*
X161483166Y-80264761D01*
X161387928Y-80312380D01*
X161197452Y-80312380D01*
D14*
X101683142Y-102750285D02*
X102797428Y-102750285D01*
X102197428Y-103436000D01*
X102454571Y-103436000D01*
X102626000Y-103521714D01*
X102711714Y-103607428D01*
X102797428Y-103778857D01*
X102797428Y-104207428D01*
X102711714Y-104378857D01*
X102626000Y-104464571D01*
X102454571Y-104550285D01*
X101940285Y-104550285D01*
X101768857Y-104464571D01*
X101683142Y-104378857D01*
X103568857Y-104378857D02*
X103654571Y-104464571D01*
X103568857Y-104550285D01*
X103483142Y-104464571D01*
X103568857Y-104378857D01*
X103568857Y-104550285D01*
X104340285Y-102921714D02*
X104426000Y-102836000D01*
X104597428Y-102750285D01*
X105026000Y-102750285D01*
X105197428Y-102836000D01*
X105283142Y-102921714D01*
X105368857Y-103093142D01*
X105368857Y-103264571D01*
X105283142Y-103521714D01*
X104254571Y-104550285D01*
X105368857Y-104550285D01*
X106054571Y-102750285D02*
X106054571Y-103093142D01*
X106740285Y-102750285D02*
X106740285Y-103093142D01*
X108626000Y-102750285D02*
X109654571Y-102750285D01*
X109140285Y-104550285D02*
X109140285Y-102750285D01*
X110854571Y-103607428D02*
X110254571Y-103607428D01*
X110254571Y-104550285D02*
X110254571Y-102750285D01*
X111111714Y-102750285D01*
X111540285Y-102750285D02*
X112568857Y-102750285D01*
X112054571Y-104550285D02*
X112054571Y-102750285D01*
X114283142Y-102750285D02*
X115311714Y-102750285D01*
X114797428Y-104550285D02*
X114797428Y-102750285D01*
X116254571Y-102750285D02*
X116597428Y-102750285D01*
X116768857Y-102836000D01*
X116940285Y-103007428D01*
X117026000Y-103350285D01*
X117026000Y-103950285D01*
X116940285Y-104293142D01*
X116768857Y-104464571D01*
X116597428Y-104550285D01*
X116254571Y-104550285D01*
X116083142Y-104464571D01*
X115911714Y-104293142D01*
X115826000Y-103950285D01*
X115826000Y-103350285D01*
X115911714Y-103007428D01*
X116083142Y-102836000D01*
X116254571Y-102750285D01*
X117797428Y-102750285D02*
X117797428Y-104207428D01*
X117883142Y-104378857D01*
X117968857Y-104464571D01*
X118140285Y-104550285D01*
X118483142Y-104550285D01*
X118654571Y-104464571D01*
X118740285Y-104378857D01*
X118826000Y-104207428D01*
X118826000Y-102750285D01*
X120711714Y-104378857D02*
X120626000Y-104464571D01*
X120368857Y-104550285D01*
X120197428Y-104550285D01*
X119940285Y-104464571D01*
X119768857Y-104293142D01*
X119683142Y-104121714D01*
X119597428Y-103778857D01*
X119597428Y-103521714D01*
X119683142Y-103178857D01*
X119768857Y-103007428D01*
X119940285Y-102836000D01*
X120197428Y-102750285D01*
X120368857Y-102750285D01*
X120626000Y-102836000D01*
X120711714Y-102921714D01*
X121483142Y-104550285D02*
X121483142Y-102750285D01*
X121483142Y-103607428D02*
X122511714Y-103607428D01*
X122511714Y-104550285D02*
X122511714Y-102750285D01*
X124740285Y-104550285D02*
X124740285Y-102750285D01*
X125168857Y-102750285D01*
X125426000Y-102836000D01*
X125597428Y-103007428D01*
X125683142Y-103178857D01*
X125768857Y-103521714D01*
X125768857Y-103778857D01*
X125683142Y-104121714D01*
X125597428Y-104293142D01*
X125426000Y-104464571D01*
X125168857Y-104550285D01*
X124740285Y-104550285D01*
X126540285Y-104550285D02*
X126540285Y-102750285D01*
X127311714Y-104464571D02*
X127568857Y-104550285D01*
X127997428Y-104550285D01*
X128168857Y-104464571D01*
X128254571Y-104378857D01*
X128340285Y-104207428D01*
X128340285Y-104036000D01*
X128254571Y-103864571D01*
X128168857Y-103778857D01*
X127997428Y-103693142D01*
X127654571Y-103607428D01*
X127483142Y-103521714D01*
X127397428Y-103436000D01*
X127311714Y-103264571D01*
X127311714Y-103093142D01*
X127397428Y-102921714D01*
X127483142Y-102836000D01*
X127654571Y-102750285D01*
X128083142Y-102750285D01*
X128340285Y-102836000D01*
X129111714Y-104550285D02*
X129111714Y-102750285D01*
X129797428Y-102750285D01*
X129968857Y-102836000D01*
X130054571Y-102921714D01*
X130140285Y-103093142D01*
X130140285Y-103350285D01*
X130054571Y-103521714D01*
X129968857Y-103607428D01*
X129797428Y-103693142D01*
X129111714Y-103693142D01*
X131768857Y-104550285D02*
X130911714Y-104550285D01*
X130911714Y-102750285D01*
X132283142Y-104036000D02*
X133140285Y-104036000D01*
X132111714Y-104550285D02*
X132711714Y-102750285D01*
X133311714Y-104550285D01*
X134254571Y-103693142D02*
X134254571Y-104550285D01*
X133654571Y-102750285D02*
X134254571Y-103693142D01*
X134854571Y-102750285D01*
D15*
X110708666Y-99379809D02*
X110708666Y-97779809D01*
X111089619Y-97779809D01*
X111318190Y-97856000D01*
X111470571Y-98008380D01*
X111546761Y-98160761D01*
X111622952Y-98465523D01*
X111622952Y-98694095D01*
X111546761Y-98998857D01*
X111470571Y-99151238D01*
X111318190Y-99303619D01*
X111089619Y-99379809D01*
X110708666Y-99379809D01*
X112308666Y-99379809D02*
X112308666Y-98313142D01*
X112308666Y-98617904D02*
X112384857Y-98465523D01*
X112461047Y-98389333D01*
X112613428Y-98313142D01*
X112765809Y-98313142D01*
X113299142Y-99379809D02*
X113299142Y-98313142D01*
X113299142Y-97779809D02*
X113222952Y-97856000D01*
X113299142Y-97932190D01*
X113375333Y-97856000D01*
X113299142Y-97779809D01*
X113299142Y-97932190D01*
X113908666Y-98313142D02*
X114289619Y-99379809D01*
X114670571Y-98313142D01*
X115889619Y-99303619D02*
X115737238Y-99379809D01*
X115432476Y-99379809D01*
X115280095Y-99303619D01*
X115203904Y-99151238D01*
X115203904Y-98541714D01*
X115280095Y-98389333D01*
X115432476Y-98313142D01*
X115737238Y-98313142D01*
X115889619Y-98389333D01*
X115965809Y-98541714D01*
X115965809Y-98694095D01*
X115203904Y-98846476D01*
X116651523Y-99379809D02*
X116651523Y-98313142D01*
X116651523Y-98617904D02*
X116727714Y-98465523D01*
X116803904Y-98389333D01*
X116956285Y-98313142D01*
X117108666Y-98313142D01*
X117642000Y-99227428D02*
X117718190Y-99303619D01*
X117642000Y-99379809D01*
X117565809Y-99303619D01*
X117642000Y-99227428D01*
X117642000Y-99379809D01*
X117642000Y-98389333D02*
X117718190Y-98465523D01*
X117642000Y-98541714D01*
X117565809Y-98465523D01*
X117642000Y-98389333D01*
X117642000Y-98541714D01*
X119622952Y-99379809D02*
X119622952Y-97779809D01*
X121146761Y-99379809D02*
X120384857Y-99379809D01*
X120384857Y-97779809D01*
X121680095Y-99379809D02*
X121680095Y-97779809D01*
X122518190Y-99379809D02*
X122822952Y-99379809D01*
X122975333Y-99303619D01*
X123051523Y-99227428D01*
X123203904Y-98998857D01*
X123280095Y-98694095D01*
X123280095Y-98084571D01*
X123203904Y-97932190D01*
X123127714Y-97856000D01*
X122975333Y-97779809D01*
X122670571Y-97779809D01*
X122518190Y-97856000D01*
X122442000Y-97932190D01*
X122365809Y-98084571D01*
X122365809Y-98465523D01*
X122442000Y-98617904D01*
X122518190Y-98694095D01*
X122670571Y-98770285D01*
X122975333Y-98770285D01*
X123127714Y-98694095D01*
X123203904Y-98617904D01*
X123280095Y-98465523D01*
X123813428Y-97779809D02*
X124803904Y-97779809D01*
X124270571Y-98389333D01*
X124499142Y-98389333D01*
X124651523Y-98465523D01*
X124727714Y-98541714D01*
X124803904Y-98694095D01*
X124803904Y-99075047D01*
X124727714Y-99227428D01*
X124651523Y-99303619D01*
X124499142Y-99379809D01*
X124042000Y-99379809D01*
X123889619Y-99303619D01*
X123813428Y-99227428D01*
X126175333Y-98313142D02*
X126175333Y-99379809D01*
X125794380Y-97703619D02*
X125413428Y-98846476D01*
X126403904Y-98846476D01*
X127851523Y-99379809D02*
X126937238Y-99379809D01*
X127394380Y-99379809D02*
X127394380Y-97779809D01*
X127242000Y-98008380D01*
X127089619Y-98160761D01*
X126937238Y-98236952D01*
X112486380Y-93360190D02*
X112562571Y-93284000D01*
X112714952Y-93207809D01*
X113095904Y-93207809D01*
X113248285Y-93284000D01*
X113324476Y-93360190D01*
X113400666Y-93512571D01*
X113400666Y-93664952D01*
X113324476Y-93893523D01*
X112410190Y-94807809D01*
X113400666Y-94807809D01*
X114772095Y-93741142D02*
X114772095Y-94807809D01*
X114391142Y-93131619D02*
X114010190Y-94274476D01*
X115000666Y-94274476D01*
X115914952Y-93207809D02*
X116067333Y-93207809D01*
X116219714Y-93284000D01*
X116295904Y-93360190D01*
X116372095Y-93512571D01*
X116448285Y-93817333D01*
X116448285Y-94198285D01*
X116372095Y-94503047D01*
X116295904Y-94655428D01*
X116219714Y-94731619D01*
X116067333Y-94807809D01*
X115914952Y-94807809D01*
X115762571Y-94731619D01*
X115686380Y-94655428D01*
X115610190Y-94503047D01*
X115534000Y-94198285D01*
X115534000Y-93817333D01*
X115610190Y-93512571D01*
X115686380Y-93360190D01*
X115762571Y-93284000D01*
X115914952Y-93207809D01*
X118200666Y-93207809D02*
X119267333Y-94807809D01*
X119267333Y-93207809D02*
X118200666Y-94807809D01*
X120943523Y-93207809D02*
X121934000Y-93207809D01*
X121400666Y-93817333D01*
X121629238Y-93817333D01*
X121781619Y-93893523D01*
X121857809Y-93969714D01*
X121934000Y-94122095D01*
X121934000Y-94503047D01*
X121857809Y-94655428D01*
X121781619Y-94731619D01*
X121629238Y-94807809D01*
X121172095Y-94807809D01*
X121019714Y-94731619D01*
X120943523Y-94655428D01*
X122543523Y-93360190D02*
X122619714Y-93284000D01*
X122772095Y-93207809D01*
X123153047Y-93207809D01*
X123305428Y-93284000D01*
X123381619Y-93360190D01*
X123457809Y-93512571D01*
X123457809Y-93664952D01*
X123381619Y-93893523D01*
X122467333Y-94807809D01*
X123457809Y-94807809D01*
X124448285Y-93207809D02*
X124600666Y-93207809D01*
X124753047Y-93284000D01*
X124829238Y-93360190D01*
X124905428Y-93512571D01*
X124981619Y-93817333D01*
X124981619Y-94198285D01*
X124905428Y-94503047D01*
X124829238Y-94655428D01*
X124753047Y-94731619D01*
X124600666Y-94807809D01*
X124448285Y-94807809D01*
X124295904Y-94731619D01*
X124219714Y-94655428D01*
X124143523Y-94503047D01*
X124067333Y-94198285D01*
X124067333Y-93817333D01*
X124143523Y-93512571D01*
X124219714Y-93360190D01*
X124295904Y-93284000D01*
X124448285Y-93207809D01*
%TO.C,JPress1*%
D11*
X87154047Y-57237380D02*
X87154047Y-57951666D01*
X87106428Y-58094523D01*
X87011190Y-58189761D01*
X86868333Y-58237380D01*
X86773095Y-58237380D01*
X87630238Y-58237380D02*
X87630238Y-57237380D01*
X88011190Y-57237380D01*
X88106428Y-57285000D01*
X88154047Y-57332619D01*
X88201666Y-57427857D01*
X88201666Y-57570714D01*
X88154047Y-57665952D01*
X88106428Y-57713571D01*
X88011190Y-57761190D01*
X87630238Y-57761190D01*
X88630238Y-58237380D02*
X88630238Y-57570714D01*
X88630238Y-57761190D02*
X88677857Y-57665952D01*
X88725476Y-57618333D01*
X88820714Y-57570714D01*
X88915952Y-57570714D01*
X89630238Y-58189761D02*
X89535000Y-58237380D01*
X89344523Y-58237380D01*
X89249285Y-58189761D01*
X89201666Y-58094523D01*
X89201666Y-57713571D01*
X89249285Y-57618333D01*
X89344523Y-57570714D01*
X89535000Y-57570714D01*
X89630238Y-57618333D01*
X89677857Y-57713571D01*
X89677857Y-57808809D01*
X89201666Y-57904047D01*
X90058809Y-58189761D02*
X90154047Y-58237380D01*
X90344523Y-58237380D01*
X90439761Y-58189761D01*
X90487380Y-58094523D01*
X90487380Y-58046904D01*
X90439761Y-57951666D01*
X90344523Y-57904047D01*
X90201666Y-57904047D01*
X90106428Y-57856428D01*
X90058809Y-57761190D01*
X90058809Y-57713571D01*
X90106428Y-57618333D01*
X90201666Y-57570714D01*
X90344523Y-57570714D01*
X90439761Y-57618333D01*
X90868333Y-58189761D02*
X90963571Y-58237380D01*
X91154047Y-58237380D01*
X91249285Y-58189761D01*
X91296904Y-58094523D01*
X91296904Y-58046904D01*
X91249285Y-57951666D01*
X91154047Y-57904047D01*
X91011190Y-57904047D01*
X90915952Y-57856428D01*
X90868333Y-57761190D01*
X90868333Y-57713571D01*
X90915952Y-57618333D01*
X91011190Y-57570714D01*
X91154047Y-57570714D01*
X91249285Y-57618333D01*
X92249285Y-58237380D02*
X91677857Y-58237380D01*
X91963571Y-58237380D02*
X91963571Y-57237380D01*
X91868333Y-57380238D01*
X91773095Y-57475476D01*
X91677857Y-57523095D01*
X81007976Y-46442380D02*
X81627023Y-46442380D01*
X81293690Y-46823333D01*
X81436547Y-46823333D01*
X81531785Y-46870952D01*
X81579404Y-46918571D01*
X81627023Y-47013809D01*
X81627023Y-47251904D01*
X81579404Y-47347142D01*
X81531785Y-47394761D01*
X81436547Y-47442380D01*
X81150833Y-47442380D01*
X81055595Y-47394761D01*
X81007976Y-47347142D01*
X81055595Y-51617619D02*
X81103214Y-51570000D01*
X81198452Y-51522380D01*
X81436547Y-51522380D01*
X81531785Y-51570000D01*
X81579404Y-51617619D01*
X81627023Y-51712857D01*
X81627023Y-51808095D01*
X81579404Y-51950952D01*
X81007976Y-52522380D01*
X81627023Y-52522380D01*
X81627023Y-57602380D02*
X81055595Y-57602380D01*
X81341309Y-57602380D02*
X81341309Y-56602380D01*
X81246071Y-56745238D01*
X81150833Y-56840476D01*
X81055595Y-56888095D01*
%TO.C,JTemp1*%
X79018095Y-37552380D02*
X79018095Y-38266666D01*
X78970476Y-38409523D01*
X78875238Y-38504761D01*
X78732380Y-38552380D01*
X78637142Y-38552380D01*
X79351428Y-37552380D02*
X79922857Y-37552380D01*
X79637142Y-38552380D02*
X79637142Y-37552380D01*
X80637142Y-38504761D02*
X80541904Y-38552380D01*
X80351428Y-38552380D01*
X80256190Y-38504761D01*
X80208571Y-38409523D01*
X80208571Y-38028571D01*
X80256190Y-37933333D01*
X80351428Y-37885714D01*
X80541904Y-37885714D01*
X80637142Y-37933333D01*
X80684761Y-38028571D01*
X80684761Y-38123809D01*
X80208571Y-38219047D01*
X81113333Y-38552380D02*
X81113333Y-37885714D01*
X81113333Y-37980952D02*
X81160952Y-37933333D01*
X81256190Y-37885714D01*
X81399047Y-37885714D01*
X81494285Y-37933333D01*
X81541904Y-38028571D01*
X81541904Y-38552380D01*
X81541904Y-38028571D02*
X81589523Y-37933333D01*
X81684761Y-37885714D01*
X81827619Y-37885714D01*
X81922857Y-37933333D01*
X81970476Y-38028571D01*
X81970476Y-38552380D01*
X82446666Y-37885714D02*
X82446666Y-38885714D01*
X82446666Y-37933333D02*
X82541904Y-37885714D01*
X82732380Y-37885714D01*
X82827619Y-37933333D01*
X82875238Y-37980952D01*
X82922857Y-38076190D01*
X82922857Y-38361904D01*
X82875238Y-38457142D01*
X82827619Y-38504761D01*
X82732380Y-38552380D01*
X82541904Y-38552380D01*
X82446666Y-38504761D01*
X83875238Y-38552380D02*
X83303809Y-38552380D01*
X83589523Y-38552380D02*
X83589523Y-37552380D01*
X83494285Y-37695238D01*
X83399047Y-37790476D01*
X83303809Y-37838095D01*
X82155357Y-29932380D02*
X82774404Y-29932380D01*
X82441071Y-30313333D01*
X82583928Y-30313333D01*
X82679166Y-30360952D01*
X82726785Y-30408571D01*
X82774404Y-30503809D01*
X82774404Y-30741904D01*
X82726785Y-30837142D01*
X82679166Y-30884761D01*
X82583928Y-30932380D01*
X82298214Y-30932380D01*
X82202976Y-30884761D01*
X82155357Y-30837142D01*
X82202976Y-35107619D02*
X82250595Y-35060000D01*
X82345833Y-35012380D01*
X82583928Y-35012380D01*
X82679166Y-35060000D01*
X82726785Y-35107619D01*
X82774404Y-35202857D01*
X82774404Y-35298095D01*
X82726785Y-35440952D01*
X82155357Y-36012380D01*
X82774404Y-36012380D01*
X82774404Y-41092380D02*
X82202976Y-41092380D01*
X82488690Y-41092380D02*
X82488690Y-40092380D01*
X82393452Y-40235238D01*
X82298214Y-40330476D01*
X82202976Y-40378095D01*
%TO.C,H4*%
X147066095Y-30297380D02*
X147066095Y-29297380D01*
X147066095Y-29773571D02*
X147637523Y-29773571D01*
X147637523Y-30297380D02*
X147637523Y-29297380D01*
X148542285Y-29630714D02*
X148542285Y-30297380D01*
X148304190Y-29249761D02*
X148066095Y-29964047D01*
X148685142Y-29964047D01*
%TO.C,H3*%
X182118095Y-92527380D02*
X182118095Y-91527380D01*
X182118095Y-92003571D02*
X182689523Y-92003571D01*
X182689523Y-92527380D02*
X182689523Y-91527380D01*
X183070476Y-91527380D02*
X183689523Y-91527380D01*
X183356190Y-91908333D01*
X183499047Y-91908333D01*
X183594285Y-91955952D01*
X183641904Y-92003571D01*
X183689523Y-92098809D01*
X183689523Y-92336904D01*
X183641904Y-92432142D01*
X183594285Y-92479761D01*
X183499047Y-92527380D01*
X183213333Y-92527380D01*
X183118095Y-92479761D01*
X183070476Y-92432142D01*
%TO.C,H2*%
X81788095Y-63952380D02*
X81788095Y-62952380D01*
X81788095Y-63428571D02*
X82359523Y-63428571D01*
X82359523Y-63952380D02*
X82359523Y-62952380D01*
X82788095Y-63047619D02*
X82835714Y-63000000D01*
X82930952Y-62952380D01*
X83169047Y-62952380D01*
X83264285Y-63000000D01*
X83311904Y-63047619D01*
X83359523Y-63142857D01*
X83359523Y-63238095D01*
X83311904Y-63380952D01*
X82740476Y-63952380D01*
X83359523Y-63952380D01*
%TO.C,H1*%
X98298095Y-30043380D02*
X98298095Y-29043380D01*
X98298095Y-29519571D02*
X98869523Y-29519571D01*
X98869523Y-30043380D02*
X98869523Y-29043380D01*
X99869523Y-30043380D02*
X99298095Y-30043380D01*
X99583809Y-30043380D02*
X99583809Y-29043380D01*
X99488571Y-29186238D01*
X99393333Y-29281476D01*
X99298095Y-29329095D01*
%TO.C,C3*%
X160504142Y-26582666D02*
X160551761Y-26630285D01*
X160599380Y-26773142D01*
X160599380Y-26868380D01*
X160551761Y-27011238D01*
X160456523Y-27106476D01*
X160361285Y-27154095D01*
X160170809Y-27201714D01*
X160027952Y-27201714D01*
X159837476Y-27154095D01*
X159742238Y-27106476D01*
X159647000Y-27011238D01*
X159599380Y-26868380D01*
X159599380Y-26773142D01*
X159647000Y-26630285D01*
X159694619Y-26582666D01*
X159599380Y-26249333D02*
X159599380Y-25630285D01*
X159980333Y-25963619D01*
X159980333Y-25820761D01*
X160027952Y-25725523D01*
X160075571Y-25677904D01*
X160170809Y-25630285D01*
X160408904Y-25630285D01*
X160504142Y-25677904D01*
X160551761Y-25725523D01*
X160599380Y-25820761D01*
X160599380Y-26106476D01*
X160551761Y-26201714D01*
X160504142Y-26249333D01*
%TO.C,C2*%
X101179333Y-46140642D02*
X101131714Y-46188261D01*
X100988857Y-46235880D01*
X100893619Y-46235880D01*
X100750761Y-46188261D01*
X100655523Y-46093023D01*
X100607904Y-45997785D01*
X100560285Y-45807309D01*
X100560285Y-45664452D01*
X100607904Y-45473976D01*
X100655523Y-45378738D01*
X100750761Y-45283500D01*
X100893619Y-45235880D01*
X100988857Y-45235880D01*
X101131714Y-45283500D01*
X101179333Y-45331119D01*
X101560285Y-45331119D02*
X101607904Y-45283500D01*
X101703142Y-45235880D01*
X101941238Y-45235880D01*
X102036476Y-45283500D01*
X102084095Y-45331119D01*
X102131714Y-45426357D01*
X102131714Y-45521595D01*
X102084095Y-45664452D01*
X101512666Y-46235880D01*
X102131714Y-46235880D01*
%TO.C,U3*%
X145502380Y-55117904D02*
X146311904Y-55117904D01*
X146407142Y-55070285D01*
X146454761Y-55022666D01*
X146502380Y-54927428D01*
X146502380Y-54736952D01*
X146454761Y-54641714D01*
X146407142Y-54594095D01*
X146311904Y-54546476D01*
X145502380Y-54546476D01*
X145502380Y-54165523D02*
X145502380Y-53546476D01*
X145883333Y-53879809D01*
X145883333Y-53736952D01*
X145930952Y-53641714D01*
X145978571Y-53594095D01*
X146073809Y-53546476D01*
X146311904Y-53546476D01*
X146407142Y-53594095D01*
X146454761Y-53641714D01*
X146502380Y-53736952D01*
X146502380Y-54022666D01*
X146454761Y-54117904D01*
X146407142Y-54165523D01*
%TO.C,JHC_VALVES1*%
X183094380Y-56935142D02*
X183808666Y-56935142D01*
X183951523Y-56982761D01*
X184046761Y-57078000D01*
X184094380Y-57220857D01*
X184094380Y-57316095D01*
X184094380Y-56458952D02*
X183094380Y-56458952D01*
X183570571Y-56458952D02*
X183570571Y-55887523D01*
X184094380Y-55887523D02*
X183094380Y-55887523D01*
X183999142Y-54839904D02*
X184046761Y-54887523D01*
X184094380Y-55030380D01*
X184094380Y-55125619D01*
X184046761Y-55268476D01*
X183951523Y-55363714D01*
X183856285Y-55411333D01*
X183665809Y-55458952D01*
X183522952Y-55458952D01*
X183332476Y-55411333D01*
X183237238Y-55363714D01*
X183142000Y-55268476D01*
X183094380Y-55125619D01*
X183094380Y-55030380D01*
X183142000Y-54887523D01*
X183189619Y-54839904D01*
X184189619Y-54649428D02*
X184189619Y-53887523D01*
X183094380Y-53792285D02*
X184094380Y-53458952D01*
X183094380Y-53125619D01*
X183808666Y-52839904D02*
X183808666Y-52363714D01*
X184094380Y-52935142D02*
X183094380Y-52601809D01*
X184094380Y-52268476D01*
X184094380Y-51458952D02*
X184094380Y-51935142D01*
X183094380Y-51935142D01*
X183094380Y-51268476D02*
X184094380Y-50935142D01*
X183094380Y-50601809D01*
X183570571Y-50268476D02*
X183570571Y-49935142D01*
X184094380Y-49792285D02*
X184094380Y-50268476D01*
X183094380Y-50268476D01*
X183094380Y-49792285D01*
X184046761Y-49411333D02*
X184094380Y-49268476D01*
X184094380Y-49030380D01*
X184046761Y-48935142D01*
X183999142Y-48887523D01*
X183903904Y-48839904D01*
X183808666Y-48839904D01*
X183713428Y-48887523D01*
X183665809Y-48935142D01*
X183618190Y-49030380D01*
X183570571Y-49220857D01*
X183522952Y-49316095D01*
X183475333Y-49363714D01*
X183380095Y-49411333D01*
X183284857Y-49411333D01*
X183189619Y-49363714D01*
X183142000Y-49316095D01*
X183094380Y-49220857D01*
X183094380Y-48982761D01*
X183142000Y-48839904D01*
X184094380Y-47887523D02*
X184094380Y-48458952D01*
X184094380Y-48173238D02*
X183094380Y-48173238D01*
X183237238Y-48268476D01*
X183332476Y-48363714D01*
X183380095Y-48458952D01*
X175516166Y-71080380D02*
X175325690Y-71080380D01*
X175230452Y-71128000D01*
X175182833Y-71175619D01*
X175087595Y-71318476D01*
X175039976Y-71508952D01*
X175039976Y-71889904D01*
X175087595Y-71985142D01*
X175135214Y-72032761D01*
X175230452Y-72080380D01*
X175420928Y-72080380D01*
X175516166Y-72032761D01*
X175563785Y-71985142D01*
X175611404Y-71889904D01*
X175611404Y-71651809D01*
X175563785Y-71556571D01*
X175516166Y-71508952D01*
X175420928Y-71461333D01*
X175230452Y-71461333D01*
X175135214Y-71508952D01*
X175087595Y-71556571D01*
X175039976Y-71651809D01*
X175563785Y-66000380D02*
X175087595Y-66000380D01*
X175039976Y-66476571D01*
X175087595Y-66428952D01*
X175182833Y-66381333D01*
X175420928Y-66381333D01*
X175516166Y-66428952D01*
X175563785Y-66476571D01*
X175611404Y-66571809D01*
X175611404Y-66809904D01*
X175563785Y-66905142D01*
X175516166Y-66952761D01*
X175420928Y-67000380D01*
X175182833Y-67000380D01*
X175087595Y-66952761D01*
X175039976Y-66905142D01*
X175516166Y-61253714D02*
X175516166Y-61920380D01*
X175278071Y-60872761D02*
X175039976Y-61587047D01*
X175659023Y-61587047D01*
X174992357Y-55840380D02*
X175611404Y-55840380D01*
X175278071Y-56221333D01*
X175420928Y-56221333D01*
X175516166Y-56268952D01*
X175563785Y-56316571D01*
X175611404Y-56411809D01*
X175611404Y-56649904D01*
X175563785Y-56745142D01*
X175516166Y-56792761D01*
X175420928Y-56840380D01*
X175135214Y-56840380D01*
X175039976Y-56792761D01*
X174992357Y-56745142D01*
X175039976Y-50855619D02*
X175087595Y-50808000D01*
X175182833Y-50760380D01*
X175420928Y-50760380D01*
X175516166Y-50808000D01*
X175563785Y-50855619D01*
X175611404Y-50950857D01*
X175611404Y-51046095D01*
X175563785Y-51188952D01*
X174992357Y-51760380D01*
X175611404Y-51760380D01*
X175611404Y-46680380D02*
X175039976Y-46680380D01*
X175325690Y-46680380D02*
X175325690Y-45680380D01*
X175230452Y-45823238D01*
X175135214Y-45918476D01*
X175039976Y-45966095D01*
%TO.C,JD_VALVE1*%
X183348380Y-82605142D02*
X184062666Y-82605142D01*
X184205523Y-82652761D01*
X184300761Y-82748000D01*
X184348380Y-82890857D01*
X184348380Y-82986095D01*
X184348380Y-82128952D02*
X183348380Y-82128952D01*
X183348380Y-81890857D01*
X183396000Y-81748000D01*
X183491238Y-81652761D01*
X183586476Y-81605142D01*
X183776952Y-81557523D01*
X183919809Y-81557523D01*
X184110285Y-81605142D01*
X184205523Y-81652761D01*
X184300761Y-81748000D01*
X184348380Y-81890857D01*
X184348380Y-82128952D01*
X184443619Y-81367047D02*
X184443619Y-80605142D01*
X183348380Y-80509904D02*
X184348380Y-80176571D01*
X183348380Y-79843238D01*
X184062666Y-79557523D02*
X184062666Y-79081333D01*
X184348380Y-79652761D02*
X183348380Y-79319428D01*
X184348380Y-78986095D01*
X184348380Y-78176571D02*
X184348380Y-78652761D01*
X183348380Y-78652761D01*
X183348380Y-77986095D02*
X184348380Y-77652761D01*
X183348380Y-77319428D01*
X183824571Y-76986095D02*
X183824571Y-76652761D01*
X184348380Y-76509904D02*
X184348380Y-76986095D01*
X183348380Y-76986095D01*
X183348380Y-76509904D01*
X184348380Y-75557523D02*
X184348380Y-76128952D01*
X184348380Y-75843238D02*
X183348380Y-75843238D01*
X183491238Y-75938476D01*
X183586476Y-76033714D01*
X183634095Y-76128952D01*
X175246357Y-87590380D02*
X175865404Y-87590380D01*
X175532071Y-87971333D01*
X175674928Y-87971333D01*
X175770166Y-88018952D01*
X175817785Y-88066571D01*
X175865404Y-88161809D01*
X175865404Y-88399904D01*
X175817785Y-88495142D01*
X175770166Y-88542761D01*
X175674928Y-88590380D01*
X175389214Y-88590380D01*
X175293976Y-88542761D01*
X175246357Y-88495142D01*
X175293976Y-82605619D02*
X175341595Y-82558000D01*
X175436833Y-82510380D01*
X175674928Y-82510380D01*
X175770166Y-82558000D01*
X175817785Y-82605619D01*
X175865404Y-82700857D01*
X175865404Y-82796095D01*
X175817785Y-82938952D01*
X175246357Y-83510380D01*
X175865404Y-83510380D01*
X175865404Y-78430380D02*
X175293976Y-78430380D01*
X175579690Y-78430380D02*
X175579690Y-77430380D01*
X175484452Y-77573238D01*
X175389214Y-77668476D01*
X175293976Y-77716095D01*
%TO.C,J_12V1*%
X178244761Y-28662380D02*
X178244761Y-29376666D01*
X178197142Y-29519523D01*
X178101904Y-29614761D01*
X177959047Y-29662380D01*
X177863809Y-29662380D01*
X178482857Y-29757619D02*
X179244761Y-29757619D01*
X180006666Y-29662380D02*
X179435238Y-29662380D01*
X179720952Y-29662380D02*
X179720952Y-28662380D01*
X179625714Y-28805238D01*
X179530476Y-28900476D01*
X179435238Y-28948095D01*
X180387619Y-28757619D02*
X180435238Y-28710000D01*
X180530476Y-28662380D01*
X180768571Y-28662380D01*
X180863809Y-28710000D01*
X180911428Y-28757619D01*
X180959047Y-28852857D01*
X180959047Y-28948095D01*
X180911428Y-29090952D01*
X180340000Y-29662380D01*
X180959047Y-29662380D01*
X181244761Y-28662380D02*
X181578095Y-29662380D01*
X181911428Y-28662380D01*
X182768571Y-29662380D02*
X182197142Y-29662380D01*
X182482857Y-29662380D02*
X182482857Y-28662380D01*
X182387619Y-28805238D01*
X182292380Y-28900476D01*
X182197142Y-28948095D01*
%TO.C,U6*%
X123063095Y-51903380D02*
X123063095Y-52712904D01*
X123110714Y-52808142D01*
X123158333Y-52855761D01*
X123253571Y-52903380D01*
X123444047Y-52903380D01*
X123539285Y-52855761D01*
X123586904Y-52808142D01*
X123634523Y-52712904D01*
X123634523Y-51903380D01*
X124539285Y-51903380D02*
X124348809Y-51903380D01*
X124253571Y-51951000D01*
X124205952Y-51998619D01*
X124110714Y-52141476D01*
X124063095Y-52331952D01*
X124063095Y-52712904D01*
X124110714Y-52808142D01*
X124158333Y-52855761D01*
X124253571Y-52903380D01*
X124444047Y-52903380D01*
X124539285Y-52855761D01*
X124586904Y-52808142D01*
X124634523Y-52712904D01*
X124634523Y-52474809D01*
X124586904Y-52379571D01*
X124539285Y-52331952D01*
X124444047Y-52284333D01*
X124253571Y-52284333D01*
X124158333Y-52331952D01*
X124110714Y-52379571D01*
X124063095Y-52474809D01*
X126173047Y-58380380D02*
X126506380Y-59380380D01*
X126839714Y-58380380D01*
X127744476Y-59285142D02*
X127696857Y-59332761D01*
X127554000Y-59380380D01*
X127458761Y-59380380D01*
X127315904Y-59332761D01*
X127220666Y-59237523D01*
X127173047Y-59142285D01*
X127125428Y-58951809D01*
X127125428Y-58808952D01*
X127173047Y-58618476D01*
X127220666Y-58523238D01*
X127315904Y-58428000D01*
X127458761Y-58380380D01*
X127554000Y-58380380D01*
X127696857Y-58428000D01*
X127744476Y-58475619D01*
X128744476Y-59285142D02*
X128696857Y-59332761D01*
X128554000Y-59380380D01*
X128458761Y-59380380D01*
X128315904Y-59332761D01*
X128220666Y-59237523D01*
X128173047Y-59142285D01*
X128125428Y-58951809D01*
X128125428Y-58808952D01*
X128173047Y-58618476D01*
X128220666Y-58523238D01*
X128315904Y-58428000D01*
X128458761Y-58380380D01*
X128554000Y-58380380D01*
X128696857Y-58428000D01*
X128744476Y-58475619D01*
X130125428Y-58380380D02*
X130315904Y-58380380D01*
X130411142Y-58428000D01*
X130506380Y-58523238D01*
X130554000Y-58713714D01*
X130554000Y-59047047D01*
X130506380Y-59237523D01*
X130411142Y-59332761D01*
X130315904Y-59380380D01*
X130125428Y-59380380D01*
X130030190Y-59332761D01*
X129934952Y-59237523D01*
X129887333Y-59047047D01*
X129887333Y-58713714D01*
X129934952Y-58523238D01*
X130030190Y-58428000D01*
X130125428Y-58380380D01*
X130982571Y-58380380D02*
X130982571Y-59189904D01*
X131030190Y-59285142D01*
X131077809Y-59332761D01*
X131173047Y-59380380D01*
X131363523Y-59380380D01*
X131458761Y-59332761D01*
X131506380Y-59285142D01*
X131554000Y-59189904D01*
X131554000Y-58380380D01*
X131887333Y-58380380D02*
X132458761Y-58380380D01*
X132173047Y-59380380D02*
X132173047Y-58380380D01*
X126173047Y-55840380D02*
X126506380Y-56840380D01*
X126839714Y-55840380D01*
X127744476Y-56745142D02*
X127696857Y-56792761D01*
X127554000Y-56840380D01*
X127458761Y-56840380D01*
X127315904Y-56792761D01*
X127220666Y-56697523D01*
X127173047Y-56602285D01*
X127125428Y-56411809D01*
X127125428Y-56268952D01*
X127173047Y-56078476D01*
X127220666Y-55983238D01*
X127315904Y-55888000D01*
X127458761Y-55840380D01*
X127554000Y-55840380D01*
X127696857Y-55888000D01*
X127744476Y-55935619D01*
X128744476Y-56745142D02*
X128696857Y-56792761D01*
X128554000Y-56840380D01*
X128458761Y-56840380D01*
X128315904Y-56792761D01*
X128220666Y-56697523D01*
X128173047Y-56602285D01*
X128125428Y-56411809D01*
X128125428Y-56268952D01*
X128173047Y-56078476D01*
X128220666Y-55983238D01*
X128315904Y-55888000D01*
X128458761Y-55840380D01*
X128554000Y-55840380D01*
X128696857Y-55888000D01*
X128744476Y-55935619D01*
X130125428Y-55840380D02*
X130315904Y-55840380D01*
X130411142Y-55888000D01*
X130506380Y-55983238D01*
X130554000Y-56173714D01*
X130554000Y-56507047D01*
X130506380Y-56697523D01*
X130411142Y-56792761D01*
X130315904Y-56840380D01*
X130125428Y-56840380D01*
X130030190Y-56792761D01*
X129934952Y-56697523D01*
X129887333Y-56507047D01*
X129887333Y-56173714D01*
X129934952Y-55983238D01*
X130030190Y-55888000D01*
X130125428Y-55840380D01*
X130982571Y-55840380D02*
X130982571Y-56649904D01*
X131030190Y-56745142D01*
X131077809Y-56792761D01*
X131173047Y-56840380D01*
X131363523Y-56840380D01*
X131458761Y-56792761D01*
X131506380Y-56745142D01*
X131554000Y-56649904D01*
X131554000Y-55840380D01*
X131887333Y-55840380D02*
X132458761Y-55840380D01*
X132173047Y-56840380D02*
X132173047Y-55840380D01*
X126395238Y-48268000D02*
X126300000Y-48220380D01*
X126157142Y-48220380D01*
X126014285Y-48268000D01*
X125919047Y-48363238D01*
X125871428Y-48458476D01*
X125823809Y-48648952D01*
X125823809Y-48791809D01*
X125871428Y-48982285D01*
X125919047Y-49077523D01*
X126014285Y-49172761D01*
X126157142Y-49220380D01*
X126252380Y-49220380D01*
X126395238Y-49172761D01*
X126442857Y-49125142D01*
X126442857Y-48791809D01*
X126252380Y-48791809D01*
X126871428Y-49220380D02*
X126871428Y-48220380D01*
X127442857Y-49220380D01*
X127442857Y-48220380D01*
X127919047Y-49220380D02*
X127919047Y-48220380D01*
X128157142Y-48220380D01*
X128300000Y-48268000D01*
X128395238Y-48363238D01*
X128442857Y-48458476D01*
X128490476Y-48648952D01*
X128490476Y-48791809D01*
X128442857Y-48982285D01*
X128395238Y-49077523D01*
X128300000Y-49172761D01*
X128157142Y-49220380D01*
X127919047Y-49220380D01*
X129871428Y-48220380D02*
X130061904Y-48220380D01*
X130157142Y-48268000D01*
X130252380Y-48363238D01*
X130300000Y-48553714D01*
X130300000Y-48887047D01*
X130252380Y-49077523D01*
X130157142Y-49172761D01*
X130061904Y-49220380D01*
X129871428Y-49220380D01*
X129776190Y-49172761D01*
X129680952Y-49077523D01*
X129633333Y-48887047D01*
X129633333Y-48553714D01*
X129680952Y-48363238D01*
X129776190Y-48268000D01*
X129871428Y-48220380D01*
X130728571Y-48220380D02*
X130728571Y-49029904D01*
X130776190Y-49125142D01*
X130823809Y-49172761D01*
X130919047Y-49220380D01*
X131109523Y-49220380D01*
X131204761Y-49172761D01*
X131252380Y-49125142D01*
X131300000Y-49029904D01*
X131300000Y-48220380D01*
X131633333Y-48220380D02*
X132204761Y-48220380D01*
X131919047Y-49220380D02*
X131919047Y-48220380D01*
X126395238Y-45601000D02*
X126300000Y-45553380D01*
X126157142Y-45553380D01*
X126014285Y-45601000D01*
X125919047Y-45696238D01*
X125871428Y-45791476D01*
X125823809Y-45981952D01*
X125823809Y-46124809D01*
X125871428Y-46315285D01*
X125919047Y-46410523D01*
X126014285Y-46505761D01*
X126157142Y-46553380D01*
X126252380Y-46553380D01*
X126395238Y-46505761D01*
X126442857Y-46458142D01*
X126442857Y-46124809D01*
X126252380Y-46124809D01*
X126871428Y-46553380D02*
X126871428Y-45553380D01*
X127442857Y-46553380D01*
X127442857Y-45553380D01*
X127919047Y-46553380D02*
X127919047Y-45553380D01*
X128157142Y-45553380D01*
X128300000Y-45601000D01*
X128395238Y-45696238D01*
X128442857Y-45791476D01*
X128490476Y-45981952D01*
X128490476Y-46124809D01*
X128442857Y-46315285D01*
X128395238Y-46410523D01*
X128300000Y-46505761D01*
X128157142Y-46553380D01*
X127919047Y-46553380D01*
X129871428Y-45553380D02*
X130061904Y-45553380D01*
X130157142Y-45601000D01*
X130252380Y-45696238D01*
X130300000Y-45886714D01*
X130300000Y-46220047D01*
X130252380Y-46410523D01*
X130157142Y-46505761D01*
X130061904Y-46553380D01*
X129871428Y-46553380D01*
X129776190Y-46505761D01*
X129680952Y-46410523D01*
X129633333Y-46220047D01*
X129633333Y-45886714D01*
X129680952Y-45696238D01*
X129776190Y-45601000D01*
X129871428Y-45553380D01*
X130728571Y-45553380D02*
X130728571Y-46362904D01*
X130776190Y-46458142D01*
X130823809Y-46505761D01*
X130919047Y-46553380D01*
X131109523Y-46553380D01*
X131204761Y-46505761D01*
X131252380Y-46458142D01*
X131300000Y-46362904D01*
X131300000Y-45553380D01*
X131633333Y-45553380D02*
X132204761Y-45553380D01*
X131919047Y-46553380D02*
X131919047Y-45553380D01*
X114810238Y-58253380D02*
X115143571Y-59253380D01*
X115476904Y-58253380D01*
X116381666Y-59158142D02*
X116334047Y-59205761D01*
X116191190Y-59253380D01*
X116095952Y-59253380D01*
X115953095Y-59205761D01*
X115857857Y-59110523D01*
X115810238Y-59015285D01*
X115762619Y-58824809D01*
X115762619Y-58681952D01*
X115810238Y-58491476D01*
X115857857Y-58396238D01*
X115953095Y-58301000D01*
X116095952Y-58253380D01*
X116191190Y-58253380D01*
X116334047Y-58301000D01*
X116381666Y-58348619D01*
X117381666Y-59158142D02*
X117334047Y-59205761D01*
X117191190Y-59253380D01*
X117095952Y-59253380D01*
X116953095Y-59205761D01*
X116857857Y-59110523D01*
X116810238Y-59015285D01*
X116762619Y-58824809D01*
X116762619Y-58681952D01*
X116810238Y-58491476D01*
X116857857Y-58396238D01*
X116953095Y-58301000D01*
X117095952Y-58253380D01*
X117191190Y-58253380D01*
X117334047Y-58301000D01*
X117381666Y-58348619D01*
X118572142Y-59253380D02*
X118572142Y-58253380D01*
X119048333Y-59253380D02*
X119048333Y-58253380D01*
X119619761Y-59253380D01*
X119619761Y-58253380D01*
X114810238Y-55713380D02*
X115143571Y-56713380D01*
X115476904Y-55713380D01*
X116381666Y-56618142D02*
X116334047Y-56665761D01*
X116191190Y-56713380D01*
X116095952Y-56713380D01*
X115953095Y-56665761D01*
X115857857Y-56570523D01*
X115810238Y-56475285D01*
X115762619Y-56284809D01*
X115762619Y-56141952D01*
X115810238Y-55951476D01*
X115857857Y-55856238D01*
X115953095Y-55761000D01*
X116095952Y-55713380D01*
X116191190Y-55713380D01*
X116334047Y-55761000D01*
X116381666Y-55808619D01*
X117381666Y-56618142D02*
X117334047Y-56665761D01*
X117191190Y-56713380D01*
X117095952Y-56713380D01*
X116953095Y-56665761D01*
X116857857Y-56570523D01*
X116810238Y-56475285D01*
X116762619Y-56284809D01*
X116762619Y-56141952D01*
X116810238Y-55951476D01*
X116857857Y-55856238D01*
X116953095Y-55761000D01*
X117095952Y-55713380D01*
X117191190Y-55713380D01*
X117334047Y-55761000D01*
X117381666Y-55808619D01*
X118572142Y-56713380D02*
X118572142Y-55713380D01*
X119048333Y-56713380D02*
X119048333Y-55713380D01*
X119619761Y-56713380D01*
X119619761Y-55713380D01*
X115222904Y-48268000D02*
X115127666Y-48220380D01*
X114984809Y-48220380D01*
X114841952Y-48268000D01*
X114746714Y-48363238D01*
X114699095Y-48458476D01*
X114651476Y-48648952D01*
X114651476Y-48791809D01*
X114699095Y-48982285D01*
X114746714Y-49077523D01*
X114841952Y-49172761D01*
X114984809Y-49220380D01*
X115080047Y-49220380D01*
X115222904Y-49172761D01*
X115270523Y-49125142D01*
X115270523Y-48791809D01*
X115080047Y-48791809D01*
X115699095Y-49220380D02*
X115699095Y-48220380D01*
X116270523Y-49220380D01*
X116270523Y-48220380D01*
X116746714Y-49220380D02*
X116746714Y-48220380D01*
X116984809Y-48220380D01*
X117127666Y-48268000D01*
X117222904Y-48363238D01*
X117270523Y-48458476D01*
X117318142Y-48648952D01*
X117318142Y-48791809D01*
X117270523Y-48982285D01*
X117222904Y-49077523D01*
X117127666Y-49172761D01*
X116984809Y-49220380D01*
X116746714Y-49220380D01*
X118508619Y-49220380D02*
X118508619Y-48220380D01*
X118984809Y-49220380D02*
X118984809Y-48220380D01*
X119556238Y-49220380D01*
X119556238Y-48220380D01*
X115222904Y-45601000D02*
X115127666Y-45553380D01*
X114984809Y-45553380D01*
X114841952Y-45601000D01*
X114746714Y-45696238D01*
X114699095Y-45791476D01*
X114651476Y-45981952D01*
X114651476Y-46124809D01*
X114699095Y-46315285D01*
X114746714Y-46410523D01*
X114841952Y-46505761D01*
X114984809Y-46553380D01*
X115080047Y-46553380D01*
X115222904Y-46505761D01*
X115270523Y-46458142D01*
X115270523Y-46124809D01*
X115080047Y-46124809D01*
X115699095Y-46553380D02*
X115699095Y-45553380D01*
X116270523Y-46553380D01*
X116270523Y-45553380D01*
X116746714Y-46553380D02*
X116746714Y-45553380D01*
X116984809Y-45553380D01*
X117127666Y-45601000D01*
X117222904Y-45696238D01*
X117270523Y-45791476D01*
X117318142Y-45981952D01*
X117318142Y-46124809D01*
X117270523Y-46315285D01*
X117222904Y-46410523D01*
X117127666Y-46505761D01*
X116984809Y-46553380D01*
X116746714Y-46553380D01*
X118508619Y-46553380D02*
X118508619Y-45553380D01*
X118984809Y-46553380D02*
X118984809Y-45553380D01*
X119556238Y-46553380D01*
X119556238Y-45553380D01*
%TO.C,U7*%
X170053095Y-110704380D02*
X170053095Y-111513904D01*
X170100714Y-111609142D01*
X170148333Y-111656761D01*
X170243571Y-111704380D01*
X170434047Y-111704380D01*
X170529285Y-111656761D01*
X170576904Y-111609142D01*
X170624523Y-111513904D01*
X170624523Y-110704380D01*
X171005476Y-110704380D02*
X171672142Y-110704380D01*
X171243571Y-111704380D01*
X181443380Y-108713452D02*
X182443380Y-108380119D01*
X181443380Y-108046785D01*
X182348142Y-107142023D02*
X182395761Y-107189642D01*
X182443380Y-107332500D01*
X182443380Y-107427738D01*
X182395761Y-107570595D01*
X182300523Y-107665833D01*
X182205285Y-107713452D01*
X182014809Y-107761071D01*
X181871952Y-107761071D01*
X181681476Y-107713452D01*
X181586238Y-107665833D01*
X181491000Y-107570595D01*
X181443380Y-107427738D01*
X181443380Y-107332500D01*
X181491000Y-107189642D01*
X181538619Y-107142023D01*
X182348142Y-106142023D02*
X182395761Y-106189642D01*
X182443380Y-106332500D01*
X182443380Y-106427738D01*
X182395761Y-106570595D01*
X182300523Y-106665833D01*
X182205285Y-106713452D01*
X182014809Y-106761071D01*
X181871952Y-106761071D01*
X181681476Y-106713452D01*
X181586238Y-106665833D01*
X181491000Y-106570595D01*
X181443380Y-106427738D01*
X181443380Y-106332500D01*
X181491000Y-106189642D01*
X181538619Y-106142023D01*
X181443380Y-104761071D02*
X181443380Y-104570595D01*
X181491000Y-104475357D01*
X181586238Y-104380119D01*
X181776714Y-104332500D01*
X182110047Y-104332500D01*
X182300523Y-104380119D01*
X182395761Y-104475357D01*
X182443380Y-104570595D01*
X182443380Y-104761071D01*
X182395761Y-104856309D01*
X182300523Y-104951547D01*
X182110047Y-104999166D01*
X181776714Y-104999166D01*
X181586238Y-104951547D01*
X181491000Y-104856309D01*
X181443380Y-104761071D01*
X181443380Y-103903928D02*
X182252904Y-103903928D01*
X182348142Y-103856309D01*
X182395761Y-103808690D01*
X182443380Y-103713452D01*
X182443380Y-103522976D01*
X182395761Y-103427738D01*
X182348142Y-103380119D01*
X182252904Y-103332500D01*
X181443380Y-103332500D01*
X181443380Y-102999166D02*
X181443380Y-102427738D01*
X182443380Y-102713452D02*
X181443380Y-102713452D01*
X178903380Y-108713452D02*
X179903380Y-108380119D01*
X178903380Y-108046785D01*
X179808142Y-107142023D02*
X179855761Y-107189642D01*
X179903380Y-107332500D01*
X179903380Y-107427738D01*
X179855761Y-107570595D01*
X179760523Y-107665833D01*
X179665285Y-107713452D01*
X179474809Y-107761071D01*
X179331952Y-107761071D01*
X179141476Y-107713452D01*
X179046238Y-107665833D01*
X178951000Y-107570595D01*
X178903380Y-107427738D01*
X178903380Y-107332500D01*
X178951000Y-107189642D01*
X178998619Y-107142023D01*
X179808142Y-106142023D02*
X179855761Y-106189642D01*
X179903380Y-106332500D01*
X179903380Y-106427738D01*
X179855761Y-106570595D01*
X179760523Y-106665833D01*
X179665285Y-106713452D01*
X179474809Y-106761071D01*
X179331952Y-106761071D01*
X179141476Y-106713452D01*
X179046238Y-106665833D01*
X178951000Y-106570595D01*
X178903380Y-106427738D01*
X178903380Y-106332500D01*
X178951000Y-106189642D01*
X178998619Y-106142023D01*
X178903380Y-104761071D02*
X178903380Y-104570595D01*
X178951000Y-104475357D01*
X179046238Y-104380119D01*
X179236714Y-104332500D01*
X179570047Y-104332500D01*
X179760523Y-104380119D01*
X179855761Y-104475357D01*
X179903380Y-104570595D01*
X179903380Y-104761071D01*
X179855761Y-104856309D01*
X179760523Y-104951547D01*
X179570047Y-104999166D01*
X179236714Y-104999166D01*
X179046238Y-104951547D01*
X178951000Y-104856309D01*
X178903380Y-104761071D01*
X178903380Y-103903928D02*
X179712904Y-103903928D01*
X179808142Y-103856309D01*
X179855761Y-103808690D01*
X179903380Y-103713452D01*
X179903380Y-103522976D01*
X179855761Y-103427738D01*
X179808142Y-103380119D01*
X179712904Y-103332500D01*
X178903380Y-103332500D01*
X178903380Y-102999166D02*
X178903380Y-102427738D01*
X179903380Y-102713452D02*
X178903380Y-102713452D01*
X171331000Y-108491261D02*
X171283380Y-108586500D01*
X171283380Y-108729357D01*
X171331000Y-108872214D01*
X171426238Y-108967452D01*
X171521476Y-109015071D01*
X171711952Y-109062690D01*
X171854809Y-109062690D01*
X172045285Y-109015071D01*
X172140523Y-108967452D01*
X172235761Y-108872214D01*
X172283380Y-108729357D01*
X172283380Y-108634119D01*
X172235761Y-108491261D01*
X172188142Y-108443642D01*
X171854809Y-108443642D01*
X171854809Y-108634119D01*
X172283380Y-108015071D02*
X171283380Y-108015071D01*
X172283380Y-107443642D01*
X171283380Y-107443642D01*
X172283380Y-106967452D02*
X171283380Y-106967452D01*
X171283380Y-106729357D01*
X171331000Y-106586500D01*
X171426238Y-106491261D01*
X171521476Y-106443642D01*
X171711952Y-106396023D01*
X171854809Y-106396023D01*
X172045285Y-106443642D01*
X172140523Y-106491261D01*
X172235761Y-106586500D01*
X172283380Y-106729357D01*
X172283380Y-106967452D01*
X171283380Y-105015071D02*
X171283380Y-104824595D01*
X171331000Y-104729357D01*
X171426238Y-104634119D01*
X171616714Y-104586500D01*
X171950047Y-104586500D01*
X172140523Y-104634119D01*
X172235761Y-104729357D01*
X172283380Y-104824595D01*
X172283380Y-105015071D01*
X172235761Y-105110309D01*
X172140523Y-105205547D01*
X171950047Y-105253166D01*
X171616714Y-105253166D01*
X171426238Y-105205547D01*
X171331000Y-105110309D01*
X171283380Y-105015071D01*
X171283380Y-104157928D02*
X172092904Y-104157928D01*
X172188142Y-104110309D01*
X172235761Y-104062690D01*
X172283380Y-103967452D01*
X172283380Y-103776976D01*
X172235761Y-103681738D01*
X172188142Y-103634119D01*
X172092904Y-103586500D01*
X171283380Y-103586500D01*
X171283380Y-103253166D02*
X171283380Y-102681738D01*
X172283380Y-102967452D02*
X171283380Y-102967452D01*
X168664000Y-108491261D02*
X168616380Y-108586500D01*
X168616380Y-108729357D01*
X168664000Y-108872214D01*
X168759238Y-108967452D01*
X168854476Y-109015071D01*
X169044952Y-109062690D01*
X169187809Y-109062690D01*
X169378285Y-109015071D01*
X169473523Y-108967452D01*
X169568761Y-108872214D01*
X169616380Y-108729357D01*
X169616380Y-108634119D01*
X169568761Y-108491261D01*
X169521142Y-108443642D01*
X169187809Y-108443642D01*
X169187809Y-108634119D01*
X169616380Y-108015071D02*
X168616380Y-108015071D01*
X169616380Y-107443642D01*
X168616380Y-107443642D01*
X169616380Y-106967452D02*
X168616380Y-106967452D01*
X168616380Y-106729357D01*
X168664000Y-106586500D01*
X168759238Y-106491261D01*
X168854476Y-106443642D01*
X169044952Y-106396023D01*
X169187809Y-106396023D01*
X169378285Y-106443642D01*
X169473523Y-106491261D01*
X169568761Y-106586500D01*
X169616380Y-106729357D01*
X169616380Y-106967452D01*
X168616380Y-105015071D02*
X168616380Y-104824595D01*
X168664000Y-104729357D01*
X168759238Y-104634119D01*
X168949714Y-104586500D01*
X169283047Y-104586500D01*
X169473523Y-104634119D01*
X169568761Y-104729357D01*
X169616380Y-104824595D01*
X169616380Y-105015071D01*
X169568761Y-105110309D01*
X169473523Y-105205547D01*
X169283047Y-105253166D01*
X168949714Y-105253166D01*
X168759238Y-105205547D01*
X168664000Y-105110309D01*
X168616380Y-105015071D01*
X168616380Y-104157928D02*
X169425904Y-104157928D01*
X169521142Y-104110309D01*
X169568761Y-104062690D01*
X169616380Y-103967452D01*
X169616380Y-103776976D01*
X169568761Y-103681738D01*
X169521142Y-103634119D01*
X169425904Y-103586500D01*
X168616380Y-103586500D01*
X168616380Y-103253166D02*
X168616380Y-102681738D01*
X169616380Y-102967452D02*
X168616380Y-102967452D01*
X181316380Y-120076261D02*
X182316380Y-119742928D01*
X181316380Y-119409595D01*
X182221142Y-118504833D02*
X182268761Y-118552452D01*
X182316380Y-118695309D01*
X182316380Y-118790547D01*
X182268761Y-118933404D01*
X182173523Y-119028642D01*
X182078285Y-119076261D01*
X181887809Y-119123880D01*
X181744952Y-119123880D01*
X181554476Y-119076261D01*
X181459238Y-119028642D01*
X181364000Y-118933404D01*
X181316380Y-118790547D01*
X181316380Y-118695309D01*
X181364000Y-118552452D01*
X181411619Y-118504833D01*
X182221142Y-117504833D02*
X182268761Y-117552452D01*
X182316380Y-117695309D01*
X182316380Y-117790547D01*
X182268761Y-117933404D01*
X182173523Y-118028642D01*
X182078285Y-118076261D01*
X181887809Y-118123880D01*
X181744952Y-118123880D01*
X181554476Y-118076261D01*
X181459238Y-118028642D01*
X181364000Y-117933404D01*
X181316380Y-117790547D01*
X181316380Y-117695309D01*
X181364000Y-117552452D01*
X181411619Y-117504833D01*
X182316380Y-116314357D02*
X181316380Y-116314357D01*
X182316380Y-115838166D02*
X181316380Y-115838166D01*
X182316380Y-115266738D01*
X181316380Y-115266738D01*
X178776380Y-120076261D02*
X179776380Y-119742928D01*
X178776380Y-119409595D01*
X179681142Y-118504833D02*
X179728761Y-118552452D01*
X179776380Y-118695309D01*
X179776380Y-118790547D01*
X179728761Y-118933404D01*
X179633523Y-119028642D01*
X179538285Y-119076261D01*
X179347809Y-119123880D01*
X179204952Y-119123880D01*
X179014476Y-119076261D01*
X178919238Y-119028642D01*
X178824000Y-118933404D01*
X178776380Y-118790547D01*
X178776380Y-118695309D01*
X178824000Y-118552452D01*
X178871619Y-118504833D01*
X179681142Y-117504833D02*
X179728761Y-117552452D01*
X179776380Y-117695309D01*
X179776380Y-117790547D01*
X179728761Y-117933404D01*
X179633523Y-118028642D01*
X179538285Y-118076261D01*
X179347809Y-118123880D01*
X179204952Y-118123880D01*
X179014476Y-118076261D01*
X178919238Y-118028642D01*
X178824000Y-117933404D01*
X178776380Y-117790547D01*
X178776380Y-117695309D01*
X178824000Y-117552452D01*
X178871619Y-117504833D01*
X179776380Y-116314357D02*
X178776380Y-116314357D01*
X179776380Y-115838166D02*
X178776380Y-115838166D01*
X179776380Y-115266738D01*
X178776380Y-115266738D01*
X171331000Y-119663595D02*
X171283380Y-119758833D01*
X171283380Y-119901690D01*
X171331000Y-120044547D01*
X171426238Y-120139785D01*
X171521476Y-120187404D01*
X171711952Y-120235023D01*
X171854809Y-120235023D01*
X172045285Y-120187404D01*
X172140523Y-120139785D01*
X172235761Y-120044547D01*
X172283380Y-119901690D01*
X172283380Y-119806452D01*
X172235761Y-119663595D01*
X172188142Y-119615976D01*
X171854809Y-119615976D01*
X171854809Y-119806452D01*
X172283380Y-119187404D02*
X171283380Y-119187404D01*
X172283380Y-118615976D01*
X171283380Y-118615976D01*
X172283380Y-118139785D02*
X171283380Y-118139785D01*
X171283380Y-117901690D01*
X171331000Y-117758833D01*
X171426238Y-117663595D01*
X171521476Y-117615976D01*
X171711952Y-117568357D01*
X171854809Y-117568357D01*
X172045285Y-117615976D01*
X172140523Y-117663595D01*
X172235761Y-117758833D01*
X172283380Y-117901690D01*
X172283380Y-118139785D01*
X172283380Y-116377880D02*
X171283380Y-116377880D01*
X172283380Y-115901690D02*
X171283380Y-115901690D01*
X172283380Y-115330261D01*
X171283380Y-115330261D01*
X168664000Y-119663595D02*
X168616380Y-119758833D01*
X168616380Y-119901690D01*
X168664000Y-120044547D01*
X168759238Y-120139785D01*
X168854476Y-120187404D01*
X169044952Y-120235023D01*
X169187809Y-120235023D01*
X169378285Y-120187404D01*
X169473523Y-120139785D01*
X169568761Y-120044547D01*
X169616380Y-119901690D01*
X169616380Y-119806452D01*
X169568761Y-119663595D01*
X169521142Y-119615976D01*
X169187809Y-119615976D01*
X169187809Y-119806452D01*
X169616380Y-119187404D02*
X168616380Y-119187404D01*
X169616380Y-118615976D01*
X168616380Y-118615976D01*
X169616380Y-118139785D02*
X168616380Y-118139785D01*
X168616380Y-117901690D01*
X168664000Y-117758833D01*
X168759238Y-117663595D01*
X168854476Y-117615976D01*
X169044952Y-117568357D01*
X169187809Y-117568357D01*
X169378285Y-117615976D01*
X169473523Y-117663595D01*
X169568761Y-117758833D01*
X169616380Y-117901690D01*
X169616380Y-118139785D01*
X169616380Y-116377880D02*
X168616380Y-116377880D01*
X169616380Y-115901690D02*
X168616380Y-115901690D01*
X169616380Y-115330261D01*
X168616380Y-115330261D01*
%TD*%
M02*
