%TF.GenerationSoftware,KiCad,Pcbnew,(5.1.10)-1*%
%TF.CreationDate,2021-10-02T14:55:05+00:00*%
%TF.ProjectId,watermixer,77617465-726d-4697-9865-722e6b696361,v1.0*%
%TF.SameCoordinates,Original*%
%TF.FileFunction,Copper,L1,Top*%
%TF.FilePolarity,Positive*%
%FSLAX46Y46*%
G04 Gerber Fmt 4.6, Leading zero omitted, Abs format (unit mm)*
G04 Created by KiCad (PCBNEW (5.1.10)-1) date 2021-10-02 14:55:05*
%MOMM*%
%LPD*%
G01*
G04 APERTURE LIST*
%TA.AperFunction,ComponentPad*%
%ADD10O,1.600000X1.600000*%
%TD*%
%TA.AperFunction,ComponentPad*%
%ADD11C,1.600000*%
%TD*%
%TA.AperFunction,ComponentPad*%
%ADD12C,4.000000*%
%TD*%
%TA.AperFunction,ComponentPad*%
%ADD13C,1.524000*%
%TD*%
%TA.AperFunction,ComponentPad*%
%ADD14R,1.600000X1.600000*%
%TD*%
%TA.AperFunction,ComponentPad*%
%ADD15C,1.500000*%
%TD*%
%TA.AperFunction,ComponentPad*%
%ADD16R,1.500000X1.500000*%
%TD*%
%TA.AperFunction,ComponentPad*%
%ADD17O,2.000000X1.200000*%
%TD*%
%TA.AperFunction,ComponentPad*%
%ADD18C,2.000000*%
%TD*%
%TA.AperFunction,ComponentPad*%
%ADD19R,1.524000X1.524000*%
%TD*%
%TA.AperFunction,ViaPad*%
%ADD20C,0.800000*%
%TD*%
%TA.AperFunction,Conductor*%
%ADD21C,0.500000*%
%TD*%
%TA.AperFunction,Conductor*%
%ADD22C,1.000000*%
%TD*%
G04 APERTURE END LIST*
D10*
%TO.P,R1,2*%
%TO.N,/SIGT*%
X96012000Y-44450000D03*
D11*
%TO.P,R1,1*%
%TO.N,+3V3*%
X96012000Y-52070000D03*
%TD*%
D12*
%TO.P,U5,11*%
%TO.N,N/C*%
X111379000Y-35052000D03*
X131953000Y-35052000D03*
D13*
%TO.P,U5,9*%
X110109000Y-29972000D03*
%TO.P,U5,8*%
X112649000Y-29972000D03*
%TO.P,U5,7*%
X115189000Y-29972000D03*
%TO.P,U5,6*%
%TO.N,/SIGP*%
X117729000Y-29972000D03*
%TO.P,U5,5*%
%TO.N,N/C*%
X120269000Y-29972000D03*
%TO.P,U5,4*%
X122809000Y-29972000D03*
%TO.P,U5,3*%
%TO.N,Net-(U3-Pad11)*%
X125349000Y-29972000D03*
%TO.P,U5,2*%
%TO.N,Net-(U3-Pad9)*%
X127889000Y-29972000D03*
%TO.P,U5,10*%
%TO.N,GND*%
X130429000Y-29972000D03*
%TO.P,U5,1*%
%TO.N,+5V*%
X132969000Y-29972000D03*
%TD*%
D11*
%TO.P,C1,2*%
%TO.N,GND*%
X170688000Y-93044000D03*
D14*
%TO.P,C1,1*%
%TO.N,+3V3*%
X170688000Y-98044000D03*
%TD*%
D13*
%TO.P,U4,1*%
%TO.N,+5V*%
X158496000Y-41656000D03*
%TO.P,U4,10*%
%TO.N,GND*%
X158496000Y-44196000D03*
%TO.P,U4,2*%
%TO.N,Net-(U3-Pad9)*%
X158496000Y-46736000D03*
%TO.P,U4,3*%
%TO.N,Net-(U3-Pad11)*%
X158496000Y-49276000D03*
%TO.P,U4,4*%
%TO.N,N/C*%
X158496000Y-51816000D03*
%TO.P,U4,5*%
X158496000Y-54356000D03*
%TO.P,U4,6*%
%TO.N,Net-(JHC_VALVES1-Pad3)*%
X158496000Y-56896000D03*
%TO.P,U4,7*%
%TO.N,Net-(JHC_VALVES1-Pad6)*%
X158496000Y-59436000D03*
%TO.P,U4,8*%
%TO.N,N/C*%
X158496000Y-61976000D03*
%TO.P,U4,9*%
%TO.N,Net-(JD_VALVE1-Pad3)*%
X158496000Y-64516000D03*
D12*
%TO.P,U4,11*%
%TO.N,N/C*%
X163576000Y-42672000D03*
X163576000Y-63246000D03*
%TD*%
D15*
%TO.P,U1,18*%
%TO.N,N/C*%
X162580000Y-79857600D03*
%TO.P,U1,17*%
%TO.N,Net-(U1-Pad12)*%
X162580000Y-82397600D03*
%TO.P,U1,16*%
%TO.N,Net-(U1-Pad11)*%
X162580000Y-84937600D03*
%TO.P,U1,15*%
%TO.N,Net-(U1-Pad15)*%
X162580000Y-87477600D03*
D16*
%TO.P,U1,1*%
%TO.N,+3V3*%
X162580000Y-112877600D03*
D15*
%TO.P,U1,2*%
%TO.N,GND*%
X162580000Y-110337600D03*
%TO.P,U1,3*%
%TO.N,Net-(U1-Pad3)*%
X162580000Y-107797600D03*
%TO.P,U1,4*%
%TO.N,Net-(U1-Pad4)*%
X162580000Y-105257600D03*
%TO.P,U1,5*%
%TO.N,Net-(U1-Pad5)*%
X162580000Y-102717600D03*
%TO.P,U1,6*%
%TO.N,Net-(U1-Pad11)*%
X162580000Y-100177600D03*
%TO.P,U1,7*%
%TO.N,Net-(U1-Pad13)*%
X162580000Y-97637600D03*
%TO.P,U1,8*%
%TO.N,+3V3*%
X162580000Y-95097600D03*
%TO.P,U1,9*%
%TO.N,N/C*%
X162580000Y-92557600D03*
%TO.P,U1,10*%
%TO.N,Net-(U1-Pad10)*%
X76200000Y-99822000D03*
%TO.P,U1,11*%
%TO.N,Net-(U1-Pad11)*%
X76200000Y-97282000D03*
%TO.P,U1,12*%
%TO.N,Net-(U1-Pad12)*%
X76200000Y-94742000D03*
%TO.P,U1,13*%
%TO.N,Net-(U1-Pad13)*%
X76200000Y-92202000D03*
%TO.P,U1,14*%
X162580000Y-90017600D03*
D12*
%TO.P,U1,*%
%TO.N,*%
X161025000Y-121008000D03*
X77205000Y-121008000D03*
X77205000Y-71478000D03*
X161025000Y-71478000D03*
%TD*%
%TO.P,U2,38*%
%TO.N,GND*%
%TA.AperFunction,ComponentPad*%
G36*
G01*
X104452320Y-71284720D02*
X105852320Y-71284720D01*
G75*
G02*
X106152320Y-71584720I0J-300000D01*
G01*
X106152320Y-72184720D01*
G75*
G02*
X105852320Y-72484720I-300000J0D01*
G01*
X104452320Y-72484720D01*
G75*
G02*
X104152320Y-72184720I0J300000D01*
G01*
X104152320Y-71584720D01*
G75*
G02*
X104452320Y-71284720I300000J0D01*
G01*
G37*
%TD.AperFunction*%
D17*
%TO.P,U2,37*%
%TO.N,Net-(U1-Pad11)*%
X105152320Y-74424720D03*
%TO.P,U2,36*%
%TO.N,N/C*%
X105152320Y-76964720D03*
%TO.P,U2,35*%
X105152320Y-79504720D03*
%TO.P,U2,34*%
X105152320Y-82044720D03*
%TO.P,U2,33*%
%TO.N,Net-(U1-Pad15)*%
X105152320Y-84584720D03*
%TO.P,U2,32*%
%TO.N,GND*%
X105152320Y-87124720D03*
%TO.P,U2,31*%
%TO.N,Net-(U1-Pad12)*%
X105152320Y-89664720D03*
%TO.P,U2,30*%
%TO.N,Net-(U1-Pad13)*%
X105152320Y-92204720D03*
%TO.P,U2,29*%
%TO.N,Net-(U1-Pad10)*%
X105152320Y-94744720D03*
%TO.P,U2,28*%
%TO.N,N/C*%
X105152320Y-97284720D03*
%TO.P,U2,27*%
X105152320Y-99824720D03*
%TO.P,U2,26*%
%TO.N,Net-(U1-Pad4)*%
X105152320Y-102364720D03*
%TO.P,U2,25*%
%TO.N,N/C*%
X105152320Y-104904720D03*
%TO.P,U2,24*%
%TO.N,Net-(U1-Pad5)*%
X105152320Y-107444720D03*
%TO.P,U2,23*%
%TO.N,Net-(U1-Pad3)*%
X105152320Y-109984720D03*
%TO.P,U2,22*%
%TO.N,N/C*%
X105152320Y-112524720D03*
%TO.P,U2,21*%
X105156000Y-115062000D03*
%TO.P,U2,20*%
X105156000Y-117602000D03*
%TO.P,U2,19*%
%TO.N,+5V*%
X130552320Y-117604720D03*
%TO.P,U2,18*%
%TO.N,N/C*%
X130552320Y-115064720D03*
%TO.P,U2,17*%
X130552320Y-112524720D03*
%TO.P,U2,16*%
X130552320Y-109984720D03*
%TO.P,U2,15*%
%TO.N,Net-(U2-Pad15)*%
X130552320Y-107444720D03*
%TO.P,U2,14*%
%TO.N,GND*%
%TA.AperFunction,ComponentPad*%
G36*
G01*
X129852320Y-104304720D02*
X131252320Y-104304720D01*
G75*
G02*
X131552320Y-104604720I0J-300000D01*
G01*
X131552320Y-105204720D01*
G75*
G02*
X131252320Y-105504720I-300000J0D01*
G01*
X129852320Y-105504720D01*
G75*
G02*
X129552320Y-105204720I0J300000D01*
G01*
X129552320Y-104604720D01*
G75*
G02*
X129852320Y-104304720I300000J0D01*
G01*
G37*
%TD.AperFunction*%
%TO.P,U2,13*%
%TO.N,N/C*%
X130552320Y-102364720D03*
%TO.P,U2,12*%
%TO.N,Net-(U2-Pad12)*%
X130552320Y-99824720D03*
%TO.P,U2,11*%
%TO.N,N/C*%
X130552320Y-97284720D03*
%TO.P,U2,10*%
X130552320Y-94744720D03*
%TO.P,U2,9*%
%TO.N,/SIGT*%
X130552320Y-92204720D03*
%TO.P,U2,8*%
%TO.N,N/C*%
X130552320Y-89664720D03*
%TO.P,U2,7*%
X130552320Y-87124720D03*
%TO.P,U2,6*%
X130552320Y-84584720D03*
%TO.P,U2,5*%
X130552320Y-82044720D03*
%TO.P,U2,4*%
X130552320Y-79504720D03*
%TO.P,U2,3*%
X130552320Y-76964720D03*
%TO.P,U2,2*%
X130552320Y-74424720D03*
%TO.P,U2,1*%
%TO.N,Net-(U2-Pad1)*%
X130552320Y-71884720D03*
%TD*%
D18*
%TO.P,JPress1,3*%
%TO.N,/SIGP*%
X84455000Y-46990000D03*
%TO.P,JPress1,2*%
%TO.N,GND*%
X84455000Y-52070000D03*
%TO.P,JPress1,1*%
%TO.N,+5V*%
X84455000Y-57150000D03*
%TD*%
%TO.P,JTemp1,3*%
%TO.N,/SIGT*%
X84455000Y-30480000D03*
%TO.P,JTemp1,2*%
%TO.N,GND*%
X84455000Y-35560000D03*
%TO.P,JTemp1,1*%
%TO.N,+3V3*%
X84455000Y-40640000D03*
%TD*%
D14*
%TO.P,C3,1*%
%TO.N,+12V*%
X161925000Y-29210000D03*
D11*
%TO.P,C3,2*%
%TO.N,GND*%
X161925000Y-34210000D03*
%TD*%
%TO.P,C2,2*%
%TO.N,GND*%
X104140000Y-47705000D03*
D14*
%TO.P,C2,1*%
%TO.N,+5V*%
X104140000Y-52705000D03*
%TD*%
D13*
%TO.P,U3,1*%
%TO.N,Net-(U2-Pad1)*%
X140970000Y-54356000D03*
%TO.P,U3,2*%
%TO.N,+5V*%
X151130000Y-54356000D03*
%TO.P,U3,3*%
%TO.N,GND*%
X140970000Y-56896000D03*
X151130000Y-56896000D03*
%TO.P,U3,4*%
%TO.N,N/C*%
X140970000Y-49276000D03*
%TO.P,U3,5*%
X151130000Y-49276000D03*
%TO.P,U3,6*%
X140970000Y-51816000D03*
%TO.P,U3,7*%
X151130000Y-51816000D03*
%TO.P,U3,8*%
%TO.N,Net-(U2-Pad12)*%
X140970000Y-59436000D03*
%TO.P,U3,9*%
%TO.N,Net-(U3-Pad9)*%
X151130000Y-59436000D03*
%TO.P,U3,10*%
%TO.N,Net-(U2-Pad15)*%
X140970000Y-61976000D03*
%TO.P,U3,11*%
%TO.N,Net-(U3-Pad11)*%
X151130000Y-61976000D03*
%TD*%
D18*
%TO.P,JHC_VALVES1,6*%
%TO.N,Net-(JHC_VALVES1-Pad6)*%
X172212000Y-71628000D03*
%TO.P,JHC_VALVES1,5*%
%TO.N,GND*%
X172212000Y-66548000D03*
%TO.P,JHC_VALVES1,4*%
%TO.N,+12V*%
X172212000Y-61468000D03*
%TO.P,JHC_VALVES1,3*%
%TO.N,Net-(JHC_VALVES1-Pad3)*%
X172212000Y-56388000D03*
%TO.P,JHC_VALVES1,2*%
%TO.N,GND*%
X172212000Y-51308000D03*
%TO.P,JHC_VALVES1,1*%
%TO.N,+12V*%
X172212000Y-46228000D03*
%TD*%
%TO.P,JD_VALVE1,3*%
%TO.N,Net-(JD_VALVE1-Pad3)*%
X172466000Y-88138000D03*
%TO.P,JD_VALVE1,2*%
%TO.N,GND*%
X172466000Y-83058000D03*
%TO.P,JD_VALVE1,1*%
%TO.N,+12V*%
X172466000Y-77978000D03*
%TD*%
%TO.P,J_12V1,2*%
%TO.N,GND*%
%TA.AperFunction,ComponentPad*%
G36*
G01*
X174470000Y-28835000D02*
X174470000Y-29585000D01*
G75*
G02*
X174095000Y-29960000I-375000J0D01*
G01*
X171345000Y-29960000D01*
G75*
G02*
X170970000Y-29585000I0J375000D01*
G01*
X170970000Y-28835000D01*
G75*
G02*
X171345000Y-28460000I375000J0D01*
G01*
X174095000Y-28460000D01*
G75*
G02*
X174470000Y-28835000I0J-375000D01*
G01*
G37*
%TD.AperFunction*%
%TO.P,J_12V1,3*%
%TA.AperFunction,ComponentPad*%
G36*
G01*
X176010000Y-30375000D02*
X176010000Y-33125000D01*
G75*
G02*
X175635000Y-33500000I-375000J0D01*
G01*
X174885000Y-33500000D01*
G75*
G02*
X174510000Y-33125000I0J375000D01*
G01*
X174510000Y-30375000D01*
G75*
G02*
X174885000Y-30000000I375000J0D01*
G01*
X175635000Y-30000000D01*
G75*
G02*
X176010000Y-30375000I0J-375000D01*
G01*
G37*
%TD.AperFunction*%
%TO.P,J_12V1,1*%
%TO.N,+12V*%
%TA.AperFunction,ComponentPad*%
G36*
G01*
X170930000Y-30375000D02*
X170930000Y-33125000D01*
G75*
G02*
X170555000Y-33500000I-375000J0D01*
G01*
X169805000Y-33500000D01*
G75*
G02*
X169430000Y-33125000I0J375000D01*
G01*
X169430000Y-30375000D01*
G75*
G02*
X169805000Y-30000000I375000J0D01*
G01*
X170555000Y-30000000D01*
G75*
G02*
X170930000Y-30375000I0J-375000D01*
G01*
G37*
%TD.AperFunction*%
%TD*%
D13*
%TO.P,U6,4*%
%TO.N,GND*%
X133540500Y-46101000D03*
%TO.P,U6,8*%
X133540500Y-48641000D03*
D19*
%TO.P,U6,6*%
%TO.N,+5V*%
X133540500Y-56261000D03*
%TO.P,U6,2*%
X133540500Y-58801000D03*
D13*
%TO.P,U6,3*%
%TO.N,GND*%
X113220500Y-46101000D03*
%TO.P,U6,7*%
X113220500Y-48641000D03*
D19*
%TO.P,U6,5*%
%TO.N,+12V*%
X113220500Y-56261000D03*
%TO.P,U6,1*%
X113220500Y-58801000D03*
%TD*%
D13*
%TO.P,U7,4*%
%TO.N,GND*%
X169164000Y-101346000D03*
%TO.P,U7,8*%
X171704000Y-101346000D03*
D19*
%TO.P,U7,6*%
%TO.N,+3V3*%
X179324000Y-101346000D03*
%TO.P,U7,2*%
X181864000Y-101346000D03*
D13*
%TO.P,U7,3*%
%TO.N,GND*%
X169164000Y-121666000D03*
%TO.P,U7,7*%
X171704000Y-121666000D03*
D19*
%TO.P,U7,5*%
%TO.N,+12V*%
X179324000Y-121666000D03*
%TO.P,U7,1*%
X181864000Y-121666000D03*
%TD*%
D20*
%TO.N,Net-(U1-Pad12)*%
X105152320Y-89664720D03*
X111252000Y-69596000D03*
X92837000Y-94742000D03*
%TO.N,Net-(U1-Pad5)*%
X121920000Y-119380000D03*
%TO.N,+5V*%
X116205000Y-55245000D03*
%TO.N,/SIGT*%
X107950000Y-44450000D03*
%TD*%
D21*
%TO.N,Net-(U1-Pad12)*%
X111252000Y-69596000D02*
X109728000Y-71120000D01*
X109728000Y-71120000D02*
X109728000Y-87884000D01*
X107947280Y-89664720D02*
X105152320Y-89664720D01*
X109728000Y-87884000D02*
X107947280Y-89664720D01*
X76200000Y-94742000D02*
X92202000Y-94742000D01*
X92202000Y-94742000D02*
X92837000Y-94742000D01*
%TO.N,Net-(U1-Pad11)*%
X162580000Y-84937600D02*
X158902400Y-84937600D01*
X158902400Y-84937600D02*
X157480000Y-86360000D01*
X157480000Y-95077600D02*
X162580000Y-100177600D01*
X157480000Y-86360000D02*
X157480000Y-95077600D01*
%TO.N,Net-(U1-Pad5)*%
X162580000Y-102717600D02*
X153314400Y-102717600D01*
X153314400Y-102717600D02*
X134112000Y-121920000D01*
X124460000Y-121920000D02*
X121920000Y-119380000D01*
X134112000Y-121920000D02*
X124460000Y-121920000D01*
%TO.N,Net-(U1-Pad13)*%
X105149600Y-92202000D02*
X105152320Y-92204720D01*
X76200000Y-92202000D02*
X105149600Y-92202000D01*
%TO.N,Net-(U1-Pad10)*%
X90297000Y-99822000D02*
X76200000Y-99822000D01*
X96517280Y-94744720D02*
X91440000Y-99822000D01*
X91440000Y-99822000D02*
X90297000Y-99822000D01*
X105152320Y-94744720D02*
X96517280Y-94744720D01*
%TO.N,Net-(U2-Pad1)*%
X130552320Y-71884720D02*
X130552320Y-65789680D01*
X130552320Y-65789680D02*
X135890000Y-60452000D01*
X135890000Y-60452000D02*
X135890000Y-56896000D01*
X138430000Y-54356000D02*
X140970000Y-54356000D01*
X135890000Y-56896000D02*
X138430000Y-54356000D01*
%TO.N,Net-(U2-Pad12)*%
X132585280Y-99824720D02*
X130552320Y-99824720D01*
X133858000Y-98552000D02*
X132585280Y-99824720D01*
X133858000Y-64008000D02*
X133858000Y-67310000D01*
X138430000Y-59436000D02*
X133858000Y-64008000D01*
X140970000Y-59436000D02*
X138430000Y-59436000D01*
X133858000Y-67310000D02*
X133858000Y-98552000D01*
X133858000Y-66548000D02*
X133858000Y-67310000D01*
%TO.N,Net-(U2-Pad15)*%
X140589000Y-62103000D02*
X135382000Y-67310000D01*
X135382000Y-67310000D02*
X135382000Y-105410000D01*
X133347280Y-107444720D02*
X130552320Y-107444720D01*
X135382000Y-105410000D02*
X133347280Y-107444720D01*
%TO.N,Net-(U3-Pad9)*%
X127889000Y-29972000D02*
X127889000Y-35179000D01*
X127889000Y-35179000D02*
X131445000Y-38735000D01*
X131445000Y-38735000D02*
X147320000Y-38735000D01*
X155321000Y-46736000D02*
X158496000Y-46736000D01*
X147320000Y-38735000D02*
X155321000Y-46736000D01*
%TO.N,Net-(U3-Pad11)*%
X125349000Y-29972000D02*
X125349000Y-34544000D01*
X125349000Y-34544000D02*
X130810000Y-40005000D01*
X130810000Y-40005000D02*
X145415000Y-40005000D01*
X154686000Y-49276000D02*
X158496000Y-49276000D01*
X145415000Y-40005000D02*
X154686000Y-49276000D01*
D22*
%TO.N,+5V*%
X125859720Y-117604720D02*
X116205000Y-107950000D01*
X130552320Y-117604720D02*
X125859720Y-117604720D01*
X116205000Y-55245000D02*
X113665000Y-52705000D01*
X113665000Y-52705000D02*
X108585000Y-52705000D01*
X116205000Y-107950000D02*
X116205000Y-55245000D01*
X108585000Y-52705000D02*
X104140000Y-52705000D01*
X99695000Y-48260000D02*
X104140000Y-52705000D01*
X93345000Y-48260000D02*
X99695000Y-48260000D01*
X84455000Y-57150000D02*
X93345000Y-48260000D01*
%TO.N,+12V*%
X172212000Y-46228000D02*
X176530000Y-50546000D01*
X176530000Y-57150000D02*
X172212000Y-61468000D01*
X176530000Y-50546000D02*
X176530000Y-57150000D01*
X172212000Y-61468000D02*
X176530000Y-65786000D01*
X176530000Y-73914000D02*
X172466000Y-77978000D01*
X176530000Y-65786000D02*
X176530000Y-73914000D01*
X170180000Y-44196000D02*
X170180000Y-31750000D01*
X172212000Y-46228000D02*
X170180000Y-44196000D01*
X181864000Y-121666000D02*
X179324000Y-121666000D01*
X179324000Y-121666000D02*
X175895000Y-118237000D01*
X175895000Y-81407000D02*
X172466000Y-77978000D01*
X175895000Y-118237000D02*
X175895000Y-81407000D01*
D21*
%TO.N,/SIGP*%
X117729000Y-29972000D02*
X117729000Y-34036000D01*
X117729000Y-34036000D02*
X111125000Y-40640000D01*
X111125000Y-40640000D02*
X102870000Y-40640000D01*
X96520000Y-46990000D02*
X84455000Y-46990000D01*
X102870000Y-40640000D02*
X96520000Y-46990000D01*
%TO.N,/SIGT*%
X118110000Y-82550000D02*
X127764720Y-92204720D01*
X118110000Y-46990000D02*
X118110000Y-82550000D01*
X127764720Y-92204720D02*
X130552320Y-92204720D01*
X107950000Y-44450000D02*
X115570000Y-44450000D01*
X115570000Y-44450000D02*
X118110000Y-46990000D01*
X87312500Y-33337500D02*
X84455000Y-30480000D01*
X96012000Y-44450000D02*
X93980000Y-44450000D01*
X93980000Y-44450000D02*
X87312500Y-37782500D01*
X87312500Y-37782500D02*
X87312500Y-33337500D01*
%TD*%
M02*
