%TF.GenerationSoftware,KiCad,Pcbnew,(5.1.10)-1*%
%TF.CreationDate,2021-09-16T12:46:16+00:00*%
%TF.ProjectId,watermixer,77617465-726d-4697-9865-722e6b696361,v1.0*%
%TF.SameCoordinates,Original*%
%TF.FileFunction,Soldermask,Top*%
%TF.FilePolarity,Negative*%
%FSLAX46Y46*%
G04 Gerber Fmt 4.6, Leading zero omitted, Abs format (unit mm)*
G04 Created by KiCad (PCBNEW (5.1.10)-1) date 2021-09-16 12:46:16*
%MOMM*%
%LPD*%
G01*
G04 APERTURE LIST*
%ADD10C,2.000000*%
%ADD11C,4.000000*%
%ADD12C,1.500000*%
%ADD13R,1.500000X1.500000*%
%ADD14O,1.200000X2.000000*%
%ADD15C,3.200000*%
%ADD16C,1.600000*%
%ADD17R,1.600000X1.600000*%
%ADD18C,1.524000*%
%ADD19R,1.524000X1.524000*%
%ADD20O,1.600000X1.600000*%
G04 APERTURE END LIST*
D10*
%TO.C,JPress1*%
X84455000Y-46990000D03*
X84455000Y-52070000D03*
X84455000Y-57150000D03*
%TD*%
%TO.C,JTemp1*%
X84455000Y-30480000D03*
X84455000Y-35560000D03*
X84455000Y-40640000D03*
%TD*%
D11*
%TO.C,U1*%
X161025000Y-71478000D03*
X77205000Y-71478000D03*
X77205000Y-121008000D03*
X161025000Y-121008000D03*
D12*
X162580000Y-90017600D03*
X76200000Y-92202000D03*
X76200000Y-94742000D03*
X76200000Y-97282000D03*
X76200000Y-99822000D03*
X162580000Y-92557600D03*
X162580000Y-95097600D03*
X162580000Y-97637600D03*
X162580000Y-100177600D03*
X162580000Y-102717600D03*
X162580000Y-105257600D03*
X162580000Y-107797600D03*
X162580000Y-110337600D03*
D13*
X162580000Y-112877600D03*
D12*
X162580000Y-87477600D03*
X162580000Y-84937600D03*
X162580000Y-82397600D03*
X162580000Y-79857600D03*
%TD*%
%TO.C,U2*%
G36*
G01*
X152997280Y-65343680D02*
X152997280Y-66743680D01*
G75*
G02*
X152697280Y-67043680I-300000J0D01*
G01*
X152097280Y-67043680D01*
G75*
G02*
X151797280Y-66743680I0J300000D01*
G01*
X151797280Y-65343680D01*
G75*
G02*
X152097280Y-65043680I300000J0D01*
G01*
X152697280Y-65043680D01*
G75*
G02*
X152997280Y-65343680I0J-300000D01*
G01*
G37*
D14*
X149857280Y-66043680D03*
X147317280Y-66043680D03*
X144777280Y-66043680D03*
X142237280Y-66043680D03*
X139697280Y-66043680D03*
X137157280Y-66043680D03*
X134617280Y-66043680D03*
X132077280Y-66043680D03*
X129537280Y-66043680D03*
X126997280Y-66043680D03*
X124457280Y-66043680D03*
X121917280Y-66043680D03*
X119377280Y-66043680D03*
X116837280Y-66043680D03*
X114297280Y-66043680D03*
X111757280Y-66043680D03*
X109220000Y-66040000D03*
X106680000Y-66040000D03*
X106677280Y-40643680D03*
X109217280Y-40643680D03*
X111757280Y-40643680D03*
X114297280Y-40643680D03*
X116837280Y-40643680D03*
G36*
G01*
X119977280Y-39943680D02*
X119977280Y-41343680D01*
G75*
G02*
X119677280Y-41643680I-300000J0D01*
G01*
X119077280Y-41643680D01*
G75*
G02*
X118777280Y-41343680I0J300000D01*
G01*
X118777280Y-39943680D01*
G75*
G02*
X119077280Y-39643680I300000J0D01*
G01*
X119677280Y-39643680D01*
G75*
G02*
X119977280Y-39943680I0J-300000D01*
G01*
G37*
X121917280Y-40643680D03*
X124457280Y-40643680D03*
X126997280Y-40643680D03*
X129537280Y-40643680D03*
X132077280Y-40643680D03*
X134617280Y-40643680D03*
X137157280Y-40643680D03*
X139697280Y-40643680D03*
X142237280Y-40643680D03*
X144777280Y-40643680D03*
X147317280Y-40643680D03*
X149857280Y-40643680D03*
X152397280Y-40643680D03*
%TD*%
D15*
%TO.C,H4*%
X212090000Y-35560000D03*
%TD*%
%TO.C,H3*%
X208915000Y-115570000D03*
%TD*%
%TO.C,H2*%
X106680000Y-32385000D03*
%TD*%
%TO.C,H1*%
X172720000Y-81280000D03*
%TD*%
D16*
%TO.C,C3*%
X203120000Y-35560000D03*
D17*
X198120000Y-35560000D03*
%TD*%
D16*
%TO.C,C2*%
X157560000Y-36830000D03*
D17*
X162560000Y-36830000D03*
%TD*%
D16*
%TO.C,C1*%
X181055000Y-90805000D03*
D17*
X186055000Y-90805000D03*
%TD*%
D18*
%TO.C,U3*%
X178943000Y-64897000D03*
X168783000Y-64897000D03*
X178943000Y-62357000D03*
X168783000Y-62357000D03*
X178943000Y-54737000D03*
X168783000Y-54737000D03*
X178943000Y-52197000D03*
X168783000Y-52197000D03*
X178943000Y-59817000D03*
X168783000Y-59817000D03*
X178943000Y-57277000D03*
X168783000Y-57277000D03*
%TD*%
D10*
%TO.C,JHC_VALVES1*%
X205740000Y-86360000D03*
X205740000Y-81280000D03*
X205740000Y-76200000D03*
X205740000Y-71120000D03*
X205740000Y-66040000D03*
X205740000Y-60960000D03*
%TD*%
%TO.C,JD_VALVE1*%
X205740000Y-102870000D03*
X205740000Y-97790000D03*
X205740000Y-92710000D03*
%TD*%
D18*
%TO.C,U_3.3V1*%
X178181000Y-101346000D03*
X180721000Y-101346000D03*
D19*
X188341000Y-101346000D03*
X190881000Y-101346000D03*
D18*
X178181000Y-121666000D03*
X180721000Y-121666000D03*
D19*
X188341000Y-121666000D03*
X190881000Y-121666000D03*
%TD*%
D18*
%TO.C,U_5V1*%
X170561000Y-47244000D03*
X170561000Y-44704000D03*
D19*
X170561000Y-37084000D03*
X170561000Y-34544000D03*
D18*
X190881000Y-47244000D03*
X190881000Y-44704000D03*
D19*
X190881000Y-37084000D03*
X190881000Y-34544000D03*
%TD*%
%TO.C,J_12V1*%
G36*
G01*
X203950000Y-46885000D02*
X203950000Y-49635000D01*
G75*
G02*
X203575000Y-50010000I-375000J0D01*
G01*
X202825000Y-50010000D01*
G75*
G02*
X202450000Y-49635000I0J375000D01*
G01*
X202450000Y-46885000D01*
G75*
G02*
X202825000Y-46510000I375000J0D01*
G01*
X203575000Y-46510000D01*
G75*
G02*
X203950000Y-46885000I0J-375000D01*
G01*
G37*
G36*
G01*
X209030000Y-46885000D02*
X209030000Y-49635000D01*
G75*
G02*
X208655000Y-50010000I-375000J0D01*
G01*
X207905000Y-50010000D01*
G75*
G02*
X207530000Y-49635000I0J375000D01*
G01*
X207530000Y-46885000D01*
G75*
G02*
X207905000Y-46510000I375000J0D01*
G01*
X208655000Y-46510000D01*
G75*
G02*
X209030000Y-46885000I0J-375000D01*
G01*
G37*
G36*
G01*
X207490000Y-45345000D02*
X207490000Y-46095000D01*
G75*
G02*
X207115000Y-46470000I-375000J0D01*
G01*
X204365000Y-46470000D01*
G75*
G02*
X203990000Y-46095000I0J375000D01*
G01*
X203990000Y-45345000D01*
G75*
G02*
X204365000Y-44970000I375000J0D01*
G01*
X207115000Y-44970000D01*
G75*
G02*
X207490000Y-45345000I0J-375000D01*
G01*
G37*
%TD*%
D20*
%TO.C,R1*%
X95250000Y-52070000D03*
D16*
X95250000Y-44450000D03*
%TD*%
%TO.C,R2*%
X88900000Y-35560000D03*
D20*
X96520000Y-35560000D03*
%TD*%
%TO.C,R3*%
X96520000Y-30480000D03*
D16*
X88900000Y-30480000D03*
%TD*%
D11*
%TO.C,U4*%
X190500000Y-81280000D03*
X190500000Y-60706000D03*
D18*
X185420000Y-82550000D03*
X185420000Y-80010000D03*
X185420000Y-77470000D03*
X185420000Y-74930000D03*
X185420000Y-72390000D03*
X185420000Y-69850000D03*
X185420000Y-67310000D03*
X185420000Y-64770000D03*
X185420000Y-62230000D03*
X185420000Y-59690000D03*
%TD*%
M02*
