%TF.GenerationSoftware,KiCad,Pcbnew,(5.1.10)-1*%
%TF.CreationDate,2021-10-02T14:55:05+00:00*%
%TF.ProjectId,watermixer,77617465-726d-4697-9865-722e6b696361,v1.0*%
%TF.SameCoordinates,Original*%
%TF.FileFunction,Soldermask,Top*%
%TF.FilePolarity,Negative*%
%FSLAX46Y46*%
G04 Gerber Fmt 4.6, Leading zero omitted, Abs format (unit mm)*
G04 Created by KiCad (PCBNEW (5.1.10)-1) date 2021-10-02 14:55:05*
%MOMM*%
%LPD*%
G01*
G04 APERTURE LIST*
%ADD10O,1.600000X1.600000*%
%ADD11C,1.600000*%
%ADD12C,4.000000*%
%ADD13C,1.524000*%
%ADD14R,1.600000X1.600000*%
%ADD15C,1.500000*%
%ADD16R,1.500000X1.500000*%
%ADD17O,2.000000X1.200000*%
%ADD18C,2.000000*%
%ADD19C,3.200000*%
%ADD20R,1.524000X1.524000*%
G04 APERTURE END LIST*
D10*
%TO.C,R1*%
X96012000Y-44450000D03*
D11*
X96012000Y-52070000D03*
%TD*%
D12*
%TO.C,U5*%
X111379000Y-35052000D03*
X131953000Y-35052000D03*
D13*
X110109000Y-29972000D03*
X112649000Y-29972000D03*
X115189000Y-29972000D03*
X117729000Y-29972000D03*
X120269000Y-29972000D03*
X122809000Y-29972000D03*
X125349000Y-29972000D03*
X127889000Y-29972000D03*
X130429000Y-29972000D03*
X132969000Y-29972000D03*
%TD*%
D11*
%TO.C,C1*%
X170688000Y-93044000D03*
D14*
X170688000Y-98044000D03*
%TD*%
D13*
%TO.C,U4*%
X158496000Y-41656000D03*
X158496000Y-44196000D03*
X158496000Y-46736000D03*
X158496000Y-49276000D03*
X158496000Y-51816000D03*
X158496000Y-54356000D03*
X158496000Y-56896000D03*
X158496000Y-59436000D03*
X158496000Y-61976000D03*
X158496000Y-64516000D03*
D12*
X163576000Y-42672000D03*
X163576000Y-63246000D03*
%TD*%
D15*
%TO.C,U1*%
X162580000Y-79857600D03*
X162580000Y-82397600D03*
X162580000Y-84937600D03*
X162580000Y-87477600D03*
D16*
X162580000Y-112877600D03*
D15*
X162580000Y-110337600D03*
X162580000Y-107797600D03*
X162580000Y-105257600D03*
X162580000Y-102717600D03*
X162580000Y-100177600D03*
X162580000Y-97637600D03*
X162580000Y-95097600D03*
X162580000Y-92557600D03*
X76200000Y-99822000D03*
X76200000Y-97282000D03*
X76200000Y-94742000D03*
X76200000Y-92202000D03*
X162580000Y-90017600D03*
D12*
X161025000Y-121008000D03*
X77205000Y-121008000D03*
X77205000Y-71478000D03*
X161025000Y-71478000D03*
%TD*%
%TO.C,U2*%
G36*
G01*
X104452320Y-71284720D02*
X105852320Y-71284720D01*
G75*
G02*
X106152320Y-71584720I0J-300000D01*
G01*
X106152320Y-72184720D01*
G75*
G02*
X105852320Y-72484720I-300000J0D01*
G01*
X104452320Y-72484720D01*
G75*
G02*
X104152320Y-72184720I0J300000D01*
G01*
X104152320Y-71584720D01*
G75*
G02*
X104452320Y-71284720I300000J0D01*
G01*
G37*
D17*
X105152320Y-74424720D03*
X105152320Y-76964720D03*
X105152320Y-79504720D03*
X105152320Y-82044720D03*
X105152320Y-84584720D03*
X105152320Y-87124720D03*
X105152320Y-89664720D03*
X105152320Y-92204720D03*
X105152320Y-94744720D03*
X105152320Y-97284720D03*
X105152320Y-99824720D03*
X105152320Y-102364720D03*
X105152320Y-104904720D03*
X105152320Y-107444720D03*
X105152320Y-109984720D03*
X105152320Y-112524720D03*
X105156000Y-115062000D03*
X105156000Y-117602000D03*
X130552320Y-117604720D03*
X130552320Y-115064720D03*
X130552320Y-112524720D03*
X130552320Y-109984720D03*
X130552320Y-107444720D03*
G36*
G01*
X129852320Y-104304720D02*
X131252320Y-104304720D01*
G75*
G02*
X131552320Y-104604720I0J-300000D01*
G01*
X131552320Y-105204720D01*
G75*
G02*
X131252320Y-105504720I-300000J0D01*
G01*
X129852320Y-105504720D01*
G75*
G02*
X129552320Y-105204720I0J300000D01*
G01*
X129552320Y-104604720D01*
G75*
G02*
X129852320Y-104304720I300000J0D01*
G01*
G37*
X130552320Y-102364720D03*
X130552320Y-99824720D03*
X130552320Y-97284720D03*
X130552320Y-94744720D03*
X130552320Y-92204720D03*
X130552320Y-89664720D03*
X130552320Y-87124720D03*
X130552320Y-84584720D03*
X130552320Y-82044720D03*
X130552320Y-79504720D03*
X130552320Y-76964720D03*
X130552320Y-74424720D03*
X130552320Y-71884720D03*
%TD*%
D18*
%TO.C,JPress1*%
X84455000Y-46990000D03*
X84455000Y-52070000D03*
X84455000Y-57150000D03*
%TD*%
%TO.C,JTemp1*%
X84455000Y-30480000D03*
X84455000Y-35560000D03*
X84455000Y-40640000D03*
%TD*%
D19*
%TO.C,H4*%
X151765000Y-33020000D03*
%TD*%
%TO.C,H3*%
X180340000Y-95885000D03*
%TD*%
%TO.C,H2*%
X76835000Y-64135000D03*
%TD*%
%TO.C,H1*%
X95250000Y-33147000D03*
%TD*%
D14*
%TO.C,C3*%
X161925000Y-29210000D03*
D11*
X161925000Y-34210000D03*
%TD*%
%TO.C,C2*%
X104140000Y-47705000D03*
D14*
X104140000Y-52705000D03*
%TD*%
D13*
%TO.C,U3*%
X140970000Y-54356000D03*
X151130000Y-54356000D03*
X140970000Y-56896000D03*
X151130000Y-56896000D03*
X140970000Y-49276000D03*
X151130000Y-49276000D03*
X140970000Y-51816000D03*
X151130000Y-51816000D03*
X140970000Y-59436000D03*
X151130000Y-59436000D03*
X140970000Y-61976000D03*
X151130000Y-61976000D03*
%TD*%
D18*
%TO.C,JHC_VALVES1*%
X172212000Y-71628000D03*
X172212000Y-66548000D03*
X172212000Y-61468000D03*
X172212000Y-56388000D03*
X172212000Y-51308000D03*
X172212000Y-46228000D03*
%TD*%
%TO.C,JD_VALVE1*%
X172466000Y-88138000D03*
X172466000Y-83058000D03*
X172466000Y-77978000D03*
%TD*%
%TO.C,J_12V1*%
G36*
G01*
X174470000Y-28835000D02*
X174470000Y-29585000D01*
G75*
G02*
X174095000Y-29960000I-375000J0D01*
G01*
X171345000Y-29960000D01*
G75*
G02*
X170970000Y-29585000I0J375000D01*
G01*
X170970000Y-28835000D01*
G75*
G02*
X171345000Y-28460000I375000J0D01*
G01*
X174095000Y-28460000D01*
G75*
G02*
X174470000Y-28835000I0J-375000D01*
G01*
G37*
G36*
G01*
X176010000Y-30375000D02*
X176010000Y-33125000D01*
G75*
G02*
X175635000Y-33500000I-375000J0D01*
G01*
X174885000Y-33500000D01*
G75*
G02*
X174510000Y-33125000I0J375000D01*
G01*
X174510000Y-30375000D01*
G75*
G02*
X174885000Y-30000000I375000J0D01*
G01*
X175635000Y-30000000D01*
G75*
G02*
X176010000Y-30375000I0J-375000D01*
G01*
G37*
G36*
G01*
X170930000Y-30375000D02*
X170930000Y-33125000D01*
G75*
G02*
X170555000Y-33500000I-375000J0D01*
G01*
X169805000Y-33500000D01*
G75*
G02*
X169430000Y-33125000I0J375000D01*
G01*
X169430000Y-30375000D01*
G75*
G02*
X169805000Y-30000000I375000J0D01*
G01*
X170555000Y-30000000D01*
G75*
G02*
X170930000Y-30375000I0J-375000D01*
G01*
G37*
%TD*%
D13*
%TO.C,U6*%
X133540500Y-46101000D03*
X133540500Y-48641000D03*
D20*
X133540500Y-56261000D03*
X133540500Y-58801000D03*
D13*
X113220500Y-46101000D03*
X113220500Y-48641000D03*
D20*
X113220500Y-56261000D03*
X113220500Y-58801000D03*
%TD*%
D13*
%TO.C,U7*%
X169164000Y-101346000D03*
X171704000Y-101346000D03*
D20*
X179324000Y-101346000D03*
X181864000Y-101346000D03*
D13*
X169164000Y-121666000D03*
X171704000Y-121666000D03*
D20*
X179324000Y-121666000D03*
X181864000Y-121666000D03*
%TD*%
M02*
