M48
; DRILL file {KiCad (5.1.10)-1} date 09/16/21 12:48:20
; FORMAT={-:-/ absolute / inch / decimal}
; #@! TF.CreationDate,2021-09-16T12:48:20+00:00
; #@! TF.GenerationSoftware,Kicad,Pcbnew,(5.1.10)-1
; #@! TF.FileFunction,Plated,1,2,PTH
FMAT,2
INCH
T1C0.0157
T2C0.0300
T3C0.0315
T4C0.0394
T5C0.0512
T6C0.1063
T7C0.1378
%
G90
G05
T1
X3.9Y-2.35
X3.9Y-2.35
X4.1Y-2.55
X4.45Y-2.8
X4.45Y-2.8
X4.65Y-2.8
T2
X6.645Y-2.055
X6.645Y-2.155
X6.645Y-2.255
X6.645Y-2.355
X6.645Y-2.455
X6.645Y-2.555
X6.715Y-1.36
X6.715Y-1.46
X6.715Y-1.76
X6.715Y-1.86
X7.015Y-3.99
X7.015Y-4.79
X7.045Y-2.055
X7.045Y-2.155
X7.045Y-2.255
X7.045Y-2.355
X7.045Y-2.455
X7.045Y-2.555
X7.115Y-3.99
X7.115Y-4.79
X7.3Y-2.35
X7.3Y-2.45
X7.3Y-2.55
X7.3Y-2.65
X7.3Y-2.75
X7.3Y-2.85
X7.3Y-2.95
X7.3Y-3.05
X7.3Y-3.15
X7.3Y-3.25
X7.415Y-3.99
X7.415Y-4.79
X7.515Y-1.36
X7.515Y-1.46
X7.515Y-1.76
X7.515Y-1.86
X7.515Y-3.99
X7.515Y-4.79
T3
X3.5Y-1.2
X3.5Y-1.4
X3.75Y-1.75
X3.75Y-2.05
X3.8Y-1.2
X3.8Y-1.4
X4.1999Y-1.6001
X4.2Y-2.6
X4.2999Y-1.6001
X4.3Y-2.6
X4.3999Y-1.6001
X4.3999Y-2.6001
X4.4999Y-1.6001
X4.4999Y-2.6001
X4.5999Y-1.6001
X4.5999Y-2.6001
X4.6999Y-1.6001
X4.6999Y-2.6001
X4.7999Y-1.6001
X4.7999Y-2.6001
X4.8999Y-1.6001
X4.8999Y-2.6001
X4.9999Y-1.6001
X4.9999Y-2.6001
X5.0999Y-1.6001
X5.0999Y-2.6001
X5.1999Y-1.6001
X5.1999Y-2.6001
X5.2999Y-1.6001
X5.2999Y-2.6001
X5.3999Y-1.6001
X5.3999Y-2.6001
X5.4999Y-1.6001
X5.4999Y-2.6001
X5.5999Y-1.6001
X5.5999Y-2.6001
X5.6999Y-1.6001
X5.6999Y-2.6001
X5.7999Y-1.6001
X5.7999Y-2.6001
X5.8999Y-1.6001
X5.8999Y-2.6001
X5.9999Y-1.6001
X5.9999Y-2.6001
X6.2031Y-1.45
X6.4Y-1.45
X7.1281Y-3.575
X7.325Y-3.575
X7.8Y-1.4
X7.9969Y-1.4
T4
X3.0Y-3.63
X3.0Y-3.73
X3.0Y-3.83
X3.0Y-3.93
X6.4008Y-3.144
X6.4008Y-3.244
X6.4008Y-3.344
X6.4008Y-3.444
X6.4008Y-3.544
X6.4008Y-3.644
X6.4008Y-3.744
X6.4008Y-3.844
X6.4008Y-3.944
X6.4008Y-4.044
X6.4008Y-4.144
X6.4008Y-4.244
X6.4008Y-4.344
X6.4008Y-4.444
T5
X3.325Y-1.2
X3.325Y-1.4
X3.325Y-1.6
X3.325Y-1.85
X3.325Y-2.05
X3.325Y-2.25
X8.1Y-2.4
X8.1Y-2.6
X8.1Y-2.8
X8.1Y-3.0
X8.1Y-3.2
X8.1Y-3.4
X8.1Y-3.65
X8.1Y-3.85
X8.1Y-4.05
T6
X3.0396Y-2.8141
X3.0396Y-4.7641
X6.3396Y-2.8141
X6.3396Y-4.7641
T7
X7.5Y-2.39
X7.5Y-3.2
T4
G00X8.0Y-1.9394
M15
G01X8.0Y-1.8606
M16
G05
G00X8.1394Y-1.8
M15
G01X8.0606Y-1.8
M16
G05
G00X8.2Y-1.9394
M15
G01X8.2Y-1.8606
M16
G05
T0
M30
