%TF.GenerationSoftware,KiCad,Pcbnew,(5.1.10)-1*%
%TF.CreationDate,2021-09-16T12:46:15+00:00*%
%TF.ProjectId,watermixer,77617465-726d-4697-9865-722e6b696361,v1.0*%
%TF.SameCoordinates,Original*%
%TF.FileFunction,Legend,Top*%
%TF.FilePolarity,Positive*%
%FSLAX46Y46*%
G04 Gerber Fmt 4.6, Leading zero omitted, Abs format (unit mm)*
G04 Created by KiCad (PCBNEW (5.1.10)-1) date 2021-09-16 12:46:15*
%MOMM*%
%LPD*%
G01*
G04 APERTURE LIST*
%ADD10C,0.150000*%
%ADD11C,0.120000*%
%ADD12C,1.000000*%
%ADD13C,0.400000*%
%ADD14C,0.450000*%
%ADD15C,0.300000*%
G04 APERTURE END LIST*
D10*
X76033571Y-29237380D02*
X76605000Y-29237380D01*
X76319285Y-30237380D02*
X76319285Y-29237380D01*
X77319285Y-30189761D02*
X77224047Y-30237380D01*
X77033571Y-30237380D01*
X76938333Y-30189761D01*
X76890714Y-30094523D01*
X76890714Y-29713571D01*
X76938333Y-29618333D01*
X77033571Y-29570714D01*
X77224047Y-29570714D01*
X77319285Y-29618333D01*
X77366904Y-29713571D01*
X77366904Y-29808809D01*
X76890714Y-29904047D01*
X77795476Y-30237380D02*
X77795476Y-29570714D01*
X77795476Y-29665952D02*
X77843095Y-29618333D01*
X77938333Y-29570714D01*
X78081190Y-29570714D01*
X78176428Y-29618333D01*
X78224047Y-29713571D01*
X78224047Y-30237380D01*
X78224047Y-29713571D02*
X78271666Y-29618333D01*
X78366904Y-29570714D01*
X78509761Y-29570714D01*
X78605000Y-29618333D01*
X78652619Y-29713571D01*
X78652619Y-30237380D01*
X79128809Y-29570714D02*
X79128809Y-30570714D01*
X79128809Y-29618333D02*
X79224047Y-29570714D01*
X79414523Y-29570714D01*
X79509761Y-29618333D01*
X79557380Y-29665952D01*
X79605000Y-29761190D01*
X79605000Y-30046904D01*
X79557380Y-30142142D01*
X79509761Y-30189761D01*
X79414523Y-30237380D01*
X79224047Y-30237380D01*
X79128809Y-30189761D01*
X80033571Y-30142142D02*
X80081190Y-30189761D01*
X80033571Y-30237380D01*
X79985952Y-30189761D01*
X80033571Y-30142142D01*
X80033571Y-30237380D01*
X76771666Y-30887380D02*
X77105000Y-31887380D01*
X77438333Y-30887380D01*
X78343095Y-31792142D02*
X78295476Y-31839761D01*
X78152619Y-31887380D01*
X78057380Y-31887380D01*
X77914523Y-31839761D01*
X77819285Y-31744523D01*
X77771666Y-31649285D01*
X77724047Y-31458809D01*
X77724047Y-31315952D01*
X77771666Y-31125476D01*
X77819285Y-31030238D01*
X77914523Y-30935000D01*
X78057380Y-30887380D01*
X78152619Y-30887380D01*
X78295476Y-30935000D01*
X78343095Y-30982619D01*
X79343095Y-31792142D02*
X79295476Y-31839761D01*
X79152619Y-31887380D01*
X79057380Y-31887380D01*
X78914523Y-31839761D01*
X78819285Y-31744523D01*
X78771666Y-31649285D01*
X78724047Y-31458809D01*
X78724047Y-31315952D01*
X78771666Y-31125476D01*
X78819285Y-31030238D01*
X78914523Y-30935000D01*
X79057380Y-30887380D01*
X79152619Y-30887380D01*
X79295476Y-30935000D01*
X79343095Y-30982619D01*
X76033571Y-34187380D02*
X76605000Y-34187380D01*
X76319285Y-35187380D02*
X76319285Y-34187380D01*
X77319285Y-35139761D02*
X77224047Y-35187380D01*
X77033571Y-35187380D01*
X76938333Y-35139761D01*
X76890714Y-35044523D01*
X76890714Y-34663571D01*
X76938333Y-34568333D01*
X77033571Y-34520714D01*
X77224047Y-34520714D01*
X77319285Y-34568333D01*
X77366904Y-34663571D01*
X77366904Y-34758809D01*
X76890714Y-34854047D01*
X77795476Y-35187380D02*
X77795476Y-34520714D01*
X77795476Y-34615952D02*
X77843095Y-34568333D01*
X77938333Y-34520714D01*
X78081190Y-34520714D01*
X78176428Y-34568333D01*
X78224047Y-34663571D01*
X78224047Y-35187380D01*
X78224047Y-34663571D02*
X78271666Y-34568333D01*
X78366904Y-34520714D01*
X78509761Y-34520714D01*
X78605000Y-34568333D01*
X78652619Y-34663571D01*
X78652619Y-35187380D01*
X79128809Y-34520714D02*
X79128809Y-35520714D01*
X79128809Y-34568333D02*
X79224047Y-34520714D01*
X79414523Y-34520714D01*
X79509761Y-34568333D01*
X79557380Y-34615952D01*
X79605000Y-34711190D01*
X79605000Y-34996904D01*
X79557380Y-35092142D01*
X79509761Y-35139761D01*
X79414523Y-35187380D01*
X79224047Y-35187380D01*
X79128809Y-35139761D01*
X80033571Y-35092142D02*
X80081190Y-35139761D01*
X80033571Y-35187380D01*
X79985952Y-35139761D01*
X80033571Y-35092142D01*
X80033571Y-35187380D01*
X77343095Y-35885000D02*
X77247857Y-35837380D01*
X77105000Y-35837380D01*
X76962142Y-35885000D01*
X76866904Y-35980238D01*
X76819285Y-36075476D01*
X76771666Y-36265952D01*
X76771666Y-36408809D01*
X76819285Y-36599285D01*
X76866904Y-36694523D01*
X76962142Y-36789761D01*
X77105000Y-36837380D01*
X77200238Y-36837380D01*
X77343095Y-36789761D01*
X77390714Y-36742142D01*
X77390714Y-36408809D01*
X77200238Y-36408809D01*
X77819285Y-36837380D02*
X77819285Y-35837380D01*
X78390714Y-36837380D01*
X78390714Y-35837380D01*
X78866904Y-36837380D02*
X78866904Y-35837380D01*
X79105000Y-35837380D01*
X79247857Y-35885000D01*
X79343095Y-35980238D01*
X79390714Y-36075476D01*
X79438333Y-36265952D01*
X79438333Y-36408809D01*
X79390714Y-36599285D01*
X79343095Y-36694523D01*
X79247857Y-36789761D01*
X79105000Y-36837380D01*
X78866904Y-36837380D01*
X76033571Y-39137380D02*
X76605000Y-39137380D01*
X76319285Y-40137380D02*
X76319285Y-39137380D01*
X77319285Y-40089761D02*
X77224047Y-40137380D01*
X77033571Y-40137380D01*
X76938333Y-40089761D01*
X76890714Y-39994523D01*
X76890714Y-39613571D01*
X76938333Y-39518333D01*
X77033571Y-39470714D01*
X77224047Y-39470714D01*
X77319285Y-39518333D01*
X77366904Y-39613571D01*
X77366904Y-39708809D01*
X76890714Y-39804047D01*
X77795476Y-40137380D02*
X77795476Y-39470714D01*
X77795476Y-39565952D02*
X77843095Y-39518333D01*
X77938333Y-39470714D01*
X78081190Y-39470714D01*
X78176428Y-39518333D01*
X78224047Y-39613571D01*
X78224047Y-40137380D01*
X78224047Y-39613571D02*
X78271666Y-39518333D01*
X78366904Y-39470714D01*
X78509761Y-39470714D01*
X78605000Y-39518333D01*
X78652619Y-39613571D01*
X78652619Y-40137380D01*
X79128809Y-39470714D02*
X79128809Y-40470714D01*
X79128809Y-39518333D02*
X79224047Y-39470714D01*
X79414523Y-39470714D01*
X79509761Y-39518333D01*
X79557380Y-39565952D01*
X79605000Y-39661190D01*
X79605000Y-39946904D01*
X79557380Y-40042142D01*
X79509761Y-40089761D01*
X79414523Y-40137380D01*
X79224047Y-40137380D01*
X79128809Y-40089761D01*
X80033571Y-40042142D02*
X80081190Y-40089761D01*
X80033571Y-40137380D01*
X79985952Y-40089761D01*
X80033571Y-40042142D01*
X80033571Y-40137380D01*
X77081190Y-41739761D02*
X77224047Y-41787380D01*
X77462142Y-41787380D01*
X77557380Y-41739761D01*
X77605000Y-41692142D01*
X77652619Y-41596904D01*
X77652619Y-41501666D01*
X77605000Y-41406428D01*
X77557380Y-41358809D01*
X77462142Y-41311190D01*
X77271666Y-41263571D01*
X77176428Y-41215952D01*
X77128809Y-41168333D01*
X77081190Y-41073095D01*
X77081190Y-40977857D01*
X77128809Y-40882619D01*
X77176428Y-40835000D01*
X77271666Y-40787380D01*
X77509761Y-40787380D01*
X77652619Y-40835000D01*
X78081190Y-41787380D02*
X78081190Y-40787380D01*
X79081190Y-40835000D02*
X78985952Y-40787380D01*
X78843095Y-40787380D01*
X78700238Y-40835000D01*
X78605000Y-40930238D01*
X78557380Y-41025476D01*
X78509761Y-41215952D01*
X78509761Y-41358809D01*
X78557380Y-41549285D01*
X78605000Y-41644523D01*
X78700238Y-41739761D01*
X78843095Y-41787380D01*
X78938333Y-41787380D01*
X79081190Y-41739761D01*
X79128809Y-41692142D01*
X79128809Y-41358809D01*
X78938333Y-41358809D01*
X74470000Y-46747380D02*
X74470000Y-45747380D01*
X74850952Y-45747380D01*
X74946190Y-45795000D01*
X74993809Y-45842619D01*
X75041428Y-45937857D01*
X75041428Y-46080714D01*
X74993809Y-46175952D01*
X74946190Y-46223571D01*
X74850952Y-46271190D01*
X74470000Y-46271190D01*
X75470000Y-46747380D02*
X75470000Y-46080714D01*
X75470000Y-46271190D02*
X75517619Y-46175952D01*
X75565238Y-46128333D01*
X75660476Y-46080714D01*
X75755714Y-46080714D01*
X76470000Y-46699761D02*
X76374761Y-46747380D01*
X76184285Y-46747380D01*
X76089047Y-46699761D01*
X76041428Y-46604523D01*
X76041428Y-46223571D01*
X76089047Y-46128333D01*
X76184285Y-46080714D01*
X76374761Y-46080714D01*
X76470000Y-46128333D01*
X76517619Y-46223571D01*
X76517619Y-46318809D01*
X76041428Y-46414047D01*
X76898571Y-46699761D02*
X76993809Y-46747380D01*
X77184285Y-46747380D01*
X77279523Y-46699761D01*
X77327142Y-46604523D01*
X77327142Y-46556904D01*
X77279523Y-46461666D01*
X77184285Y-46414047D01*
X77041428Y-46414047D01*
X76946190Y-46366428D01*
X76898571Y-46271190D01*
X76898571Y-46223571D01*
X76946190Y-46128333D01*
X77041428Y-46080714D01*
X77184285Y-46080714D01*
X77279523Y-46128333D01*
X77708095Y-46699761D02*
X77803333Y-46747380D01*
X77993809Y-46747380D01*
X78089047Y-46699761D01*
X78136666Y-46604523D01*
X78136666Y-46556904D01*
X78089047Y-46461666D01*
X77993809Y-46414047D01*
X77850952Y-46414047D01*
X77755714Y-46366428D01*
X77708095Y-46271190D01*
X77708095Y-46223571D01*
X77755714Y-46128333D01*
X77850952Y-46080714D01*
X77993809Y-46080714D01*
X78089047Y-46128333D01*
X78993809Y-46080714D02*
X78993809Y-46747380D01*
X78565238Y-46080714D02*
X78565238Y-46604523D01*
X78612857Y-46699761D01*
X78708095Y-46747380D01*
X78850952Y-46747380D01*
X78946190Y-46699761D01*
X78993809Y-46652142D01*
X79470000Y-46747380D02*
X79470000Y-46080714D01*
X79470000Y-46271190D02*
X79517619Y-46175952D01*
X79565238Y-46128333D01*
X79660476Y-46080714D01*
X79755714Y-46080714D01*
X80470000Y-46699761D02*
X80374761Y-46747380D01*
X80184285Y-46747380D01*
X80089047Y-46699761D01*
X80041428Y-46604523D01*
X80041428Y-46223571D01*
X80089047Y-46128333D01*
X80184285Y-46080714D01*
X80374761Y-46080714D01*
X80470000Y-46128333D01*
X80517619Y-46223571D01*
X80517619Y-46318809D01*
X80041428Y-46414047D01*
X76446190Y-48349761D02*
X76589047Y-48397380D01*
X76827142Y-48397380D01*
X76922380Y-48349761D01*
X76970000Y-48302142D01*
X77017619Y-48206904D01*
X77017619Y-48111666D01*
X76970000Y-48016428D01*
X76922380Y-47968809D01*
X76827142Y-47921190D01*
X76636666Y-47873571D01*
X76541428Y-47825952D01*
X76493809Y-47778333D01*
X76446190Y-47683095D01*
X76446190Y-47587857D01*
X76493809Y-47492619D01*
X76541428Y-47445000D01*
X76636666Y-47397380D01*
X76874761Y-47397380D01*
X77017619Y-47445000D01*
X77446190Y-48397380D02*
X77446190Y-47397380D01*
X78446190Y-47445000D02*
X78350952Y-47397380D01*
X78208095Y-47397380D01*
X78065238Y-47445000D01*
X77970000Y-47540238D01*
X77922380Y-47635476D01*
X77874761Y-47825952D01*
X77874761Y-47968809D01*
X77922380Y-48159285D01*
X77970000Y-48254523D01*
X78065238Y-48349761D01*
X78208095Y-48397380D01*
X78303333Y-48397380D01*
X78446190Y-48349761D01*
X78493809Y-48302142D01*
X78493809Y-47968809D01*
X78303333Y-47968809D01*
X74470000Y-51697380D02*
X74470000Y-50697380D01*
X74850952Y-50697380D01*
X74946190Y-50745000D01*
X74993809Y-50792619D01*
X75041428Y-50887857D01*
X75041428Y-51030714D01*
X74993809Y-51125952D01*
X74946190Y-51173571D01*
X74850952Y-51221190D01*
X74470000Y-51221190D01*
X75470000Y-51697380D02*
X75470000Y-51030714D01*
X75470000Y-51221190D02*
X75517619Y-51125952D01*
X75565238Y-51078333D01*
X75660476Y-51030714D01*
X75755714Y-51030714D01*
X76470000Y-51649761D02*
X76374761Y-51697380D01*
X76184285Y-51697380D01*
X76089047Y-51649761D01*
X76041428Y-51554523D01*
X76041428Y-51173571D01*
X76089047Y-51078333D01*
X76184285Y-51030714D01*
X76374761Y-51030714D01*
X76470000Y-51078333D01*
X76517619Y-51173571D01*
X76517619Y-51268809D01*
X76041428Y-51364047D01*
X76898571Y-51649761D02*
X76993809Y-51697380D01*
X77184285Y-51697380D01*
X77279523Y-51649761D01*
X77327142Y-51554523D01*
X77327142Y-51506904D01*
X77279523Y-51411666D01*
X77184285Y-51364047D01*
X77041428Y-51364047D01*
X76946190Y-51316428D01*
X76898571Y-51221190D01*
X76898571Y-51173571D01*
X76946190Y-51078333D01*
X77041428Y-51030714D01*
X77184285Y-51030714D01*
X77279523Y-51078333D01*
X77708095Y-51649761D02*
X77803333Y-51697380D01*
X77993809Y-51697380D01*
X78089047Y-51649761D01*
X78136666Y-51554523D01*
X78136666Y-51506904D01*
X78089047Y-51411666D01*
X77993809Y-51364047D01*
X77850952Y-51364047D01*
X77755714Y-51316428D01*
X77708095Y-51221190D01*
X77708095Y-51173571D01*
X77755714Y-51078333D01*
X77850952Y-51030714D01*
X77993809Y-51030714D01*
X78089047Y-51078333D01*
X78993809Y-51030714D02*
X78993809Y-51697380D01*
X78565238Y-51030714D02*
X78565238Y-51554523D01*
X78612857Y-51649761D01*
X78708095Y-51697380D01*
X78850952Y-51697380D01*
X78946190Y-51649761D01*
X78993809Y-51602142D01*
X79470000Y-51697380D02*
X79470000Y-51030714D01*
X79470000Y-51221190D02*
X79517619Y-51125952D01*
X79565238Y-51078333D01*
X79660476Y-51030714D01*
X79755714Y-51030714D01*
X80470000Y-51649761D02*
X80374761Y-51697380D01*
X80184285Y-51697380D01*
X80089047Y-51649761D01*
X80041428Y-51554523D01*
X80041428Y-51173571D01*
X80089047Y-51078333D01*
X80184285Y-51030714D01*
X80374761Y-51030714D01*
X80470000Y-51078333D01*
X80517619Y-51173571D01*
X80517619Y-51268809D01*
X80041428Y-51364047D01*
X76708095Y-52395000D02*
X76612857Y-52347380D01*
X76470000Y-52347380D01*
X76327142Y-52395000D01*
X76231904Y-52490238D01*
X76184285Y-52585476D01*
X76136666Y-52775952D01*
X76136666Y-52918809D01*
X76184285Y-53109285D01*
X76231904Y-53204523D01*
X76327142Y-53299761D01*
X76470000Y-53347380D01*
X76565238Y-53347380D01*
X76708095Y-53299761D01*
X76755714Y-53252142D01*
X76755714Y-52918809D01*
X76565238Y-52918809D01*
X77184285Y-53347380D02*
X77184285Y-52347380D01*
X77755714Y-53347380D01*
X77755714Y-52347380D01*
X78231904Y-53347380D02*
X78231904Y-52347380D01*
X78470000Y-52347380D01*
X78612857Y-52395000D01*
X78708095Y-52490238D01*
X78755714Y-52585476D01*
X78803333Y-52775952D01*
X78803333Y-52918809D01*
X78755714Y-53109285D01*
X78708095Y-53204523D01*
X78612857Y-53299761D01*
X78470000Y-53347380D01*
X78231904Y-53347380D01*
X74470000Y-56647380D02*
X74470000Y-55647380D01*
X74850952Y-55647380D01*
X74946190Y-55695000D01*
X74993809Y-55742619D01*
X75041428Y-55837857D01*
X75041428Y-55980714D01*
X74993809Y-56075952D01*
X74946190Y-56123571D01*
X74850952Y-56171190D01*
X74470000Y-56171190D01*
X75470000Y-56647380D02*
X75470000Y-55980714D01*
X75470000Y-56171190D02*
X75517619Y-56075952D01*
X75565238Y-56028333D01*
X75660476Y-55980714D01*
X75755714Y-55980714D01*
X76470000Y-56599761D02*
X76374761Y-56647380D01*
X76184285Y-56647380D01*
X76089047Y-56599761D01*
X76041428Y-56504523D01*
X76041428Y-56123571D01*
X76089047Y-56028333D01*
X76184285Y-55980714D01*
X76374761Y-55980714D01*
X76470000Y-56028333D01*
X76517619Y-56123571D01*
X76517619Y-56218809D01*
X76041428Y-56314047D01*
X76898571Y-56599761D02*
X76993809Y-56647380D01*
X77184285Y-56647380D01*
X77279523Y-56599761D01*
X77327142Y-56504523D01*
X77327142Y-56456904D01*
X77279523Y-56361666D01*
X77184285Y-56314047D01*
X77041428Y-56314047D01*
X76946190Y-56266428D01*
X76898571Y-56171190D01*
X76898571Y-56123571D01*
X76946190Y-56028333D01*
X77041428Y-55980714D01*
X77184285Y-55980714D01*
X77279523Y-56028333D01*
X77708095Y-56599761D02*
X77803333Y-56647380D01*
X77993809Y-56647380D01*
X78089047Y-56599761D01*
X78136666Y-56504523D01*
X78136666Y-56456904D01*
X78089047Y-56361666D01*
X77993809Y-56314047D01*
X77850952Y-56314047D01*
X77755714Y-56266428D01*
X77708095Y-56171190D01*
X77708095Y-56123571D01*
X77755714Y-56028333D01*
X77850952Y-55980714D01*
X77993809Y-55980714D01*
X78089047Y-56028333D01*
X78993809Y-55980714D02*
X78993809Y-56647380D01*
X78565238Y-55980714D02*
X78565238Y-56504523D01*
X78612857Y-56599761D01*
X78708095Y-56647380D01*
X78850952Y-56647380D01*
X78946190Y-56599761D01*
X78993809Y-56552142D01*
X79470000Y-56647380D02*
X79470000Y-55980714D01*
X79470000Y-56171190D02*
X79517619Y-56075952D01*
X79565238Y-56028333D01*
X79660476Y-55980714D01*
X79755714Y-55980714D01*
X80470000Y-56599761D02*
X80374761Y-56647380D01*
X80184285Y-56647380D01*
X80089047Y-56599761D01*
X80041428Y-56504523D01*
X80041428Y-56123571D01*
X80089047Y-56028333D01*
X80184285Y-55980714D01*
X80374761Y-55980714D01*
X80470000Y-56028333D01*
X80517619Y-56123571D01*
X80517619Y-56218809D01*
X80041428Y-56314047D01*
X76136666Y-57297380D02*
X76470000Y-58297380D01*
X76803333Y-57297380D01*
X77708095Y-58202142D02*
X77660476Y-58249761D01*
X77517619Y-58297380D01*
X77422380Y-58297380D01*
X77279523Y-58249761D01*
X77184285Y-58154523D01*
X77136666Y-58059285D01*
X77089047Y-57868809D01*
X77089047Y-57725952D01*
X77136666Y-57535476D01*
X77184285Y-57440238D01*
X77279523Y-57345000D01*
X77422380Y-57297380D01*
X77517619Y-57297380D01*
X77660476Y-57345000D01*
X77708095Y-57392619D01*
X78708095Y-58202142D02*
X78660476Y-58249761D01*
X78517619Y-58297380D01*
X78422380Y-58297380D01*
X78279523Y-58249761D01*
X78184285Y-58154523D01*
X78136666Y-58059285D01*
X78089047Y-57868809D01*
X78089047Y-57725952D01*
X78136666Y-57535476D01*
X78184285Y-57440238D01*
X78279523Y-57345000D01*
X78422380Y-57297380D01*
X78517619Y-57297380D01*
X78660476Y-57345000D01*
X78708095Y-57392619D01*
X211645714Y-92467380D02*
X211645714Y-91467380D01*
X211883809Y-91467380D01*
X212026666Y-91515000D01*
X212121904Y-91610238D01*
X212169523Y-91705476D01*
X212217142Y-91895952D01*
X212217142Y-92038809D01*
X212169523Y-92229285D01*
X212121904Y-92324523D01*
X212026666Y-92419761D01*
X211883809Y-92467380D01*
X211645714Y-92467380D01*
X212645714Y-92467380D02*
X212645714Y-91800714D01*
X212645714Y-91991190D02*
X212693333Y-91895952D01*
X212740952Y-91848333D01*
X212836190Y-91800714D01*
X212931428Y-91800714D01*
X213693333Y-92467380D02*
X213693333Y-91943571D01*
X213645714Y-91848333D01*
X213550476Y-91800714D01*
X213360000Y-91800714D01*
X213264761Y-91848333D01*
X213693333Y-92419761D02*
X213598095Y-92467380D01*
X213360000Y-92467380D01*
X213264761Y-92419761D01*
X213217142Y-92324523D01*
X213217142Y-92229285D01*
X213264761Y-92134047D01*
X213360000Y-92086428D01*
X213598095Y-92086428D01*
X213693333Y-92038809D01*
X214169523Y-92467380D02*
X214169523Y-91800714D01*
X214169523Y-91467380D02*
X214121904Y-91515000D01*
X214169523Y-91562619D01*
X214217142Y-91515000D01*
X214169523Y-91467380D01*
X214169523Y-91562619D01*
X214645714Y-91800714D02*
X214645714Y-92467380D01*
X214645714Y-91895952D02*
X214693333Y-91848333D01*
X214788571Y-91800714D01*
X214931428Y-91800714D01*
X215026666Y-91848333D01*
X215074285Y-91943571D01*
X215074285Y-92467380D01*
X212026666Y-93117380D02*
X212360000Y-94117380D01*
X212693333Y-93117380D01*
X213598095Y-94022142D02*
X213550476Y-94069761D01*
X213407619Y-94117380D01*
X213312380Y-94117380D01*
X213169523Y-94069761D01*
X213074285Y-93974523D01*
X213026666Y-93879285D01*
X212979047Y-93688809D01*
X212979047Y-93545952D01*
X213026666Y-93355476D01*
X213074285Y-93260238D01*
X213169523Y-93165000D01*
X213312380Y-93117380D01*
X213407619Y-93117380D01*
X213550476Y-93165000D01*
X213598095Y-93212619D01*
X214598095Y-94022142D02*
X214550476Y-94069761D01*
X214407619Y-94117380D01*
X214312380Y-94117380D01*
X214169523Y-94069761D01*
X214074285Y-93974523D01*
X214026666Y-93879285D01*
X213979047Y-93688809D01*
X213979047Y-93545952D01*
X214026666Y-93355476D01*
X214074285Y-93260238D01*
X214169523Y-93165000D01*
X214312380Y-93117380D01*
X214407619Y-93117380D01*
X214550476Y-93165000D01*
X214598095Y-93212619D01*
X211645714Y-97417380D02*
X211645714Y-96417380D01*
X211883809Y-96417380D01*
X212026666Y-96465000D01*
X212121904Y-96560238D01*
X212169523Y-96655476D01*
X212217142Y-96845952D01*
X212217142Y-96988809D01*
X212169523Y-97179285D01*
X212121904Y-97274523D01*
X212026666Y-97369761D01*
X211883809Y-97417380D01*
X211645714Y-97417380D01*
X212645714Y-97417380D02*
X212645714Y-96750714D01*
X212645714Y-96941190D02*
X212693333Y-96845952D01*
X212740952Y-96798333D01*
X212836190Y-96750714D01*
X212931428Y-96750714D01*
X213693333Y-97417380D02*
X213693333Y-96893571D01*
X213645714Y-96798333D01*
X213550476Y-96750714D01*
X213360000Y-96750714D01*
X213264761Y-96798333D01*
X213693333Y-97369761D02*
X213598095Y-97417380D01*
X213360000Y-97417380D01*
X213264761Y-97369761D01*
X213217142Y-97274523D01*
X213217142Y-97179285D01*
X213264761Y-97084047D01*
X213360000Y-97036428D01*
X213598095Y-97036428D01*
X213693333Y-96988809D01*
X214169523Y-97417380D02*
X214169523Y-96750714D01*
X214169523Y-96417380D02*
X214121904Y-96465000D01*
X214169523Y-96512619D01*
X214217142Y-96465000D01*
X214169523Y-96417380D01*
X214169523Y-96512619D01*
X214645714Y-96750714D02*
X214645714Y-97417380D01*
X214645714Y-96845952D02*
X214693333Y-96798333D01*
X214788571Y-96750714D01*
X214931428Y-96750714D01*
X215026666Y-96798333D01*
X215074285Y-96893571D01*
X215074285Y-97417380D01*
X212598095Y-98115000D02*
X212502857Y-98067380D01*
X212360000Y-98067380D01*
X212217142Y-98115000D01*
X212121904Y-98210238D01*
X212074285Y-98305476D01*
X212026666Y-98495952D01*
X212026666Y-98638809D01*
X212074285Y-98829285D01*
X212121904Y-98924523D01*
X212217142Y-99019761D01*
X212360000Y-99067380D01*
X212455238Y-99067380D01*
X212598095Y-99019761D01*
X212645714Y-98972142D01*
X212645714Y-98638809D01*
X212455238Y-98638809D01*
X213074285Y-99067380D02*
X213074285Y-98067380D01*
X213645714Y-99067380D01*
X213645714Y-98067380D01*
X214121904Y-99067380D02*
X214121904Y-98067380D01*
X214360000Y-98067380D01*
X214502857Y-98115000D01*
X214598095Y-98210238D01*
X214645714Y-98305476D01*
X214693333Y-98495952D01*
X214693333Y-98638809D01*
X214645714Y-98829285D01*
X214598095Y-98924523D01*
X214502857Y-99019761D01*
X214360000Y-99067380D01*
X214121904Y-99067380D01*
X211645714Y-102367380D02*
X211645714Y-101367380D01*
X211883809Y-101367380D01*
X212026666Y-101415000D01*
X212121904Y-101510238D01*
X212169523Y-101605476D01*
X212217142Y-101795952D01*
X212217142Y-101938809D01*
X212169523Y-102129285D01*
X212121904Y-102224523D01*
X212026666Y-102319761D01*
X211883809Y-102367380D01*
X211645714Y-102367380D01*
X212645714Y-102367380D02*
X212645714Y-101700714D01*
X212645714Y-101891190D02*
X212693333Y-101795952D01*
X212740952Y-101748333D01*
X212836190Y-101700714D01*
X212931428Y-101700714D01*
X213693333Y-102367380D02*
X213693333Y-101843571D01*
X213645714Y-101748333D01*
X213550476Y-101700714D01*
X213360000Y-101700714D01*
X213264761Y-101748333D01*
X213693333Y-102319761D02*
X213598095Y-102367380D01*
X213360000Y-102367380D01*
X213264761Y-102319761D01*
X213217142Y-102224523D01*
X213217142Y-102129285D01*
X213264761Y-102034047D01*
X213360000Y-101986428D01*
X213598095Y-101986428D01*
X213693333Y-101938809D01*
X214169523Y-102367380D02*
X214169523Y-101700714D01*
X214169523Y-101367380D02*
X214121904Y-101415000D01*
X214169523Y-101462619D01*
X214217142Y-101415000D01*
X214169523Y-101367380D01*
X214169523Y-101462619D01*
X214645714Y-101700714D02*
X214645714Y-102367380D01*
X214645714Y-101795952D02*
X214693333Y-101748333D01*
X214788571Y-101700714D01*
X214931428Y-101700714D01*
X215026666Y-101748333D01*
X215074285Y-101843571D01*
X215074285Y-102367380D01*
X212336190Y-103969761D02*
X212479047Y-104017380D01*
X212717142Y-104017380D01*
X212812380Y-103969761D01*
X212860000Y-103922142D01*
X212907619Y-103826904D01*
X212907619Y-103731666D01*
X212860000Y-103636428D01*
X212812380Y-103588809D01*
X212717142Y-103541190D01*
X212526666Y-103493571D01*
X212431428Y-103445952D01*
X212383809Y-103398333D01*
X212336190Y-103303095D01*
X212336190Y-103207857D01*
X212383809Y-103112619D01*
X212431428Y-103065000D01*
X212526666Y-103017380D01*
X212764761Y-103017380D01*
X212907619Y-103065000D01*
X213336190Y-104017380D02*
X213336190Y-103017380D01*
X214336190Y-103065000D02*
X214240952Y-103017380D01*
X214098095Y-103017380D01*
X213955238Y-103065000D01*
X213860000Y-103160238D01*
X213812380Y-103255476D01*
X213764761Y-103445952D01*
X213764761Y-103588809D01*
X213812380Y-103779285D01*
X213860000Y-103874523D01*
X213955238Y-103969761D01*
X214098095Y-104017380D01*
X214193333Y-104017380D01*
X214336190Y-103969761D01*
X214383809Y-103922142D01*
X214383809Y-103588809D01*
X214193333Y-103588809D01*
X212336190Y-60912380D02*
X212336190Y-59912380D01*
X212336190Y-60388571D02*
X212907619Y-60388571D01*
X212907619Y-60912380D02*
X212907619Y-59912380D01*
X213526666Y-60912380D02*
X213431428Y-60864761D01*
X213383809Y-60817142D01*
X213336190Y-60721904D01*
X213336190Y-60436190D01*
X213383809Y-60340952D01*
X213431428Y-60293333D01*
X213526666Y-60245714D01*
X213669523Y-60245714D01*
X213764761Y-60293333D01*
X213812380Y-60340952D01*
X213860000Y-60436190D01*
X213860000Y-60721904D01*
X213812380Y-60817142D01*
X213764761Y-60864761D01*
X213669523Y-60912380D01*
X213526666Y-60912380D01*
X214145714Y-60245714D02*
X214526666Y-60245714D01*
X214288571Y-59912380D02*
X214288571Y-60769523D01*
X214336190Y-60864761D01*
X214431428Y-60912380D01*
X214526666Y-60912380D01*
X212026666Y-61562380D02*
X212360000Y-62562380D01*
X212693333Y-61562380D01*
X213598095Y-62467142D02*
X213550476Y-62514761D01*
X213407619Y-62562380D01*
X213312380Y-62562380D01*
X213169523Y-62514761D01*
X213074285Y-62419523D01*
X213026666Y-62324285D01*
X212979047Y-62133809D01*
X212979047Y-61990952D01*
X213026666Y-61800476D01*
X213074285Y-61705238D01*
X213169523Y-61610000D01*
X213312380Y-61562380D01*
X213407619Y-61562380D01*
X213550476Y-61610000D01*
X213598095Y-61657619D01*
X214598095Y-62467142D02*
X214550476Y-62514761D01*
X214407619Y-62562380D01*
X214312380Y-62562380D01*
X214169523Y-62514761D01*
X214074285Y-62419523D01*
X214026666Y-62324285D01*
X213979047Y-62133809D01*
X213979047Y-61990952D01*
X214026666Y-61800476D01*
X214074285Y-61705238D01*
X214169523Y-61610000D01*
X214312380Y-61562380D01*
X214407619Y-61562380D01*
X214550476Y-61610000D01*
X214598095Y-61657619D01*
X212336190Y-65862380D02*
X212336190Y-64862380D01*
X212336190Y-65338571D02*
X212907619Y-65338571D01*
X212907619Y-65862380D02*
X212907619Y-64862380D01*
X213526666Y-65862380D02*
X213431428Y-65814761D01*
X213383809Y-65767142D01*
X213336190Y-65671904D01*
X213336190Y-65386190D01*
X213383809Y-65290952D01*
X213431428Y-65243333D01*
X213526666Y-65195714D01*
X213669523Y-65195714D01*
X213764761Y-65243333D01*
X213812380Y-65290952D01*
X213860000Y-65386190D01*
X213860000Y-65671904D01*
X213812380Y-65767142D01*
X213764761Y-65814761D01*
X213669523Y-65862380D01*
X213526666Y-65862380D01*
X214145714Y-65195714D02*
X214526666Y-65195714D01*
X214288571Y-64862380D02*
X214288571Y-65719523D01*
X214336190Y-65814761D01*
X214431428Y-65862380D01*
X214526666Y-65862380D01*
X212598095Y-66560000D02*
X212502857Y-66512380D01*
X212360000Y-66512380D01*
X212217142Y-66560000D01*
X212121904Y-66655238D01*
X212074285Y-66750476D01*
X212026666Y-66940952D01*
X212026666Y-67083809D01*
X212074285Y-67274285D01*
X212121904Y-67369523D01*
X212217142Y-67464761D01*
X212360000Y-67512380D01*
X212455238Y-67512380D01*
X212598095Y-67464761D01*
X212645714Y-67417142D01*
X212645714Y-67083809D01*
X212455238Y-67083809D01*
X213074285Y-67512380D02*
X213074285Y-66512380D01*
X213645714Y-67512380D01*
X213645714Y-66512380D01*
X214121904Y-67512380D02*
X214121904Y-66512380D01*
X214360000Y-66512380D01*
X214502857Y-66560000D01*
X214598095Y-66655238D01*
X214645714Y-66750476D01*
X214693333Y-66940952D01*
X214693333Y-67083809D01*
X214645714Y-67274285D01*
X214598095Y-67369523D01*
X214502857Y-67464761D01*
X214360000Y-67512380D01*
X214121904Y-67512380D01*
X212336190Y-70812380D02*
X212336190Y-69812380D01*
X212336190Y-70288571D02*
X212907619Y-70288571D01*
X212907619Y-70812380D02*
X212907619Y-69812380D01*
X213526666Y-70812380D02*
X213431428Y-70764761D01*
X213383809Y-70717142D01*
X213336190Y-70621904D01*
X213336190Y-70336190D01*
X213383809Y-70240952D01*
X213431428Y-70193333D01*
X213526666Y-70145714D01*
X213669523Y-70145714D01*
X213764761Y-70193333D01*
X213812380Y-70240952D01*
X213860000Y-70336190D01*
X213860000Y-70621904D01*
X213812380Y-70717142D01*
X213764761Y-70764761D01*
X213669523Y-70812380D01*
X213526666Y-70812380D01*
X214145714Y-70145714D02*
X214526666Y-70145714D01*
X214288571Y-69812380D02*
X214288571Y-70669523D01*
X214336190Y-70764761D01*
X214431428Y-70812380D01*
X214526666Y-70812380D01*
X212336190Y-72414761D02*
X212479047Y-72462380D01*
X212717142Y-72462380D01*
X212812380Y-72414761D01*
X212860000Y-72367142D01*
X212907619Y-72271904D01*
X212907619Y-72176666D01*
X212860000Y-72081428D01*
X212812380Y-72033809D01*
X212717142Y-71986190D01*
X212526666Y-71938571D01*
X212431428Y-71890952D01*
X212383809Y-71843333D01*
X212336190Y-71748095D01*
X212336190Y-71652857D01*
X212383809Y-71557619D01*
X212431428Y-71510000D01*
X212526666Y-71462380D01*
X212764761Y-71462380D01*
X212907619Y-71510000D01*
X213336190Y-72462380D02*
X213336190Y-71462380D01*
X214336190Y-71510000D02*
X214240952Y-71462380D01*
X214098095Y-71462380D01*
X213955238Y-71510000D01*
X213860000Y-71605238D01*
X213812380Y-71700476D01*
X213764761Y-71890952D01*
X213764761Y-72033809D01*
X213812380Y-72224285D01*
X213860000Y-72319523D01*
X213955238Y-72414761D01*
X214098095Y-72462380D01*
X214193333Y-72462380D01*
X214336190Y-72414761D01*
X214383809Y-72367142D01*
X214383809Y-72033809D01*
X214193333Y-72033809D01*
X212502857Y-75667142D02*
X212455238Y-75714761D01*
X212312380Y-75762380D01*
X212217142Y-75762380D01*
X212074285Y-75714761D01*
X211979047Y-75619523D01*
X211931428Y-75524285D01*
X211883809Y-75333809D01*
X211883809Y-75190952D01*
X211931428Y-75000476D01*
X211979047Y-74905238D01*
X212074285Y-74810000D01*
X212217142Y-74762380D01*
X212312380Y-74762380D01*
X212455238Y-74810000D01*
X212502857Y-74857619D01*
X213074285Y-75762380D02*
X212979047Y-75714761D01*
X212931428Y-75667142D01*
X212883809Y-75571904D01*
X212883809Y-75286190D01*
X212931428Y-75190952D01*
X212979047Y-75143333D01*
X213074285Y-75095714D01*
X213217142Y-75095714D01*
X213312380Y-75143333D01*
X213360000Y-75190952D01*
X213407619Y-75286190D01*
X213407619Y-75571904D01*
X213360000Y-75667142D01*
X213312380Y-75714761D01*
X213217142Y-75762380D01*
X213074285Y-75762380D01*
X213979047Y-75762380D02*
X213883809Y-75714761D01*
X213836190Y-75619523D01*
X213836190Y-74762380D01*
X214788571Y-75762380D02*
X214788571Y-74762380D01*
X214788571Y-75714761D02*
X214693333Y-75762380D01*
X214502857Y-75762380D01*
X214407619Y-75714761D01*
X214360000Y-75667142D01*
X214312380Y-75571904D01*
X214312380Y-75286190D01*
X214360000Y-75190952D01*
X214407619Y-75143333D01*
X214502857Y-75095714D01*
X214693333Y-75095714D01*
X214788571Y-75143333D01*
X212026666Y-76412380D02*
X212360000Y-77412380D01*
X212693333Y-76412380D01*
X213598095Y-77317142D02*
X213550476Y-77364761D01*
X213407619Y-77412380D01*
X213312380Y-77412380D01*
X213169523Y-77364761D01*
X213074285Y-77269523D01*
X213026666Y-77174285D01*
X212979047Y-76983809D01*
X212979047Y-76840952D01*
X213026666Y-76650476D01*
X213074285Y-76555238D01*
X213169523Y-76460000D01*
X213312380Y-76412380D01*
X213407619Y-76412380D01*
X213550476Y-76460000D01*
X213598095Y-76507619D01*
X214598095Y-77317142D02*
X214550476Y-77364761D01*
X214407619Y-77412380D01*
X214312380Y-77412380D01*
X214169523Y-77364761D01*
X214074285Y-77269523D01*
X214026666Y-77174285D01*
X213979047Y-76983809D01*
X213979047Y-76840952D01*
X214026666Y-76650476D01*
X214074285Y-76555238D01*
X214169523Y-76460000D01*
X214312380Y-76412380D01*
X214407619Y-76412380D01*
X214550476Y-76460000D01*
X214598095Y-76507619D01*
X212502857Y-80617142D02*
X212455238Y-80664761D01*
X212312380Y-80712380D01*
X212217142Y-80712380D01*
X212074285Y-80664761D01*
X211979047Y-80569523D01*
X211931428Y-80474285D01*
X211883809Y-80283809D01*
X211883809Y-80140952D01*
X211931428Y-79950476D01*
X211979047Y-79855238D01*
X212074285Y-79760000D01*
X212217142Y-79712380D01*
X212312380Y-79712380D01*
X212455238Y-79760000D01*
X212502857Y-79807619D01*
X213074285Y-80712380D02*
X212979047Y-80664761D01*
X212931428Y-80617142D01*
X212883809Y-80521904D01*
X212883809Y-80236190D01*
X212931428Y-80140952D01*
X212979047Y-80093333D01*
X213074285Y-80045714D01*
X213217142Y-80045714D01*
X213312380Y-80093333D01*
X213360000Y-80140952D01*
X213407619Y-80236190D01*
X213407619Y-80521904D01*
X213360000Y-80617142D01*
X213312380Y-80664761D01*
X213217142Y-80712380D01*
X213074285Y-80712380D01*
X213979047Y-80712380D02*
X213883809Y-80664761D01*
X213836190Y-80569523D01*
X213836190Y-79712380D01*
X214788571Y-80712380D02*
X214788571Y-79712380D01*
X214788571Y-80664761D02*
X214693333Y-80712380D01*
X214502857Y-80712380D01*
X214407619Y-80664761D01*
X214360000Y-80617142D01*
X214312380Y-80521904D01*
X214312380Y-80236190D01*
X214360000Y-80140952D01*
X214407619Y-80093333D01*
X214502857Y-80045714D01*
X214693333Y-80045714D01*
X214788571Y-80093333D01*
X212598095Y-81410000D02*
X212502857Y-81362380D01*
X212360000Y-81362380D01*
X212217142Y-81410000D01*
X212121904Y-81505238D01*
X212074285Y-81600476D01*
X212026666Y-81790952D01*
X212026666Y-81933809D01*
X212074285Y-82124285D01*
X212121904Y-82219523D01*
X212217142Y-82314761D01*
X212360000Y-82362380D01*
X212455238Y-82362380D01*
X212598095Y-82314761D01*
X212645714Y-82267142D01*
X212645714Y-81933809D01*
X212455238Y-81933809D01*
X213074285Y-82362380D02*
X213074285Y-81362380D01*
X213645714Y-82362380D01*
X213645714Y-81362380D01*
X214121904Y-82362380D02*
X214121904Y-81362380D01*
X214360000Y-81362380D01*
X214502857Y-81410000D01*
X214598095Y-81505238D01*
X214645714Y-81600476D01*
X214693333Y-81790952D01*
X214693333Y-81933809D01*
X214645714Y-82124285D01*
X214598095Y-82219523D01*
X214502857Y-82314761D01*
X214360000Y-82362380D01*
X214121904Y-82362380D01*
X212502857Y-85567142D02*
X212455238Y-85614761D01*
X212312380Y-85662380D01*
X212217142Y-85662380D01*
X212074285Y-85614761D01*
X211979047Y-85519523D01*
X211931428Y-85424285D01*
X211883809Y-85233809D01*
X211883809Y-85090952D01*
X211931428Y-84900476D01*
X211979047Y-84805238D01*
X212074285Y-84710000D01*
X212217142Y-84662380D01*
X212312380Y-84662380D01*
X212455238Y-84710000D01*
X212502857Y-84757619D01*
X213074285Y-85662380D02*
X212979047Y-85614761D01*
X212931428Y-85567142D01*
X212883809Y-85471904D01*
X212883809Y-85186190D01*
X212931428Y-85090952D01*
X212979047Y-85043333D01*
X213074285Y-84995714D01*
X213217142Y-84995714D01*
X213312380Y-85043333D01*
X213360000Y-85090952D01*
X213407619Y-85186190D01*
X213407619Y-85471904D01*
X213360000Y-85567142D01*
X213312380Y-85614761D01*
X213217142Y-85662380D01*
X213074285Y-85662380D01*
X213979047Y-85662380D02*
X213883809Y-85614761D01*
X213836190Y-85519523D01*
X213836190Y-84662380D01*
X214788571Y-85662380D02*
X214788571Y-84662380D01*
X214788571Y-85614761D02*
X214693333Y-85662380D01*
X214502857Y-85662380D01*
X214407619Y-85614761D01*
X214360000Y-85567142D01*
X214312380Y-85471904D01*
X214312380Y-85186190D01*
X214360000Y-85090952D01*
X214407619Y-85043333D01*
X214502857Y-84995714D01*
X214693333Y-84995714D01*
X214788571Y-85043333D01*
X212336190Y-87264761D02*
X212479047Y-87312380D01*
X212717142Y-87312380D01*
X212812380Y-87264761D01*
X212860000Y-87217142D01*
X212907619Y-87121904D01*
X212907619Y-87026666D01*
X212860000Y-86931428D01*
X212812380Y-86883809D01*
X212717142Y-86836190D01*
X212526666Y-86788571D01*
X212431428Y-86740952D01*
X212383809Y-86693333D01*
X212336190Y-86598095D01*
X212336190Y-86502857D01*
X212383809Y-86407619D01*
X212431428Y-86360000D01*
X212526666Y-86312380D01*
X212764761Y-86312380D01*
X212907619Y-86360000D01*
X213336190Y-87312380D02*
X213336190Y-86312380D01*
X214336190Y-86360000D02*
X214240952Y-86312380D01*
X214098095Y-86312380D01*
X213955238Y-86360000D01*
X213860000Y-86455238D01*
X213812380Y-86550476D01*
X213764761Y-86740952D01*
X213764761Y-86883809D01*
X213812380Y-87074285D01*
X213860000Y-87169523D01*
X213955238Y-87264761D01*
X214098095Y-87312380D01*
X214193333Y-87312380D01*
X214336190Y-87264761D01*
X214383809Y-87217142D01*
X214383809Y-86883809D01*
X214193333Y-86883809D01*
D11*
%TO.C,JPress1*%
X86156800Y-59690000D02*
X86156800Y-44450000D01*
X86156800Y-44450000D02*
X73939400Y-44450000D01*
X73939400Y-44450000D02*
X73939400Y-59690000D01*
X73939400Y-59690000D02*
X86156800Y-59690000D01*
%TO.C,JTemp1*%
X86156800Y-43180000D02*
X86156800Y-27940000D01*
X86156800Y-27940000D02*
X73939400Y-27940000D01*
X73939400Y-27940000D02*
X73939400Y-43180000D01*
X73939400Y-43180000D02*
X86156800Y-43180000D01*
%TO.C,U1*%
X158350000Y-123498000D02*
X80650000Y-123498000D01*
X80650000Y-123498000D02*
X80650000Y-68698000D01*
X158350000Y-68698000D02*
X80650000Y-68698000D01*
X158350000Y-123498000D02*
X158350000Y-68698000D01*
X163750000Y-123598000D02*
X74450000Y-123598000D01*
X74450000Y-123598000D02*
X74450000Y-68598000D01*
X74450000Y-68598000D02*
X163750000Y-68598000D01*
X163750000Y-68598000D02*
X163750000Y-123598000D01*
%TO.C,U2*%
X159410400Y-62357000D02*
X153517600Y-62357000D01*
X159410400Y-44373800D02*
X159410400Y-62357000D01*
X153517600Y-44373800D02*
X159410400Y-44373800D01*
X153497280Y-39143681D02*
X105577280Y-39143680D01*
X153497280Y-67543680D02*
X153497280Y-39143681D01*
X105577280Y-67543679D02*
X153497280Y-67543680D01*
X105577280Y-39143680D02*
X105577280Y-67543679D01*
%TO.C,C3*%
X204740000Y-35560000D02*
G75*
G03*
X204740000Y-35560000I-4120000J0D01*
G01*
X196210302Y-33245000D02*
X197010302Y-33245000D01*
X196610302Y-32845000D02*
X196610302Y-33645000D01*
%TO.C,C2*%
X164180000Y-36830000D02*
G75*
G03*
X164180000Y-36830000I-4120000J0D01*
G01*
X164469698Y-39145000D02*
X163669698Y-39145000D01*
X164069698Y-39545000D02*
X164069698Y-38745000D01*
%TO.C,C1*%
X187675000Y-90805000D02*
G75*
G03*
X187675000Y-90805000I-4120000J0D01*
G01*
X187964698Y-93120000D02*
X187164698Y-93120000D01*
X187564698Y-93520000D02*
X187564698Y-92720000D01*
%TO.C,U3*%
X180340000Y-50800000D02*
X167386000Y-50800000D01*
X167386000Y-50800000D02*
X167386000Y-66167000D01*
X167386000Y-66167000D02*
X180340000Y-66167000D01*
X180340000Y-66167000D02*
X180340000Y-50800000D01*
%TO.C,JHC_VALVES1*%
X204038200Y-58420000D02*
X204038200Y-88900000D01*
X204038200Y-88900000D02*
X216255600Y-88900000D01*
X216255600Y-88900000D02*
X216255600Y-58420000D01*
X216255600Y-58420000D02*
X204038200Y-58420000D01*
%TO.C,JD_VALVE1*%
X204038200Y-90170000D02*
X204038200Y-105410000D01*
X204038200Y-105410000D02*
X216255600Y-105410000D01*
X216255600Y-105410000D02*
X216255600Y-90170000D01*
X216255600Y-90170000D02*
X204038200Y-90170000D01*
%TO.C,U_3.3V1*%
X175945800Y-122555000D02*
X192913000Y-122555000D01*
X192913000Y-122555000D02*
X192913000Y-100355400D01*
X192913000Y-100355400D02*
X175945800Y-100355400D01*
X175945800Y-100355400D02*
X175945800Y-122555000D01*
%TO.C,U_5V1*%
X191770000Y-49479200D02*
X191770000Y-32512000D01*
X191770000Y-32512000D02*
X169570400Y-32512000D01*
X169570400Y-32512000D02*
X169570400Y-49479200D01*
X169570400Y-49479200D02*
X191770000Y-49479200D01*
%TO.C,J_12V1*%
X216027000Y-53467000D02*
X216027000Y-44196000D01*
X216027000Y-44196000D02*
X201803000Y-44196000D01*
X201803000Y-44196000D02*
X201803000Y-53467000D01*
X201803000Y-53467000D02*
X216027000Y-53467000D01*
%TO.C,R1*%
X96290000Y-44990000D02*
X96620000Y-44990000D01*
X96620000Y-44990000D02*
X96620000Y-51530000D01*
X96620000Y-51530000D02*
X96290000Y-51530000D01*
X94210000Y-44990000D02*
X93880000Y-44990000D01*
X93880000Y-44990000D02*
X93880000Y-51530000D01*
X93880000Y-51530000D02*
X94210000Y-51530000D01*
%TO.C,R2*%
X95980000Y-36930000D02*
X95980000Y-36600000D01*
X89440000Y-36930000D02*
X95980000Y-36930000D01*
X89440000Y-36600000D02*
X89440000Y-36930000D01*
X95980000Y-34190000D02*
X95980000Y-34520000D01*
X89440000Y-34190000D02*
X95980000Y-34190000D01*
X89440000Y-34520000D02*
X89440000Y-34190000D01*
%TO.C,R3*%
X89440000Y-29440000D02*
X89440000Y-29110000D01*
X89440000Y-29110000D02*
X95980000Y-29110000D01*
X95980000Y-29110000D02*
X95980000Y-29440000D01*
X89440000Y-31520000D02*
X89440000Y-31850000D01*
X89440000Y-31850000D02*
X95980000Y-31850000D01*
X95980000Y-31850000D02*
X95980000Y-31520000D01*
D12*
%TO.C,U4*%
X182872000Y-59690000D02*
G75*
G03*
X182872000Y-59690000I-500000J0D01*
G01*
D11*
X193040000Y-83820000D02*
X183980000Y-83820000D01*
X183980000Y-83820000D02*
X183980000Y-58220000D01*
X193040000Y-58220000D02*
X183980000Y-58220000D01*
X193040000Y-83820000D02*
X193040000Y-58220000D01*
X194056000Y-54102000D02*
X194056000Y-54102000D01*
%TO.C,JPress1*%
D10*
X81439047Y-60412380D02*
X81439047Y-61126666D01*
X81391428Y-61269523D01*
X81296190Y-61364761D01*
X81153333Y-61412380D01*
X81058095Y-61412380D01*
X81915238Y-61412380D02*
X81915238Y-60412380D01*
X82296190Y-60412380D01*
X82391428Y-60460000D01*
X82439047Y-60507619D01*
X82486666Y-60602857D01*
X82486666Y-60745714D01*
X82439047Y-60840952D01*
X82391428Y-60888571D01*
X82296190Y-60936190D01*
X81915238Y-60936190D01*
X82915238Y-61412380D02*
X82915238Y-60745714D01*
X82915238Y-60936190D02*
X82962857Y-60840952D01*
X83010476Y-60793333D01*
X83105714Y-60745714D01*
X83200952Y-60745714D01*
X83915238Y-61364761D02*
X83820000Y-61412380D01*
X83629523Y-61412380D01*
X83534285Y-61364761D01*
X83486666Y-61269523D01*
X83486666Y-60888571D01*
X83534285Y-60793333D01*
X83629523Y-60745714D01*
X83820000Y-60745714D01*
X83915238Y-60793333D01*
X83962857Y-60888571D01*
X83962857Y-60983809D01*
X83486666Y-61079047D01*
X84343809Y-61364761D02*
X84439047Y-61412380D01*
X84629523Y-61412380D01*
X84724761Y-61364761D01*
X84772380Y-61269523D01*
X84772380Y-61221904D01*
X84724761Y-61126666D01*
X84629523Y-61079047D01*
X84486666Y-61079047D01*
X84391428Y-61031428D01*
X84343809Y-60936190D01*
X84343809Y-60888571D01*
X84391428Y-60793333D01*
X84486666Y-60745714D01*
X84629523Y-60745714D01*
X84724761Y-60793333D01*
X85153333Y-61364761D02*
X85248571Y-61412380D01*
X85439047Y-61412380D01*
X85534285Y-61364761D01*
X85581904Y-61269523D01*
X85581904Y-61221904D01*
X85534285Y-61126666D01*
X85439047Y-61079047D01*
X85296190Y-61079047D01*
X85200952Y-61031428D01*
X85153333Y-60936190D01*
X85153333Y-60888571D01*
X85200952Y-60793333D01*
X85296190Y-60745714D01*
X85439047Y-60745714D01*
X85534285Y-60793333D01*
X86534285Y-61412380D02*
X85962857Y-61412380D01*
X86248571Y-61412380D02*
X86248571Y-60412380D01*
X86153333Y-60555238D01*
X86058095Y-60650476D01*
X85962857Y-60698095D01*
X81007976Y-46442380D02*
X81627023Y-46442380D01*
X81293690Y-46823333D01*
X81436547Y-46823333D01*
X81531785Y-46870952D01*
X81579404Y-46918571D01*
X81627023Y-47013809D01*
X81627023Y-47251904D01*
X81579404Y-47347142D01*
X81531785Y-47394761D01*
X81436547Y-47442380D01*
X81150833Y-47442380D01*
X81055595Y-47394761D01*
X81007976Y-47347142D01*
X81055595Y-51617619D02*
X81103214Y-51570000D01*
X81198452Y-51522380D01*
X81436547Y-51522380D01*
X81531785Y-51570000D01*
X81579404Y-51617619D01*
X81627023Y-51712857D01*
X81627023Y-51808095D01*
X81579404Y-51950952D01*
X81007976Y-52522380D01*
X81627023Y-52522380D01*
X81627023Y-57602380D02*
X81055595Y-57602380D01*
X81341309Y-57602380D02*
X81341309Y-56602380D01*
X81246071Y-56745238D01*
X81150833Y-56840476D01*
X81055595Y-56888095D01*
%TO.C,JTemp1*%
X79018095Y-37552380D02*
X79018095Y-38266666D01*
X78970476Y-38409523D01*
X78875238Y-38504761D01*
X78732380Y-38552380D01*
X78637142Y-38552380D01*
X79351428Y-37552380D02*
X79922857Y-37552380D01*
X79637142Y-38552380D02*
X79637142Y-37552380D01*
X80637142Y-38504761D02*
X80541904Y-38552380D01*
X80351428Y-38552380D01*
X80256190Y-38504761D01*
X80208571Y-38409523D01*
X80208571Y-38028571D01*
X80256190Y-37933333D01*
X80351428Y-37885714D01*
X80541904Y-37885714D01*
X80637142Y-37933333D01*
X80684761Y-38028571D01*
X80684761Y-38123809D01*
X80208571Y-38219047D01*
X81113333Y-38552380D02*
X81113333Y-37885714D01*
X81113333Y-37980952D02*
X81160952Y-37933333D01*
X81256190Y-37885714D01*
X81399047Y-37885714D01*
X81494285Y-37933333D01*
X81541904Y-38028571D01*
X81541904Y-38552380D01*
X81541904Y-38028571D02*
X81589523Y-37933333D01*
X81684761Y-37885714D01*
X81827619Y-37885714D01*
X81922857Y-37933333D01*
X81970476Y-38028571D01*
X81970476Y-38552380D01*
X82446666Y-37885714D02*
X82446666Y-38885714D01*
X82446666Y-37933333D02*
X82541904Y-37885714D01*
X82732380Y-37885714D01*
X82827619Y-37933333D01*
X82875238Y-37980952D01*
X82922857Y-38076190D01*
X82922857Y-38361904D01*
X82875238Y-38457142D01*
X82827619Y-38504761D01*
X82732380Y-38552380D01*
X82541904Y-38552380D01*
X82446666Y-38504761D01*
X83875238Y-38552380D02*
X83303809Y-38552380D01*
X83589523Y-38552380D02*
X83589523Y-37552380D01*
X83494285Y-37695238D01*
X83399047Y-37790476D01*
X83303809Y-37838095D01*
X82155357Y-29932380D02*
X82774404Y-29932380D01*
X82441071Y-30313333D01*
X82583928Y-30313333D01*
X82679166Y-30360952D01*
X82726785Y-30408571D01*
X82774404Y-30503809D01*
X82774404Y-30741904D01*
X82726785Y-30837142D01*
X82679166Y-30884761D01*
X82583928Y-30932380D01*
X82298214Y-30932380D01*
X82202976Y-30884761D01*
X82155357Y-30837142D01*
X82202976Y-35107619D02*
X82250595Y-35060000D01*
X82345833Y-35012380D01*
X82583928Y-35012380D01*
X82679166Y-35060000D01*
X82726785Y-35107619D01*
X82774404Y-35202857D01*
X82774404Y-35298095D01*
X82726785Y-35440952D01*
X82155357Y-36012380D01*
X82774404Y-36012380D01*
X82774404Y-41092380D02*
X82202976Y-41092380D01*
X82488690Y-41092380D02*
X82488690Y-40092380D01*
X82393452Y-40235238D01*
X82298214Y-40330476D01*
X82202976Y-40378095D01*
%TO.C,U1*%
X144388095Y-118936380D02*
X144388095Y-119745904D01*
X144435714Y-119841142D01*
X144483333Y-119888761D01*
X144578571Y-119936380D01*
X144769047Y-119936380D01*
X144864285Y-119888761D01*
X144911904Y-119841142D01*
X144959523Y-119745904D01*
X144959523Y-118936380D01*
X145959523Y-119936380D02*
X145388095Y-119936380D01*
X145673809Y-119936380D02*
X145673809Y-118936380D01*
X145578571Y-119079238D01*
X145483333Y-119174476D01*
X145388095Y-119222095D01*
D13*
X112486380Y-93360190D02*
X112562571Y-93284000D01*
X112714952Y-93207809D01*
X113095904Y-93207809D01*
X113248285Y-93284000D01*
X113324476Y-93360190D01*
X113400666Y-93512571D01*
X113400666Y-93664952D01*
X113324476Y-93893523D01*
X112410190Y-94807809D01*
X113400666Y-94807809D01*
X114772095Y-93741142D02*
X114772095Y-94807809D01*
X114391142Y-93131619D02*
X114010190Y-94274476D01*
X115000666Y-94274476D01*
X115914952Y-93207809D02*
X116067333Y-93207809D01*
X116219714Y-93284000D01*
X116295904Y-93360190D01*
X116372095Y-93512571D01*
X116448285Y-93817333D01*
X116448285Y-94198285D01*
X116372095Y-94503047D01*
X116295904Y-94655428D01*
X116219714Y-94731619D01*
X116067333Y-94807809D01*
X115914952Y-94807809D01*
X115762571Y-94731619D01*
X115686380Y-94655428D01*
X115610190Y-94503047D01*
X115534000Y-94198285D01*
X115534000Y-93817333D01*
X115610190Y-93512571D01*
X115686380Y-93360190D01*
X115762571Y-93284000D01*
X115914952Y-93207809D01*
X118200666Y-93207809D02*
X119267333Y-94807809D01*
X119267333Y-93207809D02*
X118200666Y-94807809D01*
X120943523Y-93207809D02*
X121934000Y-93207809D01*
X121400666Y-93817333D01*
X121629238Y-93817333D01*
X121781619Y-93893523D01*
X121857809Y-93969714D01*
X121934000Y-94122095D01*
X121934000Y-94503047D01*
X121857809Y-94655428D01*
X121781619Y-94731619D01*
X121629238Y-94807809D01*
X121172095Y-94807809D01*
X121019714Y-94731619D01*
X120943523Y-94655428D01*
X122543523Y-93360190D02*
X122619714Y-93284000D01*
X122772095Y-93207809D01*
X123153047Y-93207809D01*
X123305428Y-93284000D01*
X123381619Y-93360190D01*
X123457809Y-93512571D01*
X123457809Y-93664952D01*
X123381619Y-93893523D01*
X122467333Y-94807809D01*
X123457809Y-94807809D01*
X124448285Y-93207809D02*
X124600666Y-93207809D01*
X124753047Y-93284000D01*
X124829238Y-93360190D01*
X124905428Y-93512571D01*
X124981619Y-93817333D01*
X124981619Y-94198285D01*
X124905428Y-94503047D01*
X124829238Y-94655428D01*
X124753047Y-94731619D01*
X124600666Y-94807809D01*
X124448285Y-94807809D01*
X124295904Y-94731619D01*
X124219714Y-94655428D01*
X124143523Y-94503047D01*
X124067333Y-94198285D01*
X124067333Y-93817333D01*
X124143523Y-93512571D01*
X124219714Y-93360190D01*
X124295904Y-93284000D01*
X124448285Y-93207809D01*
X110708666Y-99379809D02*
X110708666Y-97779809D01*
X111089619Y-97779809D01*
X111318190Y-97856000D01*
X111470571Y-98008380D01*
X111546761Y-98160761D01*
X111622952Y-98465523D01*
X111622952Y-98694095D01*
X111546761Y-98998857D01*
X111470571Y-99151238D01*
X111318190Y-99303619D01*
X111089619Y-99379809D01*
X110708666Y-99379809D01*
X112308666Y-99379809D02*
X112308666Y-98313142D01*
X112308666Y-98617904D02*
X112384857Y-98465523D01*
X112461047Y-98389333D01*
X112613428Y-98313142D01*
X112765809Y-98313142D01*
X113299142Y-99379809D02*
X113299142Y-98313142D01*
X113299142Y-97779809D02*
X113222952Y-97856000D01*
X113299142Y-97932190D01*
X113375333Y-97856000D01*
X113299142Y-97779809D01*
X113299142Y-97932190D01*
X113908666Y-98313142D02*
X114289619Y-99379809D01*
X114670571Y-98313142D01*
X115889619Y-99303619D02*
X115737238Y-99379809D01*
X115432476Y-99379809D01*
X115280095Y-99303619D01*
X115203904Y-99151238D01*
X115203904Y-98541714D01*
X115280095Y-98389333D01*
X115432476Y-98313142D01*
X115737238Y-98313142D01*
X115889619Y-98389333D01*
X115965809Y-98541714D01*
X115965809Y-98694095D01*
X115203904Y-98846476D01*
X116651523Y-99379809D02*
X116651523Y-98313142D01*
X116651523Y-98617904D02*
X116727714Y-98465523D01*
X116803904Y-98389333D01*
X116956285Y-98313142D01*
X117108666Y-98313142D01*
X117642000Y-99227428D02*
X117718190Y-99303619D01*
X117642000Y-99379809D01*
X117565809Y-99303619D01*
X117642000Y-99227428D01*
X117642000Y-99379809D01*
X117642000Y-98389333D02*
X117718190Y-98465523D01*
X117642000Y-98541714D01*
X117565809Y-98465523D01*
X117642000Y-98389333D01*
X117642000Y-98541714D01*
X119622952Y-99379809D02*
X119622952Y-97779809D01*
X121146761Y-99379809D02*
X120384857Y-99379809D01*
X120384857Y-97779809D01*
X121680095Y-99379809D02*
X121680095Y-97779809D01*
X122518190Y-99379809D02*
X122822952Y-99379809D01*
X122975333Y-99303619D01*
X123051523Y-99227428D01*
X123203904Y-98998857D01*
X123280095Y-98694095D01*
X123280095Y-98084571D01*
X123203904Y-97932190D01*
X123127714Y-97856000D01*
X122975333Y-97779809D01*
X122670571Y-97779809D01*
X122518190Y-97856000D01*
X122442000Y-97932190D01*
X122365809Y-98084571D01*
X122365809Y-98465523D01*
X122442000Y-98617904D01*
X122518190Y-98694095D01*
X122670571Y-98770285D01*
X122975333Y-98770285D01*
X123127714Y-98694095D01*
X123203904Y-98617904D01*
X123280095Y-98465523D01*
X123813428Y-97779809D02*
X124803904Y-97779809D01*
X124270571Y-98389333D01*
X124499142Y-98389333D01*
X124651523Y-98465523D01*
X124727714Y-98541714D01*
X124803904Y-98694095D01*
X124803904Y-99075047D01*
X124727714Y-99227428D01*
X124651523Y-99303619D01*
X124499142Y-99379809D01*
X124042000Y-99379809D01*
X123889619Y-99303619D01*
X123813428Y-99227428D01*
X126175333Y-98313142D02*
X126175333Y-99379809D01*
X125794380Y-97703619D02*
X125413428Y-98846476D01*
X126403904Y-98846476D01*
X127851523Y-99379809D02*
X126937238Y-99379809D01*
X127394380Y-99379809D02*
X127394380Y-97779809D01*
X127242000Y-98008380D01*
X127089619Y-98160761D01*
X126937238Y-98236952D01*
D14*
X101683142Y-102750285D02*
X102797428Y-102750285D01*
X102197428Y-103436000D01*
X102454571Y-103436000D01*
X102626000Y-103521714D01*
X102711714Y-103607428D01*
X102797428Y-103778857D01*
X102797428Y-104207428D01*
X102711714Y-104378857D01*
X102626000Y-104464571D01*
X102454571Y-104550285D01*
X101940285Y-104550285D01*
X101768857Y-104464571D01*
X101683142Y-104378857D01*
X103568857Y-104378857D02*
X103654571Y-104464571D01*
X103568857Y-104550285D01*
X103483142Y-104464571D01*
X103568857Y-104378857D01*
X103568857Y-104550285D01*
X104340285Y-102921714D02*
X104426000Y-102836000D01*
X104597428Y-102750285D01*
X105026000Y-102750285D01*
X105197428Y-102836000D01*
X105283142Y-102921714D01*
X105368857Y-103093142D01*
X105368857Y-103264571D01*
X105283142Y-103521714D01*
X104254571Y-104550285D01*
X105368857Y-104550285D01*
X106054571Y-102750285D02*
X106054571Y-103093142D01*
X106740285Y-102750285D02*
X106740285Y-103093142D01*
X108626000Y-102750285D02*
X109654571Y-102750285D01*
X109140285Y-104550285D02*
X109140285Y-102750285D01*
X110854571Y-103607428D02*
X110254571Y-103607428D01*
X110254571Y-104550285D02*
X110254571Y-102750285D01*
X111111714Y-102750285D01*
X111540285Y-102750285D02*
X112568857Y-102750285D01*
X112054571Y-104550285D02*
X112054571Y-102750285D01*
X114283142Y-102750285D02*
X115311714Y-102750285D01*
X114797428Y-104550285D02*
X114797428Y-102750285D01*
X116254571Y-102750285D02*
X116597428Y-102750285D01*
X116768857Y-102836000D01*
X116940285Y-103007428D01*
X117026000Y-103350285D01*
X117026000Y-103950285D01*
X116940285Y-104293142D01*
X116768857Y-104464571D01*
X116597428Y-104550285D01*
X116254571Y-104550285D01*
X116083142Y-104464571D01*
X115911714Y-104293142D01*
X115826000Y-103950285D01*
X115826000Y-103350285D01*
X115911714Y-103007428D01*
X116083142Y-102836000D01*
X116254571Y-102750285D01*
X117797428Y-102750285D02*
X117797428Y-104207428D01*
X117883142Y-104378857D01*
X117968857Y-104464571D01*
X118140285Y-104550285D01*
X118483142Y-104550285D01*
X118654571Y-104464571D01*
X118740285Y-104378857D01*
X118826000Y-104207428D01*
X118826000Y-102750285D01*
X120711714Y-104378857D02*
X120626000Y-104464571D01*
X120368857Y-104550285D01*
X120197428Y-104550285D01*
X119940285Y-104464571D01*
X119768857Y-104293142D01*
X119683142Y-104121714D01*
X119597428Y-103778857D01*
X119597428Y-103521714D01*
X119683142Y-103178857D01*
X119768857Y-103007428D01*
X119940285Y-102836000D01*
X120197428Y-102750285D01*
X120368857Y-102750285D01*
X120626000Y-102836000D01*
X120711714Y-102921714D01*
X121483142Y-104550285D02*
X121483142Y-102750285D01*
X121483142Y-103607428D02*
X122511714Y-103607428D01*
X122511714Y-104550285D02*
X122511714Y-102750285D01*
X124740285Y-104550285D02*
X124740285Y-102750285D01*
X125168857Y-102750285D01*
X125426000Y-102836000D01*
X125597428Y-103007428D01*
X125683142Y-103178857D01*
X125768857Y-103521714D01*
X125768857Y-103778857D01*
X125683142Y-104121714D01*
X125597428Y-104293142D01*
X125426000Y-104464571D01*
X125168857Y-104550285D01*
X124740285Y-104550285D01*
X126540285Y-104550285D02*
X126540285Y-102750285D01*
X127311714Y-104464571D02*
X127568857Y-104550285D01*
X127997428Y-104550285D01*
X128168857Y-104464571D01*
X128254571Y-104378857D01*
X128340285Y-104207428D01*
X128340285Y-104036000D01*
X128254571Y-103864571D01*
X128168857Y-103778857D01*
X127997428Y-103693142D01*
X127654571Y-103607428D01*
X127483142Y-103521714D01*
X127397428Y-103436000D01*
X127311714Y-103264571D01*
X127311714Y-103093142D01*
X127397428Y-102921714D01*
X127483142Y-102836000D01*
X127654571Y-102750285D01*
X128083142Y-102750285D01*
X128340285Y-102836000D01*
X129111714Y-104550285D02*
X129111714Y-102750285D01*
X129797428Y-102750285D01*
X129968857Y-102836000D01*
X130054571Y-102921714D01*
X130140285Y-103093142D01*
X130140285Y-103350285D01*
X130054571Y-103521714D01*
X129968857Y-103607428D01*
X129797428Y-103693142D01*
X129111714Y-103693142D01*
X131768857Y-104550285D02*
X130911714Y-104550285D01*
X130911714Y-102750285D01*
X132283142Y-104036000D02*
X133140285Y-104036000D01*
X132111714Y-104550285D02*
X132711714Y-102750285D01*
X133311714Y-104550285D01*
X134254571Y-103693142D02*
X134254571Y-104550285D01*
X133654571Y-102750285D02*
X134254571Y-103693142D01*
X134854571Y-102750285D01*
D10*
X157864119Y-79312380D02*
X158435547Y-79312380D01*
X158149833Y-80312380D02*
X158149833Y-79312380D01*
X158530785Y-80407619D02*
X159292690Y-80407619D01*
X159530785Y-80312380D02*
X159530785Y-79312380D01*
X160578404Y-80312380D02*
X160245071Y-79836190D01*
X160006976Y-80312380D02*
X160006976Y-79312380D01*
X160387928Y-79312380D01*
X160483166Y-79360000D01*
X160530785Y-79407619D01*
X160578404Y-79502857D01*
X160578404Y-79645714D01*
X160530785Y-79740952D01*
X160483166Y-79788571D01*
X160387928Y-79836190D01*
X160006976Y-79836190D01*
X161673642Y-80407619D02*
X161578404Y-80360000D01*
X161483166Y-80264761D01*
X161340309Y-80121904D01*
X161245071Y-80074285D01*
X161149833Y-80074285D01*
X161197452Y-80312380D02*
X161102214Y-80264761D01*
X161006976Y-80169523D01*
X160959357Y-79979047D01*
X160959357Y-79645714D01*
X161006976Y-79455238D01*
X161102214Y-79360000D01*
X161197452Y-79312380D01*
X161387928Y-79312380D01*
X161483166Y-79360000D01*
X161578404Y-79455238D01*
X161626023Y-79645714D01*
X161626023Y-79979047D01*
X161578404Y-80169523D01*
X161483166Y-80264761D01*
X161387928Y-80312380D01*
X161197452Y-80312380D01*
X157530785Y-81852380D02*
X158102214Y-81852380D01*
X157816500Y-82852380D02*
X157816500Y-81852380D01*
X158197452Y-82947619D02*
X158959357Y-82947619D01*
X159387928Y-81852380D02*
X159578404Y-81852380D01*
X159673642Y-81900000D01*
X159768880Y-81995238D01*
X159816500Y-82185714D01*
X159816500Y-82519047D01*
X159768880Y-82709523D01*
X159673642Y-82804761D01*
X159578404Y-82852380D01*
X159387928Y-82852380D01*
X159292690Y-82804761D01*
X159197452Y-82709523D01*
X159149833Y-82519047D01*
X159149833Y-82185714D01*
X159197452Y-81995238D01*
X159292690Y-81900000D01*
X159387928Y-81852380D01*
X160245071Y-81852380D02*
X160245071Y-82661904D01*
X160292690Y-82757142D01*
X160340309Y-82804761D01*
X160435547Y-82852380D01*
X160626023Y-82852380D01*
X160721261Y-82804761D01*
X160768880Y-82757142D01*
X160816500Y-82661904D01*
X160816500Y-81852380D01*
X161149833Y-81852380D02*
X161721261Y-81852380D01*
X161435547Y-82852380D02*
X161435547Y-81852380D01*
X157864119Y-84392380D02*
X158435547Y-84392380D01*
X158149833Y-85392380D02*
X158149833Y-84392380D01*
X158530785Y-85487619D02*
X159292690Y-85487619D01*
X159530785Y-85392380D02*
X159530785Y-84392380D01*
X159768880Y-84392380D01*
X159911738Y-84440000D01*
X160006976Y-84535238D01*
X160054595Y-84630476D01*
X160102214Y-84820952D01*
X160102214Y-84963809D01*
X160054595Y-85154285D01*
X160006976Y-85249523D01*
X159911738Y-85344761D01*
X159768880Y-85392380D01*
X159530785Y-85392380D01*
X160530785Y-85392380D02*
X160530785Y-84392380D01*
X161006976Y-85392380D02*
X161006976Y-84392380D01*
X161578404Y-85392380D01*
X161578404Y-84392380D01*
X158435547Y-86932380D02*
X159006976Y-86932380D01*
X158721261Y-87932380D02*
X158721261Y-86932380D01*
X159102214Y-88027619D02*
X159864119Y-88027619D01*
X160673642Y-87837142D02*
X160626023Y-87884761D01*
X160483166Y-87932380D01*
X160387928Y-87932380D01*
X160245071Y-87884761D01*
X160149833Y-87789523D01*
X160102214Y-87694285D01*
X160054595Y-87503809D01*
X160054595Y-87360952D01*
X160102214Y-87170476D01*
X160149833Y-87075238D01*
X160245071Y-86980000D01*
X160387928Y-86932380D01*
X160483166Y-86932380D01*
X160626023Y-86980000D01*
X160673642Y-87027619D01*
X161054595Y-87884761D02*
X161197452Y-87932380D01*
X161435547Y-87932380D01*
X161530785Y-87884761D01*
X161578404Y-87837142D01*
X161626023Y-87741904D01*
X161626023Y-87646666D01*
X161578404Y-87551428D01*
X161530785Y-87503809D01*
X161435547Y-87456190D01*
X161245071Y-87408571D01*
X161149833Y-87360952D01*
X161102214Y-87313333D01*
X161054595Y-87218095D01*
X161054595Y-87122857D01*
X161102214Y-87027619D01*
X161149833Y-86980000D01*
X161245071Y-86932380D01*
X161483166Y-86932380D01*
X161626023Y-86980000D01*
X157578404Y-89472380D02*
X158149833Y-89472380D01*
X157864119Y-90472380D02*
X157864119Y-89472380D01*
X158245071Y-90567619D02*
X159006976Y-90567619D01*
X159816500Y-90377142D02*
X159768880Y-90424761D01*
X159626023Y-90472380D01*
X159530785Y-90472380D01*
X159387928Y-90424761D01*
X159292690Y-90329523D01*
X159245071Y-90234285D01*
X159197452Y-90043809D01*
X159197452Y-89900952D01*
X159245071Y-89710476D01*
X159292690Y-89615238D01*
X159387928Y-89520000D01*
X159530785Y-89472380D01*
X159626023Y-89472380D01*
X159768880Y-89520000D01*
X159816500Y-89567619D01*
X160721261Y-90472380D02*
X160245071Y-90472380D01*
X160245071Y-89472380D01*
X161054595Y-90472380D02*
X161054595Y-89472380D01*
X161626023Y-90472380D02*
X161197452Y-89900952D01*
X161626023Y-89472380D02*
X161054595Y-90043809D01*
X77483142Y-92456761D02*
X77626000Y-92504380D01*
X77864095Y-92504380D01*
X77959333Y-92456761D01*
X78006952Y-92409142D01*
X78054571Y-92313904D01*
X78054571Y-92218666D01*
X78006952Y-92123428D01*
X77959333Y-92075809D01*
X77864095Y-92028190D01*
X77673619Y-91980571D01*
X77578380Y-91932952D01*
X77530761Y-91885333D01*
X77483142Y-91790095D01*
X77483142Y-91694857D01*
X77530761Y-91599619D01*
X77578380Y-91552000D01*
X77673619Y-91504380D01*
X77911714Y-91504380D01*
X78054571Y-91552000D01*
X78483142Y-92504380D02*
X78483142Y-91504380D01*
X78721238Y-91504380D01*
X78864095Y-91552000D01*
X78959333Y-91647238D01*
X79006952Y-91742476D01*
X79054571Y-91932952D01*
X79054571Y-92075809D01*
X79006952Y-92266285D01*
X78959333Y-92361523D01*
X78864095Y-92456761D01*
X78721238Y-92504380D01*
X78483142Y-92504380D01*
X79245047Y-92599619D02*
X80006952Y-92599619D01*
X80197428Y-92456761D02*
X80340285Y-92504380D01*
X80578380Y-92504380D01*
X80673619Y-92456761D01*
X80721238Y-92409142D01*
X80768857Y-92313904D01*
X80768857Y-92218666D01*
X80721238Y-92123428D01*
X80673619Y-92075809D01*
X80578380Y-92028190D01*
X80387904Y-91980571D01*
X80292666Y-91932952D01*
X80245047Y-91885333D01*
X80197428Y-91790095D01*
X80197428Y-91694857D01*
X80245047Y-91599619D01*
X80292666Y-91552000D01*
X80387904Y-91504380D01*
X80626000Y-91504380D01*
X80768857Y-91552000D01*
X81768857Y-92409142D02*
X81721238Y-92456761D01*
X81578380Y-92504380D01*
X81483142Y-92504380D01*
X81340285Y-92456761D01*
X81245047Y-92361523D01*
X81197428Y-92266285D01*
X81149809Y-92075809D01*
X81149809Y-91932952D01*
X81197428Y-91742476D01*
X81245047Y-91647238D01*
X81340285Y-91552000D01*
X81483142Y-91504380D01*
X81578380Y-91504380D01*
X81721238Y-91552000D01*
X81768857Y-91599619D01*
X82197428Y-92504380D02*
X82197428Y-91504380D01*
X82768857Y-92504380D02*
X82340285Y-91932952D01*
X82768857Y-91504380D02*
X82197428Y-92075809D01*
X77365976Y-94996761D02*
X77508833Y-95044380D01*
X77746928Y-95044380D01*
X77842166Y-94996761D01*
X77889785Y-94949142D01*
X77937404Y-94853904D01*
X77937404Y-94758666D01*
X77889785Y-94663428D01*
X77842166Y-94615809D01*
X77746928Y-94568190D01*
X77556452Y-94520571D01*
X77461214Y-94472952D01*
X77413595Y-94425333D01*
X77365976Y-94330095D01*
X77365976Y-94234857D01*
X77413595Y-94139619D01*
X77461214Y-94092000D01*
X77556452Y-94044380D01*
X77794547Y-94044380D01*
X77937404Y-94092000D01*
X78365976Y-95044380D02*
X78365976Y-94044380D01*
X78604071Y-94044380D01*
X78746928Y-94092000D01*
X78842166Y-94187238D01*
X78889785Y-94282476D01*
X78937404Y-94472952D01*
X78937404Y-94615809D01*
X78889785Y-94806285D01*
X78842166Y-94901523D01*
X78746928Y-94996761D01*
X78604071Y-95044380D01*
X78365976Y-95044380D01*
X79127880Y-95139619D02*
X79889785Y-95139619D01*
X80127880Y-95044380D02*
X80127880Y-94044380D01*
X80461214Y-94758666D01*
X80794547Y-94044380D01*
X80794547Y-95044380D01*
X81270738Y-95044380D02*
X81270738Y-94044380D01*
X81699309Y-94996761D02*
X81842166Y-95044380D01*
X82080261Y-95044380D01*
X82175500Y-94996761D01*
X82223119Y-94949142D01*
X82270738Y-94853904D01*
X82270738Y-94758666D01*
X82223119Y-94663428D01*
X82175500Y-94615809D01*
X82080261Y-94568190D01*
X81889785Y-94520571D01*
X81794547Y-94472952D01*
X81746928Y-94425333D01*
X81699309Y-94330095D01*
X81699309Y-94234857D01*
X81746928Y-94139619D01*
X81794547Y-94092000D01*
X81889785Y-94044380D01*
X82127880Y-94044380D01*
X82270738Y-94092000D01*
X82889785Y-94044380D02*
X83080261Y-94044380D01*
X83175500Y-94092000D01*
X83270738Y-94187238D01*
X83318357Y-94377714D01*
X83318357Y-94711047D01*
X83270738Y-94901523D01*
X83175500Y-94996761D01*
X83080261Y-95044380D01*
X82889785Y-95044380D01*
X82794547Y-94996761D01*
X82699309Y-94901523D01*
X82651690Y-94711047D01*
X82651690Y-94377714D01*
X82699309Y-94187238D01*
X82794547Y-94092000D01*
X82889785Y-94044380D01*
X77365976Y-97536761D02*
X77508833Y-97584380D01*
X77746928Y-97584380D01*
X77842166Y-97536761D01*
X77889785Y-97489142D01*
X77937404Y-97393904D01*
X77937404Y-97298666D01*
X77889785Y-97203428D01*
X77842166Y-97155809D01*
X77746928Y-97108190D01*
X77556452Y-97060571D01*
X77461214Y-97012952D01*
X77413595Y-96965333D01*
X77365976Y-96870095D01*
X77365976Y-96774857D01*
X77413595Y-96679619D01*
X77461214Y-96632000D01*
X77556452Y-96584380D01*
X77794547Y-96584380D01*
X77937404Y-96632000D01*
X78365976Y-97584380D02*
X78365976Y-96584380D01*
X78604071Y-96584380D01*
X78746928Y-96632000D01*
X78842166Y-96727238D01*
X78889785Y-96822476D01*
X78937404Y-97012952D01*
X78937404Y-97155809D01*
X78889785Y-97346285D01*
X78842166Y-97441523D01*
X78746928Y-97536761D01*
X78604071Y-97584380D01*
X78365976Y-97584380D01*
X79127880Y-97679619D02*
X79889785Y-97679619D01*
X80127880Y-97584380D02*
X80127880Y-96584380D01*
X80461214Y-97298666D01*
X80794547Y-96584380D01*
X80794547Y-97584380D01*
X81461214Y-96584380D02*
X81651690Y-96584380D01*
X81746928Y-96632000D01*
X81842166Y-96727238D01*
X81889785Y-96917714D01*
X81889785Y-97251047D01*
X81842166Y-97441523D01*
X81746928Y-97536761D01*
X81651690Y-97584380D01*
X81461214Y-97584380D01*
X81365976Y-97536761D01*
X81270738Y-97441523D01*
X81223119Y-97251047D01*
X81223119Y-96917714D01*
X81270738Y-96727238D01*
X81365976Y-96632000D01*
X81461214Y-96584380D01*
X82270738Y-97536761D02*
X82413595Y-97584380D01*
X82651690Y-97584380D01*
X82746928Y-97536761D01*
X82794547Y-97489142D01*
X82842166Y-97393904D01*
X82842166Y-97298666D01*
X82794547Y-97203428D01*
X82746928Y-97155809D01*
X82651690Y-97108190D01*
X82461214Y-97060571D01*
X82365976Y-97012952D01*
X82318357Y-96965333D01*
X82270738Y-96870095D01*
X82270738Y-96774857D01*
X82318357Y-96679619D01*
X82365976Y-96632000D01*
X82461214Y-96584380D01*
X82699309Y-96584380D01*
X82842166Y-96632000D01*
X83270738Y-97584380D02*
X83270738Y-96584380D01*
X77365976Y-100076761D02*
X77508833Y-100124380D01*
X77746928Y-100124380D01*
X77842166Y-100076761D01*
X77889785Y-100029142D01*
X77937404Y-99933904D01*
X77937404Y-99838666D01*
X77889785Y-99743428D01*
X77842166Y-99695809D01*
X77746928Y-99648190D01*
X77556452Y-99600571D01*
X77461214Y-99552952D01*
X77413595Y-99505333D01*
X77365976Y-99410095D01*
X77365976Y-99314857D01*
X77413595Y-99219619D01*
X77461214Y-99172000D01*
X77556452Y-99124380D01*
X77794547Y-99124380D01*
X77937404Y-99172000D01*
X78365976Y-100124380D02*
X78365976Y-99124380D01*
X78604071Y-99124380D01*
X78746928Y-99172000D01*
X78842166Y-99267238D01*
X78889785Y-99362476D01*
X78937404Y-99552952D01*
X78937404Y-99695809D01*
X78889785Y-99886285D01*
X78842166Y-99981523D01*
X78746928Y-100076761D01*
X78604071Y-100124380D01*
X78365976Y-100124380D01*
X79127880Y-100219619D02*
X79889785Y-100219619D01*
X80699309Y-100029142D02*
X80651690Y-100076761D01*
X80508833Y-100124380D01*
X80413595Y-100124380D01*
X80270738Y-100076761D01*
X80175500Y-99981523D01*
X80127880Y-99886285D01*
X80080261Y-99695809D01*
X80080261Y-99552952D01*
X80127880Y-99362476D01*
X80175500Y-99267238D01*
X80270738Y-99172000D01*
X80413595Y-99124380D01*
X80508833Y-99124380D01*
X80651690Y-99172000D01*
X80699309Y-99219619D01*
X81080261Y-100076761D02*
X81223119Y-100124380D01*
X81461214Y-100124380D01*
X81556452Y-100076761D01*
X81604071Y-100029142D01*
X81651690Y-99933904D01*
X81651690Y-99838666D01*
X81604071Y-99743428D01*
X81556452Y-99695809D01*
X81461214Y-99648190D01*
X81270738Y-99600571D01*
X81175500Y-99552952D01*
X81127880Y-99505333D01*
X81080261Y-99410095D01*
X81080261Y-99314857D01*
X81127880Y-99219619D01*
X81175500Y-99172000D01*
X81270738Y-99124380D01*
X81508833Y-99124380D01*
X81651690Y-99172000D01*
X158435547Y-93012380D02*
X158435547Y-92012380D01*
X158768880Y-92726666D01*
X159102214Y-92012380D01*
X159102214Y-93012380D01*
X159578404Y-93012380D02*
X159578404Y-92012380D01*
X160006976Y-92964761D02*
X160149833Y-93012380D01*
X160387928Y-93012380D01*
X160483166Y-92964761D01*
X160530785Y-92917142D01*
X160578404Y-92821904D01*
X160578404Y-92726666D01*
X160530785Y-92631428D01*
X160483166Y-92583809D01*
X160387928Y-92536190D01*
X160197452Y-92488571D01*
X160102214Y-92440952D01*
X160054595Y-92393333D01*
X160006976Y-92298095D01*
X160006976Y-92202857D01*
X160054595Y-92107619D01*
X160102214Y-92060000D01*
X160197452Y-92012380D01*
X160435547Y-92012380D01*
X160578404Y-92060000D01*
X161197452Y-92012380D02*
X161387928Y-92012380D01*
X161483166Y-92060000D01*
X161578404Y-92155238D01*
X161626023Y-92345714D01*
X161626023Y-92679047D01*
X161578404Y-92869523D01*
X161483166Y-92964761D01*
X161387928Y-93012380D01*
X161197452Y-93012380D01*
X161102214Y-92964761D01*
X161006976Y-92869523D01*
X160959357Y-92679047D01*
X160959357Y-92345714D01*
X161006976Y-92155238D01*
X161102214Y-92060000D01*
X161197452Y-92012380D01*
X159816500Y-95552380D02*
X159340309Y-95552380D01*
X159340309Y-94552380D01*
X160149833Y-95028571D02*
X160483166Y-95028571D01*
X160626023Y-95552380D02*
X160149833Y-95552380D01*
X160149833Y-94552380D01*
X160626023Y-94552380D01*
X161054595Y-95552380D02*
X161054595Y-94552380D01*
X161292690Y-94552380D01*
X161435547Y-94600000D01*
X161530785Y-94695238D01*
X161578404Y-94790476D01*
X161626023Y-94980952D01*
X161626023Y-95123809D01*
X161578404Y-95314285D01*
X161530785Y-95409523D01*
X161435547Y-95504761D01*
X161292690Y-95552380D01*
X161054595Y-95552380D01*
X159054595Y-98044761D02*
X159197452Y-98092380D01*
X159435547Y-98092380D01*
X159530785Y-98044761D01*
X159578404Y-97997142D01*
X159626023Y-97901904D01*
X159626023Y-97806666D01*
X159578404Y-97711428D01*
X159530785Y-97663809D01*
X159435547Y-97616190D01*
X159245071Y-97568571D01*
X159149833Y-97520952D01*
X159102214Y-97473333D01*
X159054595Y-97378095D01*
X159054595Y-97282857D01*
X159102214Y-97187619D01*
X159149833Y-97140000D01*
X159245071Y-97092380D01*
X159483166Y-97092380D01*
X159626023Y-97140000D01*
X160626023Y-97997142D02*
X160578404Y-98044761D01*
X160435547Y-98092380D01*
X160340309Y-98092380D01*
X160197452Y-98044761D01*
X160102214Y-97949523D01*
X160054595Y-97854285D01*
X160006976Y-97663809D01*
X160006976Y-97520952D01*
X160054595Y-97330476D01*
X160102214Y-97235238D01*
X160197452Y-97140000D01*
X160340309Y-97092380D01*
X160435547Y-97092380D01*
X160578404Y-97140000D01*
X160626023Y-97187619D01*
X161054595Y-98092380D02*
X161054595Y-97092380D01*
X161626023Y-98092380D02*
X161197452Y-97520952D01*
X161626023Y-97092380D02*
X161054595Y-97663809D01*
X159578404Y-100584761D02*
X159721261Y-100632380D01*
X159959357Y-100632380D01*
X160054595Y-100584761D01*
X160102214Y-100537142D01*
X160149833Y-100441904D01*
X160149833Y-100346666D01*
X160102214Y-100251428D01*
X160054595Y-100203809D01*
X159959357Y-100156190D01*
X159768880Y-100108571D01*
X159673642Y-100060952D01*
X159626023Y-100013333D01*
X159578404Y-99918095D01*
X159578404Y-99822857D01*
X159626023Y-99727619D01*
X159673642Y-99680000D01*
X159768880Y-99632380D01*
X160006976Y-99632380D01*
X160149833Y-99680000D01*
X160578404Y-100632380D02*
X160578404Y-99632380D01*
X160816500Y-99632380D01*
X160959357Y-99680000D01*
X161054595Y-99775238D01*
X161102214Y-99870476D01*
X161149833Y-100060952D01*
X161149833Y-100203809D01*
X161102214Y-100394285D01*
X161054595Y-100489523D01*
X160959357Y-100584761D01*
X160816500Y-100632380D01*
X160578404Y-100632380D01*
X161578404Y-100632380D02*
X161578404Y-99632380D01*
X159006976Y-103172380D02*
X159006976Y-102172380D01*
X159245071Y-102172380D01*
X159387928Y-102220000D01*
X159483166Y-102315238D01*
X159530785Y-102410476D01*
X159578404Y-102600952D01*
X159578404Y-102743809D01*
X159530785Y-102934285D01*
X159483166Y-103029523D01*
X159387928Y-103124761D01*
X159245071Y-103172380D01*
X159006976Y-103172380D01*
X160721261Y-102124761D02*
X159864119Y-103410476D01*
X161626023Y-103077142D02*
X161578404Y-103124761D01*
X161435547Y-103172380D01*
X161340309Y-103172380D01*
X161197452Y-103124761D01*
X161102214Y-103029523D01*
X161054595Y-102934285D01*
X161006976Y-102743809D01*
X161006976Y-102600952D01*
X161054595Y-102410476D01*
X161102214Y-102315238D01*
X161197452Y-102220000D01*
X161340309Y-102172380D01*
X161435547Y-102172380D01*
X161578404Y-102220000D01*
X161626023Y-102267619D01*
X158102214Y-105712380D02*
X157768880Y-105236190D01*
X157530785Y-105712380D02*
X157530785Y-104712380D01*
X157911738Y-104712380D01*
X158006976Y-104760000D01*
X158054595Y-104807619D01*
X158102214Y-104902857D01*
X158102214Y-105045714D01*
X158054595Y-105140952D01*
X158006976Y-105188571D01*
X157911738Y-105236190D01*
X157530785Y-105236190D01*
X158530785Y-105188571D02*
X158864119Y-105188571D01*
X159006976Y-105712380D02*
X158530785Y-105712380D01*
X158530785Y-104712380D01*
X159006976Y-104712380D01*
X159387928Y-105664761D02*
X159530785Y-105712380D01*
X159768880Y-105712380D01*
X159864119Y-105664761D01*
X159911738Y-105617142D01*
X159959357Y-105521904D01*
X159959357Y-105426666D01*
X159911738Y-105331428D01*
X159864119Y-105283809D01*
X159768880Y-105236190D01*
X159578404Y-105188571D01*
X159483166Y-105140952D01*
X159435547Y-105093333D01*
X159387928Y-104998095D01*
X159387928Y-104902857D01*
X159435547Y-104807619D01*
X159483166Y-104760000D01*
X159578404Y-104712380D01*
X159816500Y-104712380D01*
X159959357Y-104760000D01*
X160387928Y-105188571D02*
X160721261Y-105188571D01*
X160864119Y-105712380D02*
X160387928Y-105712380D01*
X160387928Y-104712380D01*
X160864119Y-104712380D01*
X161149833Y-104712380D02*
X161721261Y-104712380D01*
X161435547Y-105712380D02*
X161435547Y-104712380D01*
X160731333Y-108157142D02*
X160683714Y-108204761D01*
X160540857Y-108252380D01*
X160445619Y-108252380D01*
X160302761Y-108204761D01*
X160207523Y-108109523D01*
X160159904Y-108014285D01*
X160112285Y-107823809D01*
X160112285Y-107680952D01*
X160159904Y-107490476D01*
X160207523Y-107395238D01*
X160302761Y-107300000D01*
X160445619Y-107252380D01*
X160540857Y-107252380D01*
X160683714Y-107300000D01*
X160731333Y-107347619D01*
X161112285Y-108204761D02*
X161255142Y-108252380D01*
X161493238Y-108252380D01*
X161588476Y-108204761D01*
X161636095Y-108157142D01*
X161683714Y-108061904D01*
X161683714Y-107966666D01*
X161636095Y-107871428D01*
X161588476Y-107823809D01*
X161493238Y-107776190D01*
X161302761Y-107728571D01*
X161207523Y-107680952D01*
X161159904Y-107633333D01*
X161112285Y-107538095D01*
X161112285Y-107442857D01*
X161159904Y-107347619D01*
X161207523Y-107300000D01*
X161302761Y-107252380D01*
X161540857Y-107252380D01*
X161683714Y-107300000D01*
X159530785Y-109840000D02*
X159435547Y-109792380D01*
X159292690Y-109792380D01*
X159149833Y-109840000D01*
X159054595Y-109935238D01*
X159006976Y-110030476D01*
X158959357Y-110220952D01*
X158959357Y-110363809D01*
X159006976Y-110554285D01*
X159054595Y-110649523D01*
X159149833Y-110744761D01*
X159292690Y-110792380D01*
X159387928Y-110792380D01*
X159530785Y-110744761D01*
X159578404Y-110697142D01*
X159578404Y-110363809D01*
X159387928Y-110363809D01*
X160006976Y-110792380D02*
X160006976Y-109792380D01*
X160578404Y-110792380D01*
X160578404Y-109792380D01*
X161054595Y-110792380D02*
X161054595Y-109792380D01*
X161292690Y-109792380D01*
X161435547Y-109840000D01*
X161530785Y-109935238D01*
X161578404Y-110030476D01*
X161626023Y-110220952D01*
X161626023Y-110363809D01*
X161578404Y-110554285D01*
X161530785Y-110649523D01*
X161435547Y-110744761D01*
X161292690Y-110792380D01*
X161054595Y-110792380D01*
X159054595Y-112332380D02*
X159387928Y-113332380D01*
X159721261Y-112332380D01*
X160626023Y-113237142D02*
X160578404Y-113284761D01*
X160435547Y-113332380D01*
X160340309Y-113332380D01*
X160197452Y-113284761D01*
X160102214Y-113189523D01*
X160054595Y-113094285D01*
X160006976Y-112903809D01*
X160006976Y-112760952D01*
X160054595Y-112570476D01*
X160102214Y-112475238D01*
X160197452Y-112380000D01*
X160340309Y-112332380D01*
X160435547Y-112332380D01*
X160578404Y-112380000D01*
X160626023Y-112427619D01*
X161626023Y-113237142D02*
X161578404Y-113284761D01*
X161435547Y-113332380D01*
X161340309Y-113332380D01*
X161197452Y-113284761D01*
X161102214Y-113189523D01*
X161054595Y-113094285D01*
X161006976Y-112903809D01*
X161006976Y-112760952D01*
X161054595Y-112570476D01*
X161102214Y-112475238D01*
X161197452Y-112380000D01*
X161340309Y-112332380D01*
X161435547Y-112332380D01*
X161578404Y-112380000D01*
X161626023Y-112427619D01*
%TO.C,U2*%
X153949660Y-54105584D02*
X154759184Y-54105584D01*
X154854422Y-54057965D01*
X154902041Y-54010346D01*
X154949660Y-53915108D01*
X154949660Y-53724632D01*
X154902041Y-53629394D01*
X154854422Y-53581775D01*
X154759184Y-53534156D01*
X153949660Y-53534156D01*
X154044899Y-53105584D02*
X153997280Y-53057965D01*
X153949660Y-52962727D01*
X153949660Y-52724632D01*
X153997280Y-52629394D01*
X154044899Y-52581775D01*
X154140137Y-52534156D01*
X154235375Y-52534156D01*
X154378232Y-52581775D01*
X154949660Y-53153203D01*
X154949660Y-52534156D01*
X122672041Y-53272251D02*
X123005375Y-53272251D01*
X123148232Y-53796060D02*
X122672041Y-53796060D01*
X122672041Y-52796060D01*
X123148232Y-52796060D01*
X123529184Y-53748441D02*
X123672041Y-53796060D01*
X123910137Y-53796060D01*
X124005375Y-53748441D01*
X124052994Y-53700822D01*
X124100613Y-53605584D01*
X124100613Y-53510346D01*
X124052994Y-53415108D01*
X124005375Y-53367489D01*
X123910137Y-53319870D01*
X123719660Y-53272251D01*
X123624422Y-53224632D01*
X123576803Y-53177013D01*
X123529184Y-53081775D01*
X123529184Y-52986537D01*
X123576803Y-52891299D01*
X123624422Y-52843680D01*
X123719660Y-52796060D01*
X123957756Y-52796060D01*
X124100613Y-52843680D01*
X124529184Y-53796060D02*
X124529184Y-52796060D01*
X124910137Y-52796060D01*
X125005375Y-52843680D01*
X125052994Y-52891299D01*
X125100613Y-52986537D01*
X125100613Y-53129394D01*
X125052994Y-53224632D01*
X125005375Y-53272251D01*
X124910137Y-53319870D01*
X124529184Y-53319870D01*
X125433946Y-52796060D02*
X126052994Y-52796060D01*
X125719660Y-53177013D01*
X125862518Y-53177013D01*
X125957756Y-53224632D01*
X126005375Y-53272251D01*
X126052994Y-53367489D01*
X126052994Y-53605584D01*
X126005375Y-53700822D01*
X125957756Y-53748441D01*
X125862518Y-53796060D01*
X125576803Y-53796060D01*
X125481565Y-53748441D01*
X125433946Y-53700822D01*
X126433946Y-52891299D02*
X126481565Y-52843680D01*
X126576803Y-52796060D01*
X126814899Y-52796060D01*
X126910137Y-52843680D01*
X126957756Y-52891299D01*
X127005375Y-52986537D01*
X127005375Y-53081775D01*
X126957756Y-53224632D01*
X126386327Y-53796060D01*
X127005375Y-53796060D01*
X127433946Y-53415108D02*
X128195851Y-53415108D01*
X128672041Y-53796060D02*
X128672041Y-52796060D01*
X128910137Y-52796060D01*
X129052994Y-52843680D01*
X129148232Y-52938918D01*
X129195851Y-53034156D01*
X129243470Y-53224632D01*
X129243470Y-53367489D01*
X129195851Y-53557965D01*
X129148232Y-53653203D01*
X129052994Y-53748441D01*
X128910137Y-53796060D01*
X128672041Y-53796060D01*
X130052994Y-53748441D02*
X129957756Y-53796060D01*
X129767280Y-53796060D01*
X129672041Y-53748441D01*
X129624422Y-53653203D01*
X129624422Y-53272251D01*
X129672041Y-53177013D01*
X129767280Y-53129394D01*
X129957756Y-53129394D01*
X130052994Y-53177013D01*
X130100613Y-53272251D01*
X130100613Y-53367489D01*
X129624422Y-53462727D01*
X130433946Y-53129394D02*
X130672041Y-53796060D01*
X130910137Y-53129394D01*
X131291089Y-53796060D02*
X131291089Y-52796060D01*
X131862518Y-53796060D02*
X131433946Y-53224632D01*
X131862518Y-52796060D02*
X131291089Y-53367489D01*
X132291089Y-53796060D02*
X132291089Y-53129394D01*
X132291089Y-52796060D02*
X132243470Y-52843680D01*
X132291089Y-52891299D01*
X132338708Y-52843680D01*
X132291089Y-52796060D01*
X132291089Y-52891299D01*
X132624422Y-53129394D02*
X133005375Y-53129394D01*
X132767280Y-52796060D02*
X132767280Y-53653203D01*
X132814899Y-53748441D01*
X132910137Y-53796060D01*
X133005375Y-53796060D01*
X133910137Y-53700822D02*
X133862518Y-53748441D01*
X133719660Y-53796060D01*
X133624422Y-53796060D01*
X133481565Y-53748441D01*
X133386327Y-53653203D01*
X133338708Y-53557965D01*
X133291089Y-53367489D01*
X133291089Y-53224632D01*
X133338708Y-53034156D01*
X133386327Y-52938918D01*
X133481565Y-52843680D01*
X133624422Y-52796060D01*
X133719660Y-52796060D01*
X133862518Y-52843680D01*
X133910137Y-52891299D01*
X152897280Y-62390465D02*
X152944899Y-62295227D01*
X152944899Y-62152370D01*
X152897280Y-62009513D01*
X152802041Y-61914275D01*
X152706803Y-61866656D01*
X152516327Y-61819037D01*
X152373470Y-61819037D01*
X152182994Y-61866656D01*
X152087756Y-61914275D01*
X151992518Y-62009513D01*
X151944899Y-62152370D01*
X151944899Y-62247608D01*
X151992518Y-62390465D01*
X152040137Y-62438084D01*
X152373470Y-62438084D01*
X152373470Y-62247608D01*
X151944899Y-62866656D02*
X152944899Y-62866656D01*
X151944899Y-63438084D01*
X152944899Y-63438084D01*
X151944899Y-63914275D02*
X152944899Y-63914275D01*
X152944899Y-64152370D01*
X152897280Y-64295227D01*
X152802041Y-64390465D01*
X152706803Y-64438084D01*
X152516327Y-64485703D01*
X152373470Y-64485703D01*
X152182994Y-64438084D01*
X152087756Y-64390465D01*
X151992518Y-64295227D01*
X151944899Y-64152370D01*
X151944899Y-63914275D01*
X150207280Y-61409513D02*
X150240613Y-61342846D01*
X150240613Y-61242846D01*
X150207280Y-61142846D01*
X150140613Y-61076180D01*
X150073946Y-61042846D01*
X149940613Y-61009513D01*
X149840613Y-61009513D01*
X149707280Y-61042846D01*
X149640613Y-61076180D01*
X149573946Y-61142846D01*
X149540613Y-61242846D01*
X149540613Y-61309513D01*
X149573946Y-61409513D01*
X149607280Y-61442846D01*
X149840613Y-61442846D01*
X149840613Y-61309513D01*
X149540613Y-61742846D02*
X150240613Y-61742846D01*
X150240613Y-62009513D01*
X150207280Y-62076180D01*
X150173946Y-62109513D01*
X150107280Y-62142846D01*
X150007280Y-62142846D01*
X149940613Y-62109513D01*
X149907280Y-62076180D01*
X149873946Y-62009513D01*
X149873946Y-61742846D01*
X149540613Y-62442846D02*
X150240613Y-62442846D01*
X150240613Y-62909513D02*
X150240613Y-63042846D01*
X150207280Y-63109513D01*
X150140613Y-63176180D01*
X150007280Y-63209513D01*
X149773946Y-63209513D01*
X149640613Y-63176180D01*
X149573946Y-63109513D01*
X149540613Y-63042846D01*
X149540613Y-62909513D01*
X149573946Y-62842846D01*
X149640613Y-62776180D01*
X149773946Y-62742846D01*
X150007280Y-62742846D01*
X150140613Y-62776180D01*
X150207280Y-62842846D01*
X150240613Y-62909513D01*
X150173946Y-63476180D02*
X150207280Y-63509513D01*
X150240613Y-63576180D01*
X150240613Y-63742846D01*
X150207280Y-63809513D01*
X150173946Y-63842846D01*
X150107280Y-63876180D01*
X150040613Y-63876180D01*
X149940613Y-63842846D01*
X149540613Y-63442846D01*
X149540613Y-63876180D01*
X150240613Y-64109513D02*
X150240613Y-64542846D01*
X149973946Y-64309513D01*
X149973946Y-64409513D01*
X149940613Y-64476180D01*
X149907280Y-64509513D01*
X149840613Y-64542846D01*
X149673946Y-64542846D01*
X149607280Y-64509513D01*
X149573946Y-64476180D01*
X149540613Y-64409513D01*
X149540613Y-64209513D01*
X149573946Y-64142846D01*
X149607280Y-64109513D01*
X129887280Y-62076180D02*
X129920613Y-62009513D01*
X129920613Y-61909513D01*
X129887280Y-61809513D01*
X129820613Y-61742846D01*
X129753946Y-61709513D01*
X129620613Y-61676180D01*
X129520613Y-61676180D01*
X129387280Y-61709513D01*
X129320613Y-61742846D01*
X129253946Y-61809513D01*
X129220613Y-61909513D01*
X129220613Y-61976180D01*
X129253946Y-62076180D01*
X129287280Y-62109513D01*
X129520613Y-62109513D01*
X129520613Y-61976180D01*
X129220613Y-62409513D02*
X129920613Y-62409513D01*
X129920613Y-62676180D01*
X129887280Y-62742846D01*
X129853946Y-62776180D01*
X129787280Y-62809513D01*
X129687280Y-62809513D01*
X129620613Y-62776180D01*
X129587280Y-62742846D01*
X129553946Y-62676180D01*
X129553946Y-62409513D01*
X129220613Y-63109513D02*
X129920613Y-63109513D01*
X129920613Y-63576180D02*
X129920613Y-63709513D01*
X129887280Y-63776180D01*
X129820613Y-63842846D01*
X129687280Y-63876180D01*
X129453946Y-63876180D01*
X129320613Y-63842846D01*
X129253946Y-63776180D01*
X129220613Y-63709513D01*
X129220613Y-63576180D01*
X129253946Y-63509513D01*
X129320613Y-63442846D01*
X129453946Y-63409513D01*
X129687280Y-63409513D01*
X129820613Y-63442846D01*
X129887280Y-63509513D01*
X129920613Y-63576180D01*
X129920613Y-64509513D02*
X129920613Y-64176180D01*
X129587280Y-64142846D01*
X129620613Y-64176180D01*
X129653946Y-64242846D01*
X129653946Y-64409513D01*
X129620613Y-64476180D01*
X129587280Y-64509513D01*
X129520613Y-64542846D01*
X129353946Y-64542846D01*
X129287280Y-64509513D01*
X129253946Y-64476180D01*
X129220613Y-64409513D01*
X129220613Y-64242846D01*
X129253946Y-64176180D01*
X129287280Y-64142846D01*
X108900613Y-63476180D02*
X109600613Y-63476180D01*
X109600613Y-63642846D01*
X109567280Y-63742846D01*
X109500613Y-63809513D01*
X109433946Y-63842846D01*
X109300613Y-63876180D01*
X109200613Y-63876180D01*
X109067280Y-63842846D01*
X109000613Y-63809513D01*
X108933946Y-63742846D01*
X108900613Y-63642846D01*
X108900613Y-63476180D01*
X109600613Y-64309513D02*
X109600613Y-64376180D01*
X109567280Y-64442846D01*
X109533946Y-64476180D01*
X109467280Y-64509513D01*
X109333946Y-64542846D01*
X109167280Y-64542846D01*
X109033946Y-64509513D01*
X108967280Y-64476180D01*
X108933946Y-64442846D01*
X108900613Y-64376180D01*
X108900613Y-64309513D01*
X108933946Y-64242846D01*
X108967280Y-64209513D01*
X109033946Y-64176180D01*
X109167280Y-64142846D01*
X109333946Y-64142846D01*
X109467280Y-64176180D01*
X109533946Y-64209513D01*
X109567280Y-64242846D01*
X109600613Y-64309513D01*
X106973619Y-42721785D02*
X106973619Y-42245595D01*
X106497428Y-42197976D01*
X106545047Y-42245595D01*
X106592666Y-42340833D01*
X106592666Y-42578928D01*
X106545047Y-42674166D01*
X106497428Y-42721785D01*
X106402190Y-42769404D01*
X106164095Y-42769404D01*
X106068857Y-42721785D01*
X106021238Y-42674166D01*
X105973619Y-42578928D01*
X105973619Y-42340833D01*
X106021238Y-42245595D01*
X106068857Y-42197976D01*
X106973619Y-43055119D02*
X105973619Y-43388452D01*
X106973619Y-43721785D01*
X140047280Y-61409513D02*
X140080613Y-61342846D01*
X140080613Y-61242846D01*
X140047280Y-61142846D01*
X139980613Y-61076180D01*
X139913946Y-61042846D01*
X139780613Y-61009513D01*
X139680613Y-61009513D01*
X139547280Y-61042846D01*
X139480613Y-61076180D01*
X139413946Y-61142846D01*
X139380613Y-61242846D01*
X139380613Y-61309513D01*
X139413946Y-61409513D01*
X139447280Y-61442846D01*
X139680613Y-61442846D01*
X139680613Y-61309513D01*
X139380613Y-61742846D02*
X140080613Y-61742846D01*
X140080613Y-62009513D01*
X140047280Y-62076180D01*
X140013946Y-62109513D01*
X139947280Y-62142846D01*
X139847280Y-62142846D01*
X139780613Y-62109513D01*
X139747280Y-62076180D01*
X139713946Y-62009513D01*
X139713946Y-61742846D01*
X139380613Y-62442846D02*
X140080613Y-62442846D01*
X140080613Y-62909513D02*
X140080613Y-63042846D01*
X140047280Y-63109513D01*
X139980613Y-63176180D01*
X139847280Y-63209513D01*
X139613946Y-63209513D01*
X139480613Y-63176180D01*
X139413946Y-63109513D01*
X139380613Y-63042846D01*
X139380613Y-62909513D01*
X139413946Y-62842846D01*
X139480613Y-62776180D01*
X139613946Y-62742846D01*
X139847280Y-62742846D01*
X139980613Y-62776180D01*
X140047280Y-62842846D01*
X140080613Y-62909513D01*
X140013946Y-63476180D02*
X140047280Y-63509513D01*
X140080613Y-63576180D01*
X140080613Y-63742846D01*
X140047280Y-63809513D01*
X140013946Y-63842846D01*
X139947280Y-63876180D01*
X139880613Y-63876180D01*
X139780613Y-63842846D01*
X139380613Y-63442846D01*
X139380613Y-63876180D01*
X139380613Y-64542846D02*
X139380613Y-64142846D01*
X139380613Y-64342846D02*
X140080613Y-64342846D01*
X139980613Y-64276180D01*
X139913946Y-64209513D01*
X139880613Y-64142846D01*
X111440613Y-63476180D02*
X112140613Y-63476180D01*
X112140613Y-63642846D01*
X112107280Y-63742846D01*
X112040613Y-63809513D01*
X111973946Y-63842846D01*
X111840613Y-63876180D01*
X111740613Y-63876180D01*
X111607280Y-63842846D01*
X111540613Y-63809513D01*
X111473946Y-63742846D01*
X111440613Y-63642846D01*
X111440613Y-63476180D01*
X111440613Y-64542846D02*
X111440613Y-64142846D01*
X111440613Y-64342846D02*
X112140613Y-64342846D01*
X112040613Y-64276180D01*
X111973946Y-64209513D01*
X111940613Y-64142846D01*
X122267280Y-42544513D02*
X122300613Y-42477846D01*
X122300613Y-42377846D01*
X122267280Y-42277846D01*
X122200613Y-42211180D01*
X122133946Y-42177846D01*
X122000613Y-42144513D01*
X121900613Y-42144513D01*
X121767280Y-42177846D01*
X121700613Y-42211180D01*
X121633946Y-42277846D01*
X121600613Y-42377846D01*
X121600613Y-42444513D01*
X121633946Y-42544513D01*
X121667280Y-42577846D01*
X121900613Y-42577846D01*
X121900613Y-42444513D01*
X121600613Y-42877846D02*
X122300613Y-42877846D01*
X122300613Y-43144513D01*
X122267280Y-43211180D01*
X122233946Y-43244513D01*
X122167280Y-43277846D01*
X122067280Y-43277846D01*
X122000613Y-43244513D01*
X121967280Y-43211180D01*
X121933946Y-43144513D01*
X121933946Y-42877846D01*
X121600613Y-43577846D02*
X122300613Y-43577846D01*
X122300613Y-44044513D02*
X122300613Y-44177846D01*
X122267280Y-44244513D01*
X122200613Y-44311180D01*
X122067280Y-44344513D01*
X121833946Y-44344513D01*
X121700613Y-44311180D01*
X121633946Y-44244513D01*
X121600613Y-44177846D01*
X121600613Y-44044513D01*
X121633946Y-43977846D01*
X121700613Y-43911180D01*
X121833946Y-43877846D01*
X122067280Y-43877846D01*
X122200613Y-43911180D01*
X122267280Y-43977846D01*
X122300613Y-44044513D01*
X121600613Y-45011180D02*
X121600613Y-44611180D01*
X121600613Y-44811180D02*
X122300613Y-44811180D01*
X122200613Y-44744513D01*
X122133946Y-44677846D01*
X122100613Y-44611180D01*
X122233946Y-45277846D02*
X122267280Y-45311180D01*
X122300613Y-45377846D01*
X122300613Y-45544513D01*
X122267280Y-45611180D01*
X122233946Y-45644513D01*
X122167280Y-45677846D01*
X122100613Y-45677846D01*
X122000613Y-45644513D01*
X121600613Y-45244513D01*
X121600613Y-45677846D01*
X122333946Y-46477846D02*
X121433946Y-45877846D01*
X121600613Y-46711180D02*
X122300613Y-46711180D01*
X121800613Y-46944513D01*
X122300613Y-47177846D01*
X121600613Y-47177846D01*
X122300613Y-47411180D02*
X122300613Y-47811180D01*
X121600613Y-47611180D02*
X122300613Y-47611180D01*
X121600613Y-48044513D02*
X122300613Y-48044513D01*
X122300613Y-48211180D01*
X122267280Y-48311180D01*
X122200613Y-48377846D01*
X122133946Y-48411180D01*
X122000613Y-48444513D01*
X121900613Y-48444513D01*
X121767280Y-48411180D01*
X121700613Y-48377846D01*
X121633946Y-48311180D01*
X121600613Y-48211180D01*
X121600613Y-48044513D01*
X121600613Y-48744513D02*
X122300613Y-48744513D01*
X147700613Y-42077846D02*
X147000613Y-42311180D01*
X147700613Y-42544513D01*
X147000613Y-42777846D02*
X147700613Y-42777846D01*
X147700613Y-43044513D01*
X147667280Y-43111180D01*
X147633946Y-43144513D01*
X147567280Y-43177846D01*
X147467280Y-43177846D01*
X147400613Y-43144513D01*
X147367280Y-43111180D01*
X147333946Y-43044513D01*
X147333946Y-42777846D01*
X147733946Y-43977846D02*
X146833946Y-43377846D01*
X147667280Y-44577846D02*
X147700613Y-44511180D01*
X147700613Y-44411180D01*
X147667280Y-44311180D01*
X147600613Y-44244513D01*
X147533946Y-44211180D01*
X147400613Y-44177846D01*
X147300613Y-44177846D01*
X147167280Y-44211180D01*
X147100613Y-44244513D01*
X147033946Y-44311180D01*
X147000613Y-44411180D01*
X147000613Y-44477846D01*
X147033946Y-44577846D01*
X147067280Y-44611180D01*
X147300613Y-44611180D01*
X147300613Y-44477846D01*
X147000613Y-44911180D02*
X147700613Y-44911180D01*
X147700613Y-45177846D01*
X147667280Y-45244513D01*
X147633946Y-45277846D01*
X147567280Y-45311180D01*
X147467280Y-45311180D01*
X147400613Y-45277846D01*
X147367280Y-45244513D01*
X147333946Y-45177846D01*
X147333946Y-44911180D01*
X147000613Y-45611180D02*
X147700613Y-45611180D01*
X147700613Y-46077846D02*
X147700613Y-46211180D01*
X147667280Y-46277846D01*
X147600613Y-46344513D01*
X147467280Y-46377846D01*
X147233946Y-46377846D01*
X147100613Y-46344513D01*
X147033946Y-46277846D01*
X147000613Y-46211180D01*
X147000613Y-46077846D01*
X147033946Y-46011180D01*
X147100613Y-45944513D01*
X147233946Y-45911180D01*
X147467280Y-45911180D01*
X147600613Y-45944513D01*
X147667280Y-46011180D01*
X147700613Y-46077846D01*
X147700613Y-46611180D02*
X147700613Y-47044513D01*
X147433946Y-46811180D01*
X147433946Y-46911180D01*
X147400613Y-46977846D01*
X147367280Y-47011180D01*
X147300613Y-47044513D01*
X147133946Y-47044513D01*
X147067280Y-47011180D01*
X147033946Y-46977846D01*
X147000613Y-46911180D01*
X147000613Y-46711180D01*
X147033946Y-46644513D01*
X147067280Y-46611180D01*
X147700613Y-47644513D02*
X147700613Y-47511180D01*
X147667280Y-47444513D01*
X147633946Y-47411180D01*
X147533946Y-47344513D01*
X147400613Y-47311180D01*
X147133946Y-47311180D01*
X147067280Y-47344513D01*
X147033946Y-47377846D01*
X147000613Y-47444513D01*
X147000613Y-47577846D01*
X147033946Y-47644513D01*
X147067280Y-47677846D01*
X147133946Y-47711180D01*
X147300613Y-47711180D01*
X147367280Y-47677846D01*
X147400613Y-47644513D01*
X147433946Y-47577846D01*
X147433946Y-47444513D01*
X147400613Y-47377846D01*
X147367280Y-47344513D01*
X147300613Y-47311180D01*
X113980613Y-42177846D02*
X114680613Y-42177846D01*
X114680613Y-42344513D01*
X114647280Y-42444513D01*
X114580613Y-42511180D01*
X114513946Y-42544513D01*
X114380613Y-42577846D01*
X114280613Y-42577846D01*
X114147280Y-42544513D01*
X114080613Y-42511180D01*
X114013946Y-42444513D01*
X113980613Y-42344513D01*
X113980613Y-42177846D01*
X114613946Y-42844513D02*
X114647280Y-42877846D01*
X114680613Y-42944513D01*
X114680613Y-43111180D01*
X114647280Y-43177846D01*
X114613946Y-43211180D01*
X114547280Y-43244513D01*
X114480613Y-43244513D01*
X114380613Y-43211180D01*
X113980613Y-42811180D01*
X113980613Y-43244513D01*
X127347280Y-42544513D02*
X127380613Y-42477846D01*
X127380613Y-42377846D01*
X127347280Y-42277846D01*
X127280613Y-42211180D01*
X127213946Y-42177846D01*
X127080613Y-42144513D01*
X126980613Y-42144513D01*
X126847280Y-42177846D01*
X126780613Y-42211180D01*
X126713946Y-42277846D01*
X126680613Y-42377846D01*
X126680613Y-42444513D01*
X126713946Y-42544513D01*
X126747280Y-42577846D01*
X126980613Y-42577846D01*
X126980613Y-42444513D01*
X126680613Y-42877846D02*
X127380613Y-42877846D01*
X127380613Y-43144513D01*
X127347280Y-43211180D01*
X127313946Y-43244513D01*
X127247280Y-43277846D01*
X127147280Y-43277846D01*
X127080613Y-43244513D01*
X127047280Y-43211180D01*
X127013946Y-43144513D01*
X127013946Y-42877846D01*
X126680613Y-43577846D02*
X127380613Y-43577846D01*
X127380613Y-44044513D02*
X127380613Y-44177846D01*
X127347280Y-44244513D01*
X127280613Y-44311180D01*
X127147280Y-44344513D01*
X126913946Y-44344513D01*
X126780613Y-44311180D01*
X126713946Y-44244513D01*
X126680613Y-44177846D01*
X126680613Y-44044513D01*
X126713946Y-43977846D01*
X126780613Y-43911180D01*
X126913946Y-43877846D01*
X127147280Y-43877846D01*
X127280613Y-43911180D01*
X127347280Y-43977846D01*
X127380613Y-44044513D01*
X127313946Y-44611180D02*
X127347280Y-44644513D01*
X127380613Y-44711180D01*
X127380613Y-44877846D01*
X127347280Y-44944513D01*
X127313946Y-44977846D01*
X127247280Y-45011180D01*
X127180613Y-45011180D01*
X127080613Y-44977846D01*
X126680613Y-44577846D01*
X126680613Y-45011180D01*
X127380613Y-45244513D02*
X127380613Y-45711180D01*
X126680613Y-45411180D01*
X134967280Y-42544513D02*
X135000613Y-42477846D01*
X135000613Y-42377846D01*
X134967280Y-42277846D01*
X134900613Y-42211180D01*
X134833946Y-42177846D01*
X134700613Y-42144513D01*
X134600613Y-42144513D01*
X134467280Y-42177846D01*
X134400613Y-42211180D01*
X134333946Y-42277846D01*
X134300613Y-42377846D01*
X134300613Y-42444513D01*
X134333946Y-42544513D01*
X134367280Y-42577846D01*
X134600613Y-42577846D01*
X134600613Y-42444513D01*
X134300613Y-42877846D02*
X135000613Y-42877846D01*
X135000613Y-43144513D01*
X134967280Y-43211180D01*
X134933946Y-43244513D01*
X134867280Y-43277846D01*
X134767280Y-43277846D01*
X134700613Y-43244513D01*
X134667280Y-43211180D01*
X134633946Y-43144513D01*
X134633946Y-42877846D01*
X134300613Y-43577846D02*
X135000613Y-43577846D01*
X135000613Y-44044513D02*
X135000613Y-44177846D01*
X134967280Y-44244513D01*
X134900613Y-44311180D01*
X134767280Y-44344513D01*
X134533946Y-44344513D01*
X134400613Y-44311180D01*
X134333946Y-44244513D01*
X134300613Y-44177846D01*
X134300613Y-44044513D01*
X134333946Y-43977846D01*
X134400613Y-43911180D01*
X134533946Y-43877846D01*
X134767280Y-43877846D01*
X134900613Y-43911180D01*
X134967280Y-43977846D01*
X135000613Y-44044513D01*
X135000613Y-44577846D02*
X135000613Y-45011180D01*
X134733946Y-44777846D01*
X134733946Y-44877846D01*
X134700613Y-44944513D01*
X134667280Y-44977846D01*
X134600613Y-45011180D01*
X134433946Y-45011180D01*
X134367280Y-44977846D01*
X134333946Y-44944513D01*
X134300613Y-44877846D01*
X134300613Y-44677846D01*
X134333946Y-44611180D01*
X134367280Y-44577846D01*
X135000613Y-45244513D02*
X135000613Y-45677846D01*
X134733946Y-45444513D01*
X134733946Y-45544513D01*
X134700613Y-45611180D01*
X134667280Y-45644513D01*
X134600613Y-45677846D01*
X134433946Y-45677846D01*
X134367280Y-45644513D01*
X134333946Y-45611180D01*
X134300613Y-45544513D01*
X134300613Y-45344513D01*
X134333946Y-45277846D01*
X134367280Y-45244513D01*
X134967280Y-61409513D02*
X135000613Y-61342846D01*
X135000613Y-61242846D01*
X134967280Y-61142846D01*
X134900613Y-61076180D01*
X134833946Y-61042846D01*
X134700613Y-61009513D01*
X134600613Y-61009513D01*
X134467280Y-61042846D01*
X134400613Y-61076180D01*
X134333946Y-61142846D01*
X134300613Y-61242846D01*
X134300613Y-61309513D01*
X134333946Y-61409513D01*
X134367280Y-61442846D01*
X134600613Y-61442846D01*
X134600613Y-61309513D01*
X134300613Y-61742846D02*
X135000613Y-61742846D01*
X135000613Y-62009513D01*
X134967280Y-62076180D01*
X134933946Y-62109513D01*
X134867280Y-62142846D01*
X134767280Y-62142846D01*
X134700613Y-62109513D01*
X134667280Y-62076180D01*
X134633946Y-62009513D01*
X134633946Y-61742846D01*
X134300613Y-62442846D02*
X135000613Y-62442846D01*
X135000613Y-62909513D02*
X135000613Y-63042846D01*
X134967280Y-63109513D01*
X134900613Y-63176180D01*
X134767280Y-63209513D01*
X134533946Y-63209513D01*
X134400613Y-63176180D01*
X134333946Y-63109513D01*
X134300613Y-63042846D01*
X134300613Y-62909513D01*
X134333946Y-62842846D01*
X134400613Y-62776180D01*
X134533946Y-62742846D01*
X134767280Y-62742846D01*
X134900613Y-62776180D01*
X134967280Y-62842846D01*
X135000613Y-62909513D01*
X134300613Y-63876180D02*
X134300613Y-63476180D01*
X134300613Y-63676180D02*
X135000613Y-63676180D01*
X134900613Y-63609513D01*
X134833946Y-63542846D01*
X134800613Y-63476180D01*
X134300613Y-64209513D02*
X134300613Y-64342846D01*
X134333946Y-64409513D01*
X134367280Y-64442846D01*
X134467280Y-64509513D01*
X134600613Y-64542846D01*
X134867280Y-64542846D01*
X134933946Y-64509513D01*
X134967280Y-64476180D01*
X135000613Y-64409513D01*
X135000613Y-64276180D01*
X134967280Y-64209513D01*
X134933946Y-64176180D01*
X134867280Y-64142846D01*
X134700613Y-64142846D01*
X134633946Y-64176180D01*
X134600613Y-64209513D01*
X134567280Y-64276180D01*
X134567280Y-64409513D01*
X134600613Y-64476180D01*
X134633946Y-64509513D01*
X134700613Y-64542846D01*
X145160613Y-42077846D02*
X144460613Y-42311180D01*
X145160613Y-42544513D01*
X144460613Y-42777846D02*
X145160613Y-42777846D01*
X144460613Y-43177846D01*
X145160613Y-43177846D01*
X145193946Y-44011180D02*
X144293946Y-43411180D01*
X145127280Y-44611180D02*
X145160613Y-44544513D01*
X145160613Y-44444513D01*
X145127280Y-44344513D01*
X145060613Y-44277846D01*
X144993946Y-44244513D01*
X144860613Y-44211180D01*
X144760613Y-44211180D01*
X144627280Y-44244513D01*
X144560613Y-44277846D01*
X144493946Y-44344513D01*
X144460613Y-44444513D01*
X144460613Y-44511180D01*
X144493946Y-44611180D01*
X144527280Y-44644513D01*
X144760613Y-44644513D01*
X144760613Y-44511180D01*
X144460613Y-44944513D02*
X145160613Y-44944513D01*
X145160613Y-45211180D01*
X145127280Y-45277846D01*
X145093946Y-45311180D01*
X145027280Y-45344513D01*
X144927280Y-45344513D01*
X144860613Y-45311180D01*
X144827280Y-45277846D01*
X144793946Y-45211180D01*
X144793946Y-44944513D01*
X144460613Y-45644513D02*
X145160613Y-45644513D01*
X145160613Y-46111180D02*
X145160613Y-46244513D01*
X145127280Y-46311180D01*
X145060613Y-46377846D01*
X144927280Y-46411180D01*
X144693946Y-46411180D01*
X144560613Y-46377846D01*
X144493946Y-46311180D01*
X144460613Y-46244513D01*
X144460613Y-46111180D01*
X144493946Y-46044513D01*
X144560613Y-45977846D01*
X144693946Y-45944513D01*
X144927280Y-45944513D01*
X145060613Y-45977846D01*
X145127280Y-46044513D01*
X145160613Y-46111180D01*
X145160613Y-46644513D02*
X145160613Y-47077846D01*
X144893946Y-46844513D01*
X144893946Y-46944513D01*
X144860613Y-47011180D01*
X144827280Y-47044513D01*
X144760613Y-47077846D01*
X144593946Y-47077846D01*
X144527280Y-47044513D01*
X144493946Y-47011180D01*
X144460613Y-46944513D01*
X144460613Y-46744513D01*
X144493946Y-46677846D01*
X144527280Y-46644513D01*
X144460613Y-47411180D02*
X144460613Y-47544513D01*
X144493946Y-47611180D01*
X144527280Y-47644513D01*
X144627280Y-47711180D01*
X144760613Y-47744513D01*
X145027280Y-47744513D01*
X145093946Y-47711180D01*
X145127280Y-47677846D01*
X145160613Y-47611180D01*
X145160613Y-47477846D01*
X145127280Y-47411180D01*
X145093946Y-47377846D01*
X145027280Y-47344513D01*
X144860613Y-47344513D01*
X144793946Y-47377846D01*
X144760613Y-47411180D01*
X144727280Y-47477846D01*
X144727280Y-47611180D01*
X144760613Y-47677846D01*
X144793946Y-47711180D01*
X144860613Y-47744513D01*
X117187280Y-42544513D02*
X117220613Y-42477846D01*
X117220613Y-42377846D01*
X117187280Y-42277846D01*
X117120613Y-42211180D01*
X117053946Y-42177846D01*
X116920613Y-42144513D01*
X116820613Y-42144513D01*
X116687280Y-42177846D01*
X116620613Y-42211180D01*
X116553946Y-42277846D01*
X116520613Y-42377846D01*
X116520613Y-42444513D01*
X116553946Y-42544513D01*
X116587280Y-42577846D01*
X116820613Y-42577846D01*
X116820613Y-42444513D01*
X116520613Y-42877846D02*
X117220613Y-42877846D01*
X117220613Y-43144513D01*
X117187280Y-43211180D01*
X117153946Y-43244513D01*
X117087280Y-43277846D01*
X116987280Y-43277846D01*
X116920613Y-43244513D01*
X116887280Y-43211180D01*
X116853946Y-43144513D01*
X116853946Y-42877846D01*
X116520613Y-43577846D02*
X117220613Y-43577846D01*
X117220613Y-44044513D02*
X117220613Y-44177846D01*
X117187280Y-44244513D01*
X117120613Y-44311180D01*
X116987280Y-44344513D01*
X116753946Y-44344513D01*
X116620613Y-44311180D01*
X116553946Y-44244513D01*
X116520613Y-44177846D01*
X116520613Y-44044513D01*
X116553946Y-43977846D01*
X116620613Y-43911180D01*
X116753946Y-43877846D01*
X116987280Y-43877846D01*
X117120613Y-43911180D01*
X117187280Y-43977846D01*
X117220613Y-44044513D01*
X116520613Y-45011180D02*
X116520613Y-44611180D01*
X116520613Y-44811180D02*
X117220613Y-44811180D01*
X117120613Y-44744513D01*
X117053946Y-44677846D01*
X117020613Y-44611180D01*
X117220613Y-45244513D02*
X117220613Y-45677846D01*
X116953946Y-45444513D01*
X116953946Y-45544513D01*
X116920613Y-45611180D01*
X116887280Y-45644513D01*
X116820613Y-45677846D01*
X116653946Y-45677846D01*
X116587280Y-45644513D01*
X116553946Y-45611180D01*
X116520613Y-45544513D01*
X116520613Y-45344513D01*
X116553946Y-45277846D01*
X116587280Y-45244513D01*
X117253946Y-46477846D02*
X116353946Y-45877846D01*
X116520613Y-46711180D02*
X117220613Y-46711180D01*
X116720613Y-46944513D01*
X117220613Y-47177846D01*
X116520613Y-47177846D01*
X117220613Y-47411180D02*
X117220613Y-47811180D01*
X116520613Y-47611180D02*
X117220613Y-47611180D01*
X116587280Y-48444513D02*
X116553946Y-48411180D01*
X116520613Y-48311180D01*
X116520613Y-48244513D01*
X116553946Y-48144513D01*
X116620613Y-48077846D01*
X116687280Y-48044513D01*
X116820613Y-48011180D01*
X116920613Y-48011180D01*
X117053946Y-48044513D01*
X117120613Y-48077846D01*
X117187280Y-48144513D01*
X117220613Y-48244513D01*
X117220613Y-48311180D01*
X117187280Y-48411180D01*
X117153946Y-48444513D01*
X116520613Y-48744513D02*
X117220613Y-48744513D01*
X116520613Y-49144513D02*
X116920613Y-48844513D01*
X117220613Y-49144513D02*
X116820613Y-48744513D01*
X117187280Y-62076180D02*
X117220613Y-62009513D01*
X117220613Y-61909513D01*
X117187280Y-61809513D01*
X117120613Y-61742846D01*
X117053946Y-61709513D01*
X116920613Y-61676180D01*
X116820613Y-61676180D01*
X116687280Y-61709513D01*
X116620613Y-61742846D01*
X116553946Y-61809513D01*
X116520613Y-61909513D01*
X116520613Y-61976180D01*
X116553946Y-62076180D01*
X116587280Y-62109513D01*
X116820613Y-62109513D01*
X116820613Y-61976180D01*
X116520613Y-62409513D02*
X117220613Y-62409513D01*
X117220613Y-62676180D01*
X117187280Y-62742846D01*
X117153946Y-62776180D01*
X117087280Y-62809513D01*
X116987280Y-62809513D01*
X116920613Y-62776180D01*
X116887280Y-62742846D01*
X116853946Y-62676180D01*
X116853946Y-62409513D01*
X116520613Y-63109513D02*
X117220613Y-63109513D01*
X117220613Y-63576180D02*
X117220613Y-63709513D01*
X117187280Y-63776180D01*
X117120613Y-63842846D01*
X116987280Y-63876180D01*
X116753946Y-63876180D01*
X116620613Y-63842846D01*
X116553946Y-63776180D01*
X116520613Y-63709513D01*
X116520613Y-63576180D01*
X116553946Y-63509513D01*
X116620613Y-63442846D01*
X116753946Y-63409513D01*
X116987280Y-63409513D01*
X117120613Y-63442846D01*
X117187280Y-63509513D01*
X117220613Y-63576180D01*
X117153946Y-64142846D02*
X117187280Y-64176180D01*
X117220613Y-64242846D01*
X117220613Y-64409513D01*
X117187280Y-64476180D01*
X117153946Y-64509513D01*
X117087280Y-64542846D01*
X117020613Y-64542846D01*
X116920613Y-64509513D01*
X116520613Y-64109513D01*
X116520613Y-64542846D01*
X129887280Y-42544513D02*
X129920613Y-42477846D01*
X129920613Y-42377846D01*
X129887280Y-42277846D01*
X129820613Y-42211180D01*
X129753946Y-42177846D01*
X129620613Y-42144513D01*
X129520613Y-42144513D01*
X129387280Y-42177846D01*
X129320613Y-42211180D01*
X129253946Y-42277846D01*
X129220613Y-42377846D01*
X129220613Y-42444513D01*
X129253946Y-42544513D01*
X129287280Y-42577846D01*
X129520613Y-42577846D01*
X129520613Y-42444513D01*
X129220613Y-42877846D02*
X129920613Y-42877846D01*
X129920613Y-43144513D01*
X129887280Y-43211180D01*
X129853946Y-43244513D01*
X129787280Y-43277846D01*
X129687280Y-43277846D01*
X129620613Y-43244513D01*
X129587280Y-43211180D01*
X129553946Y-43144513D01*
X129553946Y-42877846D01*
X129220613Y-43577846D02*
X129920613Y-43577846D01*
X129920613Y-44044513D02*
X129920613Y-44177846D01*
X129887280Y-44244513D01*
X129820613Y-44311180D01*
X129687280Y-44344513D01*
X129453946Y-44344513D01*
X129320613Y-44311180D01*
X129253946Y-44244513D01*
X129220613Y-44177846D01*
X129220613Y-44044513D01*
X129253946Y-43977846D01*
X129320613Y-43911180D01*
X129453946Y-43877846D01*
X129687280Y-43877846D01*
X129820613Y-43911180D01*
X129887280Y-43977846D01*
X129920613Y-44044513D01*
X129853946Y-44611180D02*
X129887280Y-44644513D01*
X129920613Y-44711180D01*
X129920613Y-44877846D01*
X129887280Y-44944513D01*
X129853946Y-44977846D01*
X129787280Y-45011180D01*
X129720613Y-45011180D01*
X129620613Y-44977846D01*
X129220613Y-44577846D01*
X129220613Y-45011180D01*
X129920613Y-45611180D02*
X129920613Y-45477846D01*
X129887280Y-45411180D01*
X129853946Y-45377846D01*
X129753946Y-45311180D01*
X129620613Y-45277846D01*
X129353946Y-45277846D01*
X129287280Y-45311180D01*
X129253946Y-45344513D01*
X129220613Y-45411180D01*
X129220613Y-45544513D01*
X129253946Y-45611180D01*
X129287280Y-45644513D01*
X129353946Y-45677846D01*
X129520613Y-45677846D01*
X129587280Y-45644513D01*
X129620613Y-45611180D01*
X129653946Y-45544513D01*
X129653946Y-45411180D01*
X129620613Y-45344513D01*
X129587280Y-45311180D01*
X129520613Y-45277846D01*
X142587280Y-57876180D02*
X142620613Y-57809513D01*
X142620613Y-57709513D01*
X142587280Y-57609513D01*
X142520613Y-57542846D01*
X142453946Y-57509513D01*
X142320613Y-57476180D01*
X142220613Y-57476180D01*
X142087280Y-57509513D01*
X142020613Y-57542846D01*
X141953946Y-57609513D01*
X141920613Y-57709513D01*
X141920613Y-57776180D01*
X141953946Y-57876180D01*
X141987280Y-57909513D01*
X142220613Y-57909513D01*
X142220613Y-57776180D01*
X141920613Y-58209513D02*
X142620613Y-58209513D01*
X142620613Y-58476180D01*
X142587280Y-58542846D01*
X142553946Y-58576180D01*
X142487280Y-58609513D01*
X142387280Y-58609513D01*
X142320613Y-58576180D01*
X142287280Y-58542846D01*
X142253946Y-58476180D01*
X142253946Y-58209513D01*
X141920613Y-58909513D02*
X142620613Y-58909513D01*
X142620613Y-59376180D02*
X142620613Y-59509513D01*
X142587280Y-59576180D01*
X142520613Y-59642846D01*
X142387280Y-59676180D01*
X142153946Y-59676180D01*
X142020613Y-59642846D01*
X141953946Y-59576180D01*
X141920613Y-59509513D01*
X141920613Y-59376180D01*
X141953946Y-59309513D01*
X142020613Y-59242846D01*
X142153946Y-59209513D01*
X142387280Y-59209513D01*
X142520613Y-59242846D01*
X142587280Y-59309513D01*
X142620613Y-59376180D01*
X142620613Y-59909513D02*
X142620613Y-60342846D01*
X142353946Y-60109513D01*
X142353946Y-60209513D01*
X142320613Y-60276180D01*
X142287280Y-60309513D01*
X142220613Y-60342846D01*
X142053946Y-60342846D01*
X141987280Y-60309513D01*
X141953946Y-60276180D01*
X141920613Y-60209513D01*
X141920613Y-60009513D01*
X141953946Y-59942846D01*
X141987280Y-59909513D01*
X142653946Y-61142846D02*
X141753946Y-60542846D01*
X142620613Y-61376180D02*
X142053946Y-61376180D01*
X141987280Y-61409513D01*
X141953946Y-61442846D01*
X141920613Y-61509513D01*
X141920613Y-61642846D01*
X141953946Y-61709513D01*
X141987280Y-61742846D01*
X142053946Y-61776180D01*
X142620613Y-61776180D01*
X142620613Y-62242846D02*
X142620613Y-62309513D01*
X142587280Y-62376180D01*
X142553946Y-62409513D01*
X142487280Y-62442846D01*
X142353946Y-62476180D01*
X142187280Y-62476180D01*
X142053946Y-62442846D01*
X141987280Y-62409513D01*
X141953946Y-62376180D01*
X141920613Y-62309513D01*
X141920613Y-62242846D01*
X141953946Y-62176180D01*
X141987280Y-62142846D01*
X142053946Y-62109513D01*
X142187280Y-62076180D01*
X142353946Y-62076180D01*
X142487280Y-62109513D01*
X142553946Y-62142846D01*
X142587280Y-62176180D01*
X142620613Y-62242846D01*
X141920613Y-63176180D02*
X142253946Y-62942846D01*
X141920613Y-62776180D02*
X142620613Y-62776180D01*
X142620613Y-63042846D01*
X142587280Y-63109513D01*
X142553946Y-63142846D01*
X142487280Y-63176180D01*
X142387280Y-63176180D01*
X142320613Y-63142846D01*
X142287280Y-63109513D01*
X142253946Y-63042846D01*
X142253946Y-62776180D01*
X142620613Y-63409513D02*
X141920613Y-63876180D01*
X142620613Y-63876180D02*
X141920613Y-63409513D01*
X141920613Y-64142846D02*
X142620613Y-64142846D01*
X142620613Y-64309513D01*
X142587280Y-64409513D01*
X142520613Y-64476180D01*
X142453946Y-64509513D01*
X142320613Y-64542846D01*
X142220613Y-64542846D01*
X142087280Y-64509513D01*
X142020613Y-64476180D01*
X141953946Y-64409513D01*
X141920613Y-64309513D01*
X141920613Y-64142846D01*
X152944899Y-42154037D02*
X152944899Y-42773084D01*
X152563946Y-42439751D01*
X152563946Y-42582608D01*
X152516327Y-42677846D01*
X152468708Y-42725465D01*
X152373470Y-42773084D01*
X152135375Y-42773084D01*
X152040137Y-42725465D01*
X151992518Y-42677846D01*
X151944899Y-42582608D01*
X151944899Y-42296894D01*
X151992518Y-42201656D01*
X152040137Y-42154037D01*
X152944899Y-43058799D02*
X151944899Y-43392132D01*
X152944899Y-43725465D01*
X152944899Y-43963560D02*
X152944899Y-44582608D01*
X152563946Y-44249275D01*
X152563946Y-44392132D01*
X152516327Y-44487370D01*
X152468708Y-44534989D01*
X152373470Y-44582608D01*
X152135375Y-44582608D01*
X152040137Y-44534989D01*
X151992518Y-44487370D01*
X151944899Y-44392132D01*
X151944899Y-44106418D01*
X151992518Y-44011180D01*
X152040137Y-43963560D01*
X124807280Y-61409513D02*
X124840613Y-61342846D01*
X124840613Y-61242846D01*
X124807280Y-61142846D01*
X124740613Y-61076180D01*
X124673946Y-61042846D01*
X124540613Y-61009513D01*
X124440613Y-61009513D01*
X124307280Y-61042846D01*
X124240613Y-61076180D01*
X124173946Y-61142846D01*
X124140613Y-61242846D01*
X124140613Y-61309513D01*
X124173946Y-61409513D01*
X124207280Y-61442846D01*
X124440613Y-61442846D01*
X124440613Y-61309513D01*
X124140613Y-61742846D02*
X124840613Y-61742846D01*
X124840613Y-62009513D01*
X124807280Y-62076180D01*
X124773946Y-62109513D01*
X124707280Y-62142846D01*
X124607280Y-62142846D01*
X124540613Y-62109513D01*
X124507280Y-62076180D01*
X124473946Y-62009513D01*
X124473946Y-61742846D01*
X124140613Y-62442846D02*
X124840613Y-62442846D01*
X124840613Y-62909513D02*
X124840613Y-63042846D01*
X124807280Y-63109513D01*
X124740613Y-63176180D01*
X124607280Y-63209513D01*
X124373946Y-63209513D01*
X124240613Y-63176180D01*
X124173946Y-63109513D01*
X124140613Y-63042846D01*
X124140613Y-62909513D01*
X124173946Y-62842846D01*
X124240613Y-62776180D01*
X124373946Y-62742846D01*
X124607280Y-62742846D01*
X124740613Y-62776180D01*
X124807280Y-62842846D01*
X124840613Y-62909513D01*
X124140613Y-63876180D02*
X124140613Y-63476180D01*
X124140613Y-63676180D02*
X124840613Y-63676180D01*
X124740613Y-63609513D01*
X124673946Y-63542846D01*
X124640613Y-63476180D01*
X124840613Y-64476180D02*
X124840613Y-64342846D01*
X124807280Y-64276180D01*
X124773946Y-64242846D01*
X124673946Y-64176180D01*
X124540613Y-64142846D01*
X124273946Y-64142846D01*
X124207280Y-64176180D01*
X124173946Y-64209513D01*
X124140613Y-64276180D01*
X124140613Y-64409513D01*
X124173946Y-64476180D01*
X124207280Y-64509513D01*
X124273946Y-64542846D01*
X124440613Y-64542846D01*
X124507280Y-64509513D01*
X124540613Y-64476180D01*
X124573946Y-64409513D01*
X124573946Y-64276180D01*
X124540613Y-64209513D01*
X124507280Y-64176180D01*
X124440613Y-64142846D01*
X137507280Y-42544513D02*
X137540613Y-42477846D01*
X137540613Y-42377846D01*
X137507280Y-42277846D01*
X137440613Y-42211180D01*
X137373946Y-42177846D01*
X137240613Y-42144513D01*
X137140613Y-42144513D01*
X137007280Y-42177846D01*
X136940613Y-42211180D01*
X136873946Y-42277846D01*
X136840613Y-42377846D01*
X136840613Y-42444513D01*
X136873946Y-42544513D01*
X136907280Y-42577846D01*
X137140613Y-42577846D01*
X137140613Y-42444513D01*
X136840613Y-42877846D02*
X137540613Y-42877846D01*
X137540613Y-43144513D01*
X137507280Y-43211180D01*
X137473946Y-43244513D01*
X137407280Y-43277846D01*
X137307280Y-43277846D01*
X137240613Y-43244513D01*
X137207280Y-43211180D01*
X137173946Y-43144513D01*
X137173946Y-42877846D01*
X136840613Y-43577846D02*
X137540613Y-43577846D01*
X137540613Y-44044513D02*
X137540613Y-44177846D01*
X137507280Y-44244513D01*
X137440613Y-44311180D01*
X137307280Y-44344513D01*
X137073946Y-44344513D01*
X136940613Y-44311180D01*
X136873946Y-44244513D01*
X136840613Y-44177846D01*
X136840613Y-44044513D01*
X136873946Y-43977846D01*
X136940613Y-43911180D01*
X137073946Y-43877846D01*
X137307280Y-43877846D01*
X137440613Y-43911180D01*
X137507280Y-43977846D01*
X137540613Y-44044513D01*
X137540613Y-44577846D02*
X137540613Y-45011180D01*
X137273946Y-44777846D01*
X137273946Y-44877846D01*
X137240613Y-44944513D01*
X137207280Y-44977846D01*
X137140613Y-45011180D01*
X136973946Y-45011180D01*
X136907280Y-44977846D01*
X136873946Y-44944513D01*
X136840613Y-44877846D01*
X136840613Y-44677846D01*
X136873946Y-44611180D01*
X136907280Y-44577846D01*
X137473946Y-45277846D02*
X137507280Y-45311180D01*
X137540613Y-45377846D01*
X137540613Y-45544513D01*
X137507280Y-45611180D01*
X137473946Y-45644513D01*
X137407280Y-45677846D01*
X137340613Y-45677846D01*
X137240613Y-45644513D01*
X136840613Y-45244513D01*
X136840613Y-45677846D01*
X119727280Y-62076180D02*
X119760613Y-62009513D01*
X119760613Y-61909513D01*
X119727280Y-61809513D01*
X119660613Y-61742846D01*
X119593946Y-61709513D01*
X119460613Y-61676180D01*
X119360613Y-61676180D01*
X119227280Y-61709513D01*
X119160613Y-61742846D01*
X119093946Y-61809513D01*
X119060613Y-61909513D01*
X119060613Y-61976180D01*
X119093946Y-62076180D01*
X119127280Y-62109513D01*
X119360613Y-62109513D01*
X119360613Y-61976180D01*
X119060613Y-62409513D02*
X119760613Y-62409513D01*
X119760613Y-62676180D01*
X119727280Y-62742846D01*
X119693946Y-62776180D01*
X119627280Y-62809513D01*
X119527280Y-62809513D01*
X119460613Y-62776180D01*
X119427280Y-62742846D01*
X119393946Y-62676180D01*
X119393946Y-62409513D01*
X119060613Y-63109513D02*
X119760613Y-63109513D01*
X119760613Y-63576180D02*
X119760613Y-63709513D01*
X119727280Y-63776180D01*
X119660613Y-63842846D01*
X119527280Y-63876180D01*
X119293946Y-63876180D01*
X119160613Y-63842846D01*
X119093946Y-63776180D01*
X119060613Y-63709513D01*
X119060613Y-63576180D01*
X119093946Y-63509513D01*
X119160613Y-63442846D01*
X119293946Y-63409513D01*
X119527280Y-63409513D01*
X119660613Y-63442846D01*
X119727280Y-63509513D01*
X119760613Y-63576180D01*
X119760613Y-64309513D02*
X119760613Y-64376180D01*
X119727280Y-64442846D01*
X119693946Y-64476180D01*
X119627280Y-64509513D01*
X119493946Y-64542846D01*
X119327280Y-64542846D01*
X119193946Y-64509513D01*
X119127280Y-64476180D01*
X119093946Y-64442846D01*
X119060613Y-64376180D01*
X119060613Y-64309513D01*
X119093946Y-64242846D01*
X119127280Y-64209513D01*
X119193946Y-64176180D01*
X119327280Y-64142846D01*
X119493946Y-64142846D01*
X119627280Y-64176180D01*
X119693946Y-64209513D01*
X119727280Y-64242846D01*
X119760613Y-64309513D01*
X119877280Y-42773084D02*
X119924899Y-42677846D01*
X119924899Y-42534989D01*
X119877280Y-42392132D01*
X119782041Y-42296894D01*
X119686803Y-42249275D01*
X119496327Y-42201656D01*
X119353470Y-42201656D01*
X119162994Y-42249275D01*
X119067756Y-42296894D01*
X118972518Y-42392132D01*
X118924899Y-42534989D01*
X118924899Y-42630227D01*
X118972518Y-42773084D01*
X119020137Y-42820703D01*
X119353470Y-42820703D01*
X119353470Y-42630227D01*
X118924899Y-43249275D02*
X119924899Y-43249275D01*
X118924899Y-43820703D01*
X119924899Y-43820703D01*
X118924899Y-44296894D02*
X119924899Y-44296894D01*
X119924899Y-44534989D01*
X119877280Y-44677846D01*
X119782041Y-44773084D01*
X119686803Y-44820703D01*
X119496327Y-44868322D01*
X119353470Y-44868322D01*
X119162994Y-44820703D01*
X119067756Y-44773084D01*
X118972518Y-44677846D01*
X118924899Y-44534989D01*
X118924899Y-44296894D01*
X106427280Y-63276180D02*
X106393946Y-63242846D01*
X106360613Y-63142846D01*
X106360613Y-63076180D01*
X106393946Y-62976180D01*
X106460613Y-62909513D01*
X106527280Y-62876180D01*
X106660613Y-62842846D01*
X106760613Y-62842846D01*
X106893946Y-62876180D01*
X106960613Y-62909513D01*
X107027280Y-62976180D01*
X107060613Y-63076180D01*
X107060613Y-63142846D01*
X107027280Y-63242846D01*
X106993946Y-63276180D01*
X106360613Y-63909513D02*
X106360613Y-63576180D01*
X107060613Y-63576180D01*
X106360613Y-64142846D02*
X107060613Y-64142846D01*
X106360613Y-64542846D02*
X106760613Y-64242846D01*
X107060613Y-64542846D02*
X106660613Y-64142846D01*
X149931428Y-42146785D02*
X149931428Y-42480119D01*
X149407619Y-42622976D02*
X149407619Y-42146785D01*
X150407619Y-42146785D01*
X150407619Y-42622976D01*
X149407619Y-43051547D02*
X150407619Y-43051547D01*
X149407619Y-43622976D01*
X150407619Y-43622976D01*
X150455238Y-44813452D02*
X149169523Y-43956309D01*
X149407619Y-45718214D02*
X149883809Y-45384880D01*
X149407619Y-45146785D02*
X150407619Y-45146785D01*
X150407619Y-45527738D01*
X150360000Y-45622976D01*
X150312380Y-45670595D01*
X150217142Y-45718214D01*
X150074285Y-45718214D01*
X149979047Y-45670595D01*
X149931428Y-45622976D01*
X149883809Y-45527738D01*
X149883809Y-45146785D01*
X149931428Y-46146785D02*
X149931428Y-46480119D01*
X149407619Y-46622976D02*
X149407619Y-46146785D01*
X150407619Y-46146785D01*
X150407619Y-46622976D01*
X149455238Y-47003928D02*
X149407619Y-47146785D01*
X149407619Y-47384880D01*
X149455238Y-47480119D01*
X149502857Y-47527738D01*
X149598095Y-47575357D01*
X149693333Y-47575357D01*
X149788571Y-47527738D01*
X149836190Y-47480119D01*
X149883809Y-47384880D01*
X149931428Y-47194404D01*
X149979047Y-47099166D01*
X150026666Y-47051547D01*
X150121904Y-47003928D01*
X150217142Y-47003928D01*
X150312380Y-47051547D01*
X150360000Y-47099166D01*
X150407619Y-47194404D01*
X150407619Y-47432500D01*
X150360000Y-47575357D01*
X149931428Y-48003928D02*
X149931428Y-48337261D01*
X149407619Y-48480119D02*
X149407619Y-48003928D01*
X150407619Y-48003928D01*
X150407619Y-48480119D01*
X150407619Y-48765833D02*
X150407619Y-49337261D01*
X149407619Y-49051547D02*
X150407619Y-49051547D01*
X122267280Y-62076180D02*
X122300613Y-62009513D01*
X122300613Y-61909513D01*
X122267280Y-61809513D01*
X122200613Y-61742846D01*
X122133946Y-61709513D01*
X122000613Y-61676180D01*
X121900613Y-61676180D01*
X121767280Y-61709513D01*
X121700613Y-61742846D01*
X121633946Y-61809513D01*
X121600613Y-61909513D01*
X121600613Y-61976180D01*
X121633946Y-62076180D01*
X121667280Y-62109513D01*
X121900613Y-62109513D01*
X121900613Y-61976180D01*
X121600613Y-62409513D02*
X122300613Y-62409513D01*
X122300613Y-62676180D01*
X122267280Y-62742846D01*
X122233946Y-62776180D01*
X122167280Y-62809513D01*
X122067280Y-62809513D01*
X122000613Y-62776180D01*
X121967280Y-62742846D01*
X121933946Y-62676180D01*
X121933946Y-62409513D01*
X121600613Y-63109513D02*
X122300613Y-63109513D01*
X122300613Y-63576180D02*
X122300613Y-63709513D01*
X122267280Y-63776180D01*
X122200613Y-63842846D01*
X122067280Y-63876180D01*
X121833946Y-63876180D01*
X121700613Y-63842846D01*
X121633946Y-63776180D01*
X121600613Y-63709513D01*
X121600613Y-63576180D01*
X121633946Y-63509513D01*
X121700613Y-63442846D01*
X121833946Y-63409513D01*
X122067280Y-63409513D01*
X122200613Y-63442846D01*
X122267280Y-63509513D01*
X122300613Y-63576180D01*
X122067280Y-64476180D02*
X121600613Y-64476180D01*
X122333946Y-64309513D02*
X121833946Y-64142846D01*
X121833946Y-64576180D01*
X140047280Y-42544513D02*
X140080613Y-42477846D01*
X140080613Y-42377846D01*
X140047280Y-42277846D01*
X139980613Y-42211180D01*
X139913946Y-42177846D01*
X139780613Y-42144513D01*
X139680613Y-42144513D01*
X139547280Y-42177846D01*
X139480613Y-42211180D01*
X139413946Y-42277846D01*
X139380613Y-42377846D01*
X139380613Y-42444513D01*
X139413946Y-42544513D01*
X139447280Y-42577846D01*
X139680613Y-42577846D01*
X139680613Y-42444513D01*
X139380613Y-42877846D02*
X140080613Y-42877846D01*
X140080613Y-43144513D01*
X140047280Y-43211180D01*
X140013946Y-43244513D01*
X139947280Y-43277846D01*
X139847280Y-43277846D01*
X139780613Y-43244513D01*
X139747280Y-43211180D01*
X139713946Y-43144513D01*
X139713946Y-42877846D01*
X139380613Y-43577846D02*
X140080613Y-43577846D01*
X140080613Y-44044513D02*
X140080613Y-44177846D01*
X140047280Y-44244513D01*
X139980613Y-44311180D01*
X139847280Y-44344513D01*
X139613946Y-44344513D01*
X139480613Y-44311180D01*
X139413946Y-44244513D01*
X139380613Y-44177846D01*
X139380613Y-44044513D01*
X139413946Y-43977846D01*
X139480613Y-43911180D01*
X139613946Y-43877846D01*
X139847280Y-43877846D01*
X139980613Y-43911180D01*
X140047280Y-43977846D01*
X140080613Y-44044513D01*
X140080613Y-44577846D02*
X140080613Y-45011180D01*
X139813946Y-44777846D01*
X139813946Y-44877846D01*
X139780613Y-44944513D01*
X139747280Y-44977846D01*
X139680613Y-45011180D01*
X139513946Y-45011180D01*
X139447280Y-44977846D01*
X139413946Y-44944513D01*
X139380613Y-44877846D01*
X139380613Y-44677846D01*
X139413946Y-44611180D01*
X139447280Y-44577846D01*
X140080613Y-45644513D02*
X140080613Y-45311180D01*
X139747280Y-45277846D01*
X139780613Y-45311180D01*
X139813946Y-45377846D01*
X139813946Y-45544513D01*
X139780613Y-45611180D01*
X139747280Y-45644513D01*
X139680613Y-45677846D01*
X139513946Y-45677846D01*
X139447280Y-45644513D01*
X139413946Y-45611180D01*
X139380613Y-45544513D01*
X139380613Y-45377846D01*
X139413946Y-45311180D01*
X139447280Y-45277846D01*
X124807280Y-42544513D02*
X124840613Y-42477846D01*
X124840613Y-42377846D01*
X124807280Y-42277846D01*
X124740613Y-42211180D01*
X124673946Y-42177846D01*
X124540613Y-42144513D01*
X124440613Y-42144513D01*
X124307280Y-42177846D01*
X124240613Y-42211180D01*
X124173946Y-42277846D01*
X124140613Y-42377846D01*
X124140613Y-42444513D01*
X124173946Y-42544513D01*
X124207280Y-42577846D01*
X124440613Y-42577846D01*
X124440613Y-42444513D01*
X124140613Y-42877846D02*
X124840613Y-42877846D01*
X124840613Y-43144513D01*
X124807280Y-43211180D01*
X124773946Y-43244513D01*
X124707280Y-43277846D01*
X124607280Y-43277846D01*
X124540613Y-43244513D01*
X124507280Y-43211180D01*
X124473946Y-43144513D01*
X124473946Y-42877846D01*
X124140613Y-43577846D02*
X124840613Y-43577846D01*
X124840613Y-44044513D02*
X124840613Y-44177846D01*
X124807280Y-44244513D01*
X124740613Y-44311180D01*
X124607280Y-44344513D01*
X124373946Y-44344513D01*
X124240613Y-44311180D01*
X124173946Y-44244513D01*
X124140613Y-44177846D01*
X124140613Y-44044513D01*
X124173946Y-43977846D01*
X124240613Y-43911180D01*
X124373946Y-43877846D01*
X124607280Y-43877846D01*
X124740613Y-43911180D01*
X124807280Y-43977846D01*
X124840613Y-44044513D01*
X124140613Y-45011180D02*
X124140613Y-44611180D01*
X124140613Y-44811180D02*
X124840613Y-44811180D01*
X124740613Y-44744513D01*
X124673946Y-44677846D01*
X124640613Y-44611180D01*
X124607280Y-45611180D02*
X124140613Y-45611180D01*
X124873946Y-45444513D02*
X124373946Y-45277846D01*
X124373946Y-45711180D01*
X124873946Y-46477846D02*
X123973946Y-45877846D01*
X124140613Y-46711180D02*
X124840613Y-46711180D01*
X124340613Y-46944513D01*
X124840613Y-47177846D01*
X124140613Y-47177846D01*
X124840613Y-47411180D02*
X124840613Y-47811180D01*
X124140613Y-47611180D02*
X124840613Y-47611180D01*
X124140613Y-48044513D02*
X124840613Y-48044513D01*
X124340613Y-48277846D01*
X124840613Y-48511180D01*
X124140613Y-48511180D01*
X124173946Y-48811180D02*
X124140613Y-48911180D01*
X124140613Y-49077846D01*
X124173946Y-49144513D01*
X124207280Y-49177846D01*
X124273946Y-49211180D01*
X124340613Y-49211180D01*
X124407280Y-49177846D01*
X124440613Y-49144513D01*
X124473946Y-49077846D01*
X124507280Y-48944513D01*
X124540613Y-48877846D01*
X124573946Y-48844513D01*
X124640613Y-48811180D01*
X124707280Y-48811180D01*
X124773946Y-48844513D01*
X124807280Y-48877846D01*
X124840613Y-48944513D01*
X124840613Y-49111180D01*
X124807280Y-49211180D01*
X142587280Y-42544513D02*
X142620613Y-42477846D01*
X142620613Y-42377846D01*
X142587280Y-42277846D01*
X142520613Y-42211180D01*
X142453946Y-42177846D01*
X142320613Y-42144513D01*
X142220613Y-42144513D01*
X142087280Y-42177846D01*
X142020613Y-42211180D01*
X141953946Y-42277846D01*
X141920613Y-42377846D01*
X141920613Y-42444513D01*
X141953946Y-42544513D01*
X141987280Y-42577846D01*
X142220613Y-42577846D01*
X142220613Y-42444513D01*
X141920613Y-42877846D02*
X142620613Y-42877846D01*
X142620613Y-43144513D01*
X142587280Y-43211180D01*
X142553946Y-43244513D01*
X142487280Y-43277846D01*
X142387280Y-43277846D01*
X142320613Y-43244513D01*
X142287280Y-43211180D01*
X142253946Y-43144513D01*
X142253946Y-42877846D01*
X141920613Y-43577846D02*
X142620613Y-43577846D01*
X142620613Y-44044513D02*
X142620613Y-44177846D01*
X142587280Y-44244513D01*
X142520613Y-44311180D01*
X142387280Y-44344513D01*
X142153946Y-44344513D01*
X142020613Y-44311180D01*
X141953946Y-44244513D01*
X141920613Y-44177846D01*
X141920613Y-44044513D01*
X141953946Y-43977846D01*
X142020613Y-43911180D01*
X142153946Y-43877846D01*
X142387280Y-43877846D01*
X142520613Y-43911180D01*
X142587280Y-43977846D01*
X142620613Y-44044513D01*
X142620613Y-44577846D02*
X142620613Y-45011180D01*
X142353946Y-44777846D01*
X142353946Y-44877846D01*
X142320613Y-44944513D01*
X142287280Y-44977846D01*
X142220613Y-45011180D01*
X142053946Y-45011180D01*
X141987280Y-44977846D01*
X141953946Y-44944513D01*
X141920613Y-44877846D01*
X141920613Y-44677846D01*
X141953946Y-44611180D01*
X141987280Y-44577846D01*
X142387280Y-45611180D02*
X141920613Y-45611180D01*
X142653946Y-45444513D02*
X142153946Y-45277846D01*
X142153946Y-45711180D01*
X111440613Y-42177846D02*
X112140613Y-42177846D01*
X112140613Y-42344513D01*
X112107280Y-42444513D01*
X112040613Y-42511180D01*
X111973946Y-42544513D01*
X111840613Y-42577846D01*
X111740613Y-42577846D01*
X111607280Y-42544513D01*
X111540613Y-42511180D01*
X111473946Y-42444513D01*
X111440613Y-42344513D01*
X111440613Y-42177846D01*
X112140613Y-42811180D02*
X112140613Y-43244513D01*
X111873946Y-43011180D01*
X111873946Y-43111180D01*
X111840613Y-43177846D01*
X111807280Y-43211180D01*
X111740613Y-43244513D01*
X111573946Y-43244513D01*
X111507280Y-43211180D01*
X111473946Y-43177846D01*
X111440613Y-43111180D01*
X111440613Y-42911180D01*
X111473946Y-42844513D01*
X111507280Y-42811180D01*
X132427280Y-61409513D02*
X132460613Y-61342846D01*
X132460613Y-61242846D01*
X132427280Y-61142846D01*
X132360613Y-61076180D01*
X132293946Y-61042846D01*
X132160613Y-61009513D01*
X132060613Y-61009513D01*
X131927280Y-61042846D01*
X131860613Y-61076180D01*
X131793946Y-61142846D01*
X131760613Y-61242846D01*
X131760613Y-61309513D01*
X131793946Y-61409513D01*
X131827280Y-61442846D01*
X132060613Y-61442846D01*
X132060613Y-61309513D01*
X131760613Y-61742846D02*
X132460613Y-61742846D01*
X132460613Y-62009513D01*
X132427280Y-62076180D01*
X132393946Y-62109513D01*
X132327280Y-62142846D01*
X132227280Y-62142846D01*
X132160613Y-62109513D01*
X132127280Y-62076180D01*
X132093946Y-62009513D01*
X132093946Y-61742846D01*
X131760613Y-62442846D02*
X132460613Y-62442846D01*
X132460613Y-62909513D02*
X132460613Y-63042846D01*
X132427280Y-63109513D01*
X132360613Y-63176180D01*
X132227280Y-63209513D01*
X131993946Y-63209513D01*
X131860613Y-63176180D01*
X131793946Y-63109513D01*
X131760613Y-63042846D01*
X131760613Y-62909513D01*
X131793946Y-62842846D01*
X131860613Y-62776180D01*
X131993946Y-62742846D01*
X132227280Y-62742846D01*
X132360613Y-62776180D01*
X132427280Y-62842846D01*
X132460613Y-62909513D01*
X131760613Y-63876180D02*
X131760613Y-63476180D01*
X131760613Y-63676180D02*
X132460613Y-63676180D01*
X132360613Y-63609513D01*
X132293946Y-63542846D01*
X132260613Y-63476180D01*
X132160613Y-64276180D02*
X132193946Y-64209513D01*
X132227280Y-64176180D01*
X132293946Y-64142846D01*
X132327280Y-64142846D01*
X132393946Y-64176180D01*
X132427280Y-64209513D01*
X132460613Y-64276180D01*
X132460613Y-64409513D01*
X132427280Y-64476180D01*
X132393946Y-64509513D01*
X132327280Y-64542846D01*
X132293946Y-64542846D01*
X132227280Y-64509513D01*
X132193946Y-64476180D01*
X132160613Y-64409513D01*
X132160613Y-64276180D01*
X132127280Y-64209513D01*
X132093946Y-64176180D01*
X132027280Y-64142846D01*
X131893946Y-64142846D01*
X131827280Y-64176180D01*
X131793946Y-64209513D01*
X131760613Y-64276180D01*
X131760613Y-64409513D01*
X131793946Y-64476180D01*
X131827280Y-64509513D01*
X131893946Y-64542846D01*
X132027280Y-64542846D01*
X132093946Y-64509513D01*
X132127280Y-64476180D01*
X132160613Y-64409513D01*
X108967280Y-42577846D02*
X108933946Y-42544513D01*
X108900613Y-42444513D01*
X108900613Y-42377846D01*
X108933946Y-42277846D01*
X109000613Y-42211180D01*
X109067280Y-42177846D01*
X109200613Y-42144513D01*
X109300613Y-42144513D01*
X109433946Y-42177846D01*
X109500613Y-42211180D01*
X109567280Y-42277846D01*
X109600613Y-42377846D01*
X109600613Y-42444513D01*
X109567280Y-42544513D01*
X109533946Y-42577846D01*
X108900613Y-42877846D02*
X109600613Y-42877846D01*
X109100613Y-43111180D01*
X109600613Y-43344513D01*
X108900613Y-43344513D01*
X108900613Y-43677846D02*
X109600613Y-43677846D01*
X109600613Y-43844513D01*
X109567280Y-43944513D01*
X109500613Y-44011180D01*
X109433946Y-44044513D01*
X109300613Y-44077846D01*
X109200613Y-44077846D01*
X109067280Y-44044513D01*
X109000613Y-44011180D01*
X108933946Y-43944513D01*
X108900613Y-43844513D01*
X108900613Y-43677846D01*
X147667280Y-61409513D02*
X147700613Y-61342846D01*
X147700613Y-61242846D01*
X147667280Y-61142846D01*
X147600613Y-61076180D01*
X147533946Y-61042846D01*
X147400613Y-61009513D01*
X147300613Y-61009513D01*
X147167280Y-61042846D01*
X147100613Y-61076180D01*
X147033946Y-61142846D01*
X147000613Y-61242846D01*
X147000613Y-61309513D01*
X147033946Y-61409513D01*
X147067280Y-61442846D01*
X147300613Y-61442846D01*
X147300613Y-61309513D01*
X147000613Y-61742846D02*
X147700613Y-61742846D01*
X147700613Y-62009513D01*
X147667280Y-62076180D01*
X147633946Y-62109513D01*
X147567280Y-62142846D01*
X147467280Y-62142846D01*
X147400613Y-62109513D01*
X147367280Y-62076180D01*
X147333946Y-62009513D01*
X147333946Y-61742846D01*
X147000613Y-62442846D02*
X147700613Y-62442846D01*
X147700613Y-62909513D02*
X147700613Y-63042846D01*
X147667280Y-63109513D01*
X147600613Y-63176180D01*
X147467280Y-63209513D01*
X147233946Y-63209513D01*
X147100613Y-63176180D01*
X147033946Y-63109513D01*
X147000613Y-63042846D01*
X147000613Y-62909513D01*
X147033946Y-62842846D01*
X147100613Y-62776180D01*
X147233946Y-62742846D01*
X147467280Y-62742846D01*
X147600613Y-62776180D01*
X147667280Y-62842846D01*
X147700613Y-62909513D01*
X147633946Y-63476180D02*
X147667280Y-63509513D01*
X147700613Y-63576180D01*
X147700613Y-63742846D01*
X147667280Y-63809513D01*
X147633946Y-63842846D01*
X147567280Y-63876180D01*
X147500613Y-63876180D01*
X147400613Y-63842846D01*
X147000613Y-63442846D01*
X147000613Y-63876180D01*
X147633946Y-64142846D02*
X147667280Y-64176180D01*
X147700613Y-64242846D01*
X147700613Y-64409513D01*
X147667280Y-64476180D01*
X147633946Y-64509513D01*
X147567280Y-64542846D01*
X147500613Y-64542846D01*
X147400613Y-64509513D01*
X147000613Y-64109513D01*
X147000613Y-64542846D01*
X137657280Y-62390465D02*
X137704899Y-62295227D01*
X137704899Y-62152370D01*
X137657280Y-62009513D01*
X137562041Y-61914275D01*
X137466803Y-61866656D01*
X137276327Y-61819037D01*
X137133470Y-61819037D01*
X136942994Y-61866656D01*
X136847756Y-61914275D01*
X136752518Y-62009513D01*
X136704899Y-62152370D01*
X136704899Y-62247608D01*
X136752518Y-62390465D01*
X136800137Y-62438084D01*
X137133470Y-62438084D01*
X137133470Y-62247608D01*
X136704899Y-62866656D02*
X137704899Y-62866656D01*
X136704899Y-63438084D01*
X137704899Y-63438084D01*
X136704899Y-63914275D02*
X137704899Y-63914275D01*
X137704899Y-64152370D01*
X137657280Y-64295227D01*
X137562041Y-64390465D01*
X137466803Y-64438084D01*
X137276327Y-64485703D01*
X137133470Y-64485703D01*
X136942994Y-64438084D01*
X136847756Y-64390465D01*
X136752518Y-64295227D01*
X136704899Y-64152370D01*
X136704899Y-63914275D01*
X127347280Y-61409513D02*
X127380613Y-61342846D01*
X127380613Y-61242846D01*
X127347280Y-61142846D01*
X127280613Y-61076180D01*
X127213946Y-61042846D01*
X127080613Y-61009513D01*
X126980613Y-61009513D01*
X126847280Y-61042846D01*
X126780613Y-61076180D01*
X126713946Y-61142846D01*
X126680613Y-61242846D01*
X126680613Y-61309513D01*
X126713946Y-61409513D01*
X126747280Y-61442846D01*
X126980613Y-61442846D01*
X126980613Y-61309513D01*
X126680613Y-61742846D02*
X127380613Y-61742846D01*
X127380613Y-62009513D01*
X127347280Y-62076180D01*
X127313946Y-62109513D01*
X127247280Y-62142846D01*
X127147280Y-62142846D01*
X127080613Y-62109513D01*
X127047280Y-62076180D01*
X127013946Y-62009513D01*
X127013946Y-61742846D01*
X126680613Y-62442846D02*
X127380613Y-62442846D01*
X127380613Y-62909513D02*
X127380613Y-63042846D01*
X127347280Y-63109513D01*
X127280613Y-63176180D01*
X127147280Y-63209513D01*
X126913946Y-63209513D01*
X126780613Y-63176180D01*
X126713946Y-63109513D01*
X126680613Y-63042846D01*
X126680613Y-62909513D01*
X126713946Y-62842846D01*
X126780613Y-62776180D01*
X126913946Y-62742846D01*
X127147280Y-62742846D01*
X127280613Y-62776180D01*
X127347280Y-62842846D01*
X127380613Y-62909513D01*
X126680613Y-63876180D02*
X126680613Y-63476180D01*
X126680613Y-63676180D02*
X127380613Y-63676180D01*
X127280613Y-63609513D01*
X127213946Y-63542846D01*
X127180613Y-63476180D01*
X127380613Y-64109513D02*
X127380613Y-64576180D01*
X126680613Y-64276180D01*
X145127280Y-58042846D02*
X145160613Y-57976180D01*
X145160613Y-57876180D01*
X145127280Y-57776180D01*
X145060613Y-57709513D01*
X144993946Y-57676180D01*
X144860613Y-57642846D01*
X144760613Y-57642846D01*
X144627280Y-57676180D01*
X144560613Y-57709513D01*
X144493946Y-57776180D01*
X144460613Y-57876180D01*
X144460613Y-57942846D01*
X144493946Y-58042846D01*
X144527280Y-58076180D01*
X144760613Y-58076180D01*
X144760613Y-57942846D01*
X144460613Y-58376180D02*
X145160613Y-58376180D01*
X145160613Y-58642846D01*
X145127280Y-58709513D01*
X145093946Y-58742846D01*
X145027280Y-58776180D01*
X144927280Y-58776180D01*
X144860613Y-58742846D01*
X144827280Y-58709513D01*
X144793946Y-58642846D01*
X144793946Y-58376180D01*
X144460613Y-59076180D02*
X145160613Y-59076180D01*
X145160613Y-59542846D02*
X145160613Y-59676180D01*
X145127280Y-59742846D01*
X145060613Y-59809513D01*
X144927280Y-59842846D01*
X144693946Y-59842846D01*
X144560613Y-59809513D01*
X144493946Y-59742846D01*
X144460613Y-59676180D01*
X144460613Y-59542846D01*
X144493946Y-59476180D01*
X144560613Y-59409513D01*
X144693946Y-59376180D01*
X144927280Y-59376180D01*
X145060613Y-59409513D01*
X145127280Y-59476180D01*
X145160613Y-59542846D01*
X144460613Y-60509513D02*
X144460613Y-60109513D01*
X144460613Y-60309513D02*
X145160613Y-60309513D01*
X145060613Y-60242846D01*
X144993946Y-60176180D01*
X144960613Y-60109513D01*
X145193946Y-61309513D02*
X144293946Y-60709513D01*
X145160613Y-61542846D02*
X144593946Y-61542846D01*
X144527280Y-61576180D01*
X144493946Y-61609513D01*
X144460613Y-61676180D01*
X144460613Y-61809513D01*
X144493946Y-61876180D01*
X144527280Y-61909513D01*
X144593946Y-61942846D01*
X145160613Y-61942846D01*
X145160613Y-62409513D02*
X145160613Y-62476180D01*
X145127280Y-62542846D01*
X145093946Y-62576180D01*
X145027280Y-62609513D01*
X144893946Y-62642846D01*
X144727280Y-62642846D01*
X144593946Y-62609513D01*
X144527280Y-62576180D01*
X144493946Y-62542846D01*
X144460613Y-62476180D01*
X144460613Y-62409513D01*
X144493946Y-62342846D01*
X144527280Y-62309513D01*
X144593946Y-62276180D01*
X144727280Y-62242846D01*
X144893946Y-62242846D01*
X145027280Y-62276180D01*
X145093946Y-62309513D01*
X145127280Y-62342846D01*
X145160613Y-62409513D01*
X145160613Y-62842846D02*
X145160613Y-63242846D01*
X144460613Y-63042846D02*
X145160613Y-63042846D01*
X145160613Y-63409513D02*
X144460613Y-63876180D01*
X145160613Y-63876180D02*
X144460613Y-63409513D01*
X144460613Y-64142846D02*
X145160613Y-64142846D01*
X145160613Y-64309513D01*
X145127280Y-64409513D01*
X145060613Y-64476180D01*
X144993946Y-64509513D01*
X144860613Y-64542846D01*
X144760613Y-64542846D01*
X144627280Y-64509513D01*
X144560613Y-64476180D01*
X144493946Y-64409513D01*
X144460613Y-64309513D01*
X144460613Y-64142846D01*
X114647280Y-57909513D02*
X114680613Y-57842846D01*
X114680613Y-57742846D01*
X114647280Y-57642846D01*
X114580613Y-57576180D01*
X114513946Y-57542846D01*
X114380613Y-57509513D01*
X114280613Y-57509513D01*
X114147280Y-57542846D01*
X114080613Y-57576180D01*
X114013946Y-57642846D01*
X113980613Y-57742846D01*
X113980613Y-57809513D01*
X114013946Y-57909513D01*
X114047280Y-57942846D01*
X114280613Y-57942846D01*
X114280613Y-57809513D01*
X113980613Y-58242846D02*
X114680613Y-58242846D01*
X114680613Y-58509513D01*
X114647280Y-58576180D01*
X114613946Y-58609513D01*
X114547280Y-58642846D01*
X114447280Y-58642846D01*
X114380613Y-58609513D01*
X114347280Y-58576180D01*
X114313946Y-58509513D01*
X114313946Y-58242846D01*
X113980613Y-58942846D02*
X114680613Y-58942846D01*
X114680613Y-59409513D02*
X114680613Y-59542846D01*
X114647280Y-59609513D01*
X114580613Y-59676180D01*
X114447280Y-59709513D01*
X114213946Y-59709513D01*
X114080613Y-59676180D01*
X114013946Y-59609513D01*
X113980613Y-59542846D01*
X113980613Y-59409513D01*
X114013946Y-59342846D01*
X114080613Y-59276180D01*
X114213946Y-59242846D01*
X114447280Y-59242846D01*
X114580613Y-59276180D01*
X114647280Y-59342846D01*
X114680613Y-59409513D01*
X113980613Y-60376180D02*
X113980613Y-59976180D01*
X113980613Y-60176180D02*
X114680613Y-60176180D01*
X114580613Y-60109513D01*
X114513946Y-60042846D01*
X114480613Y-59976180D01*
X114680613Y-61009513D02*
X114680613Y-60676180D01*
X114347280Y-60642846D01*
X114380613Y-60676180D01*
X114413946Y-60742846D01*
X114413946Y-60909513D01*
X114380613Y-60976180D01*
X114347280Y-61009513D01*
X114280613Y-61042846D01*
X114113946Y-61042846D01*
X114047280Y-61009513D01*
X114013946Y-60976180D01*
X113980613Y-60909513D01*
X113980613Y-60742846D01*
X114013946Y-60676180D01*
X114047280Y-60642846D01*
X114713946Y-61842846D02*
X113813946Y-61242846D01*
X113980613Y-62076180D02*
X114680613Y-62076180D01*
X114180613Y-62309513D01*
X114680613Y-62542846D01*
X113980613Y-62542846D01*
X114680613Y-62776180D02*
X114680613Y-63176180D01*
X113980613Y-62976180D02*
X114680613Y-62976180D01*
X113980613Y-63409513D02*
X114680613Y-63409513D01*
X114680613Y-63576180D01*
X114647280Y-63676180D01*
X114580613Y-63742846D01*
X114513946Y-63776180D01*
X114380613Y-63809513D01*
X114280613Y-63809513D01*
X114147280Y-63776180D01*
X114080613Y-63742846D01*
X114013946Y-63676180D01*
X113980613Y-63576180D01*
X113980613Y-63409513D01*
X114680613Y-64242846D02*
X114680613Y-64376180D01*
X114647280Y-64442846D01*
X114580613Y-64509513D01*
X114447280Y-64542846D01*
X114213946Y-64542846D01*
X114080613Y-64509513D01*
X114013946Y-64442846D01*
X113980613Y-64376180D01*
X113980613Y-64242846D01*
X114013946Y-64176180D01*
X114080613Y-64109513D01*
X114213946Y-64076180D01*
X114447280Y-64076180D01*
X114580613Y-64109513D01*
X114647280Y-64176180D01*
X114680613Y-64242846D01*
X132427280Y-42544513D02*
X132460613Y-42477846D01*
X132460613Y-42377846D01*
X132427280Y-42277846D01*
X132360613Y-42211180D01*
X132293946Y-42177846D01*
X132160613Y-42144513D01*
X132060613Y-42144513D01*
X131927280Y-42177846D01*
X131860613Y-42211180D01*
X131793946Y-42277846D01*
X131760613Y-42377846D01*
X131760613Y-42444513D01*
X131793946Y-42544513D01*
X131827280Y-42577846D01*
X132060613Y-42577846D01*
X132060613Y-42444513D01*
X131760613Y-42877846D02*
X132460613Y-42877846D01*
X132460613Y-43144513D01*
X132427280Y-43211180D01*
X132393946Y-43244513D01*
X132327280Y-43277846D01*
X132227280Y-43277846D01*
X132160613Y-43244513D01*
X132127280Y-43211180D01*
X132093946Y-43144513D01*
X132093946Y-42877846D01*
X131760613Y-43577846D02*
X132460613Y-43577846D01*
X132460613Y-44044513D02*
X132460613Y-44177846D01*
X132427280Y-44244513D01*
X132360613Y-44311180D01*
X132227280Y-44344513D01*
X131993946Y-44344513D01*
X131860613Y-44311180D01*
X131793946Y-44244513D01*
X131760613Y-44177846D01*
X131760613Y-44044513D01*
X131793946Y-43977846D01*
X131860613Y-43911180D01*
X131993946Y-43877846D01*
X132227280Y-43877846D01*
X132360613Y-43911180D01*
X132427280Y-43977846D01*
X132460613Y-44044513D01*
X132393946Y-44611180D02*
X132427280Y-44644513D01*
X132460613Y-44711180D01*
X132460613Y-44877846D01*
X132427280Y-44944513D01*
X132393946Y-44977846D01*
X132327280Y-45011180D01*
X132260613Y-45011180D01*
X132160613Y-44977846D01*
X131760613Y-44577846D01*
X131760613Y-45011180D01*
X132460613Y-45644513D02*
X132460613Y-45311180D01*
X132127280Y-45277846D01*
X132160613Y-45311180D01*
X132193946Y-45377846D01*
X132193946Y-45544513D01*
X132160613Y-45611180D01*
X132127280Y-45644513D01*
X132060613Y-45677846D01*
X131893946Y-45677846D01*
X131827280Y-45644513D01*
X131793946Y-45611180D01*
X131760613Y-45544513D01*
X131760613Y-45377846D01*
X131793946Y-45311180D01*
X131827280Y-45277846D01*
%TO.C,H4*%
X208788095Y-39822380D02*
X208788095Y-38822380D01*
X208788095Y-39298571D02*
X209359523Y-39298571D01*
X209359523Y-39822380D02*
X209359523Y-38822380D01*
X210264285Y-39155714D02*
X210264285Y-39822380D01*
X210026190Y-38774761D02*
X209788095Y-39489047D01*
X210407142Y-39489047D01*
%TO.C,H3*%
X208153095Y-110942380D02*
X208153095Y-109942380D01*
X208153095Y-110418571D02*
X208724523Y-110418571D01*
X208724523Y-110942380D02*
X208724523Y-109942380D01*
X209105476Y-109942380D02*
X209724523Y-109942380D01*
X209391190Y-110323333D01*
X209534047Y-110323333D01*
X209629285Y-110370952D01*
X209676904Y-110418571D01*
X209724523Y-110513809D01*
X209724523Y-110751904D01*
X209676904Y-110847142D01*
X209629285Y-110894761D01*
X209534047Y-110942380D01*
X209248333Y-110942380D01*
X209153095Y-110894761D01*
X209105476Y-110847142D01*
%TO.C,H2*%
X103378095Y-29027380D02*
X103378095Y-28027380D01*
X103378095Y-28503571D02*
X103949523Y-28503571D01*
X103949523Y-29027380D02*
X103949523Y-28027380D01*
X104378095Y-28122619D02*
X104425714Y-28075000D01*
X104520952Y-28027380D01*
X104759047Y-28027380D01*
X104854285Y-28075000D01*
X104901904Y-28122619D01*
X104949523Y-28217857D01*
X104949523Y-28313095D01*
X104901904Y-28455952D01*
X104330476Y-29027380D01*
X104949523Y-29027380D01*
%TO.C,H1*%
X177038095Y-83002380D02*
X177038095Y-82002380D01*
X177038095Y-82478571D02*
X177609523Y-82478571D01*
X177609523Y-83002380D02*
X177609523Y-82002380D01*
X178609523Y-83002380D02*
X178038095Y-83002380D01*
X178323809Y-83002380D02*
X178323809Y-82002380D01*
X178228571Y-82145238D01*
X178133333Y-82240476D01*
X178038095Y-82288095D01*
%TO.C,C3*%
X196683333Y-39727142D02*
X196635714Y-39774761D01*
X196492857Y-39822380D01*
X196397619Y-39822380D01*
X196254761Y-39774761D01*
X196159523Y-39679523D01*
X196111904Y-39584285D01*
X196064285Y-39393809D01*
X196064285Y-39250952D01*
X196111904Y-39060476D01*
X196159523Y-38965238D01*
X196254761Y-38870000D01*
X196397619Y-38822380D01*
X196492857Y-38822380D01*
X196635714Y-38870000D01*
X196683333Y-38917619D01*
X197016666Y-38822380D02*
X197635714Y-38822380D01*
X197302380Y-39203333D01*
X197445238Y-39203333D01*
X197540476Y-39250952D01*
X197588095Y-39298571D01*
X197635714Y-39393809D01*
X197635714Y-39631904D01*
X197588095Y-39727142D01*
X197540476Y-39774761D01*
X197445238Y-39822380D01*
X197159523Y-39822380D01*
X197064285Y-39774761D01*
X197016666Y-39727142D01*
%TO.C,C2*%
X159893333Y-42437142D02*
X159845714Y-42484761D01*
X159702857Y-42532380D01*
X159607619Y-42532380D01*
X159464761Y-42484761D01*
X159369523Y-42389523D01*
X159321904Y-42294285D01*
X159274285Y-42103809D01*
X159274285Y-41960952D01*
X159321904Y-41770476D01*
X159369523Y-41675238D01*
X159464761Y-41580000D01*
X159607619Y-41532380D01*
X159702857Y-41532380D01*
X159845714Y-41580000D01*
X159893333Y-41627619D01*
X160274285Y-41627619D02*
X160321904Y-41580000D01*
X160417142Y-41532380D01*
X160655238Y-41532380D01*
X160750476Y-41580000D01*
X160798095Y-41627619D01*
X160845714Y-41722857D01*
X160845714Y-41818095D01*
X160798095Y-41960952D01*
X160226666Y-42532380D01*
X160845714Y-42532380D01*
%TO.C,C1*%
X183388333Y-96412142D02*
X183340714Y-96459761D01*
X183197857Y-96507380D01*
X183102619Y-96507380D01*
X182959761Y-96459761D01*
X182864523Y-96364523D01*
X182816904Y-96269285D01*
X182769285Y-96078809D01*
X182769285Y-95935952D01*
X182816904Y-95745476D01*
X182864523Y-95650238D01*
X182959761Y-95555000D01*
X183102619Y-95507380D01*
X183197857Y-95507380D01*
X183340714Y-95555000D01*
X183388333Y-95602619D01*
X184340714Y-96507380D02*
X183769285Y-96507380D01*
X184055000Y-96507380D02*
X184055000Y-95507380D01*
X183959761Y-95650238D01*
X183864523Y-95745476D01*
X183769285Y-95793095D01*
%TO.C,U3*%
X173315380Y-58038904D02*
X174124904Y-58038904D01*
X174220142Y-57991285D01*
X174267761Y-57943666D01*
X174315380Y-57848428D01*
X174315380Y-57657952D01*
X174267761Y-57562714D01*
X174220142Y-57515095D01*
X174124904Y-57467476D01*
X173315380Y-57467476D01*
X173315380Y-57086523D02*
X173315380Y-56467476D01*
X173696333Y-56800809D01*
X173696333Y-56657952D01*
X173743952Y-56562714D01*
X173791571Y-56515095D01*
X173886809Y-56467476D01*
X174124904Y-56467476D01*
X174220142Y-56515095D01*
X174267761Y-56562714D01*
X174315380Y-56657952D01*
X174315380Y-56943666D01*
X174267761Y-57038904D01*
X174220142Y-57086523D01*
%TO.C,JHC_VALVES1*%
X216622380Y-71667142D02*
X217336666Y-71667142D01*
X217479523Y-71714761D01*
X217574761Y-71810000D01*
X217622380Y-71952857D01*
X217622380Y-72048095D01*
X217622380Y-71190952D02*
X216622380Y-71190952D01*
X217098571Y-71190952D02*
X217098571Y-70619523D01*
X217622380Y-70619523D02*
X216622380Y-70619523D01*
X217527142Y-69571904D02*
X217574761Y-69619523D01*
X217622380Y-69762380D01*
X217622380Y-69857619D01*
X217574761Y-70000476D01*
X217479523Y-70095714D01*
X217384285Y-70143333D01*
X217193809Y-70190952D01*
X217050952Y-70190952D01*
X216860476Y-70143333D01*
X216765238Y-70095714D01*
X216670000Y-70000476D01*
X216622380Y-69857619D01*
X216622380Y-69762380D01*
X216670000Y-69619523D01*
X216717619Y-69571904D01*
X217717619Y-69381428D02*
X217717619Y-68619523D01*
X216622380Y-68524285D02*
X217622380Y-68190952D01*
X216622380Y-67857619D01*
X217336666Y-67571904D02*
X217336666Y-67095714D01*
X217622380Y-67667142D02*
X216622380Y-67333809D01*
X217622380Y-67000476D01*
X217622380Y-66190952D02*
X217622380Y-66667142D01*
X216622380Y-66667142D01*
X216622380Y-66000476D02*
X217622380Y-65667142D01*
X216622380Y-65333809D01*
X217098571Y-65000476D02*
X217098571Y-64667142D01*
X217622380Y-64524285D02*
X217622380Y-65000476D01*
X216622380Y-65000476D01*
X216622380Y-64524285D01*
X217574761Y-64143333D02*
X217622380Y-64000476D01*
X217622380Y-63762380D01*
X217574761Y-63667142D01*
X217527142Y-63619523D01*
X217431904Y-63571904D01*
X217336666Y-63571904D01*
X217241428Y-63619523D01*
X217193809Y-63667142D01*
X217146190Y-63762380D01*
X217098571Y-63952857D01*
X217050952Y-64048095D01*
X217003333Y-64095714D01*
X216908095Y-64143333D01*
X216812857Y-64143333D01*
X216717619Y-64095714D01*
X216670000Y-64048095D01*
X216622380Y-63952857D01*
X216622380Y-63714761D01*
X216670000Y-63571904D01*
X217622380Y-62619523D02*
X217622380Y-63190952D01*
X217622380Y-62905238D02*
X216622380Y-62905238D01*
X216765238Y-63000476D01*
X216860476Y-63095714D01*
X216908095Y-63190952D01*
X209044166Y-85812380D02*
X208853690Y-85812380D01*
X208758452Y-85860000D01*
X208710833Y-85907619D01*
X208615595Y-86050476D01*
X208567976Y-86240952D01*
X208567976Y-86621904D01*
X208615595Y-86717142D01*
X208663214Y-86764761D01*
X208758452Y-86812380D01*
X208948928Y-86812380D01*
X209044166Y-86764761D01*
X209091785Y-86717142D01*
X209139404Y-86621904D01*
X209139404Y-86383809D01*
X209091785Y-86288571D01*
X209044166Y-86240952D01*
X208948928Y-86193333D01*
X208758452Y-86193333D01*
X208663214Y-86240952D01*
X208615595Y-86288571D01*
X208567976Y-86383809D01*
X209091785Y-80732380D02*
X208615595Y-80732380D01*
X208567976Y-81208571D01*
X208615595Y-81160952D01*
X208710833Y-81113333D01*
X208948928Y-81113333D01*
X209044166Y-81160952D01*
X209091785Y-81208571D01*
X209139404Y-81303809D01*
X209139404Y-81541904D01*
X209091785Y-81637142D01*
X209044166Y-81684761D01*
X208948928Y-81732380D01*
X208710833Y-81732380D01*
X208615595Y-81684761D01*
X208567976Y-81637142D01*
X209044166Y-75985714D02*
X209044166Y-76652380D01*
X208806071Y-75604761D02*
X208567976Y-76319047D01*
X209187023Y-76319047D01*
X208520357Y-70572380D02*
X209139404Y-70572380D01*
X208806071Y-70953333D01*
X208948928Y-70953333D01*
X209044166Y-71000952D01*
X209091785Y-71048571D01*
X209139404Y-71143809D01*
X209139404Y-71381904D01*
X209091785Y-71477142D01*
X209044166Y-71524761D01*
X208948928Y-71572380D01*
X208663214Y-71572380D01*
X208567976Y-71524761D01*
X208520357Y-71477142D01*
X208567976Y-65587619D02*
X208615595Y-65540000D01*
X208710833Y-65492380D01*
X208948928Y-65492380D01*
X209044166Y-65540000D01*
X209091785Y-65587619D01*
X209139404Y-65682857D01*
X209139404Y-65778095D01*
X209091785Y-65920952D01*
X208520357Y-66492380D01*
X209139404Y-66492380D01*
X209139404Y-61412380D02*
X208567976Y-61412380D01*
X208853690Y-61412380D02*
X208853690Y-60412380D01*
X208758452Y-60555238D01*
X208663214Y-60650476D01*
X208567976Y-60698095D01*
%TO.C,JD_VALVE1*%
X216622380Y-97337142D02*
X217336666Y-97337142D01*
X217479523Y-97384761D01*
X217574761Y-97480000D01*
X217622380Y-97622857D01*
X217622380Y-97718095D01*
X217622380Y-96860952D02*
X216622380Y-96860952D01*
X216622380Y-96622857D01*
X216670000Y-96480000D01*
X216765238Y-96384761D01*
X216860476Y-96337142D01*
X217050952Y-96289523D01*
X217193809Y-96289523D01*
X217384285Y-96337142D01*
X217479523Y-96384761D01*
X217574761Y-96480000D01*
X217622380Y-96622857D01*
X217622380Y-96860952D01*
X217717619Y-96099047D02*
X217717619Y-95337142D01*
X216622380Y-95241904D02*
X217622380Y-94908571D01*
X216622380Y-94575238D01*
X217336666Y-94289523D02*
X217336666Y-93813333D01*
X217622380Y-94384761D02*
X216622380Y-94051428D01*
X217622380Y-93718095D01*
X217622380Y-92908571D02*
X217622380Y-93384761D01*
X216622380Y-93384761D01*
X216622380Y-92718095D02*
X217622380Y-92384761D01*
X216622380Y-92051428D01*
X217098571Y-91718095D02*
X217098571Y-91384761D01*
X217622380Y-91241904D02*
X217622380Y-91718095D01*
X216622380Y-91718095D01*
X216622380Y-91241904D01*
X217622380Y-90289523D02*
X217622380Y-90860952D01*
X217622380Y-90575238D02*
X216622380Y-90575238D01*
X216765238Y-90670476D01*
X216860476Y-90765714D01*
X216908095Y-90860952D01*
X208520357Y-102322380D02*
X209139404Y-102322380D01*
X208806071Y-102703333D01*
X208948928Y-102703333D01*
X209044166Y-102750952D01*
X209091785Y-102798571D01*
X209139404Y-102893809D01*
X209139404Y-103131904D01*
X209091785Y-103227142D01*
X209044166Y-103274761D01*
X208948928Y-103322380D01*
X208663214Y-103322380D01*
X208567976Y-103274761D01*
X208520357Y-103227142D01*
X208567976Y-97337619D02*
X208615595Y-97290000D01*
X208710833Y-97242380D01*
X208948928Y-97242380D01*
X209044166Y-97290000D01*
X209091785Y-97337619D01*
X209139404Y-97432857D01*
X209139404Y-97528095D01*
X209091785Y-97670952D01*
X208520357Y-98242380D01*
X209139404Y-98242380D01*
X209139404Y-93162380D02*
X208567976Y-93162380D01*
X208853690Y-93162380D02*
X208853690Y-92162380D01*
X208758452Y-92305238D01*
X208663214Y-92400476D01*
X208567976Y-92448095D01*
%TO.C,U_3.3V1*%
X183983380Y-115283904D02*
X184792904Y-115283904D01*
X184888142Y-115236285D01*
X184935761Y-115188666D01*
X184983380Y-115093428D01*
X184983380Y-114902952D01*
X184935761Y-114807714D01*
X184888142Y-114760095D01*
X184792904Y-114712476D01*
X183983380Y-114712476D01*
X185078619Y-114474380D02*
X185078619Y-113712476D01*
X183983380Y-113569619D02*
X183983380Y-112950571D01*
X184364333Y-113283904D01*
X184364333Y-113141047D01*
X184411952Y-113045809D01*
X184459571Y-112998190D01*
X184554809Y-112950571D01*
X184792904Y-112950571D01*
X184888142Y-112998190D01*
X184935761Y-113045809D01*
X184983380Y-113141047D01*
X184983380Y-113426761D01*
X184935761Y-113522000D01*
X184888142Y-113569619D01*
X184888142Y-112522000D02*
X184935761Y-112474380D01*
X184983380Y-112522000D01*
X184935761Y-112569619D01*
X184888142Y-112522000D01*
X184983380Y-112522000D01*
X183983380Y-112141047D02*
X183983380Y-111522000D01*
X184364333Y-111855333D01*
X184364333Y-111712476D01*
X184411952Y-111617238D01*
X184459571Y-111569619D01*
X184554809Y-111522000D01*
X184792904Y-111522000D01*
X184888142Y-111569619D01*
X184935761Y-111617238D01*
X184983380Y-111712476D01*
X184983380Y-111998190D01*
X184935761Y-112093428D01*
X184888142Y-112141047D01*
X183983380Y-111236285D02*
X184983380Y-110902952D01*
X183983380Y-110569619D01*
X184983380Y-109712476D02*
X184983380Y-110283904D01*
X184983380Y-109998190D02*
X183983380Y-109998190D01*
X184126238Y-110093428D01*
X184221476Y-110188666D01*
X184269095Y-110283904D01*
X190460380Y-108713452D02*
X191460380Y-108380119D01*
X190460380Y-108046785D01*
X191365142Y-107142023D02*
X191412761Y-107189642D01*
X191460380Y-107332500D01*
X191460380Y-107427738D01*
X191412761Y-107570595D01*
X191317523Y-107665833D01*
X191222285Y-107713452D01*
X191031809Y-107761071D01*
X190888952Y-107761071D01*
X190698476Y-107713452D01*
X190603238Y-107665833D01*
X190508000Y-107570595D01*
X190460380Y-107427738D01*
X190460380Y-107332500D01*
X190508000Y-107189642D01*
X190555619Y-107142023D01*
X191365142Y-106142023D02*
X191412761Y-106189642D01*
X191460380Y-106332500D01*
X191460380Y-106427738D01*
X191412761Y-106570595D01*
X191317523Y-106665833D01*
X191222285Y-106713452D01*
X191031809Y-106761071D01*
X190888952Y-106761071D01*
X190698476Y-106713452D01*
X190603238Y-106665833D01*
X190508000Y-106570595D01*
X190460380Y-106427738D01*
X190460380Y-106332500D01*
X190508000Y-106189642D01*
X190555619Y-106142023D01*
X190460380Y-104761071D02*
X190460380Y-104570595D01*
X190508000Y-104475357D01*
X190603238Y-104380119D01*
X190793714Y-104332500D01*
X191127047Y-104332500D01*
X191317523Y-104380119D01*
X191412761Y-104475357D01*
X191460380Y-104570595D01*
X191460380Y-104761071D01*
X191412761Y-104856309D01*
X191317523Y-104951547D01*
X191127047Y-104999166D01*
X190793714Y-104999166D01*
X190603238Y-104951547D01*
X190508000Y-104856309D01*
X190460380Y-104761071D01*
X190460380Y-103903928D02*
X191269904Y-103903928D01*
X191365142Y-103856309D01*
X191412761Y-103808690D01*
X191460380Y-103713452D01*
X191460380Y-103522976D01*
X191412761Y-103427738D01*
X191365142Y-103380119D01*
X191269904Y-103332500D01*
X190460380Y-103332500D01*
X190460380Y-102999166D02*
X190460380Y-102427738D01*
X191460380Y-102713452D02*
X190460380Y-102713452D01*
X187920380Y-108713452D02*
X188920380Y-108380119D01*
X187920380Y-108046785D01*
X188825142Y-107142023D02*
X188872761Y-107189642D01*
X188920380Y-107332500D01*
X188920380Y-107427738D01*
X188872761Y-107570595D01*
X188777523Y-107665833D01*
X188682285Y-107713452D01*
X188491809Y-107761071D01*
X188348952Y-107761071D01*
X188158476Y-107713452D01*
X188063238Y-107665833D01*
X187968000Y-107570595D01*
X187920380Y-107427738D01*
X187920380Y-107332500D01*
X187968000Y-107189642D01*
X188015619Y-107142023D01*
X188825142Y-106142023D02*
X188872761Y-106189642D01*
X188920380Y-106332500D01*
X188920380Y-106427738D01*
X188872761Y-106570595D01*
X188777523Y-106665833D01*
X188682285Y-106713452D01*
X188491809Y-106761071D01*
X188348952Y-106761071D01*
X188158476Y-106713452D01*
X188063238Y-106665833D01*
X187968000Y-106570595D01*
X187920380Y-106427738D01*
X187920380Y-106332500D01*
X187968000Y-106189642D01*
X188015619Y-106142023D01*
X187920380Y-104761071D02*
X187920380Y-104570595D01*
X187968000Y-104475357D01*
X188063238Y-104380119D01*
X188253714Y-104332500D01*
X188587047Y-104332500D01*
X188777523Y-104380119D01*
X188872761Y-104475357D01*
X188920380Y-104570595D01*
X188920380Y-104761071D01*
X188872761Y-104856309D01*
X188777523Y-104951547D01*
X188587047Y-104999166D01*
X188253714Y-104999166D01*
X188063238Y-104951547D01*
X187968000Y-104856309D01*
X187920380Y-104761071D01*
X187920380Y-103903928D02*
X188729904Y-103903928D01*
X188825142Y-103856309D01*
X188872761Y-103808690D01*
X188920380Y-103713452D01*
X188920380Y-103522976D01*
X188872761Y-103427738D01*
X188825142Y-103380119D01*
X188729904Y-103332500D01*
X187920380Y-103332500D01*
X187920380Y-102999166D02*
X187920380Y-102427738D01*
X188920380Y-102713452D02*
X187920380Y-102713452D01*
X180348000Y-108491261D02*
X180300380Y-108586500D01*
X180300380Y-108729357D01*
X180348000Y-108872214D01*
X180443238Y-108967452D01*
X180538476Y-109015071D01*
X180728952Y-109062690D01*
X180871809Y-109062690D01*
X181062285Y-109015071D01*
X181157523Y-108967452D01*
X181252761Y-108872214D01*
X181300380Y-108729357D01*
X181300380Y-108634119D01*
X181252761Y-108491261D01*
X181205142Y-108443642D01*
X180871809Y-108443642D01*
X180871809Y-108634119D01*
X181300380Y-108015071D02*
X180300380Y-108015071D01*
X181300380Y-107443642D01*
X180300380Y-107443642D01*
X181300380Y-106967452D02*
X180300380Y-106967452D01*
X180300380Y-106729357D01*
X180348000Y-106586500D01*
X180443238Y-106491261D01*
X180538476Y-106443642D01*
X180728952Y-106396023D01*
X180871809Y-106396023D01*
X181062285Y-106443642D01*
X181157523Y-106491261D01*
X181252761Y-106586500D01*
X181300380Y-106729357D01*
X181300380Y-106967452D01*
X180300380Y-105015071D02*
X180300380Y-104824595D01*
X180348000Y-104729357D01*
X180443238Y-104634119D01*
X180633714Y-104586500D01*
X180967047Y-104586500D01*
X181157523Y-104634119D01*
X181252761Y-104729357D01*
X181300380Y-104824595D01*
X181300380Y-105015071D01*
X181252761Y-105110309D01*
X181157523Y-105205547D01*
X180967047Y-105253166D01*
X180633714Y-105253166D01*
X180443238Y-105205547D01*
X180348000Y-105110309D01*
X180300380Y-105015071D01*
X180300380Y-104157928D02*
X181109904Y-104157928D01*
X181205142Y-104110309D01*
X181252761Y-104062690D01*
X181300380Y-103967452D01*
X181300380Y-103776976D01*
X181252761Y-103681738D01*
X181205142Y-103634119D01*
X181109904Y-103586500D01*
X180300380Y-103586500D01*
X180300380Y-103253166D02*
X180300380Y-102681738D01*
X181300380Y-102967452D02*
X180300380Y-102967452D01*
X177681000Y-108491261D02*
X177633380Y-108586500D01*
X177633380Y-108729357D01*
X177681000Y-108872214D01*
X177776238Y-108967452D01*
X177871476Y-109015071D01*
X178061952Y-109062690D01*
X178204809Y-109062690D01*
X178395285Y-109015071D01*
X178490523Y-108967452D01*
X178585761Y-108872214D01*
X178633380Y-108729357D01*
X178633380Y-108634119D01*
X178585761Y-108491261D01*
X178538142Y-108443642D01*
X178204809Y-108443642D01*
X178204809Y-108634119D01*
X178633380Y-108015071D02*
X177633380Y-108015071D01*
X178633380Y-107443642D01*
X177633380Y-107443642D01*
X178633380Y-106967452D02*
X177633380Y-106967452D01*
X177633380Y-106729357D01*
X177681000Y-106586500D01*
X177776238Y-106491261D01*
X177871476Y-106443642D01*
X178061952Y-106396023D01*
X178204809Y-106396023D01*
X178395285Y-106443642D01*
X178490523Y-106491261D01*
X178585761Y-106586500D01*
X178633380Y-106729357D01*
X178633380Y-106967452D01*
X177633380Y-105015071D02*
X177633380Y-104824595D01*
X177681000Y-104729357D01*
X177776238Y-104634119D01*
X177966714Y-104586500D01*
X178300047Y-104586500D01*
X178490523Y-104634119D01*
X178585761Y-104729357D01*
X178633380Y-104824595D01*
X178633380Y-105015071D01*
X178585761Y-105110309D01*
X178490523Y-105205547D01*
X178300047Y-105253166D01*
X177966714Y-105253166D01*
X177776238Y-105205547D01*
X177681000Y-105110309D01*
X177633380Y-105015071D01*
X177633380Y-104157928D02*
X178442904Y-104157928D01*
X178538142Y-104110309D01*
X178585761Y-104062690D01*
X178633380Y-103967452D01*
X178633380Y-103776976D01*
X178585761Y-103681738D01*
X178538142Y-103634119D01*
X178442904Y-103586500D01*
X177633380Y-103586500D01*
X177633380Y-103253166D02*
X177633380Y-102681738D01*
X178633380Y-102967452D02*
X177633380Y-102967452D01*
X190333380Y-120076261D02*
X191333380Y-119742928D01*
X190333380Y-119409595D01*
X191238142Y-118504833D02*
X191285761Y-118552452D01*
X191333380Y-118695309D01*
X191333380Y-118790547D01*
X191285761Y-118933404D01*
X191190523Y-119028642D01*
X191095285Y-119076261D01*
X190904809Y-119123880D01*
X190761952Y-119123880D01*
X190571476Y-119076261D01*
X190476238Y-119028642D01*
X190381000Y-118933404D01*
X190333380Y-118790547D01*
X190333380Y-118695309D01*
X190381000Y-118552452D01*
X190428619Y-118504833D01*
X191238142Y-117504833D02*
X191285761Y-117552452D01*
X191333380Y-117695309D01*
X191333380Y-117790547D01*
X191285761Y-117933404D01*
X191190523Y-118028642D01*
X191095285Y-118076261D01*
X190904809Y-118123880D01*
X190761952Y-118123880D01*
X190571476Y-118076261D01*
X190476238Y-118028642D01*
X190381000Y-117933404D01*
X190333380Y-117790547D01*
X190333380Y-117695309D01*
X190381000Y-117552452D01*
X190428619Y-117504833D01*
X191333380Y-116314357D02*
X190333380Y-116314357D01*
X191333380Y-115838166D02*
X190333380Y-115838166D01*
X191333380Y-115266738D01*
X190333380Y-115266738D01*
X187793380Y-120076261D02*
X188793380Y-119742928D01*
X187793380Y-119409595D01*
X188698142Y-118504833D02*
X188745761Y-118552452D01*
X188793380Y-118695309D01*
X188793380Y-118790547D01*
X188745761Y-118933404D01*
X188650523Y-119028642D01*
X188555285Y-119076261D01*
X188364809Y-119123880D01*
X188221952Y-119123880D01*
X188031476Y-119076261D01*
X187936238Y-119028642D01*
X187841000Y-118933404D01*
X187793380Y-118790547D01*
X187793380Y-118695309D01*
X187841000Y-118552452D01*
X187888619Y-118504833D01*
X188698142Y-117504833D02*
X188745761Y-117552452D01*
X188793380Y-117695309D01*
X188793380Y-117790547D01*
X188745761Y-117933404D01*
X188650523Y-118028642D01*
X188555285Y-118076261D01*
X188364809Y-118123880D01*
X188221952Y-118123880D01*
X188031476Y-118076261D01*
X187936238Y-118028642D01*
X187841000Y-117933404D01*
X187793380Y-117790547D01*
X187793380Y-117695309D01*
X187841000Y-117552452D01*
X187888619Y-117504833D01*
X188793380Y-116314357D02*
X187793380Y-116314357D01*
X188793380Y-115838166D02*
X187793380Y-115838166D01*
X188793380Y-115266738D01*
X187793380Y-115266738D01*
X180348000Y-119663595D02*
X180300380Y-119758833D01*
X180300380Y-119901690D01*
X180348000Y-120044547D01*
X180443238Y-120139785D01*
X180538476Y-120187404D01*
X180728952Y-120235023D01*
X180871809Y-120235023D01*
X181062285Y-120187404D01*
X181157523Y-120139785D01*
X181252761Y-120044547D01*
X181300380Y-119901690D01*
X181300380Y-119806452D01*
X181252761Y-119663595D01*
X181205142Y-119615976D01*
X180871809Y-119615976D01*
X180871809Y-119806452D01*
X181300380Y-119187404D02*
X180300380Y-119187404D01*
X181300380Y-118615976D01*
X180300380Y-118615976D01*
X181300380Y-118139785D02*
X180300380Y-118139785D01*
X180300380Y-117901690D01*
X180348000Y-117758833D01*
X180443238Y-117663595D01*
X180538476Y-117615976D01*
X180728952Y-117568357D01*
X180871809Y-117568357D01*
X181062285Y-117615976D01*
X181157523Y-117663595D01*
X181252761Y-117758833D01*
X181300380Y-117901690D01*
X181300380Y-118139785D01*
X181300380Y-116377880D02*
X180300380Y-116377880D01*
X181300380Y-115901690D02*
X180300380Y-115901690D01*
X181300380Y-115330261D01*
X180300380Y-115330261D01*
X177681000Y-119663595D02*
X177633380Y-119758833D01*
X177633380Y-119901690D01*
X177681000Y-120044547D01*
X177776238Y-120139785D01*
X177871476Y-120187404D01*
X178061952Y-120235023D01*
X178204809Y-120235023D01*
X178395285Y-120187404D01*
X178490523Y-120139785D01*
X178585761Y-120044547D01*
X178633380Y-119901690D01*
X178633380Y-119806452D01*
X178585761Y-119663595D01*
X178538142Y-119615976D01*
X178204809Y-119615976D01*
X178204809Y-119806452D01*
X178633380Y-119187404D02*
X177633380Y-119187404D01*
X178633380Y-118615976D01*
X177633380Y-118615976D01*
X178633380Y-118139785D02*
X177633380Y-118139785D01*
X177633380Y-117901690D01*
X177681000Y-117758833D01*
X177776238Y-117663595D01*
X177871476Y-117615976D01*
X178061952Y-117568357D01*
X178204809Y-117568357D01*
X178395285Y-117615976D01*
X178490523Y-117663595D01*
X178585761Y-117758833D01*
X178633380Y-117901690D01*
X178633380Y-118139785D01*
X178633380Y-116377880D02*
X177633380Y-116377880D01*
X178633380Y-115901690D02*
X177633380Y-115901690D01*
X178633380Y-115330261D01*
X177633380Y-115330261D01*
%TO.C,U_5V1*%
X179689380Y-40346380D02*
X179689380Y-41155904D01*
X179737000Y-41251142D01*
X179784619Y-41298761D01*
X179879857Y-41346380D01*
X180070333Y-41346380D01*
X180165571Y-41298761D01*
X180213190Y-41251142D01*
X180260809Y-41155904D01*
X180260809Y-40346380D01*
X180498904Y-41441619D02*
X181260809Y-41441619D01*
X181975095Y-40346380D02*
X181498904Y-40346380D01*
X181451285Y-40822571D01*
X181498904Y-40774952D01*
X181594142Y-40727333D01*
X181832238Y-40727333D01*
X181927476Y-40774952D01*
X181975095Y-40822571D01*
X182022714Y-40917809D01*
X182022714Y-41155904D01*
X181975095Y-41251142D01*
X181927476Y-41298761D01*
X181832238Y-41346380D01*
X181594142Y-41346380D01*
X181498904Y-41298761D01*
X181451285Y-41251142D01*
X182308428Y-40346380D02*
X182641761Y-41346380D01*
X182975095Y-40346380D01*
X183832238Y-41346380D02*
X183260809Y-41346380D01*
X183546523Y-41346380D02*
X183546523Y-40346380D01*
X183451285Y-40489238D01*
X183356047Y-40584476D01*
X183260809Y-40632095D01*
X171642738Y-33869380D02*
X171976071Y-34869380D01*
X172309404Y-33869380D01*
X173214166Y-34774142D02*
X173166547Y-34821761D01*
X173023690Y-34869380D01*
X172928452Y-34869380D01*
X172785595Y-34821761D01*
X172690357Y-34726523D01*
X172642738Y-34631285D01*
X172595119Y-34440809D01*
X172595119Y-34297952D01*
X172642738Y-34107476D01*
X172690357Y-34012238D01*
X172785595Y-33917000D01*
X172928452Y-33869380D01*
X173023690Y-33869380D01*
X173166547Y-33917000D01*
X173214166Y-33964619D01*
X174214166Y-34774142D02*
X174166547Y-34821761D01*
X174023690Y-34869380D01*
X173928452Y-34869380D01*
X173785595Y-34821761D01*
X173690357Y-34726523D01*
X173642738Y-34631285D01*
X173595119Y-34440809D01*
X173595119Y-34297952D01*
X173642738Y-34107476D01*
X173690357Y-34012238D01*
X173785595Y-33917000D01*
X173928452Y-33869380D01*
X174023690Y-33869380D01*
X174166547Y-33917000D01*
X174214166Y-33964619D01*
X175595119Y-33869380D02*
X175785595Y-33869380D01*
X175880833Y-33917000D01*
X175976071Y-34012238D01*
X176023690Y-34202714D01*
X176023690Y-34536047D01*
X175976071Y-34726523D01*
X175880833Y-34821761D01*
X175785595Y-34869380D01*
X175595119Y-34869380D01*
X175499880Y-34821761D01*
X175404642Y-34726523D01*
X175357023Y-34536047D01*
X175357023Y-34202714D01*
X175404642Y-34012238D01*
X175499880Y-33917000D01*
X175595119Y-33869380D01*
X176452261Y-33869380D02*
X176452261Y-34678904D01*
X176499880Y-34774142D01*
X176547500Y-34821761D01*
X176642738Y-34869380D01*
X176833214Y-34869380D01*
X176928452Y-34821761D01*
X176976071Y-34774142D01*
X177023690Y-34678904D01*
X177023690Y-33869380D01*
X177357023Y-33869380D02*
X177928452Y-33869380D01*
X177642738Y-34869380D02*
X177642738Y-33869380D01*
X171642738Y-36409380D02*
X171976071Y-37409380D01*
X172309404Y-36409380D01*
X173214166Y-37314142D02*
X173166547Y-37361761D01*
X173023690Y-37409380D01*
X172928452Y-37409380D01*
X172785595Y-37361761D01*
X172690357Y-37266523D01*
X172642738Y-37171285D01*
X172595119Y-36980809D01*
X172595119Y-36837952D01*
X172642738Y-36647476D01*
X172690357Y-36552238D01*
X172785595Y-36457000D01*
X172928452Y-36409380D01*
X173023690Y-36409380D01*
X173166547Y-36457000D01*
X173214166Y-36504619D01*
X174214166Y-37314142D02*
X174166547Y-37361761D01*
X174023690Y-37409380D01*
X173928452Y-37409380D01*
X173785595Y-37361761D01*
X173690357Y-37266523D01*
X173642738Y-37171285D01*
X173595119Y-36980809D01*
X173595119Y-36837952D01*
X173642738Y-36647476D01*
X173690357Y-36552238D01*
X173785595Y-36457000D01*
X173928452Y-36409380D01*
X174023690Y-36409380D01*
X174166547Y-36457000D01*
X174214166Y-36504619D01*
X175595119Y-36409380D02*
X175785595Y-36409380D01*
X175880833Y-36457000D01*
X175976071Y-36552238D01*
X176023690Y-36742714D01*
X176023690Y-37076047D01*
X175976071Y-37266523D01*
X175880833Y-37361761D01*
X175785595Y-37409380D01*
X175595119Y-37409380D01*
X175499880Y-37361761D01*
X175404642Y-37266523D01*
X175357023Y-37076047D01*
X175357023Y-36742714D01*
X175404642Y-36552238D01*
X175499880Y-36457000D01*
X175595119Y-36409380D01*
X176452261Y-36409380D02*
X176452261Y-37218904D01*
X176499880Y-37314142D01*
X176547500Y-37361761D01*
X176642738Y-37409380D01*
X176833214Y-37409380D01*
X176928452Y-37361761D01*
X176976071Y-37314142D01*
X177023690Y-37218904D01*
X177023690Y-36409380D01*
X177357023Y-36409380D02*
X177928452Y-36409380D01*
X177642738Y-37409380D02*
X177642738Y-36409380D01*
X172563404Y-44077000D02*
X172468166Y-44029380D01*
X172325309Y-44029380D01*
X172182452Y-44077000D01*
X172087214Y-44172238D01*
X172039595Y-44267476D01*
X171991976Y-44457952D01*
X171991976Y-44600809D01*
X172039595Y-44791285D01*
X172087214Y-44886523D01*
X172182452Y-44981761D01*
X172325309Y-45029380D01*
X172420547Y-45029380D01*
X172563404Y-44981761D01*
X172611023Y-44934142D01*
X172611023Y-44600809D01*
X172420547Y-44600809D01*
X173039595Y-45029380D02*
X173039595Y-44029380D01*
X173611023Y-45029380D01*
X173611023Y-44029380D01*
X174087214Y-45029380D02*
X174087214Y-44029380D01*
X174325309Y-44029380D01*
X174468166Y-44077000D01*
X174563404Y-44172238D01*
X174611023Y-44267476D01*
X174658642Y-44457952D01*
X174658642Y-44600809D01*
X174611023Y-44791285D01*
X174563404Y-44886523D01*
X174468166Y-44981761D01*
X174325309Y-45029380D01*
X174087214Y-45029380D01*
X176039595Y-44029380D02*
X176230071Y-44029380D01*
X176325309Y-44077000D01*
X176420547Y-44172238D01*
X176468166Y-44362714D01*
X176468166Y-44696047D01*
X176420547Y-44886523D01*
X176325309Y-44981761D01*
X176230071Y-45029380D01*
X176039595Y-45029380D01*
X175944357Y-44981761D01*
X175849119Y-44886523D01*
X175801500Y-44696047D01*
X175801500Y-44362714D01*
X175849119Y-44172238D01*
X175944357Y-44077000D01*
X176039595Y-44029380D01*
X176896738Y-44029380D02*
X176896738Y-44838904D01*
X176944357Y-44934142D01*
X176991976Y-44981761D01*
X177087214Y-45029380D01*
X177277690Y-45029380D01*
X177372928Y-44981761D01*
X177420547Y-44934142D01*
X177468166Y-44838904D01*
X177468166Y-44029380D01*
X177801500Y-44029380D02*
X178372928Y-44029380D01*
X178087214Y-45029380D02*
X178087214Y-44029380D01*
X172563404Y-46744000D02*
X172468166Y-46696380D01*
X172325309Y-46696380D01*
X172182452Y-46744000D01*
X172087214Y-46839238D01*
X172039595Y-46934476D01*
X171991976Y-47124952D01*
X171991976Y-47267809D01*
X172039595Y-47458285D01*
X172087214Y-47553523D01*
X172182452Y-47648761D01*
X172325309Y-47696380D01*
X172420547Y-47696380D01*
X172563404Y-47648761D01*
X172611023Y-47601142D01*
X172611023Y-47267809D01*
X172420547Y-47267809D01*
X173039595Y-47696380D02*
X173039595Y-46696380D01*
X173611023Y-47696380D01*
X173611023Y-46696380D01*
X174087214Y-47696380D02*
X174087214Y-46696380D01*
X174325309Y-46696380D01*
X174468166Y-46744000D01*
X174563404Y-46839238D01*
X174611023Y-46934476D01*
X174658642Y-47124952D01*
X174658642Y-47267809D01*
X174611023Y-47458285D01*
X174563404Y-47553523D01*
X174468166Y-47648761D01*
X174325309Y-47696380D01*
X174087214Y-47696380D01*
X176039595Y-46696380D02*
X176230071Y-46696380D01*
X176325309Y-46744000D01*
X176420547Y-46839238D01*
X176468166Y-47029714D01*
X176468166Y-47363047D01*
X176420547Y-47553523D01*
X176325309Y-47648761D01*
X176230071Y-47696380D01*
X176039595Y-47696380D01*
X175944357Y-47648761D01*
X175849119Y-47553523D01*
X175801500Y-47363047D01*
X175801500Y-47029714D01*
X175849119Y-46839238D01*
X175944357Y-46744000D01*
X176039595Y-46696380D01*
X176896738Y-46696380D02*
X176896738Y-47505904D01*
X176944357Y-47601142D01*
X176991976Y-47648761D01*
X177087214Y-47696380D01*
X177277690Y-47696380D01*
X177372928Y-47648761D01*
X177420547Y-47601142D01*
X177468166Y-47505904D01*
X177468166Y-46696380D01*
X177801500Y-46696380D02*
X178372928Y-46696380D01*
X178087214Y-47696380D02*
X178087214Y-46696380D01*
X184338880Y-33996380D02*
X184672214Y-34996380D01*
X185005547Y-33996380D01*
X185910309Y-34901142D02*
X185862690Y-34948761D01*
X185719833Y-34996380D01*
X185624595Y-34996380D01*
X185481738Y-34948761D01*
X185386500Y-34853523D01*
X185338880Y-34758285D01*
X185291261Y-34567809D01*
X185291261Y-34424952D01*
X185338880Y-34234476D01*
X185386500Y-34139238D01*
X185481738Y-34044000D01*
X185624595Y-33996380D01*
X185719833Y-33996380D01*
X185862690Y-34044000D01*
X185910309Y-34091619D01*
X186910309Y-34901142D02*
X186862690Y-34948761D01*
X186719833Y-34996380D01*
X186624595Y-34996380D01*
X186481738Y-34948761D01*
X186386500Y-34853523D01*
X186338880Y-34758285D01*
X186291261Y-34567809D01*
X186291261Y-34424952D01*
X186338880Y-34234476D01*
X186386500Y-34139238D01*
X186481738Y-34044000D01*
X186624595Y-33996380D01*
X186719833Y-33996380D01*
X186862690Y-34044000D01*
X186910309Y-34091619D01*
X188100785Y-34996380D02*
X188100785Y-33996380D01*
X188576976Y-34996380D02*
X188576976Y-33996380D01*
X189148404Y-34996380D01*
X189148404Y-33996380D01*
X184338880Y-36536380D02*
X184672214Y-37536380D01*
X185005547Y-36536380D01*
X185910309Y-37441142D02*
X185862690Y-37488761D01*
X185719833Y-37536380D01*
X185624595Y-37536380D01*
X185481738Y-37488761D01*
X185386500Y-37393523D01*
X185338880Y-37298285D01*
X185291261Y-37107809D01*
X185291261Y-36964952D01*
X185338880Y-36774476D01*
X185386500Y-36679238D01*
X185481738Y-36584000D01*
X185624595Y-36536380D01*
X185719833Y-36536380D01*
X185862690Y-36584000D01*
X185910309Y-36631619D01*
X186910309Y-37441142D02*
X186862690Y-37488761D01*
X186719833Y-37536380D01*
X186624595Y-37536380D01*
X186481738Y-37488761D01*
X186386500Y-37393523D01*
X186338880Y-37298285D01*
X186291261Y-37107809D01*
X186291261Y-36964952D01*
X186338880Y-36774476D01*
X186386500Y-36679238D01*
X186481738Y-36584000D01*
X186624595Y-36536380D01*
X186719833Y-36536380D01*
X186862690Y-36584000D01*
X186910309Y-36631619D01*
X188100785Y-37536380D02*
X188100785Y-36536380D01*
X188576976Y-37536380D02*
X188576976Y-36536380D01*
X189148404Y-37536380D01*
X189148404Y-36536380D01*
X185069071Y-44077000D02*
X184973833Y-44029380D01*
X184830976Y-44029380D01*
X184688119Y-44077000D01*
X184592880Y-44172238D01*
X184545261Y-44267476D01*
X184497642Y-44457952D01*
X184497642Y-44600809D01*
X184545261Y-44791285D01*
X184592880Y-44886523D01*
X184688119Y-44981761D01*
X184830976Y-45029380D01*
X184926214Y-45029380D01*
X185069071Y-44981761D01*
X185116690Y-44934142D01*
X185116690Y-44600809D01*
X184926214Y-44600809D01*
X185545261Y-45029380D02*
X185545261Y-44029380D01*
X186116690Y-45029380D01*
X186116690Y-44029380D01*
X186592880Y-45029380D02*
X186592880Y-44029380D01*
X186830976Y-44029380D01*
X186973833Y-44077000D01*
X187069071Y-44172238D01*
X187116690Y-44267476D01*
X187164309Y-44457952D01*
X187164309Y-44600809D01*
X187116690Y-44791285D01*
X187069071Y-44886523D01*
X186973833Y-44981761D01*
X186830976Y-45029380D01*
X186592880Y-45029380D01*
X188354785Y-45029380D02*
X188354785Y-44029380D01*
X188830976Y-45029380D02*
X188830976Y-44029380D01*
X189402404Y-45029380D01*
X189402404Y-44029380D01*
X185069071Y-46744000D02*
X184973833Y-46696380D01*
X184830976Y-46696380D01*
X184688119Y-46744000D01*
X184592880Y-46839238D01*
X184545261Y-46934476D01*
X184497642Y-47124952D01*
X184497642Y-47267809D01*
X184545261Y-47458285D01*
X184592880Y-47553523D01*
X184688119Y-47648761D01*
X184830976Y-47696380D01*
X184926214Y-47696380D01*
X185069071Y-47648761D01*
X185116690Y-47601142D01*
X185116690Y-47267809D01*
X184926214Y-47267809D01*
X185545261Y-47696380D02*
X185545261Y-46696380D01*
X186116690Y-47696380D01*
X186116690Y-46696380D01*
X186592880Y-47696380D02*
X186592880Y-46696380D01*
X186830976Y-46696380D01*
X186973833Y-46744000D01*
X187069071Y-46839238D01*
X187116690Y-46934476D01*
X187164309Y-47124952D01*
X187164309Y-47267809D01*
X187116690Y-47458285D01*
X187069071Y-47553523D01*
X186973833Y-47648761D01*
X186830976Y-47696380D01*
X186592880Y-47696380D01*
X188354785Y-47696380D02*
X188354785Y-46696380D01*
X188830976Y-47696380D02*
X188830976Y-46696380D01*
X189402404Y-47696380D01*
X189402404Y-46696380D01*
%TO.C,J_12V1*%
X211264761Y-45172380D02*
X211264761Y-45886666D01*
X211217142Y-46029523D01*
X211121904Y-46124761D01*
X210979047Y-46172380D01*
X210883809Y-46172380D01*
X211502857Y-46267619D02*
X212264761Y-46267619D01*
X213026666Y-46172380D02*
X212455238Y-46172380D01*
X212740952Y-46172380D02*
X212740952Y-45172380D01*
X212645714Y-45315238D01*
X212550476Y-45410476D01*
X212455238Y-45458095D01*
X213407619Y-45267619D02*
X213455238Y-45220000D01*
X213550476Y-45172380D01*
X213788571Y-45172380D01*
X213883809Y-45220000D01*
X213931428Y-45267619D01*
X213979047Y-45362857D01*
X213979047Y-45458095D01*
X213931428Y-45600952D01*
X213360000Y-46172380D01*
X213979047Y-46172380D01*
X214264761Y-45172380D02*
X214598095Y-46172380D01*
X214931428Y-45172380D01*
X215788571Y-46172380D02*
X215217142Y-46172380D01*
X215502857Y-46172380D02*
X215502857Y-45172380D01*
X215407619Y-45315238D01*
X215312380Y-45410476D01*
X215217142Y-45458095D01*
%TO.C,R1*%
X98072380Y-48426666D02*
X97596190Y-48760000D01*
X98072380Y-48998095D02*
X97072380Y-48998095D01*
X97072380Y-48617142D01*
X97120000Y-48521904D01*
X97167619Y-48474285D01*
X97262857Y-48426666D01*
X97405714Y-48426666D01*
X97500952Y-48474285D01*
X97548571Y-48521904D01*
X97596190Y-48617142D01*
X97596190Y-48998095D01*
X98072380Y-47474285D02*
X98072380Y-48045714D01*
X98072380Y-47760000D02*
X97072380Y-47760000D01*
X97215238Y-47855238D01*
X97310476Y-47950476D01*
X97358095Y-48045714D01*
%TO.C,R2*%
X88733333Y-38552380D02*
X88400000Y-38076190D01*
X88161904Y-38552380D02*
X88161904Y-37552380D01*
X88542857Y-37552380D01*
X88638095Y-37600000D01*
X88685714Y-37647619D01*
X88733333Y-37742857D01*
X88733333Y-37885714D01*
X88685714Y-37980952D01*
X88638095Y-38028571D01*
X88542857Y-38076190D01*
X88161904Y-38076190D01*
X89114285Y-37647619D02*
X89161904Y-37600000D01*
X89257142Y-37552380D01*
X89495238Y-37552380D01*
X89590476Y-37600000D01*
X89638095Y-37647619D01*
X89685714Y-37742857D01*
X89685714Y-37838095D01*
X89638095Y-37980952D01*
X89066666Y-38552380D01*
X89685714Y-38552380D01*
%TO.C,R3*%
X88733333Y-28562380D02*
X88400000Y-28086190D01*
X88161904Y-28562380D02*
X88161904Y-27562380D01*
X88542857Y-27562380D01*
X88638095Y-27610000D01*
X88685714Y-27657619D01*
X88733333Y-27752857D01*
X88733333Y-27895714D01*
X88685714Y-27990952D01*
X88638095Y-28038571D01*
X88542857Y-28086190D01*
X88161904Y-28086190D01*
X89066666Y-27562380D02*
X89685714Y-27562380D01*
X89352380Y-27943333D01*
X89495238Y-27943333D01*
X89590476Y-27990952D01*
X89638095Y-28038571D01*
X89685714Y-28133809D01*
X89685714Y-28371904D01*
X89638095Y-28467142D01*
X89590476Y-28514761D01*
X89495238Y-28562380D01*
X89209523Y-28562380D01*
X89114285Y-28514761D01*
X89066666Y-28467142D01*
%TO.C,U4*%
X187858110Y-84542380D02*
X187756919Y-85351904D01*
X187792633Y-85447142D01*
X187834300Y-85494761D01*
X187923586Y-85542380D01*
X188114062Y-85542380D01*
X188215252Y-85494761D01*
X188268824Y-85447142D01*
X188328348Y-85351904D01*
X188429538Y-84542380D01*
X189292633Y-84875714D02*
X189209300Y-85542380D01*
X189102157Y-84494761D02*
X188774776Y-85209047D01*
X189393824Y-85209047D01*
X187063095Y-83002380D02*
X187063095Y-82002380D01*
X187301190Y-82002380D01*
X187444047Y-82050000D01*
X187539285Y-82145238D01*
X187586904Y-82240476D01*
X187634523Y-82430952D01*
X187634523Y-82573809D01*
X187586904Y-82764285D01*
X187539285Y-82859523D01*
X187444047Y-82954761D01*
X187301190Y-83002380D01*
X187063095Y-83002380D01*
X187634523Y-80367142D02*
X187586904Y-80414761D01*
X187444047Y-80462380D01*
X187348809Y-80462380D01*
X187205952Y-80414761D01*
X187110714Y-80319523D01*
X187063095Y-80224285D01*
X187015476Y-80033809D01*
X187015476Y-79890952D01*
X187063095Y-79700476D01*
X187110714Y-79605238D01*
X187205952Y-79510000D01*
X187348809Y-79462380D01*
X187444047Y-79462380D01*
X187586904Y-79510000D01*
X187634523Y-79557619D01*
X187396428Y-77398571D02*
X187539285Y-77446190D01*
X187586904Y-77493809D01*
X187634523Y-77589047D01*
X187634523Y-77731904D01*
X187586904Y-77827142D01*
X187539285Y-77874761D01*
X187444047Y-77922380D01*
X187063095Y-77922380D01*
X187063095Y-76922380D01*
X187396428Y-76922380D01*
X187491666Y-76970000D01*
X187539285Y-77017619D01*
X187586904Y-77112857D01*
X187586904Y-77208095D01*
X187539285Y-77303333D01*
X187491666Y-77350952D01*
X187396428Y-77398571D01*
X187063095Y-77398571D01*
X187086904Y-75096666D02*
X187563095Y-75096666D01*
X186991666Y-75382380D02*
X187325000Y-74382380D01*
X187658333Y-75382380D01*
X187597023Y-72842380D02*
X187263690Y-72366190D01*
X187025595Y-72842380D02*
X187025595Y-71842380D01*
X187406547Y-71842380D01*
X187501785Y-71890000D01*
X187549404Y-71937619D01*
X187597023Y-72032857D01*
X187597023Y-72175714D01*
X187549404Y-72270952D01*
X187501785Y-72318571D01*
X187406547Y-72366190D01*
X187025595Y-72366190D01*
X187634523Y-70302380D02*
X187158333Y-70302380D01*
X187158333Y-69302380D01*
X187025595Y-67762380D02*
X187025595Y-66762380D01*
X187263690Y-66762380D01*
X187406547Y-66810000D01*
X187501785Y-66905238D01*
X187549404Y-67000476D01*
X187597023Y-67190952D01*
X187597023Y-67333809D01*
X187549404Y-67524285D01*
X187501785Y-67619523D01*
X187406547Y-67714761D01*
X187263690Y-67762380D01*
X187025595Y-67762380D01*
X187977976Y-67476666D02*
X188454166Y-67476666D01*
X187882738Y-67762380D02*
X188216071Y-66762380D01*
X188549404Y-67762380D01*
X187597023Y-65127142D02*
X187549404Y-65174761D01*
X187406547Y-65222380D01*
X187311309Y-65222380D01*
X187168452Y-65174761D01*
X187073214Y-65079523D01*
X187025595Y-64984285D01*
X186977976Y-64793809D01*
X186977976Y-64650952D01*
X187025595Y-64460476D01*
X187073214Y-64365238D01*
X187168452Y-64270000D01*
X187311309Y-64222380D01*
X187406547Y-64222380D01*
X187549404Y-64270000D01*
X187597023Y-64317619D01*
X188501785Y-65222380D02*
X188025595Y-65222380D01*
X188025595Y-64222380D01*
X187586904Y-61730000D02*
X187491666Y-61682380D01*
X187348809Y-61682380D01*
X187205952Y-61730000D01*
X187110714Y-61825238D01*
X187063095Y-61920476D01*
X187015476Y-62110952D01*
X187015476Y-62253809D01*
X187063095Y-62444285D01*
X187110714Y-62539523D01*
X187205952Y-62634761D01*
X187348809Y-62682380D01*
X187444047Y-62682380D01*
X187586904Y-62634761D01*
X187634523Y-62587142D01*
X187634523Y-62253809D01*
X187444047Y-62253809D01*
X186991666Y-59142380D02*
X187325000Y-60142380D01*
X187658333Y-59142380D01*
D15*
X190385000Y-77512857D02*
X190313571Y-77655714D01*
X190313571Y-77870000D01*
X190385000Y-78084285D01*
X190527857Y-78227142D01*
X190670714Y-78298571D01*
X190956428Y-78370000D01*
X191170714Y-78370000D01*
X191456428Y-78298571D01*
X191599285Y-78227142D01*
X191742142Y-78084285D01*
X191813571Y-77870000D01*
X191813571Y-77727142D01*
X191742142Y-77512857D01*
X191670714Y-77441428D01*
X191170714Y-77441428D01*
X191170714Y-77727142D01*
X191099285Y-76512857D02*
X191813571Y-76512857D01*
X190313571Y-77012857D02*
X191099285Y-76512857D01*
X190313571Y-76012857D01*
X191242142Y-75512857D02*
X191242142Y-74370000D01*
X191813571Y-73655714D02*
X190313571Y-73655714D01*
X191385000Y-73155714D01*
X190313571Y-72655714D01*
X191813571Y-72655714D01*
X191670714Y-71084285D02*
X191742142Y-71155714D01*
X191813571Y-71370000D01*
X191813571Y-71512857D01*
X191742142Y-71727142D01*
X191599285Y-71870000D01*
X191456428Y-71941428D01*
X191170714Y-72012857D01*
X190956428Y-72012857D01*
X190670714Y-71941428D01*
X190527857Y-71870000D01*
X190385000Y-71727142D01*
X190313571Y-71512857D01*
X190313571Y-71370000D01*
X190385000Y-71155714D01*
X190456428Y-71084285D01*
X191813571Y-70441428D02*
X190313571Y-70441428D01*
X190313571Y-69870000D01*
X190385000Y-69727142D01*
X190456428Y-69655714D01*
X190599285Y-69584285D01*
X190813571Y-69584285D01*
X190956428Y-69655714D01*
X191027857Y-69727142D01*
X191099285Y-69870000D01*
X191099285Y-70441428D01*
X190813571Y-68298571D02*
X191813571Y-68298571D01*
X190242142Y-68655714D02*
X191313571Y-69012857D01*
X191313571Y-68084285D01*
X190313571Y-67655714D02*
X190313571Y-66655714D01*
X191813571Y-67298571D01*
X190456428Y-66155714D02*
X190385000Y-66084285D01*
X190313571Y-65941428D01*
X190313571Y-65584285D01*
X190385000Y-65441428D01*
X190456428Y-65370000D01*
X190599285Y-65298571D01*
X190742142Y-65298571D01*
X190956428Y-65370000D01*
X191813571Y-66227142D01*
X191813571Y-65298571D01*
X190956428Y-64441428D02*
X190885000Y-64584285D01*
X190813571Y-64655714D01*
X190670714Y-64727142D01*
X190599285Y-64727142D01*
X190456428Y-64655714D01*
X190385000Y-64584285D01*
X190313571Y-64441428D01*
X190313571Y-64155714D01*
X190385000Y-64012857D01*
X190456428Y-63941428D01*
X190599285Y-63870000D01*
X190670714Y-63870000D01*
X190813571Y-63941428D01*
X190885000Y-64012857D01*
X190956428Y-64155714D01*
X190956428Y-64441428D01*
X191027857Y-64584285D01*
X191099285Y-64655714D01*
X191242142Y-64727142D01*
X191527857Y-64727142D01*
X191670714Y-64655714D01*
X191742142Y-64584285D01*
X191813571Y-64441428D01*
X191813571Y-64155714D01*
X191742142Y-64012857D01*
X191670714Y-63941428D01*
X191527857Y-63870000D01*
X191242142Y-63870000D01*
X191099285Y-63941428D01*
X191027857Y-64012857D01*
X190956428Y-64155714D01*
%TD*%
M02*
