%TF.GenerationSoftware,KiCad,Pcbnew,(5.1.10)-1*%
%TF.CreationDate,2021-10-02T14:55:05+00:00*%
%TF.ProjectId,watermixer,77617465-726d-4697-9865-722e6b696361,v1.0*%
%TF.SameCoordinates,Original*%
%TF.FileFunction,Other,Fab,Bot*%
%FSLAX46Y46*%
G04 Gerber Fmt 4.6, Leading zero omitted, Abs format (unit mm)*
G04 Created by KiCad (PCBNEW (5.1.10)-1) date 2021-10-02 14:55:05*
%MOMM*%
%LPD*%
G01*
G04 APERTURE LIST*
%ADD10C,0.150000*%
G04 APERTURE END LIST*
%TO.C,U2*%
D10*
X131889333Y-72334380D02*
X132222666Y-71858190D01*
X132460761Y-72334380D02*
X132460761Y-71334380D01*
X132079809Y-71334380D01*
X131984571Y-71382000D01*
X131936952Y-71429619D01*
X131889333Y-71524857D01*
X131889333Y-71667714D01*
X131936952Y-71762952D01*
X131984571Y-71810571D01*
X132079809Y-71858190D01*
X132460761Y-71858190D01*
X131460761Y-71810571D02*
X131127428Y-71810571D01*
X130984571Y-72334380D02*
X131460761Y-72334380D01*
X131460761Y-71334380D01*
X130984571Y-71334380D01*
X130222666Y-71810571D02*
X130556000Y-71810571D01*
X130556000Y-72334380D02*
X130556000Y-71334380D01*
X130079809Y-71334380D01*
X129556000Y-71334380D02*
X129556000Y-71572476D01*
X129794095Y-71477238D02*
X129556000Y-71572476D01*
X129317904Y-71477238D01*
X129698857Y-71762952D02*
X129556000Y-71572476D01*
X129413142Y-71762952D01*
X128794095Y-71334380D02*
X128794095Y-71572476D01*
X129032190Y-71477238D02*
X128794095Y-71572476D01*
X128556000Y-71477238D01*
X128936952Y-71762952D02*
X128794095Y-71572476D01*
X128651238Y-71762952D01*
%TD*%
M02*
