M48
; DRILL file {KiCad (5.1.10)-1} date 10/02/21 14:55:11
; FORMAT={-:-/ absolute / metric / decimal}
; #@! TF.CreationDate,2021-10-02T14:55:11+00:00
; #@! TF.GenerationSoftware,Kicad,Pcbnew,(5.1.10)-1
; #@! TF.FileFunction,Plated,1,2,PTH
FMAT,2
METRIC
T1C0.400
T2C0.762
T3C0.800
T4C1.000
T5C1.300
T6C2.700
T7C3.500
%
G90
G05
T1
X92.837Y-94.742
X105.152Y-89.665
X107.95Y-44.45
X111.252Y-69.596
X116.205Y-55.245
X121.92Y-119.38
T2
X110.109Y-29.972
X112.649Y-29.972
X113.221Y-46.101
X113.221Y-48.641
X113.221Y-56.261
X113.221Y-58.801
X115.189Y-29.972
X117.729Y-29.972
X120.269Y-29.972
X122.809Y-29.972
X125.349Y-29.972
X127.889Y-29.972
X130.429Y-29.972
X132.969Y-29.972
X133.54Y-46.101
X133.54Y-48.641
X133.54Y-56.261
X133.54Y-58.801
X140.97Y-49.276
X140.97Y-51.816
X140.97Y-54.356
X140.97Y-56.896
X140.97Y-59.436
X140.97Y-61.976
X151.13Y-49.276
X151.13Y-51.816
X151.13Y-54.356
X151.13Y-56.896
X151.13Y-59.436
X151.13Y-61.976
X158.496Y-41.656
X158.496Y-44.196
X158.496Y-46.736
X158.496Y-49.276
X158.496Y-51.816
X158.496Y-54.356
X158.496Y-56.896
X158.496Y-59.436
X158.496Y-61.976
X158.496Y-64.516
X169.164Y-101.346
X169.164Y-121.666
X171.704Y-101.346
X171.704Y-121.666
X179.324Y-101.346
X179.324Y-121.666
X181.864Y-101.346
X181.864Y-121.666
T3
X96.012Y-44.45
X96.012Y-52.07
X104.14Y-47.705
X104.14Y-52.705
X105.152Y-71.885
X105.152Y-74.425
X105.152Y-76.965
X105.152Y-79.505
X105.152Y-82.045
X105.152Y-84.585
X105.152Y-87.125
X105.152Y-89.665
X105.152Y-92.205
X105.152Y-94.745
X105.152Y-97.285
X105.152Y-99.825
X105.152Y-102.365
X105.152Y-104.905
X105.152Y-107.445
X105.152Y-109.985
X105.152Y-112.525
X105.156Y-115.062
X105.156Y-117.602
X130.552Y-71.885
X130.552Y-74.425
X130.552Y-76.965
X130.552Y-79.505
X130.552Y-82.045
X130.552Y-84.585
X130.552Y-87.125
X130.552Y-89.665
X130.552Y-92.205
X130.552Y-94.745
X130.552Y-97.285
X130.552Y-99.825
X130.552Y-102.365
X130.552Y-104.905
X130.552Y-107.445
X130.552Y-109.985
X130.552Y-112.525
X130.552Y-115.065
X130.552Y-117.605
X161.925Y-29.21
X161.925Y-34.21
X170.688Y-93.044
X170.688Y-98.044
T4
X76.2Y-92.202
X76.2Y-94.742
X76.2Y-97.282
X76.2Y-99.822
X162.58Y-79.858
X162.58Y-82.398
X162.58Y-84.938
X162.58Y-87.478
X162.58Y-90.018
X162.58Y-92.558
X162.58Y-95.098
X162.58Y-97.638
X162.58Y-100.178
X162.58Y-102.718
X162.58Y-105.258
X162.58Y-107.798
X162.58Y-110.338
X162.58Y-112.878
T5
X84.455Y-30.48
X84.455Y-35.56
X84.455Y-40.64
X84.455Y-46.99
X84.455Y-52.07
X84.455Y-57.15
X172.212Y-46.228
X172.212Y-51.308
X172.212Y-56.388
X172.212Y-61.468
X172.212Y-66.548
X172.212Y-71.628
X172.466Y-77.978
X172.466Y-83.058
X172.466Y-88.138
T6
X77.205Y-71.478
X77.205Y-121.008
X161.025Y-71.478
X161.025Y-121.008
T7
X111.379Y-35.052
X131.953Y-35.052
X163.576Y-42.672
X163.576Y-63.246
T4
G00X170.18Y-32.75
M15
G01X170.18Y-30.75
M16
G05
G00X173.72Y-29.21
M15
G01X171.72Y-29.21
M16
G05
G00X175.26Y-32.75
M15
G01X175.26Y-30.75
M16
G05
T0
M30
