%TF.GenerationSoftware,KiCad,Pcbnew,(5.1.10)-1*%
%TF.CreationDate,2021-10-02T14:55:05+00:00*%
%TF.ProjectId,watermixer,77617465-726d-4697-9865-722e6b696361,v1.0*%
%TF.SameCoordinates,Original*%
%TF.FileFunction,Other,User*%
%FSLAX46Y46*%
G04 Gerber Fmt 4.6, Leading zero omitted, Abs format (unit mm)*
G04 Created by KiCad (PCBNEW (5.1.10)-1) date 2021-10-02 14:55:05*
%MOMM*%
%LPD*%
G01*
G04 APERTURE LIST*
%ADD10C,0.050000*%
%ADD11C,0.120000*%
G04 APERTURE END LIST*
D10*
%TO.C,R1*%
X94512000Y-43400000D02*
X94512000Y-53120000D01*
X97512000Y-43400000D02*
X94512000Y-43400000D01*
X97512000Y-53120000D02*
X97512000Y-43400000D01*
X94512000Y-53120000D02*
X97512000Y-53120000D01*
D11*
%TO.C,U5*%
X134239000Y-37592000D02*
X108839000Y-37592000D01*
X134239000Y-28702000D02*
X134239000Y-37592000D01*
X108839000Y-28702000D02*
X134239000Y-28702000D01*
X108839000Y-37592000D02*
X108839000Y-28702000D01*
D10*
%TO.C,C1*%
X174938000Y-95544000D02*
G75*
G03*
X174938000Y-95544000I-4250000J0D01*
G01*
D11*
%TO.C,U4*%
X166116000Y-40386000D02*
X166116000Y-65786000D01*
X157226000Y-40386000D02*
X166116000Y-40386000D01*
X157226000Y-65786000D02*
X157226000Y-40386000D01*
X166116000Y-65786000D02*
X157226000Y-65786000D01*
D10*
%TO.C,U1*%
X163850000Y-123698000D02*
X74350000Y-123698000D01*
X74350000Y-123698000D02*
X74350000Y-68498000D01*
X74350000Y-68498000D02*
X163850000Y-68498000D01*
X163850000Y-68498000D02*
X163850000Y-123698000D01*
D11*
%TO.C,JPress1*%
X73955000Y-44450000D02*
X86155000Y-44450000D01*
X86155000Y-59690000D02*
X73955000Y-59690000D01*
X73955000Y-59690000D02*
X73955000Y-44450000D01*
X86155000Y-59690000D02*
X86155000Y-44450000D01*
%TO.C,JTemp1*%
X73955000Y-27940000D02*
X86155000Y-27940000D01*
X86155000Y-43180000D02*
X73955000Y-43180000D01*
X73955000Y-43180000D02*
X73955000Y-27940000D01*
X86155000Y-43180000D02*
X86155000Y-27940000D01*
D10*
%TO.C,H4*%
X155215000Y-33020000D02*
G75*
G03*
X155215000Y-33020000I-3450000J0D01*
G01*
%TO.C,H3*%
X183790000Y-95885000D02*
G75*
G03*
X183790000Y-95885000I-3450000J0D01*
G01*
%TO.C,H2*%
X80285000Y-64135000D02*
G75*
G03*
X80285000Y-64135000I-3450000J0D01*
G01*
%TO.C,H1*%
X98700000Y-33147000D02*
G75*
G03*
X98700000Y-33147000I-3450000J0D01*
G01*
%TO.C,C3*%
X166175000Y-31710000D02*
G75*
G03*
X166175000Y-31710000I-4250000J0D01*
G01*
%TO.C,C2*%
X108390000Y-50205000D02*
G75*
G03*
X108390000Y-50205000I-4250000J0D01*
G01*
D11*
%TO.C,U3*%
X152400000Y-48006000D02*
X152400000Y-63106000D01*
X139700000Y-48006000D02*
X139700000Y-63106000D01*
X152400000Y-48006000D02*
X139700000Y-48006000D01*
X152400000Y-63106000D02*
X139700000Y-63106000D01*
%TO.C,JHC_VALVES1*%
X182712000Y-74168000D02*
X170512000Y-74168000D01*
X170512000Y-43688000D02*
X182712000Y-43688000D01*
X182712000Y-43688000D02*
X182712000Y-74168000D01*
X170512000Y-43688000D02*
X170512000Y-74168000D01*
%TO.C,JD_VALVE1*%
X182966000Y-90678000D02*
X170766000Y-90678000D01*
X170766000Y-75438000D02*
X182966000Y-75438000D01*
X182966000Y-75438000D02*
X182966000Y-90678000D01*
X170766000Y-75438000D02*
X170766000Y-90678000D01*
%TO.C,J_12V1*%
X182880000Y-36830000D02*
X168880000Y-36830000D01*
X182880000Y-27830000D02*
X168880000Y-27830000D01*
X168880000Y-36830000D02*
X168880000Y-27830000D01*
X182880000Y-36830000D02*
X182880000Y-27830000D01*
%TO.C,U6*%
X134531500Y-60833000D02*
X134531500Y-43883000D01*
X112331500Y-60833000D02*
X112331500Y-43883000D01*
X112331500Y-43883000D02*
X134531500Y-43883000D01*
X112331500Y-60833000D02*
X134531500Y-60833000D01*
%TO.C,U7*%
X183896000Y-100355000D02*
X166946000Y-100355000D01*
X183896000Y-122555000D02*
X166946000Y-122555000D01*
X166946000Y-122555000D02*
X166946000Y-100355000D01*
X183896000Y-122555000D02*
X183896000Y-100355000D01*
%TD*%
M02*
